<svg xmlns="http://www.w3.org/2000/svg" viewBox="0 0 332.27 332.18" xmlns:v="https://vecta.io/nano"><style><![CDATA[.AO{fill:#e74d4c}.AP{fill:#c8d0df}.AQ{fill:#e16e65}]]></style><path d="M332.26 27.5v108.87c-1.64 1.49-3.78 1-5.67 1.31-4.36.61-8.76 1-13.16 1.33-3.21.24-6.39.77-9.62.75-9.39.66-18.8.76-28.2.9-2.05 0-4.11-.07-6.16-.13-2.13-.66-4.33-.28-6.5-.38h-2.52c-6.23-.61-12.49-.56-18.71-1.48-3.31-.49-6.73-.32-10-1.17-6.16-2.39-12.49-4.33-18.63-6.83-14.84-6-29-13.32-41.15-22 1 .73 2.88 2.09 4.81 3.36a3.72 3.72 0 0 1 1.81 3.51c-.07 2.72 0 5.44 0 8.16 0 .72.1 1.48-.54 2a3.87 3.87 0 0 1-2.87-.31c-2.24-.73-4.59-1.18-6.61-2.51a1.67 1.67 0 0 1-.29-.6c-.55-2.7-.17-5.42-.26-8.14v-5c0-.71.39-1.92-.68-2a2.25 2.25 0 0 0-2.41 1.94 10.52 10.52 0 0 0-.07 1.59v7.17a4.88 4.88 0 0 1-.47 2.71 1.86 1.86 0 0 1-2.34.28c-2-.8-4-1.48-6-2.26-8.16-3.38-16.21-7-24-11.11a166 166 0 0 1-18.63-11.13c-.64-.45-1.25-1.1-2.09-.36a38 38 0 0 0-3.87 2.22 60.74 60.74 0 0 0-3.1 7.94l-5.15 13.14-6 13.17-6 12c-2.69 4.65-5.08 9.48-8 14-3.36 5.74-7 11.29-10.86 16.7a215.41 215.41 0 0 1-15.46 19.42 5.9 5.9 0 0 0-1.23 1.78 27.6 27.6 0 0 1 2.87-3.61c1.17-1 1.58-.87 2 .78-.08-3 .13-3.59 2-5.43.43-.43.87-.92 1.53-.67s.46.88.49 1.39c0 .27 0-.07 0 .2v5.18c-.12-2.21.07-4.81-.13-7.42-.12-1.64 1.11-2.86 2.43-3.64s1.28.36 1.28 1.2v9.12c-.15-3.28.17-7.19-.16-11.1-.14-1.72 1.19-2.89 2.37-4 .64-.58 1.25-.19 1.49.6a5.23 5.23 0 0 1 .08 1.58v13.86c-.1-4.9.16-10.88-.12-16.85a4.94 4.94 0 0 1 1-3c.65-.88 1.06-2.32 2.41-2 1.58.38 1 1.93 1.08 3.05v-.2a9.31 9.31 0 0 0 0-2.18c-.85-3.13 1-5.3 2.6-7.58.26-.38.63-.77 1.14-.59a1.15 1.15 0 0 1 .66 1.13v1.59 17.63c-.15-6.08.22-13.63-.15-21.18a4.85 4.85 0 0 1 1-2.94 25.77 25.77 0 0 0 1.65-2.71c.14-.23 0 .06.08-.18.34-.75.82-1.52 1.69-1.39 1 .15.79 1.17.88 1.92v19.52 20.09-34.34-9.36c.65-2.53 2.28-4.57 3.48-6.82a.86.86 0 0 1 1-.52c.6.18.71.73.72 1.28v6.16 47.36q0-11.91 0-23.82v-20.04c-.1-3.94.21-7.88-.19-11.81a4 4 0 0 1 .55-2.27c1-2.28 2.21-4.5 3.34-6.74.32-.63.68-1.45 1.58-1.17s.67 1.06.68 1.7v14.47q0 13 0 25.92v20.89q0-17.81 0-35.6v-29.75a2.85 2.85 0 0 1 .37-1.72c1.09-2.52 2.26-5 3.42-7.49.34-.73.59-1.76 1.81-1.07a4.63 4.63 0 0 1 .36 2.72v23.9c-.1 16 .78 32 .41 45v-49.84q0-12.88 0-25.76c.16-2.24 1.36-4.13 2.13-6.16l4.32-11.32c.23-.62.3-2.21 1.76-1a2.85 2.85 0 0 1 .35 1.53c0 5.89.15 11.77-.09 17.66a23.51 23.51 0 0 1 .12 2.78v56.15a23.41 23.41 0 0 1-.12 2.78c.23 9.55.08 19.11.09 28.66a2.85 2.85 0 0 1-2.89 2.93 248.84 248.84 0 0 1-10.8 2.54l-34.35 7.95-28.22 6.48c-8.52 2.24-17.15 4-25.72 6.08l-3.48.81a2.45 2.45 0 0 1-2.43-.37v-209c.46-2.91.49-5.87 1.71-8.67A32.7 32.7 0 0 1 21.89.92C24 .21 26.19.47 28.31 0h275.57c2.92.46 5.88.43 8.7 1.65A33 33 0 0 1 330.75 20c1.08 2.39 1.09 5 1.51 7.5zm0 187.44v78.56a5.89 5.89 0 0 1-3.7.33l-35.38-3.6-33-3.42-14.43-1.5q-25.62-2.46-51.2-5.19c-7.48-.56-14.91-1.56-22.37-2.2-2.09-.18-2.8-1-2.81-3.09q0-20.83 0-41.67a3.61 3.61 0 0 1 .27-1.75c.72-.84 1.82-.77 2.73-1.15l29.47-3 33.82-3.46 30.85-3.17c1.17-.13 2.39.18 3.52-.35l34.37-3.43 25.08-2.59a3 3 0 0 1 2.78.68zM.06 303.87v-35.09a2.66 2.66 0 0 1 2.63-.38l29.32 6.08a2.62 2.62 0 0 0 .79 0c8.18 1.43 16.25 3.36 24.42 4.86 2 .36 3.9.81 5.85 1.21 7.24 1.28 14.46 2.68 21.63 4.33 6.15 1 12.18 2.5 18.29 3.62l8 1.58 30 6q5.55 1.08 11.09 2.26l41.92 8.33a8.32 8.32 0 0 0 2.3.56c8.68 1.51 17.28 3.43 25.91 5.19l23.56 4.78 46.3 9.18q7.62 1.5 15.23 3.05c1 .2 2.18.17 2.7 1.36-.54 1.16-1.68.75-2.58 1s-1.59-.1-2.31.33H27.56a26.33 26.33 0 0 1-16.71-7C4.63 319.69.29 313.11.24 304.4a.72.72 0 0 0-.18-.53z" class="AO"/><path d="M309.85 330.93l-18.83-3.92q-22.27-4.5-44.55-8.94a5.1 5.1 0 0 1-.74-.28 2.36 2.36 0 0 1-.44-1.87q0-14.69 0-29.38c0-.66-.12-1.34.45-1.85q11.67 1.13 23.33 2.26 12.75 1.26 25.49 2.58 14.82 1.52 29.64 3.05a70.7 70.7 0 0 1 8.07.93v12c-1.28 12-8.34 19.67-18.69 24.83-1.13.52-2.33 1.36-3.73.59z" fill="#291d45"/><path d="M.06 259.61v-11.17a3.23 3.23 0 0 1 2.17-.83l27.67-2.82 29.24-3 7.52-.68c5.77-.76 11.58-1.22 17.37-1.81l17.57-1.79c1.86-.16 3.78-.89 5.6.22a3.2 3.2 0 0 1 .55 2.08v24.12c-.21 2.16.59 4.4-.51 6.48a2.47 2.47 0 0 1-2.2.66l-16.2-1.68A29.66 29.66 0 0 1 85 269c-3.2-.43-6.43-.61-9.63-1-4.25-.58-8.58-.47-12.8-1.38l-31.08-3.2-29.3-3a3.19 3.19 0 0 1-2.13-.81z" class="AO"/><path d="M332.26 214.94c-5 .11-9.89.87-14.83 1.35l-37.77 3.83-9.5.84a1.7 1.7 0 0 1-2.44-1.74c-.14-8.81-.2-17.62 0-26.43a1.9 1.9 0 0 1 .27-.74c.88-1.39 2.44-1.24 3.74-1.48l28.17-5.22 25.65-4.58c1.62-.25 3.22-.66 4.85-.89a2 2 0 0 1 1.84.37z" fill="#2e2860"/><path d="M332.26 160.3v12.76c-.86 1.11-2.17 1.21-3.39 1.45l-52.7 10.54-70.05 14.07c-1.33.27-2.7.89-4 0-.88-1.16-.61-2.52-.62-3.82a38 38 0 0 1 .3-4.52 1.64 1.64 0 0 1 1.22-1.11 10.61 10.61 0 0 0 1.54-.41 6.59 6.59 0 0 1 1.8-.44l8.82-2.09c.81 0 1.58-.34 2.4-.35.74-.31 1.55-.4 2.29-.71l6.91-1.63a9.19 9.19 0 0 1 1.8-.4 62.2 62.2 0 0 1 6.58-1.55 6.07 6.07 0 0 0 1.74-.37 10.47 10.47 0 0 1 2.32-.56c.61 0 1.16-.33 1.77-.35 3.91-1.13 7.88-2 11.87-2.84a6.93 6.93 0 0 0 1.2-.26 8.41 8.41 0 0 0 1.79-.39c3.93-1.12 7.93-2 11.92-2.86.53 0 1-.34 1.5-.37 1.69-.4 3.36-.83 5.07-1.15.61-.09 1.18-.33 1.79-.43 2.53-.59 5.05-1.27 7.61-1.74a22.85 22.85 0 0 0 2.71-.68l10.13-2.32a8.27 8.27 0 0 0 1.77-.41c1.08-.26 2.12-.64 3.21-.84a12.4 12.4 0 0 0 2.1-.42q8.43-2 16.87-4a7.46 7.46 0 0 0 1.87-.42c2.35-.6 4.72-1.09 7.07-1.65.92-.19 1.92-.5 2.79.27z" fill="#42c0f0"/><path d="M202.27 199l15.38-2.95q29.49-5.88 59-11.81 27.44-5.52 54.85-11.07a7 7 0 0 1 .79-.08v6c-1.95 1.56-4.41 1.3-6.63 1.73l-35.8 6.6-37.29 6.94-28.26 5.14-34.66 6.4-20.87 3.7-18.06 3.2c-3.82.76-7.68 1.31-11.48 2.11-6.13 1.3-12.32 2.26-18.48 3.38l-18.86 3.35-23.11 4.29-5.82 1.06c-1 .2-2.67.85-2.81-1.29a4 4 0 0 1 2.67-1.16l21.67-4.22c6.11-1.44 12.32-2.39 18.45-3.75 4.45-1 8.84-2.21 13.37-2.8l36.83-7.4c12-2.79 24.17-5 36.27-7.47a3.94 3.94 0 0 1 2.85.1z" fill="#271d45"/><path d="M66.67 241.68l-13.4 1.52-38.17 3.88c-5 .48-10 1.25-15 1.36v-7.58c1.31-1.08 3-1 4.5-1.31l43.31-8.22 26.41-4.68q15.81-2.72 31.56-5.81c1-.19 2.05-.7 3.07 0 0 1.74-1.43 1.75-2.49 2l-13.3 2.48-23.29 4.32c-1.75.33-2.51 1.11-2.42 2.93.11 2.19 0 4.38 0 6.57a3.36 3.36 0 0 1-.78 2.54z" fill="#29204d"/><path d="M108.94 220.93l-30.43 5.61-36.68 6.75-35.29 6.64c-2.13.39-4.25 1.08-6.47.94v-1.2a3.72 3.72 0 0 1 2.26-1.13l29.21-5.81 28.75-5.66c.39-.07.74-.28 1.13-.36l6-1.25c.93-.19 2-.6 2.8.29.43 1.19 1.45.82 2.21.68l26.36-4.85 28.93-5.1c5.81-.91 11.55-2.3 17.36-3.25 6-1 11.91-2.36 17.94-3.2 6.4-.88 12.72-2.29 19.08-3.46l23.62-4.36q22.67-4.21 45.28-8.34l36.72-6.7 23.95-4.39 20.58-3.73v1.2l-14.66 2.47q-15 2.72-30 5.53l-19.11 3.59a4.63 4.63 0 0 1-2.86 1.22q-23.66 4.35-47.31 8.7-4.89.88-9.77 1.83a5.63 5.63 0 0 0-2.54.28 2.7 2.7 0 0 1-.94.11c-1.91.41-3.87.55-5.75 1.12a3.08 3.08 0 0 1-.61.06 15.78 15.78 0 0 0-3.54.72 2.38 2.38 0 0 1-.92.12 11.35 11.35 0 0 0-3.59.76 26.3 26.3 0 0 1-7 1.23 17.29 17.29 0 0 0-4 .71c-.22 0-.43 0-.65.05-4.7.94-9.45 1.62-14.12 2.71a3.12 3.12 0 0 1-1 .08c-11.07 2.36-22.25 4.15-33.36 6.29l-18 3.34c-1.16.22-2.46.83-3.58-.24z" fill="#271d45"/><path d="M.06 259.61c5.19.2 10.33.93 15.49 1.48l13.54 1.28a5.19 5.19 0 0 1 2.49.49 1.87 1.87 0 0 1 .67 1.19c.29 3.68-.14 7.39.51 11.05-4.52-.48-8.9-1.67-13.36-2.5L.05 268.78q.02-4.59.01-9.17z" fill="#a2374e"/><g class="AO"><path d="M332.26 137.57v12c-.71.82-1.73.65-2.61.67-2.61 0-5.27.65-7.82-.44a2 2 0 0 1-.54-1.64v-7.74a2 2 0 0 1 1.9-2.26l7.8-1a1.55 1.55 0 0 1 1.27.41z"/><path d="M332.26 160.3L322 162.53a1.58 1.58 0 0 1-.69-1.34v-9.24a1.66 1.66 0 0 1 .36-.9 2.59 2.59 0 0 1 1.81-.7c2.38-.08 4.77.1 7.15-.21a1.87 1.87 0 0 1 1.62.58q.01 4.8.01 9.58z"/></g><path d="M31.56 233.28c-5.59 1.5-11.32 2.35-17 3.55L.03 239.67v-2.39c5.16-.8 10.18-2.27 15.27-3.38l16.23-3.7a2.25 2.25 0 0 1 .03 3.08z" fill="#3f63ac"/><path d="M321.93 151.17l.07 11.36-1.28.15c-1.16-1-.75-2.36-.83-3.61a62.51 62.51 0 0 0 .12-9.28l-.05-1.06a60.69 60.69 0 0 0 .13-6.47 2.55 2.55 0 0 0-.77-1.95c-2.12-.46-4.2.07-6.27.26l-6.91.54a2.65 2.65 0 0 1-2.24-.58 1 1 0 0 1 0-1.34c8.87-.59 17.71-1.57 26.53-2.69.59-.07 1.19-.08 1.78-.12v1.2c-3 .39-5.91.89-8.88 1.13-1.39.11-1.61.67-1.57 1.85l.11 9a1.22 1.22 0 0 1 .06 1.61z" fill="#fffefe"/><path d="M321.93 151.17v-1.65h10.35v1.2z" fill="#f3b7ac"/><path d="M111 95.52c.56-1.46 1.33-.61 2-.14a187.85 187.85 0 0 0 25.44 14.75c5.76 2.86 11.73 5.23 17.57 7.89.28.48.4 1-.1 1.39a2.84 2.84 0 0 1-2.32-.07c-1.08-.36-1.48.12-1.52 1.13v2.19q0 37.93 0 75.88a8 8 0 0 1-.42 3.72 1.42 1.42 0 0 1-2.08.45c-1-1.11-.72-2.51-.72-3.8l.07-76.73c0-3.58-.87-5.61-4.35-6.82-3.23-1.12-3.26-1.33-3.26 2.17v83.9a14.73 14.73 0 0 1-.17 3.18c-.51.91-1.22.89-2 .42-1-1.15-.65-2.53-.65-3.83q0-42 0-83.93c0-5-.25-5.35-5-7.19-1.13-.44-1.64-.19-1.67 1v2.19q0 45 0 89.91c0 1.25.23 2.54-.48 3.7-.49.52-1 .85-1.74.38-.92-1.16-.61-2.55-.61-3.84q0-45 0-90.08v-2c0-3.44-1.47-5.35-4.78-6.3-.68-.2-1 0-1.1.67a20 20 0 0 0 0 2.19q0 48.53 0 97.05c0 1.31.24 2.67-.43 3.92a1.23 1.23 0 0 1-1.71.5c-1-1.13-.68-2.52-.68-3.82q0-46.33 0-92.66c0-2.39-.11-4.79 0-7.17a4.38 4.38 0 0 0-2.4-4.56 32.47 32.47 0 0 1-5.86-4.1 1.55 1.55 0 0 1-1.03-1.54z" fill="#98a7be"/><path d="M203.53 190.14c-.43.14-.95.05-1.26.5a.55.55 0 0 1-.68-.17c-.75-1-.54-2.16-.54-3.27q0-24.62 0-49.24c0-4.36 0-4-3.76-4.89-.32-.07-.61-.26-.94-.33l-1.48-.23c-1.11-.2-2.18-.58-3.28-.83-1.76-.41-2-.23-2.06 1.52v1.59q0 27.5 0 55a7.57 7.57 0 0 1-.39 3.53c-.78 1.09-1.72 1.64-3 .85-.81-1-.59-2.27-.59-3.45q0-27.93 0-55.87v-2.19c0-2.34-.27-2.66-2.55-3.33a24 24 0 0 1-3.21-1 8.73 8.73 0 0 0-2.13-.58c-1.1-.27-1.64.14-1.62 1.3v1.79q0 31 0 62.09c0 1.25.21 2.53-.46 3.71a1.46 1.46 0 0 1-2.09.46c-.95-1.07-.67-2.39-.67-3.62q0-31.09 0-62.18a20 20 0 0 1 0-2.19c.21-2-.54-3.19-2.51-3.62a3 3 0 0 1-1.06-.53 6 6 0 0 1-.57-.42c-.4-.64-1.08-1.33.24-1.73l9 2.76a1.73 1.73 0 0 1 1.2-.36l7.32 2.21a10.54 10.54 0 0 1 1.47.37l6.49 1.67a5.88 5.88 0 0 0 2.07.46l8.26 1.89a6.47 6.47 0 0 1 1.9.32c1.88.51 4 .18 5.54 1.86a1.34 1.34 0 0 1-.13 1.31c-1.8 1.05-3.5 0-5.23-.28a3.32 3.32 0 0 0-2.2-.09c-.83.68-.47 1.61-.47 2.43q0 25.08 0 50.17c-.14.86.13 1.83-.61 2.61z" fill="#aeb8cb"/><path d="M107 182.24q0-20.07-.06-40.15l.06-21.66a4.07 4.07 0 0 1 4.93-.09 3.85 3.85 0 0 1 .61 2.66q0 28.31 0 56.61a3.13 3.13 0 0 1-5.54 2.63z" fill="#2c2355"/><path d="M211.83 135.14V134c1.13-.82 2.34-.29 3.52-.19a6.75 6.75 0 0 0 2.22.4 38.39 38.39 0 0 0 7.15 1.1l6.67 1.41c5.76 1.24 11.63 1.5 17.47 2 3.87.35 7.76.57 11.64.85a1 1 0 0 1 0 1.35 3.35 3.35 0 0 1-2.52.47c-1.4-.2-2 .58-2 1.81 0 .92-.06 1.85-.06 2.78q0 14.49 0 29a10.54 10.54 0 0 1-.13 2.57l-.09.35c-.45.48-1 .29-1.59.34-.83-.81-.56-1.86-.56-2.83q0-14.61 0-29.23c0-1.13 0-2.25-.12-3.37.14-1.08-.4-1.55-1.44-1.66l-9.34-1c-1.08-.16-2.17-.28-3.26-.38-.76-.07-1.61-.16-1.89.88-.2 5.44-.06 10.87-.08 16.3v22.45a5.88 5.88 0 0 1-.49 2.9c-.45.41-1 .25-1.54.28-1-.84-.81-2-.81-3.13q0-17.67 0-35.35c0-.73-.06-1.46 0-2.18.15-1.68-.72-2.44-2.25-2.64a18 18 0 0 1-3.5-.65c-1 .05-1.91-.43-2.9-.27-1.32-.08-2.62-.38-3.94-.5-1.13-.1-1.62.32-1.68 1.39v2.19 41.6a6.88 6.88 0 0 1-.49 3.3l-1.85.53a1.48 1.48 0 0 1-.49-.59 9.15 9.15 0 0 1-.17-2.76q0-21.57 0-43.14a9 9 0 0 0-.22-2.75c-.13-.64-.39-1.12-1.17-1-1.53-.25-3.2.18-4.09-1.49z" class="AP"/><path d="M120.8 209.3l1.35-.37a4.14 4.14 0 0 1 3.39-1.05c3.14 2 3.34 3.38.95 6.6-4.08.73-8.13 1.59-12.18 2.49-5.8 1.29-11.63 2.41-17.47 3.51-.74.14-1.45.75-2.27.34-1.5-1.34-1.63-3-.39-5.07 3.59-1.31 7.4-1.73 11-2.77l1.71-.47c1.32-1.3 3.1-1.35 4.76-1.73 2.28-.54 4.54-1.16 6.85-1.6.8-.18 1.58-.45 2.3.12z" fill="#3992d0"/><path d="M94.18 215.74c.16 1.69-.38 3.43.39 5.07-2.32 1.09-4.9 1.07-7.35 1.64-5.22 1.23-10.52 2.17-15.78 3.21a7.84 7.84 0 0 1-1.19.08c-3 .11-5.77 1.57-8.79 1.55-1.56.57-1.76-.54-2-1.61a2.43 2.43 0 0 1 .38-2.07l33.35-7.84a5.44 5.44 0 0 1 .99-.03z" fill="#3986c7"/><path d="M111.73 211.32a20.23 20.23 0 0 1-4.79 1.18l.06-30.26h4.65a2.45 2.45 0 0 1 .88 2.3q0 12.21 0 24.43a2.86 2.86 0 0 1-.8 2.35z" fill="#271d47"/><path d="M260.49 140.73v-1.13l2.4.07c2.12.32 4.27-.18 6.38.27 11.57.14 23.13-.23 34.68-.76v1.12c-.91 1.2-2.3 1.12-3.57 1.23s-1.6.62-1.62 1.74c0 1.83.12 3.66-.09 5.49a11.89 11.89 0 0 0 0 1.79c.28 5.27.08 10.54.12 15.81a9 9 0 0 1-.45 1.71l-1.51.2a2.09 2.09 0 0 1-.84-1.9c0-5.26-.17-10.53.09-15.79a14 14 0 0 1 0-1.83 51.61 51.61 0 0 1-.14-5.56c0-1.05-.46-1.66-1.58-1.52-4.82.6-9.67.18-14.5.28-3 .07-3 0-3 3a15.08 15.08 0 0 1-.15 1.78v1.47c.27 7.66.09 15.31.1 23a2.67 2.67 0 0 1-.84 2 1.69 1.69 0 0 1-1.45.33c-1-.64-.92-1.69-.92-2.67v-22.51a9.57 9.57 0 0 0 .14-1.78c-.45-1.4.59-3.29-.79-4.24-1.14-.79-2.83-.12-4.25-.46a13.93 13.93 0 0 0-5.89-.24 2.45 2.45 0 0 1-2.32-.9z" fill="#e8ebf2"/><path d="M217.43 134.77c-.69-.08-1.43.21-2.06-.29.18-1.09-.53-1.56-1.36-1.9l-5.11-2.16c-1.21-.53-2-.59-2 1.09a1.64 1.64 0 0 1-.59 1.22l-1.64-.37a1.89 1.89 0 0 1-.67-1.6c.18-1.92-.89-2.9-2.5-3.56-1-.43-2-1-3-1.49s-1.4-.19-1.46.93.41 2.68-.72 3.75c-.67-.09-1.4.16-2-.35l.06-4.77a2.1 2.1 0 0 0-1-2 28.33 28.33 0 0 0-5-2.37 36.38 36.38 0 0 0-.15 4.85c0 .92.09 1.88-.68 2.61l-1.33-.42c-1.06-1.26-.88-2.83-.63-4.18.72-4-1.45-6-4.67-7.33a1.11 1.11 0 0 0-.9-.06c-.24 2.16 0 4.4-.13 6.62 0 1 .16 2-.82 2.7l-1.21-.13.1-10.75a2.28 2.28 0 0 0-1.31-2l-6.33-4.47c-.53-.38-1.6-.73-.9-1.6.54-.66 1.22.1 1.7.47A155 155 0 0 0 191.69 120a234.15 234.15 0 0 0 37.69 15.94c.69.23 1.34.53 2 .8a43.14 43.14 0 0 1-6.8-.75c-1.66-.63-3.42-.86-5.11-1.38a1.93 1.93 0 0 0-2.04.16z" fill="#c38f91"/><path d="M156 119.31v-1.29l7.86 2.75.29.2a1.7 1.7 0 0 1 0 1.74 4.77 4.77 0 0 0-.4 2.53c.27 23.7-.67 47.4-.39 71.1a6 6 0 0 0 .26 2.75.84.84 0 0 1-.32 1c-.94.44-1.88.91-2.77-.1a143.3 143.3 0 0 1 0-17.09c.07-1.12.18-2.25.18-3.37v-42.82c0-3.92.56-7.8.47-11.73 0-1.92-.55-3.11-2.48-3.71-1.04-.33-2.37-.53-2.7-1.96z" fill="#a3b1c6"/><path d="M111.66 120.42H107q-.08-9.75-.14-19.51c-.88-1.12.27-2.19.09-3.29a21.23 21.23 0 0 1 4-2.1l.79.84a5 5 0 0 1 .76 3v18.13c.04 1.07.21 2.2-.84 2.93z" fill="#302962"/><path d="M59.85 223.61l.43 2.69c.08.9.53 1 1.18 1l-17.05 3.55-12.85 2.43v-3.08z" fill="#3673b9"/><path d="M69 175a4.94 4.94 0 0 0-.75 2.82v17.54 1.4c0 .47.11 1.47-.61 1.48s-.52-.92-.53-1.44v-16-2.6c-1.56 1.55-2.84 2.73-2.81 4.81v11.56c0 .65.15 1.33-.56 2v-13.1l-.56-.13c-1.2 1.18-2.52 2.25-2.46 4.29v7.18c0 .61.26 1.3-.61 2.11v-9.17c-4.07 2-3.36 5.65-3.61 9-.83-1.32-.26-2.73-.67-4.16-1.55.59-2.22 2-2.92 3.24-.4.7-.22 1.56-1.48 1.24-.4-.1-1 1.11-1.46.51s.43-1.09.81-1.53c6-6.91 11.77-14 17.13-21.37.36-.06.81-.11 1.09.32z" fill="#df776e"/><path d="M163.86 120.77v-11.75c0-1.17 3.2-3.67 4.27-3.32.7.23.42.9.42 1.37v15.34c-2 .88-3.31-.19-4.58-1.47a.23.23 0 0 0-.11-.17z" fill="#312861"/><path d="M99.72 145.5q0 17.24 0 34.46 0 10 0 19.92c0 .62.23 1.3-.25 1.91-.94-.29-.9-1-.91-1.77v-3.79l-.41-70.69a2.85 2.85 0 0 0-.31-1.92.57.57 0 0 1 .4-.78c.41-.13.59.21.72.49a4.23 4.23 0 0 1 .2 1.77v11.15c0 8.44-.41 16.88-.2 23.6v-12.37c.04-.7-.36-1.65.76-1.98z" class="AQ"/><path d="M69 175a1.21 1.21 0 0 1-1.16-.39q5.37-8.17 10.75-16.35c.51-.24.74.05.9.47 0 .13 0 .3-.09.38-2.65 3-2.44 6.65-2.39 10.31v18.1q0 .8-.06 1.59a.47.47 0 0 1-.51.48.51.51 0 0 1-.47-.54c0-.53-.05-1.06-.05-1.59v-22.03c-3.26 2.8-3.51 6.32-3.28 10a.78.78 0 0 1-1.15 0 2.54 2.54 0 0 0 0-.39c-.12-.72.37-1.81-.56-2.06-.77-.21-.95.91-1.41 1.42-.22.21-.37.43-.52.6z" fill="#db8b81"/><path d="M79.49 158.77l-.9-.47 7.89-14a.92.92 0 0 1 1.23 0c-.62 2.86-.16 5.76-.29 8.63l-.06 5.32a.7.7 0 0 1-1.09 0v-10.13l-.41-.17-3.7 6.76a14.37 14.37 0 0 0-.13 3.14c0 .66-.09 1.24-1 .85-.11-.41.19-1.13-.26-1.2-.77-.11-.86.83-1.28 1.27z" fill="#dba7a0"/><path d="M99.72 145.5a4.06 4.06 0 0 0-.29 2.33l-.1 15.33c0 .65.15 1.32-.7 1.94v-28.76a2.45 2.45 0 0 0 .34-1.71c-.19-4.34.44-8.7-.37-13a2.94 2.94 0 0 1 .27-1.74c.17-.36.38-.65.83-.66q0 13.14.02 26.27z" fill="#ddb3ac"/><path d="M93.35 163.88v38c-1.26-.39-1.16-1.28-1.16-2.1v-21.14a3.33 3.33 0 0 0 .39-2.29v-10.51c.04-.69-.39-1.66.77-1.96zm-11.17.4v37.58c-1.26-.38-1.16-1.28-1.16-2.09v-21.12a3.33 3.33 0 0 0 .39-2.29v-10.31c.04-.65-.32-1.55.77-1.77z" class="AQ"/><path d="M93.35 163.88c-.68 1.17-.31 2.45-.34 3.68l-.05 9.3c0 .68.25 1.52-.77 1.78v-26.33a1.82 1.82 0 0 0 .39-1.29v-13.85c0-.54-.24-1-.27-1.55-.06-.85-.11-1.76 1-2q.01 15.11.04 30.26z" fill="#db8c82"/><path d="M93.33 133.59a3.76 3.76 0 0 0-.3 2.31l-.09 14.44c0 .71.38 1.66-.74 2V136.9l-.42-.16-4.07 7.6h-1.23l6.06-12a.81.81 0 0 1 1.16 0l-.37 1.25z" fill="#e1bfbb"/><path d="M87.37 178.62c0 8.5.17 17-.12 25.5h-1v-25.5a.83.83 0 0 1 1.12 0z" class="AQ"/><path d="M93.7 132.37h-1.16q3-6.63 6-13.25a.88.88 0 0 1 .83.48q0 7.65 0 15.29c0 .57.15 1.25-.68 1.45l-.11-12.36c0-.23.36-1.76-.67-.37q-2.15 4.39-4.21 8.76z" fill="#f0e1de"/><path d="M99.32,119.6a.93.93,0,0,1-.83-.48c2.6-6.86,5.55-13.59,7.75-20.6.11-.34.47-.6.72-.9,1.21,1.13-.22,2.19-.09,3.29l-7.18,18.3Z" fill="#fefdfd"/><path d="M71.46 175.45h1.15v22.43c-1.25-.39-1.14-1.29-1.14-2.1l-.01-20.33z" fill="#df776e"/><path d="M87.37 178.62h-1.13q0-10.17 0-20.33h1.09q.02 10.16.04 20.33z" fill="#da8d83"/><path d="M82.18 164.28c-.7 1.31-.3 2.72-.33 4.08v8.51c0 .68.25 1.52-.78 1.78v-19.94c1-.25.72-1.07.78-1.74s-.19-1.57.35-2.25z" fill="#db8b81"/><path d="M164 120.93l4.58 1.47.26.36c-.5.24-.09.84-.46 1.13l-.17.23a5.84 5.84 0 0 1-4.15-1.32.85.85 0 0 1-.22-.5l.16-1.37z" fill="#6491c0"/><path d="M269.27 139.94c-2.13-.05-4.28.35-6.38-.27a30.91 30.91 0 0 1 6.38.27z" class="AP"/><path d="M183.52 207.38l7.17-1.2a7.81 7.81 0 0 0 3.59-.79h.79a7.61 7.61 0 0 0 3.6-.79h.39a16.83 16.83 0 0 0 6-1.2h.79a4.78 4.78 0 0 0 2.39-.39c4.67-1.23 9.45-1.9 14.19-2.79q20.18-3.78 40.36-7.47c1.88-.35 3.78-.59 5.67-.89v26.85c0 1.24.09 2.31 1.71 2.27l-13.41 1.51q-17 1.77-34 3.48l-25.89 2.57-23.46 2.4a8.18 8.18 0 0 1-1 0c-1.38.53-2.24 0-2.39-1.41-.18-1.72-1.17-2.24-2.7-2.19a15.73 15.73 0 0 1-3.35-.4c-2-.38-2.68-1.08-2.75-3-.1-3.18 0-6.36 0-9.55 0-2 1.23-2.78 2.8-3.36h.79a101.7 101.7 0 0 0 14.36-2.78h.39a8.17 8.17 0 0 0 3.96-.87z" fill="#2e265c"/><path d="M164 211c-2.35 1.37-2.06 3.63-2 5.84v7.34c0 1.28.38 2 1.8 2s2.85.49 4.32.39c1.81-.12 2.76.79 2.65 2.61-.07 1.24.33 1.91 1.66 1.78a6.55 6.55 0 0 1-2.44.4 3.52 3.52 0 0 0-.2 2v41.62c0 1.81.83 3.44.68 5.28-.21 2.58-.56 3.1-3.11 3.43-1.82.23-3.66.88-5.42-.24a3.19 3.19 0 0 1-.71-2.39c0-3.74-.11-7.49.09-11.23-.21-7-.07-14-.07-21a15.79 15.79 0 0 0-1-6.21 18 18 0 0 0-8.46-9.09 36.31 36.31 0 0 0-13.3-3.87 31.09 31.09 0 0 1 8.09 1.8c1 .44 2.35.75 2.36 2.3-1.61 1.39-3.66 1-5.5 1.18l-19.17 2a3 3 0 0 0-2.53 1.63 13.19 13.19 0 0 0-2 6.18 3.08 3.08 0 0 1-.88 2.55 11.4 11.4 0 0 1-7.58-.14c-.69-.78-.5-1.75-.5-2.66v-16.68a4.8 4.8 0 0 0-.68-3c-1.82-.35-2.24-.11-2.29 1.56-.08 2.92 0 5.84 0 8.76 0 1 .13 2-.86 2.71q-19.6 2-39.21 4h-1V231.5a2 2 0 0 1 1.75-2.5l24.56-4.52 14-2.64c.69-.13 1.5-.12 1.86-.94l18.55-3.34q17.85-3.29 35.7-6.61a5.48 5.48 0 0 1 .84.05z" fill="#2c2353"/><path d="M245.73 284.69a12.87 12.87 0 0 1 .4 3.33q0 13.32 0 26.64a10.32 10.32 0 0 1-.41 3.13l-16.77-3.22q-16-3.18-31.95-6.42a4.53 4.53 0 0 1-.74-.29c-1.38-.82-1.62-2.13-1.62-3.6q0-9.54 0-19.07a13.1 13.1 0 0 0-.38-4.53c-.15-.41-.38-1.06.48-1.15l19.2 1.79q13 1.29 25.91 2.66l5.88.73z" fill="#391f47"/><path d="M194.74 279.51c1.08 2.4.71 4.94.72 7.44q0 8.25 0 16.51a8.14 8.14 0 0 0 .81 4.4l-15-2.85q-14.09-2.79-28.16-5.64c-.39-.08-.76-.23-1.14-.34-1.52-.52-1.57-1.82-1.59-3.1-.09-5.11.06-10.22 0-15.32 0-1.19 0-2.39-.09-3.58-.13-1.38.29-2.36 1.82-2.57a11.06 11.06 0 0 1 5.95.88c.92 1.06.75 2.37.7 3.6-.06 1.66.11 3.05 2.14 3.36.46.07.74.54 1.08.85 2.13.22 4.21-.41 6.33-.41 1 0 1.26-.51 1.25-1.38v-6q0-20.91 0-41.81c0-.76-.29-1.61.42-2.25q0 12.15-.09 24.3v19.32c0 1.42.37 2 1.81 2.14l17.22 1.7 5.82.75z" fill="#482349"/><path d="M151.7 275.11c-.75.14-.91.65-.87 1.33.41 6.48.08 13 .17 19.45a4.55 4.55 0 0 0 1 3.13l-20.47-4-19.87-4a4.16 4.16 0 0 1-.73-.3 3.42 3.42 0 0 1-.75-3.39 2.07 2.07 0 0 1 1.29-.43c1.44-.21 2.87-.52 4.32-.59a2.13 2.13 0 0 0 2.33-2.51c-.06-3.18 0-6.35 0-9.53a4 4 0 0 1 .67-2.83 2.78 2.78 0 0 1 2.09-.35c7.83.65 15.64 1.48 23.44 2.34l5.32.53c.83.09 1.75.04 2.06 1.15z" fill="#5b274b"/><path d="M110.12 287.61c1.24.78.69 2 .81 3.11-5.3-.66-10.47-2-15.71-3-3.55-.66-7.07-1.51-10.6-2.27a3.45 3.45 0 0 1-1.6-3.21v-11.11c0-1.3 0-2.94 2.08-2.83 6.68.38 13.31 1.24 20 1.92.59.06 1.19.08 1.79.12 1.42 1.36.77 3.05.75 4.64a47.54 47.54 0 0 1 .08 7.16c-.15 2.33.14 4.29 2.4 5.47z" fill="#6f2b4c"/><path d="M32.77 275.1c-1.29-1.71-1.25-3.69-1.21-5.69v-6.55c3.59-.14 7.1.64 10.66.9 4.67.34 9.33.9 14 1.45 2.15.26 4.36.13 6.46.82a2.56 2.56 0 0 1 .79 2l.05 11.93a1.53 1.53 0 0 1-.47 1.26l-15.47-2.93-14.81-3.19z" fill="#8a314d"/><path d="M63.06 281.19c-.8-3.91-.21-7.87-.38-11.8v-3.36l18.94 1.86c1.17.12 2.41-.22 3.51.44-1.31.43-1.28 1.59-1.29 2.61v11.7c0 1.06.66 1.86.82 2.83Q77 284 69.36 282.54c-2.12-.42-4.21-.9-6.3-1.35z" fill="#7a2e4d"/><path d="M106.88 237.71c0-3.76.26-7.53 0-11.26-.17-2.37.89-3 2.8-3.1h1.37c.2 5.89 0 11.77.11 17.66.16 6.86.55 13.72.38 20.59a5.89 5.89 0 0 1-.31 2.73c-1.85 1.21-2.83 1.14-4.2-.33q0-11.76-.07-23.51l-.08-2.78z" fill="#478cca"/><path d="M107 264c1.24.67 2.58.3 3.88.37.75.57.61 1.41.62 2.18v6.32c0 1 .18 2.22-1 2.75a2.89 2.89 0 0 1-3.47-.48l-.13-4.78.1-6.36z" fill="#3473b9"/><path d="M211.83 135.14c1.34.74 2.9.44 4.29.91 1.38 1.85.56 4 .61 6l-.12 4.17-.2 38.61c0 1 .12 2-1 2.58l-9.13 2a3 3 0 0 1-.81-2.56q0-25 0-49.93c0-1-.18-2.19 1.2-2.61zm41.4 43.38L241 181.35c-.77-.56-.65-1.39-.65-2.18q0-18.1 0-36.22c0-2.47.53-2.86 2.83-2.25l8.47 2.09a2.29 2.29 0 0 1 2.07 2.63q0 15.63 0 31.25a2.26 2.26 0 0 1-.49 1.85zm14.83-3.52l-12.39 2.88v-.11a2.75 2.75 0 0 1-.21-1.74q0-14.92 0-29.86c0-2.29.1-2.41 2.39-2l8.77 1.63a2.14 2.14 0 0 1 2 2.32v25.28a2.11 2.11 0 0 1-.56 1.6zm-48.32 11.36c-.61-.52-.38-1.23-.38-1.87l-.05-45.82c0-1.77.51-2.19 2.15-1.81s3.14.5 4.71.74a2.08 2.08 0 0 1 1.6 2.22v2.59 39c0 1.12.15 2.29-.81 3.16z" class="AO"/><path d="M163.18 199.82l.35-.38a1 1 0 0 1 .38-.49 14.47 14.47 0 0 1 4.77-1.39c1.62-.35 3.18-1.28 4.92-.56a2.51 2.51 0 0 0 1.55-.42 3.53 3.53 0 0 1 2.22-1.06 17.24 17.24 0 0 0 3-.72l3.83-.92a2.17 2.17 0 0 1 2.06.26 6.54 6.54 0 0 0 2.48-.74c1.78-1.57 4.18-1.29 6.22-2.09a6.79 6.79 0 0 1 1.26-.16c1.85-.28 3.59-1.52 5.57-.59l.48.09c.41 2.78-.27 5.57 0 8.35l-15.11 3.2c-7.6 1.57-15.25 2.89-22.79 4.74a4.34 4.34 0 0 1-1.19 0 11.53 11.53 0 0 1 0-7.12z" fill="#3ab0e4"/><path d="M228.6 138l4.92.66c1.65.1 1.86.89 1.86 2.31v41.64l-6.76 1.59a2.79 2.79 0 0 1-.81-2.35v-41.5a2.76 2.76 0 0 1 .79-2.35zm92.04 21.14l.08 3.54c-5.68 1.69-11.51 2.79-17.27 4.15a1.67 1.67 0 0 1-1.05-1.75c-.07-4.24-.1-8.49 0-12.73A2.19 2.19 0 0 1 305 150c4.3.16 8.6.35 12.9.34 2.35 0 2.57.3 2.62 2.65a46.7 46.7 0 0 0 .12 6.15zm-23.9-8.79q0 9 .07 17.93c-3.43 1.08-6.95 1.74-10.45 2.52-1.34.07-1.5-1-1.51-1.86v-18c0-1.77.77-2.33 2.53-2.18l7.29.62a2.71 2.71 0 0 1 2.07.97zM276 173.11q0-12.56.07-25.12c1-1.09 2.15-.27 3.2-.21 5.39.34 5.54.54 5.54 5.86v14.74a4.46 4.46 0 0 1-.79 3c-2.68.54-5.28 1.45-8.02 1.73zm-1.56-25.17q0 12.75.1 25.5a18.1 18.1 0 0 1-5.28 1.21c-.8-.56-.61-1.41-.61-2.18q0-11.62 0-23.24c0-2.31.81-3 3-2.59 1.04.19 2.24.12 2.79 1.3z" class="AO"/><path d="M236.89 182.33a1.77 1.77 0 0 1-.27-1.32V139.7c2.86-.41 3.68.23 3.68 2.91q0 18.3 0 36.59c0 1 .09 2-1 2.61z" fill="#e74e4d"/><path d="M239.35 181.8a3.63 3.63 0 0 0 .39-2.5q0-17.93 0-35.85c0-3.14 0-3.14-3.09-3.77 2-1 3.93-.5 5.91-.09 2.79.77 5.68 1 8.51 1.59 1.09.23 2.25.27 3 1.23q0 17.93 0 35.84l-.85.27q0-16.65.08-33.29c0-1.06-.38-1.48-1.44-1.71l-9.46-2.35c-1.11-.3-1.5-.14-1.5 1.11q.08 19.54.07 39.08z" fill="#d1a09f"/><path d="M206.66 134.3a1.57 1.57 0 0 0-.46 1.45l.06 53.65-1.63.38c-.7-.53-.57-1.3-.57-2q0-25.9 0-51.8c0-.72-.09-1.49.63-2 .65.11 1.36-.12 1.97.32z" fill="#c78d8d"/><path d="M274.44 147.94c-5-1.59-5.14-1.47-5.14 3.46v23.25a1.63 1.63 0 0 1-1.21.39l.06-26.68c0-1.15-.38-1.67-1.49-1.87l-9.36-1.8c-1.55-.37-1.6.28-1.6 1.45q0 15.83 0 31.65c-.67-.49-.41-1.22-.41-1.84q0-16.94 0-33.87c0-1.85.36-2 2.81-1.35-.23.57-1 .66-1.24 1.23.52.84 1.38.8 2.12.95 4.23.86 8.48 1.59 12.73 2.28a4.09 4.09 0 0 1 2.69 1.13q.04.81.04 1.62z" fill="#dca8a1"/><path d="M228.6,138q0,23.1,0,46.2l-1.63.4q0-22.57.07-45.16a1.83,1.83,0,0,0-.87-1.84Z" fill="#cf908e"/><path d="M215.39 187.36c.68-1.31.4-2.74.4-4.11l.1-37.86.23-9.34c.58 0 1.19-.13 1.67.34a4.36 4.36 0 0 0-.18 2.15l-.05 20.51c-.23 8.36-.09 16.71-.15 25.07 0 .84-.22 1.74.41 2.49a2.74 2.74 0 0 1 .05.28z" fill="#c78d8d"/><path d="M204.68 134q0 27.9-.05 55.8l-1.09.36c0-.53-.12-1.06-.12-1.59q0-26.61 0-53.21c.01-.68-.63-2.29 1.26-1.36z" class="AO"/><path d="M284 171.38l.09-20.8a1.53 1.53 0 0 0-1.58-1.79l-6.47-.8v-1.29c1.1-1 2.4-.47 3.59-.35l15.11 1.56a2.9 2.9 0 0 1 2 .8v1.64l-10.05-1.07c-.93-.11-1.18.27-1.17 1.09q0 9.65 0 19.28a1 1 0 0 0 .84 1.15c-.69.54-1.6.2-2.36.58z" fill="#e2aca4"/><path d="M298.32 168.08c-.57-1-.27-2.08-.27-3.12v-14.53a2.58 2.58 0 0 1 3.12-.46c1.08.42 1.15 1.52 1.16 2.55v12.36a2.89 2.89 0 0 1-.74 2.2z" fill="#e74f4d"/><path d="M301.61 167.08q0-6.65 0-13.3c0-3.58 0-3.58-3.59-3.35v-1.75a13.38 13.38 0 0 1 6.09-.28c4.56.5 9.12.2 13.68.32 1 0 2-.07 2.78.75a86.83 86.83 0 0 1 0 9.68c-.62-2.08-.21-4.21-.25-6.32 0-1.25-.34-1.75-1.69-1.76q-6.87-.07-13.73-.38c-1.48-.06-2 .38-1.95 1.89.09 4.12 0 8.24 0 12.36a2.6 2.6 0 0 0 .39 1.9 2.71 2.71 0 0 1-1.73.24z" fill="#ecb4aa"/><path d="M163.18 199.82a16.22 16.22 0 0 1 0 7.07l-21.57 4.42q-7.56 1.56-15.11 3.15a3.6 3.6 0 0 1 .25-1.31c1.06-1.57 1.2-2.93-.57-4.09-.24-.16-.33-.56-.48-.84a3.09 3.09 0 0 1 3.91-.94l1.31-.37a12.5 12.5 0 0 1 8.28-2c.57 0 1.16.18 1.67-.25a1.68 1.68 0 0 1 1.36-1c2.45-.48 4.78-1.8 7.4-1.11a2.09 2.09 0 0 0 1.59-.37c1.77-1.76 4.26-1.47 6.4-2.2 1-.34 2.14-.8 3.16.12a8.47 8.47 0 0 1 2.4-.28z" fill="#36a6df"/><path d="M179.13 208.17c-1.23 1.61-3.24 1.25-4.83 1.59l-8.06 1.44c-.54.1-1 .2-1.47-.25 3.85-1.23 7.9-1.48 11.82-2.39.83-.19 1.69-.26 2.54-.39zm25.92-4.78a7.38 7.38 0 0 1-6 1.2 34 34 0 0 1 6-1.2zm-21.53 3.99a3.35 3.35 0 0 1-4 .8 12.17 12.17 0 0 1 4-.8zm15.15-2.8a2.94 2.94 0 0 1-3.6.79 8.62 8.62 0 0 1 3.6-.79zm-4.39.8a3 3 0 0 1-3.59.79 8.54 8.54 0 0 1 3.59-.79zm13.96-2.38c-.72.62-1.45 1.17-2.39.39.7-.68 1.58-.33 2.39-.39z" fill="#2c2353"/><path d="M320.61 149.47a112.08 112.08 0 0 1-14.89-.15c-2.55-.2-5.18.28-7.67-.64v-6.69c0-.92.3-1.26 1.24-1.3l4.69-.39a124.72 124.72 0 0 0 13.37-1c1-.11 2-.07 3-.1.47 2.41.09 4.84.21 7.26a11 11 0 0 0 .11 2.36c-.06.18-.06.42-.06.65z" class="AO"/><path d="M320.61 148.8c-.65-3.19-.08-6.42-.32-9.62.87 1.24.35 2.63.4 3.95.07 1.87-.05 3.78-.08 5.67z" fill="#ecb4aa"/><g class="AO"><path d="M111.66 120.42q0-10.74.07-21.48l.07-2.58 8 5.16c1.13.68 1 1.6 1 2.57q0 22.71 0 45.43 0 29.89 0 59.78a80.55 80.55 0 0 1-9.06 2q0-14.53-.07-29.08 0-20.07.06-40.15l-.07-21.65zm49.1 79.72l-9.56 2.07c0-.73-.11-1.45-.11-2.18q0-40 0-79.93c0-2.71 0-2.7 2.46-1.7l2.42.91 4.58 1.79a1.75 1.75 0 0 1 1.38 2l-.47 58.87-.22 16.1c-.05.72.17 1.5-.48 2.07zm-11.15 2.44l-8.76 2.11c-.66-.5-.4-1.22-.4-1.85q0-44.16 0-88.32c0-.51.06-1 .1-1.76l8.47 3.75c.7.31.63.94.63 1.53V200l-.04 2.58zm-10.42 2.35a62 62 0 0 1-8.28 2v-97.9c0-.26.05-.52.1-1.06l7.51 3.73a1.13 1.13 0 0 1 .67 1.12v1.79q-.02 45.17 0 90.32zm-9.6 2.36l-3.91.94a17.05 17.05 0 0 1-3.54.69v-12.35V103l6.92 3.88c.84.47.56 1.28.56 2v14.75q-.02 41.81-.03 83.66zm56.67-13.16l-5.9 1.32c-1.23.4-1.74-.17-1.83-1.33v-1q0-31.56 0-63.12c0-.9-.4-2.07 1-2.45a45.73 45.73 0 0 0 4.42 1.18c1.92.33 2.51 1.23 2.5 3.22l-.06 49-.13 13.18zm8.86-2.27a24.56 24.56 0 0 1-6.38 1.53v-62.3a7.16 7.16 0 0 1 .12-.93c2.15.57 4.33.75 6.29 1.78a2.88 2.88 0 0 1 .56 2.25v55.42a3 3 0 0 1-.59 2.25zM173.61 197l-5 1.13c-.83-.87-.69-2-.69-3v-33.67c.26-11.49 0-23 .19-34.46 0-1-.23-2 .48-2.88 5 1.44 5 1.44 5 6.63v63.88c.08.78.04 1.57.02 2.37z"/><path d="M201.79 190.55l-5.47 1.18c-.76-.57-.64-1.4-.64-2.19v-55.31c0-.79-.1-1.62.64-2.19 1.84.46 4.25.16 5.38 1.54s.29 3.45.29 5.23q0 24.58 0 49.17c.01.86-.14 1.71-.2 2.57z"/></g><path d="M168.65 124.11q0 31.05 0 62.09v11.94l-4.74 1.17c-.62-.57-.51-1.33-.51-2.05v-35a11.92 11.92 0 0 1 .4-3.14 1.9 1.9 0 0 1 1.56-.75c1.95.05 2.22-1.13 2.21-2.72q0-14 0-28c0-1.21-.34-2.55.79-3.54a.28.28 0 0 0 0-.22.62.62 0 0 0 .29.22z" fill="#2f214f"/><path d="M177.51 196.16l-2.35.43q0-34.34 0-68.68c0-2 0-2 2.83-.73a2.87 2.87 0 0 1 .55 2.25v64.15c-.01.99.08 2.01-1.03 2.58z" class="AO"/><path d="M177.51 196.16c.65-.82.42-1.78.42-2.69q0-33.15 0-66.3c.53.09 1.11 0 1.57.39-.55.63-.35 1.39-.35 2.1q0 31.8 0 63.59c0 .88-.48 2.14 1.17 2.2-.83.55-1.89.36-2.81.71z" fill="#c0898c"/><path d="M179.07 125.66l.09-9.73c0-1.16.28-1.53 1.3-.74a.62.62 0 0 0 .17.11c4.67 1.68 6.66 4.86 5.65 9.83a15.12 15.12 0 0 0-.06 2.78c-2.41-.67-4.92-1.02-7.15-2.25z" class="AO"/><path d="M196.31 132q0 29.85 0 59.69l-1.2.13-.09-2.78q0-27.27 0-54.55l.09-2.58z" fill="#c68d8e"/><path d="M187.55 128.33v-8.9l6.82 3.52c.22.11.5.36.51.56a20.53 20.53 0 0 1-.12 6.26c0 .12-.33.18-.51.27zm8.71 2.06v-5.15c0-1 .4-1.14 1.19-.76l6.42 3.08c1 .48.85 1.38.85 2.22l-.07 2.57a53.65 53.65 0 0 1-8.39-1.96z" class="AO"/><path d="M206.27 132.73c-.33-4.23-.33-4.23 3.49-2.67l5.3 2.22c1.22.54 1.75 1.26.3 2.2l-3.53-.49z" fill="#e74e4d"/><path d="M274.42 146.32c-5.75-.72-11.43-1.86-17.11-3-.95-.19-1.81-.36-1.63-1.69s1.17-.69 1.84-.86a3.81 3.81 0 0 1 .59-.07h2.38l2.24.07c2 .41 4.08 0 6.11.25a23.7 23.7 0 0 0 3.57.07c1.87-.25 2.32.55 2.11 2.22-.12 1.01-.07 2.02-.1 3.01z" class="AO"/><path d="M217.83 186.6c-1.41-.24-.8-1.36-.79-2.06l.31-36.57v-9.54c0-.69-.29-1.48.41-2A13.77 13.77 0 0 1 218 138q0 23.64 0 47.28a12.46 12.46 0 0 1-.17 1.32z" fill="#e6514f"/><path d="M254.12 142.41a49.24 49.24 0 0 1-11.55-2.82l10.28.76c1.64.08 1.3 1.11 1.27 2.06z" fill="#e65350"/><path d="M217.43 134.77c-.11-1-.05-1.81 1.31-1.15 1.89.92 4.07 1.14 5.85 2.35a45.55 45.55 0 0 1-7.16-1.2z" fill="#e55955"/><path d="M296.73 148.71c-6.2-.17-12.34-1.09-18.5-1.76l-2.16-.25c-.44-5.48-.44-5.43 4.88-5.48 4.63 0 9.27.07 13.89-.39 1.57-.16 2.08.35 2 1.93-.19 1.97-.1 3.96-.11 5.95z" class="AO"/><path d="M268.83 141.06a27.67 27.67 0 0 1-6.1-.25c2.04.02 4.09-.39 6.1.25z" class="AP"/><path d="M164 159.1q0 12.24-.09 24.48v15.73l-.35.13c-1-.07-.81-.87-.81-1.48q.17-25.17.34-50.33l.13-23.68c0-.54-.64-1.52.63-1.65a.19.19 0 0 0 .11.16 3.08 3.08 0 0 1 .85 2.54q0 15.76 0 31.54a3.14 3.14 0 0 1-.81 2.56z" fill="#e55250"/><path d="M164,159.1q0-18.32,0-36.64a19.3,19.3,0,0,1,4.4,1.65q0,16.08,0,32.17c0,2.83,0,2.83-2.78,2.83Z" fill="#2e265c"/><path d="M151.7 275.11l-13.6-1.53q-9.58-1-19.18-2a2.55 2.55 0 0 1-.83-2.32v-20a3.15 3.15 0 0 1 .75-2.38 15.07 15.07 0 0 1 2.39-9.27 3 3 0 0 1 2.51-1.58l24.16-2.41a6.29 6.29 0 0 0 1-.24c1-.49 1.64.19 2.33.67 3 2.14 4.93 5.15 6.49 8.43a8.16 8.16 0 0 1 1.06 3.79l-.05 23.39a24.42 24.42 0 0 1 .1 3.92 2.09 2.09 0 0 1-.93 2l-6.2-.47z" class="AO"/><path d="M118.84 246.84q0 12.35.08 24.69v13.34c0 1.36-.5 2-1.74 2.09l-5.92.56c-.25-.31-.6-.61-.61-1-.12-3.7-.59-7.41.26-11.07a9.93 9.93 0 0 0 .2-2.16v-24.32c0-.71-.24-1.46.24-2.12z" fill="#271d46"/><path d="M158 269.58l-.07-19.4c0-2.78 0-5.53-1.13-8.13 1.15-1.63 2.48-1.13 3.84-.33a11.86 11.86 0 0 1 1.37 5.89l-.11 22c-1.36 1.31-2.07 1.31-3.9-.03z" fill="#3160aa"/><path d="M111.38 246.83q-.06 20.34-.11 40.69l-1.16.09a9.33 9.33 0 0 0-1.18-.18c-1.55 0-2.12-.71-2-2.34l.11-9.94c4.57 0 3.84.53 3.91-3.84v-6.93q0-19.12.08-38.24l.07-2.78c.51.72.26 1.54.26 2.3q0 10.58.02 21.17z" fill="#3158a3"/><path d="M160.65 241.71c-1.26.29-2.62-.47-3.84.33-1.93-3.56-4.32-6.7-7.95-8.7-3.32-2.22-7.11-3.06-11.4-3.8 10.37-.27 19.67 4.24 23.19 12.17z" fill="#154793"/><path d="M158 269.58c1.3-.14 2.6.9 3.9 0l.06 13.53c-4-.49-4-.49-4-4.41l-.1-3.15q.07-2.98.14-5.97z" fill="#2b4d9c"/></svg>