
<?xml version="1.0" encoding="utf-8"?>
<!-- Generator: Adobe Illustrator 24.0.2, SVG Export Plug-In . SVG Version: 6.00 Build 0)  -->
<svg version="1.1" id="Capa_1" xmlns="http://www.w3.org/2000/svg" xmlns:xlink="http://www.w3.org/1999/xlink" x="0px" y="0px"
	 viewBox="0 0 595.28 841.89" style="enable-background:new 0 0 595.28 841.89;" xml:space="preserve">
<style type="text/css">
	.st0{fill:#E74D4C;}
	.st1{fill:#291D45;}
	.st2{fill:#2E2860;}
	.st3{fill:#42C0F0;}
	.st4{fill:#271D45;}
	.st5{fill:#29204D;}
	.st6{fill:#A2374E;}
	.st7{fill:#3F63AC;}
	.st8{fill:#FFFEFE;}
	.st9{fill:#F3B7AC;}
	.st10{fill:#98A7BE;}
	.st11{fill:#AEB8CB;}
	.st12{fill:#2C2355;}
	.st13{fill:#C8D0DF;}
	.st14{fill:#3992D0;}
	.st15{fill:#3986C7;}
	.st16{fill:#271D47;}
	.st17{fill:#E8EBF2;}
	.st18{fill:#C38F91;}
	.st19{fill:#A3B1C6;}
	.st20{fill:#302962;}
	.st21{fill:#3673B9;}
	.st22{fill:#DF776E;}
	.st23{fill:#312861;}
	.st24{fill:#E16E65;}
	.st25{fill:#DB8B81;}
	.st26{fill:#DBA7A0;}
	.st27{fill:#DDB3AC;}
	.st28{fill:#DB8C82;}
	.st29{fill:#E1BFBB;}
	.st30{fill:#F0E1DE;}
	.st31{fill:#FEFDFD;}
	.st32{fill:#DA8D83;}
	.st33{fill:#6491C0;}
	.st34{fill:#2E265C;}
	.st35{fill:#2C2353;}
	.st36{fill:#391F47;}
	.st37{fill:#482349;}
	.st38{fill:#5B274B;}
	.st39{fill:#6F2B4C;}
	.st40{fill:#8A314D;}
	.st41{fill:#7A2E4D;}
	.st42{fill:#478CCA;}
	.st43{fill:#3473B9;}
	.st44{fill:#3AB0E4;}
	.st45{fill:#E74E4D;}
	.st46{fill:#D1A09F;}
	.st47{fill:#C78D8D;}
	.st48{fill:#DCA8A1;}
	.st49{fill:#CF908E;}
	.st50{fill:#E2ACA4;}
	.st51{fill:#E74F4D;}
	.st52{fill:#ECB4AA;}
	.st53{fill:#36A6DF;}
	.st54{fill:#2F214F;}
	.st55{fill:#C0898C;}
	.st56{fill:#C68D8E;}
	.st57{fill:#E6514F;}
	.st58{fill:#E65350;}
	.st59{fill:#E55955;}
	.st60{fill:#E55250;}
	.st61{fill:#271D46;}
	.st62{fill:#3160AA;}
	.st63{fill:#3158A3;}
	.st64{fill:#154793;}
	.st65{fill:#2B4D9C;}
</style>
<g>
	<path class="st0" d="M433.77,257.48c0,36.29,0,72.58,0,108.87c-1.64,1.49-3.78,1.05-5.67,1.31c-4.36,0.61-8.76,0.99-13.16,1.33
		c-3.21,0.24-6.39,0.77-9.62,0.75c-9.39,0.66-18.8,0.76-28.2,0.9c-2.05,0.03-4.11-0.07-6.16-0.13c-2.13-0.66-4.33-0.28-6.5-0.38
		c-0.84,0-1.68,0-2.52,0c-6.23-0.61-12.49-0.56-18.71-1.48c-3.31-0.49-6.73-0.32-10.02-1.17c-6.16-2.39-12.49-4.33-18.63-6.83
		c-14.84-6.02-28.97-13.32-41.15-22.03c1.01,0.73,2.88,2.09,4.81,3.36c1.28,0.84,1.86,1.95,1.81,3.51
		c-0.07,2.72-0.02,5.44-0.02,8.16c0,0.72,0.1,1.48-0.54,2.04c-1.01,0.44-1.95-0.01-2.87-0.31c-2.24-0.73-4.59-1.18-6.61-2.51
		c-0.14-0.18-0.23-0.38-0.29-0.6c-0.55-2.7-0.17-5.42-0.26-8.14c-0.05-1.66,0.03-3.32-0.03-4.98c-0.03-0.71,0.39-1.92-0.68-1.97
		c-1.11-0.05-2.18,0.59-2.41,1.94c-0.09,0.52-0.06,1.06-0.07,1.59c-0.01,2.39,0.01,4.78-0.01,7.17c0,0.93,0.05,1.87-0.47,2.71
		c-0.69,0.8-1.54,0.6-2.34,0.28c-1.99-0.8-4.03-1.48-6.03-2.26c-8.16-3.38-16.21-7.02-24.05-11.11
		c-6.43-3.35-12.69-6.97-18.63-11.13c-0.64-0.45-1.25-1.1-2.09-0.36c-1.26,0.8-2.7,1.27-3.87,2.22c-1.37,2.51-2.1,5.28-3.1,7.94
		c-1.66,4.4-3.52,8.72-5.15,13.14c-1.97,4.41-4,8.78-6.01,13.17c-1.94,4.02-4.08,7.94-5.99,11.98c-2.69,4.65-5.08,9.48-8.02,13.98
		c-3.36,5.74-7,11.29-10.86,16.7c-4.71,6.82-10,13.19-15.46,19.42c-0.43,0.49-0.88,0.94-1.23,1.78c1.05-1.33,1.77-2.63,2.87-3.61
		c1.17-1.04,1.58-0.87,1.95,0.78c-0.08-3.01,0.13-3.59,1.96-5.43c0.43-0.43,0.87-0.92,1.53-0.67c0.62,0.24,0.46,0.88,0.49,1.39
		c0.02,0.27,0-0.07,0,0.2c0,1.86,0,3.72,0,5.18c-0.12-2.21,0.07-4.81-0.13-7.42c-0.12-1.64,1.11-2.86,2.43-3.64
		c1.17-0.7,1.28,0.36,1.28,1.2c0.02,3.25,0,6.51,0.01,9.12c-0.15-3.28,0.17-7.19-0.16-11.1c-0.14-1.72,1.19-2.89,2.37-3.95
		c0.64-0.58,1.25-0.19,1.49,0.6c0.16,0.51,0.08,1.06,0.08,1.58c0,4.98,0,9.96,0,13.86c-0.1-4.9,0.16-10.88-0.12-16.85
		c-0.05-1.12,0.42-2.06,1.01-2.96c0.65-0.88,1.06-2.32,2.41-2c1.58,0.38,0.95,1.93,1.08,3.05c0,6.29,0,12.59,0,18.89
		c0-6.36,0-12.73,0-19.09c-0.01-0.73,0.14-1.49-0.04-2.18c-0.85-3.13,1.04-5.3,2.6-7.58c0.26-0.38,0.63-0.77,1.14-0.59
		c0.48,0.17,0.63,0.65,0.66,1.13c0.04,0.53,0.02,1.06,0.02,1.59c0,6.36,0,12.73,0,17.63c-0.15-6.08,0.22-13.63-0.15-21.18
		c-0.05-1.1,0.42-2.03,1.03-2.94c0.58-0.88,1.18-1.76,1.65-2.71c0.14-0.23-0.02,0.06,0.08-0.18c0.34-0.75,0.82-1.52,1.69-1.39
		c1.03,0.15,0.79,1.17,0.88,1.92c0.01,6.51,0,13.02,0.01,19.52c0,6.69,0,13.39,0,20.09c-0.01-11.45,0.01-22.89,0-34.34
		c0-3.12,0-6.24,0-9.36c0.65-2.53,2.28-4.57,3.48-6.82c0.19-0.35,0.54-0.65,0.98-0.52c0.6,0.18,0.71,0.73,0.72,1.28
		c0.03,2.05,0.01,4.1,0.01,6.16c0,1.19,0,2.38,0,3.58c0,6.65,0,13.29,0,19.94c0,7.95,0,15.89,0,23.84c0.01-7.94,0-15.88,0-23.82
		c0-6.72,0-13.44,0-20.15c-0.1-3.94,0.21-7.88-0.19-11.81c-0.08-0.81,0.18-1.56,0.55-2.27c1.05-2.28,2.21-4.5,3.34-6.74
		c0.32-0.63,0.68-1.45,1.58-1.17c0.76,0.24,0.67,1.06,0.68,1.7c0.04,4.82,0.01,9.64,0.02,14.47c0,8.64-0.01,17.28,0,25.92
		c0,6.96,0,13.92,0,20.89c0-11.87,0.01-23.73,0-35.6c0-9.92,0-19.84,0-29.75c-0.07-0.62,0.08-1.19,0.37-1.72
		c1.09-2.52,2.26-5,3.42-7.49c0.34-0.73,0.59-1.76,1.81-1.07c0.55,0.85,0.36,1.8,0.36,2.72c0.02,7.97,0.05,15.93,0,23.9
		c-0.1,15.99,0.78,31.97,0.41,45c0.01-14.64-0.08-32.24,0-49.84c0-8.59,0-17.18,0.01-25.76c0.16-2.24,1.36-4.13,2.13-6.16
		c1.45-3.77,2.92-7.53,4.32-11.32c0.23-0.62,0.3-2.21,1.76-1.01c0.28,0.48,0.36,1,0.35,1.53c-0.02,5.89,0.15,11.77-0.09,17.66
		c0.11,0.93,0.12,1.85,0.12,2.78c0,18.72,0,37.43,0,56.15c0,0.93-0.01,1.86-0.12,2.78c0.23,9.55,0.08,19.11,0.09,28.66
		c0,0.47-0.09,0.92-0.29,1.35c-0.46,1.02-1.41,1.34-2.38,1.59c-3.58,0.92-7.18,1.78-10.8,2.54c-11.45,2.64-22.87,5.41-34.35,7.95
		c-9.41,2.16-18.76,4.54-28.22,6.48c-8.52,2.24-17.15,4.05-25.72,6.08c-1.16,0.27-2.32,0.57-3.48,0.81
		c-0.86,0.18-1.71,0.33-2.44-0.37c0-69.66,0-139.31,0-208.97c0.46-2.91,0.49-5.87,1.71-8.67c4.01-9.21,10.68-15.48,20.18-18.73
		c2.08-0.71,4.3-0.45,6.42-0.92c91.86,0,183.71,0,275.57,0c2.92,0.46,5.88,0.43,8.7,1.65c8.55,3.67,14.6,9.72,18.17,18.32
		C433.34,252.37,433.35,254.96,433.77,257.48z"/>
	<path class="st0" d="M433.77,444.92c0,26.19,0,52.38,0,78.56c-1.18,0.68-2.47,0.45-3.7,0.33c-11.79-1.22-23.59-2.36-35.38-3.6
		c-11-1.16-22.02-2.18-33.01-3.42c-4.8-0.54-9.63-0.88-14.43-1.5c-17.08-1.64-34.14-3.39-51.2-5.19c-7.48-0.56-14.91-1.56-22.37-2.2
		c-2.09-0.18-2.8-0.99-2.81-3.09c-0.03-13.89-0.02-27.78-0.01-41.67c0-0.6-0.02-1.2,0.27-1.75c0.72-0.84,1.82-0.77,2.73-1.15
		c9.82-1.03,19.65-2,29.47-3c11.27-1.15,22.55-2.26,33.82-3.46c10.28-1.09,20.58-1.99,30.85-3.17c1.17-0.13,2.39,0.18,3.52-0.35
		c11.47-0.99,22.91-2.29,34.37-3.43c8.36-0.83,16.73-1.62,25.08-2.59C432,444.1,432.99,444.11,433.77,444.92z"/>
	<path class="st0" d="M101.57,533.85c0-11.7,0-23.4,0-35.09c0.78-0.76,1.72-0.56,2.63-0.38c9.78,1.98,19.59,3.87,29.32,6.08
		c0.26,0.06,0.53,0.05,0.79,0.03c8.18,1.43,16.25,3.36,24.42,4.86c1.96,0.36,3.9,0.81,5.85,1.21c7.24,1.28,14.46,2.68,21.63,4.33
		c6.15,0.96,12.18,2.5,18.29,3.62c2.67,0.49,5.33,1.04,7.98,1.58c10.02,1.97,20.02,4.05,30.04,6.01c3.7,0.72,7.4,1.47,11.09,2.26
		c13.99,2.7,27.94,5.58,41.92,8.33c0.78,0.15,1.47,0.63,2.3,0.56c8.68,1.51,17.28,3.43,25.91,5.19c7.85,1.6,15.74,3.02,23.56,4.78
		c15.47,2.9,30.86,6.15,46.3,9.18c5.08,1,10.16,2.01,15.23,3.05c1,0.2,2.18,0.17,2.7,1.36c-0.54,1.16-1.68,0.75-2.58,1.02
		c-0.76,0.23-1.59-0.1-2.31,0.33c-92.52,0-185.04,0-277.57,0c-6.44-0.25-11.98-2.82-16.71-7c-6.22-5.49-10.56-12.07-10.61-20.78
		C101.77,534.19,101.7,534.01,101.57,533.85z"/>
	<path class="st1" d="M411.36,560.91c-6.28-1.31-12.55-2.65-18.83-3.92c-14.85-3-29.7-5.96-44.55-8.94
		c-0.26-0.05-0.49-0.19-0.74-0.28c-0.53-0.53-0.44-1.21-0.44-1.87c0.02-9.79,0.03-19.59-0.01-29.38c0-0.66-0.12-1.34,0.45-1.85
		c7.78,0.75,15.55,1.49,23.33,2.26c8.5,0.84,17,1.71,25.49,2.58c9.88,1.01,19.76,2.02,29.64,3.05c2.69,0.28,5.41,0.34,8.07,0.93
		c0,3.99,0,7.98,0,11.96c-1.28,12-8.34,19.67-18.69,24.83C413.96,560.84,412.76,561.68,411.36,560.91z"/>
	<path class="st0" d="M101.57,489.59c0-3.72,0-7.44,0-11.17c0.59-0.62,1.35-0.74,2.17-0.83c9.22-1.01,18.45-1.84,27.67-2.82
		c9.74-1.03,19.5-1.96,29.24-3.03c2.5-0.27,5.01-0.55,7.52-0.68c5.77-0.76,11.58-1.22,17.37-1.81c5.86-0.61,11.71-1.28,17.57-1.79
		c1.86-0.16,3.78-0.89,5.6,0.22c0.48,0.61,0.55,1.34,0.55,2.08c0,8.04,0.08,16.08-0.04,24.12c-0.21,2.16,0.59,4.4-0.51,6.48
		c-0.6,0.65-1.4,0.74-2.2,0.66c-5.4-0.53-10.8-1.1-16.2-1.68c-1.25-0.13-2.52-0.04-3.76-0.33c-3.2-0.43-6.43-0.61-9.63-1.05
		c-4.25-0.58-8.58-0.47-12.8-1.38c-10.36-1.04-20.73-2.02-31.08-3.2c-9.78-0.86-19.54-1.91-29.3-2.97
		C102.93,490.33,102.16,490.21,101.57,489.59z"/>
	<path class="st2" d="M433.77,444.92c-4.97,0.11-9.89,0.87-14.83,1.35c-12.6,1.22-25.18,2.56-37.77,3.83
		c-3.16,0.32-6.33,0.56-9.5,0.84c-1.58,0.49-2.41-0.39-2.44-1.74c-0.14-8.81-0.2-17.62,0.02-26.43c0.01-0.26,0.15-0.5,0.27-0.74
		c0.88-1.39,2.44-1.24,3.74-1.48c9.4-1.68,18.76-3.6,28.17-5.22c8.56-1.48,17.07-3.25,25.65-4.58c1.62-0.25,3.22-0.66,4.85-0.89
		c0.71-0.1,1.3-0.13,1.84,0.37C433.77,421.79,433.77,433.35,433.77,444.92z"/>
	<path class="st3" d="M433.77,390.28c0,4.25,0,8.51,0,12.76c-0.86,1.11-2.17,1.21-3.39,1.45c-17.57,3.5-35.14,6.96-52.7,10.54
		c-23.34,4.75-46.7,9.39-70.05,14.07c-1.33,0.27-2.7,0.89-4.04-0.03c-0.88-1.16-0.61-2.52-0.62-3.82c-0.01-1.51,0.13-3.02,0.3-4.52
		c0.2-0.6,0.62-0.95,1.22-1.11c0.54-0.01,1.01-0.32,1.54-0.41c0.59-0.17,1.17-0.44,1.8-0.44c2.91-0.84,5.86-1.46,8.82-2.09
		c0.81-0.01,1.58-0.34,2.4-0.35c0.74-0.31,1.55-0.4,2.29-0.71c2.28-0.64,4.58-1.2,6.91-1.63c0.61-0.08,1.16-0.44,1.8-0.4
		c2.18-0.59,4.35-1.2,6.58-1.55c0.59-0.07,1.19-0.13,1.74-0.37c0.76-0.27,1.53-0.47,2.32-0.56c0.61,0.01,1.16-0.33,1.77-0.35
		c3.91-1.13,7.88-2.04,11.87-2.84c0.42,0,0.8-0.19,1.2-0.26c0.6-0.11,1.22-0.15,1.79-0.39c3.93-1.12,7.93-1.98,11.92-2.86
		c0.53,0,0.98-0.34,1.5-0.37c1.69-0.4,3.36-0.83,5.07-1.15c0.61-0.09,1.18-0.33,1.79-0.43c2.53-0.59,5.05-1.27,7.61-1.74
		c0.88-0.32,1.86-0.25,2.71-0.68c3.37-0.79,6.73-1.63,10.13-2.32c0.59-0.12,1.21-0.16,1.77-0.41c1.08-0.26,2.12-0.64,3.21-0.84
		c0.7-0.17,1.43-0.13,2.1-0.42c5.62-1.35,11.24-2.66,16.87-3.96c0.64-0.07,1.27-0.19,1.87-0.42c2.35-0.6,4.72-1.09,7.07-1.65
		C431.9,389.82,432.9,389.51,433.77,390.28z"/>
	<path class="st4" d="M303.78,428.96c5.13-0.98,10.26-1.93,15.38-2.95c19.66-3.92,39.32-7.86,58.97-11.81
		c18.29-3.68,36.57-7.38,54.85-11.07c0.26-0.05,0.53-0.06,0.79-0.08c0,1.99,0,3.99,0,5.98c-1.95,1.56-4.41,1.3-6.63,1.73
		c-11.92,2.29-23.87,4.41-35.8,6.6c-12.44,2.28-24.86,4.64-37.29,6.94c-9.42,1.74-18.83,3.5-28.26,5.14
		c-11.58,2.02-23.1,4.3-34.66,6.4c-6.95,1.26-13.91,2.47-20.87,3.7c-6.02,1.07-12.07,2.01-18.06,3.2
		c-3.82,0.76-7.68,1.31-11.48,2.11c-6.13,1.3-12.32,2.26-18.48,3.38c-6.28,1.14-12.58,2.19-18.86,3.35
		c-7.7,1.42-15.41,2.81-23.11,4.29c-1.94,0.37-3.89,0.68-5.82,1.06c-1.02,0.2-2.67,0.85-2.81-1.29c0.68-0.87,1.7-0.97,2.67-1.16
		c7.22-1.42,14.41-3.01,21.67-4.22c6.11-1.44,12.32-2.39,18.45-3.75c4.45-0.98,8.84-2.21,13.37-2.8c12.24-2.64,24.53-5.05,36.83-7.4
		c12.03-2.79,24.17-5.02,36.27-7.47C301.85,428.68,302.82,428.39,303.78,428.96z"/>
	<path class="st5" d="M168.18,471.66c-4.47,0.51-8.93,1.05-13.4,1.52c-12.72,1.32-25.44,2.66-38.17,3.88
		c-5.01,0.48-9.99,1.25-15.04,1.36c0-2.53,0-5.05,0-7.58c1.31-1.08,2.99-1.03,4.5-1.31c14.46-2.69,28.89-5.54,43.35-8.22
		c8.79-1.63,17.6-3.17,26.41-4.68c10.54-1.81,21.07-3.74,31.56-5.81c0.96-0.19,2.05-0.7,3.07,0c0.04,1.74-1.43,1.75-2.49,1.96
		c-4.42,0.88-8.87,1.67-13.3,2.48c-7.77,1.41-15.54,2.83-23.29,4.32c-1.75,0.33-2.51,1.11-2.42,2.93c0.11,2.19,0.03,4.38,0.02,6.57
		C168.96,470.02,168.92,470.95,168.18,471.66z"/>
	<path class="st4" d="M210.45,450.91c-10.14,1.87-20.29,3.74-30.43,5.61c-12.23,2.25-24.46,4.47-36.68,6.75
		c-11.77,2.19-23.52,4.49-35.29,6.64c-2.13,0.39-4.25,1.08-6.47,0.94c0-0.4,0-0.8,0-1.2c0.6-0.69,1.4-0.97,2.26-1.13
		c9.74-1.9,19.46-3.95,29.21-5.81c9.58-1.89,19.12-4.01,28.75-5.66c0.39-0.07,0.74-0.28,1.13-0.36c2.02-0.37,4.02-0.83,6.03-1.25
		c0.93-0.19,1.95-0.6,2.8,0.29c0.43,1.19,1.45,0.82,2.21,0.68c8.79-1.59,17.57-3.26,26.36-4.85c9.63-1.75,19.25-3.58,28.93-5.1
		c5.81-0.91,11.55-2.3,17.36-3.25c6-0.98,11.91-2.36,17.94-3.2c6.4-0.88,12.72-2.29,19.08-3.46c7.87-1.45,15.75-2.91,23.62-4.36
		c15.09-2.78,30.18-5.57,45.27-8.34c12.24-2.24,24.48-4.46,36.72-6.7c7.98-1.46,15.97-2.93,23.95-4.39
		c6.86-1.25,13.72-2.49,20.58-3.73c0,0.4,0,0.8,0,1.2c-4.89,0.82-9.78,1.59-14.66,2.47c-10.02,1.81-20.03,3.67-30.03,5.53
		c-6.37,1.18-12.74,2.39-19.11,3.59c-0.77,0.85-1.81,1.03-2.86,1.22c-15.77,2.9-31.53,5.83-47.31,8.7c-3.26,0.59-6.52,1.2-9.77,1.83
		c-0.86-0.01-1.72-0.1-2.54,0.28c-0.3,0.11-0.62,0.11-0.94,0.11c-1.91,0.41-3.87,0.55-5.75,1.12c-0.2,0.04-0.4,0.06-0.61,0.06
		c-1.21,0.1-2.39,0.35-3.54,0.72c-0.3,0.1-0.6,0.14-0.92,0.12c-1.24,0.04-2.43,0.33-3.59,0.76c-2.28,0.69-4.59,1.17-6.97,1.23
		c-1.39-0.01-2.71,0.4-4.04,0.71c-0.22,0.03-0.43,0.04-0.65,0.05c-4.7,0.94-9.45,1.62-14.12,2.71c-0.33,0.12-0.67,0.07-1.01,0.08
		c-11.07,2.36-22.25,4.15-33.36,6.29c-5.98,1.15-11.98,2.21-17.96,3.34C212.87,451.37,211.57,451.97,210.45,450.91z"/>
	<path class="st6" d="M101.57,489.59c5.19,0.2,10.33,0.93,15.49,1.48c4.51,0.48,9.03,0.88,13.54,1.28c0.86,0.08,1.72,0,2.49,0.49
		c0.35,0.32,0.63,0.72,0.67,1.19c0.29,3.68-0.14,7.39,0.51,11.05c-4.52-0.48-8.9-1.67-13.36-2.5c-6.46-1.21-12.9-2.54-19.35-3.82
		C101.57,495.7,101.57,492.64,101.57,489.59z"/>
	<path class="st0" d="M433.77,367.55c0,3.99,0,7.98,0,11.96c-0.71,0.82-1.73,0.65-2.61,0.67c-2.61,0.04-5.27,0.65-7.82-0.44
		c-0.48-0.44-0.54-1.03-0.54-1.64c0-2.58,0.01-5.16-0.01-7.74c-0.01-1.32,0.48-2.01,1.9-2.26c2.59-0.46,5.22-0.53,7.8-0.99
		C432.99,367.03,433.41,367.24,433.77,367.55z"/>
	<path class="st0" d="M433.77,390.28c-3.42,0.74-6.84,1.48-10.26,2.23c-0.45-0.33-0.69-0.77-0.69-1.34c0-3.08-0.04-6.16,0.02-9.24
		c0.01-0.34,0.17-0.63,0.36-0.9c0.5-0.5,1.13-0.67,1.81-0.7c2.38-0.08,4.77,0.1,7.15-0.21c0.62-0.08,1.18,0.13,1.62,0.58
		C433.77,383.9,433.77,387.09,433.77,390.28z"/>
	<path class="st7" d="M133.07,463.26c-5.59,1.5-11.32,2.35-16.97,3.55c-4.83,1.02-9.69,1.9-14.53,2.84c0-0.8,0-1.6,0-2.39
		c5.16-0.8,10.18-2.27,15.27-3.38c5.42-1.19,10.82-2.46,16.23-3.7C133.78,461.2,133.99,462.23,133.07,463.26z"/>
	<path class="st8" d="M423.44,381.15c0.02,3.79,0.05,7.58,0.07,11.36c-0.43,0.05-0.85,0.1-1.28,0.15c-1.16-1-0.75-2.36-0.83-3.61
		c0.43-3.09,0.15-6.19,0.12-9.28c0.02-0.36-0.06-0.71-0.05-1.06c0.27-2.15,0.09-4.31,0.13-6.47c0.01-0.75-0.22-1.42-0.77-1.95
		c-2.12-0.46-4.2,0.07-6.27,0.26c-2.3,0.21-4.62,0.16-6.91,0.54c-0.78,0.13-1.59-0.01-2.24-0.58c-0.33-0.46-0.3-0.9,0.04-1.34
		c8.87-0.59,17.71-1.57,26.53-2.69c0.59-0.07,1.19-0.08,1.78-0.12c0,0.4,0,0.8,0,1.2c-2.96,0.39-5.91,0.89-8.88,1.13
		c-1.39,0.11-1.61,0.67-1.57,1.85c0.08,2.99,0.08,5.98,0.11,8.96C423.86,380.04,423.86,380.59,423.44,381.15z"/>
	<path class="st9" d="M423.44,381.15c0-0.55-0.01-1.1-0.01-1.65c3.45,0.01,6.9,0.02,10.35,0.02c0,0.4,0,0.8,0,1.2
		C430.33,380.86,426.88,381,423.44,381.15z"/>
	<path class="st10" d="M212.51,325.5c0.56-1.46,1.33-0.61,1.99-0.14c8.03,5.7,16.64,10.38,25.44,14.75
		c5.76,2.86,11.73,5.23,17.57,7.89c0.28,0.48,0.4,0.96-0.1,1.39c-0.78,0.4-1.56,0.19-2.32-0.07c-1.08-0.36-1.48,0.12-1.52,1.13
		c-0.03,0.73-0.02,1.46-0.02,2.19c0,25.29,0,50.59-0.01,75.88c0,1.25,0.17,2.53-0.42,3.72c-0.55,0.81-1.26,0.89-2.08,0.45
		c-1.03-1.11-0.72-2.51-0.72-3.8c-0.02-25.58-0.09-51.15,0.07-76.73c0.02-3.58-0.87-5.61-4.35-6.82c-3.23-1.12-3.26-1.33-3.26,2.17
		c0,27.97,0,55.93,0,83.9c0,1.06,0.06,2.13-0.17,3.18c-0.51,0.91-1.22,0.89-2.01,0.42c-0.96-1.15-0.65-2.53-0.65-3.83
		c-0.02-27.98-0.01-55.95-0.01-83.93c0-5.03-0.25-5.35-5.03-7.19c-1.13-0.44-1.64-0.19-1.67,1.01c-0.02,0.73-0.02,1.46-0.02,2.19
		c0,29.97,0,59.94-0.01,89.91c0,1.25,0.23,2.54-0.48,3.7c-0.49,0.52-1.03,0.85-1.74,0.38c-0.92-1.16-0.61-2.55-0.61-3.84
		c-0.02-30.03-0.01-60.05-0.01-90.08c0-0.66,0-1.33,0-1.99c-0.01-3.44-1.47-5.35-4.78-6.3c-0.68-0.2-1.02-0.02-1.1,0.67
		c-0.08,0.73-0.05,1.46-0.05,2.19c0,32.35,0,64.7-0.01,97.05c0,1.31,0.24,2.67-0.43,3.92c-0.45,0.59-0.98,0.89-1.71,0.5
		c-1-1.13-0.68-2.52-0.68-3.82c-0.02-30.89-0.01-61.77-0.01-92.66c0-2.39-0.11-4.79,0.03-7.17c0.12-2.09-0.53-3.48-2.4-4.56
		c-2.06-1.19-4.09-2.47-5.86-4.1C212.77,326.71,212.45,326.21,212.51,325.5z"/>
	<path class="st11" d="M305.04,420.12c-0.43,0.14-0.95,0.05-1.26,0.5c-0.27,0.11-0.49,0.05-0.68-0.17c-0.75-1-0.54-2.16-0.54-3.27
		c-0.02-16.41-0.01-32.83-0.01-49.24c0-4.36,0.02-4.04-3.76-4.89c-0.32-0.07-0.61-0.26-0.94-0.33c-0.5-0.06-0.99-0.14-1.48-0.23
		c-1.11-0.2-2.18-0.58-3.28-0.83c-1.76-0.41-1.99-0.23-2.06,1.52c-0.02,0.53,0,1.06,0,1.59c0,18.33,0,36.67-0.01,55
		c0,1.19,0.17,2.4-0.39,3.53c-0.78,1.09-1.72,1.64-3.03,0.85c-0.81-1.04-0.59-2.27-0.59-3.45c-0.02-18.62-0.01-37.25-0.01-55.87
		c0-0.73,0.01-1.46-0.01-2.19c-0.04-2.34-0.27-2.66-2.55-3.33c-1.08-0.32-2.18-0.57-3.21-1.04c-0.68-0.3-1.4-0.46-2.13-0.58
		c-1.1-0.27-1.64,0.14-1.62,1.3c0.01,0.6,0,1.19,0,1.79c0,20.7,0,41.39-0.01,62.09c0,1.25,0.21,2.53-0.46,3.71
		c-0.57,0.72-1.25,0.96-2.09,0.46c-0.95-1.07-0.67-2.39-0.67-3.62c-0.02-20.73-0.01-41.46-0.01-62.18c0-0.73-0.07-1.47,0.01-2.19
		c0.21-1.96-0.54-3.19-2.51-3.62c-0.38-0.08-0.73-0.3-1.06-0.53c-0.2-0.13-0.39-0.27-0.57-0.42c-0.4-0.64-1.08-1.33,0.24-1.73
		c3.01,0.92,6.02,1.84,9.03,2.76c0.36-0.25,0.75-0.41,1.2-0.36c2.44,0.72,4.92,1.35,7.32,2.21c0.52,0,0.97,0.3,1.47,0.37
		c2.17,0.54,4.34,1.05,6.49,1.67c0.64,0.38,1.37,0.33,2.07,0.46c2.77,0.54,5.51,1.24,8.26,1.89c0.66-0.06,1.27,0.19,1.9,0.32
		c1.88,0.51,4.05,0.18,5.54,1.86c0.18,0.46,0.15,0.9-0.13,1.31c-1.8,1.05-3.5,0.01-5.23-0.28c-0.72-0.25-1.45-0.34-2.2-0.09
		c-0.83,0.68-0.47,1.61-0.47,2.43c-0.02,16.72-0.01,33.44-0.02,50.17C305.55,418.37,305.78,419.34,305.04,420.12z"/>
	<path class="st12" d="M208.52,412.22c-0.02-13.38-0.06-26.77-0.06-40.15c0-7.22,0.04-14.44,0.06-21.66
		c1.62-1.22,3.27-1.09,4.93-0.09c0.65,0.78,0.61,1.73,0.61,2.66c0.02,18.87,0.01,37.74,0,56.61c0,0.93,0.04,1.87-0.58,2.67
		C211.81,413.33,210.16,413.44,208.52,412.22z"/>
	<path class="st13" d="M313.34,365.12c0-0.38,0-0.76,0-1.15c1.13-0.82,2.34-0.29,3.52-0.19c0.71,0.32,1.47,0.33,2.22,0.4
		c2.37,0.42,4.71,1.13,7.15,1.1c2.23,0.44,4.46,0.87,6.67,1.41c5.76,1.24,11.63,1.5,17.47,2.04c3.87,0.35,7.76,0.57,11.64,0.85
		c0.35,0.45,0.35,0.91-0.01,1.35c-0.76,0.6-1.64,0.54-2.52,0.47c-1.4-0.2-1.95,0.58-2.02,1.81c-0.05,0.92-0.06,1.85-0.06,2.78
		c0.01,9.66,0.01,19.31,0,28.97c0,0.86,0.08,1.72-0.13,2.57c-0.03,0.12-0.06,0.24-0.09,0.35c-0.45,0.48-1.05,0.29-1.59,0.34
		c-0.83-0.81-0.56-1.86-0.56-2.83c-0.02-9.74-0.01-19.49-0.01-29.23c0-1.13-0.03-2.25-0.12-3.37c0.14-1.08-0.4-1.55-1.44-1.66
		c-3.11-0.33-6.23-0.68-9.34-0.99c-1.08-0.16-2.17-0.28-3.26-0.38c-0.76-0.07-1.61-0.16-1.89,0.88c-0.2,5.44-0.06,10.87-0.08,16.3
		c-0.03,7.48-0.01,14.97,0,22.45c0,1,0,1.99-0.49,2.9c-0.45,0.41-1.01,0.25-1.54,0.28c-1.05-0.84-0.81-2.04-0.81-3.13
		c-0.02-11.78-0.01-23.57-0.01-35.35c0-0.73-0.06-1.46,0-2.18c0.15-1.68-0.72-2.44-2.25-2.64c-1.18-0.15-2.37-0.27-3.5-0.65
		c-0.98,0.05-1.91-0.43-2.9-0.27c-1.32-0.08-2.62-0.38-3.94-0.5c-1.13-0.1-1.62,0.32-1.68,1.39c-0.04,0.73-0.03,1.46-0.03,2.19
		c0,13.87,0,27.73,0,41.6c0,1.13,0.05,2.26-0.49,3.3c-0.62,0.18-1.24,0.35-1.85,0.53c-0.21-0.15-0.38-0.35-0.49-0.59
		c-0.28-0.91-0.17-1.84-0.17-2.76c-0.01-14.38,0-28.76-0.01-43.14c0-0.93,0.06-1.86-0.22-2.75c-0.13-0.64-0.39-1.12-1.17-1.01
		C315.9,366.36,314.23,366.79,313.34,365.12z"/>
	<path class="st14" d="M222.31,439.28c0.45-0.12,0.9-0.25,1.35-0.37c0.95-0.94,2.13-1.13,3.39-1.05c3.14,2.01,3.34,3.38,0.95,6.6
		c-4.08,0.73-8.13,1.59-12.18,2.49c-5.8,1.29-11.63,2.41-17.47,3.51c-0.74,0.14-1.45,0.75-2.27,0.34c-1.5-1.34-1.63-3.04-0.39-5.07
		c3.59-1.31,7.4-1.73,11.05-2.77c0.57-0.16,1.14-0.32,1.71-0.47c1.32-1.3,3.1-1.35,4.76-1.73c2.28-0.54,4.54-1.16,6.85-1.6
		C220.81,439,221.59,438.71,222.31,439.28z"/>
	<path class="st15" d="M195.69,445.72c0.16,1.69-0.38,3.43,0.39,5.07c-2.32,1.09-4.9,1.07-7.35,1.64
		c-5.22,1.23-10.52,2.17-15.78,3.21c-0.39,0.08-0.79,0.06-1.19,0.08c-3,0.11-5.77,1.57-8.79,1.55c-1.56,0.57-1.76-0.54-2-1.61
		c-0.16-0.74-0.09-1.44,0.38-2.07c11.11-2.62,22.23-5.23,33.35-7.84C195.02,445.68,195.36,445.73,195.69,445.72z"/>
	<path class="st16" d="M213.24,441.3c-1.53,0.66-3.16,0.91-4.79,1.18c0.02-10.09,0.04-20.17,0.06-30.26c1.55,0,3.1,0,4.65,0
		c0.84,0.56,0.87,1.43,0.88,2.3c0.03,8.14,0.03,16.28,0.01,24.43C214.05,439.82,213.96,440.67,213.24,441.3z"/>
	<path class="st17" d="M362,370.71c0-0.38,0.01-0.75,0.01-1.13c0.8,0.02,1.6,0.05,2.4,0.07c2.12,0.32,4.27-0.18,6.38,0.27
		c11.57,0.14,23.13-0.23,34.68-0.76c0,0.37,0,0.75,0,1.12c-0.91,1.2-2.3,1.12-3.57,1.23c-1.16,0.09-1.6,0.62-1.62,1.74
		c-0.03,1.83,0.12,3.66-0.09,5.49c-0.08,0.6-0.03,1.19-0.02,1.79c0.28,5.27,0.08,10.54,0.12,15.81c0,0.62-0.34,1.13-0.45,1.71
		c-0.5,0.07-1.01,0.13-1.51,0.2c-0.68-0.46-0.84-1.16-0.84-1.9c0-5.26-0.17-10.53,0.09-15.79c0.01-0.61-0.06-1.22,0.03-1.83
		c-0.25-1.85-0.09-3.71-0.14-5.56c-0.03-1.05-0.46-1.66-1.58-1.52c-4.82,0.6-9.67,0.18-14.5,0.28c-2.96,0.07-2.97,0.02-3.03,2.97
		c-0.01,0.6-0.07,1.19-0.15,1.78c0.02,0.49,0,0.98,0.03,1.47c0.27,7.66,0.09,15.31,0.1,22.97c0,0.77-0.3,1.41-0.84,1.95
		c-0.41,0.43-0.94,0.35-1.45,0.33c-1.03-0.64-0.92-1.69-0.92-2.67c-0.01-7.5-0.06-15.01,0.02-22.51c0.15-0.58,0.1-1.18,0.14-1.78
		c-0.45-1.4,0.59-3.29-0.79-4.24c-1.14-0.79-2.83-0.12-4.25-0.46c-1.94-0.56-3.91-0.52-5.89-0.24
		C363.48,371.54,362.6,371.53,362,370.71z"/>
	<path class="st18" d="M318.94,364.75c-0.69-0.08-1.43,0.21-2.06-0.29c0.18-1.09-0.53-1.56-1.36-1.9c-1.71-0.7-3.42-1.41-5.11-2.16
		c-1.21-0.53-2.04-0.59-2.03,1.09c0,0.48-0.23,0.89-0.59,1.22c-0.55-0.12-1.09-0.25-1.64-0.37c-0.48-0.42-0.72-0.99-0.67-1.6
		c0.18-1.92-0.89-2.9-2.5-3.56c-1.04-0.43-2.02-1-3.03-1.49c-1.03-0.5-1.4-0.19-1.46,0.93c-0.07,1.27,0.41,2.68-0.72,3.75
		c-0.67-0.09-1.4,0.16-2-0.35c0-1.59,0.12-3.18,0.06-4.77c-0.03-0.83-0.17-1.58-0.99-2.03c-1.56-0.86-3.09-1.76-4.95-2.37
		c-0.28,1.7-0.09,3.28-0.15,4.85c-0.04,0.92,0.09,1.88-0.68,2.61c-0.44-0.14-0.89-0.28-1.33-0.42c-1.06-1.26-0.88-2.83-0.63-4.18
		c0.72-4-1.45-5.96-4.67-7.33c-0.24-0.1-0.49-0.2-0.9-0.06c-0.24,2.16-0.03,4.4-0.13,6.62c-0.04,0.96,0.16,2.02-0.82,2.7
		c-0.4-0.04-0.81-0.09-1.21-0.13c0.03-3.58,0.04-7.17,0.1-10.75c0.02-1.02-0.56-1.52-1.31-2.03c-2.14-1.45-4.24-2.95-6.33-4.47
		c-0.53-0.38-1.6-0.73-0.9-1.6c0.54-0.66,1.22,0.1,1.7,0.47c6.47,4.9,13.44,9,20.57,12.82c12.07,6.47,24.69,11.67,37.69,15.94
		c0.69,0.23,1.34,0.53,2.02,0.8c-2.28-0.15-4.56-0.24-6.8-0.75c-1.66-0.63-3.42-0.86-5.11-1.38
		C320.32,364.36,319.57,364.15,318.94,364.75z"/>
	<path class="st19" d="M257.48,349.29c0.01-0.43,0.02-0.86,0.03-1.29c2.62,0.92,5.24,1.83,7.86,2.75c0.1,0.07,0.2,0.14,0.29,0.2
		c0.36,0.58,0.3,1.16,0.02,1.74c-0.45,0.79-0.41,1.66-0.4,2.53c0.27,23.7-0.67,47.4-0.39,71.1c0.01,0.92-0.18,1.86,0.26,2.75
		c0.15,0.42,0.01,0.74-0.32,1.01c-0.94,0.44-1.88,0.91-2.77-0.1c-0.33-5.7-0.33-11.4,0.02-17.09c0.07-1.12,0.18-2.25,0.18-3.37
		c0.01-14.27,0.04-28.55-0.02-42.82c-0.02-3.92,0.56-7.8,0.47-11.73c-0.05-1.92-0.55-3.11-2.48-3.71
		C259.17,350.92,257.84,350.72,257.48,349.29z"/>
	<path class="st20" d="M213.17,350.4c-1.55,0-3.1,0-4.65,0c-0.05-6.5-0.09-13.01-0.14-19.51c-0.88-1.12,0.27-2.19,0.09-3.29
		c1.22-0.94,2.67-1.45,4.04-2.1c0.26,0.28,0.53,0.56,0.79,0.84c0.64,0.91,0.76,1.94,0.76,3.03c-0.01,6.04,0.01,12.08-0.02,18.13
		C214.05,348.54,214.22,349.67,213.17,350.4z"/>
	<path class="st21" d="M161.36,453.59c0.15,0.9,0.35,1.79,0.43,2.69c0.07,0.79,0.53,0.96,1.18,0.99
		c-5.68,1.19-11.36,2.41-17.05,3.55c-4.27,0.86-8.56,1.62-12.85,2.43c0-1.03,0-2.06-0.01-3.08
		C142.5,457.98,151.93,455.78,161.36,453.59z"/>
	<path class="st22" d="M170.5,405.01c-0.56,0.86-0.75,1.78-0.75,2.82c0.03,5.85,0,11.69-0.01,17.54c0,0.47,0.02,0.93-0.01,1.4
		c-0.03,0.58,0.11,1.47-0.61,1.48c-0.86,0.01-0.52-0.92-0.53-1.44c-0.04-5.32-0.03-10.63-0.04-15.95c0-0.72,0-1.45,0-2.6
		c-1.56,1.55-2.84,2.73-2.81,4.81c0.05,3.85,0.01,7.71-0.01,11.56c0,0.65,0.15,1.33-0.56,1.97c0-4.38,0-8.77,0-13.15
		c-0.19-0.04-0.38-0.09-0.56-0.13c-1.2,1.18-2.52,2.25-2.46,4.29c0.07,2.39,0.03,4.78-0.01,7.18c-0.01,0.61,0.26,1.3-0.61,2.11
		c0-3.2,0-6.12,0-9.17c-4.07,2-3.36,5.65-3.61,8.96c-0.83-1.32-0.26-2.73-0.67-4.16c-1.55,0.59-2.22,2.02-2.92,3.24
		c-0.4,0.7-0.22,1.56-1.48,1.24c-0.4-0.1-0.96,1.11-1.46,0.51c-0.58-0.69,0.43-1.09,0.81-1.53c5.97-6.91,11.77-13.97,17.13-21.37
		C169.78,404.6,170.23,404.55,170.5,405.01z"/>
	<path class="st23" d="M265.37,350.75c0.01-3.92,0.02-7.83,0.04-11.75c0.01-1.17,3.2-3.67,4.27-3.32c0.7,0.23,0.42,0.9,0.42,1.37
		c0.01,5.11-0.01,10.22-0.02,15.34c-1.97,0.88-3.31-0.19-4.58-1.47C265.48,350.84,265.44,350.78,265.37,350.75z"/>
	<path class="st24" d="M201.23,375.48c0.02,11.49,0.04,22.98,0.05,34.46c0.01,6.64,0,13.28-0.03,19.92c0,0.62,0.23,1.3-0.25,1.91
		c-0.94-0.29-0.9-1.05-0.91-1.77c-0.02-1.26,0-2.52-0.01-3.79c-0.18-23.56-0.57-47.13-0.41-70.69c0-0.65,0.14-1.34-0.31-1.92
		c-0.1-0.38,0.02-0.66,0.4-0.78c0.41-0.13,0.59,0.21,0.72,0.49c0.25,0.56,0.2,1.17,0.2,1.77c0.01,3.72,0,7.43,0.01,11.15
		c0.04,8.44-0.41,16.88-0.2,23.6c0-2.97-0.02-7.67,0.02-12.37C200.5,376.76,200.11,375.81,201.23,375.48z"/>
	<path class="st25" d="M170.5,405.01c-0.44,0.03-0.86,0-1.16-0.39c3.58-5.45,7.16-10.9,10.75-16.35c0.51-0.24,0.74,0.05,0.9,0.47
		c-0.03,0.13-0.01,0.3-0.09,0.38c-2.65,3.01-2.44,6.65-2.39,10.31c0.08,6.03-0.01,12.07-0.03,18.1c0,0.53-0.02,1.06-0.06,1.59
		c-0.02,0.29-0.22,0.5-0.51,0.48c-0.29-0.02-0.46-0.25-0.47-0.54c-0.03-0.53-0.05-1.06-0.05-1.59c0-7.29,0-14.57,0-22.06
		c-3.26,2.8-3.51,6.32-3.28,10c-0.38,0.35-0.76,0.34-1.15,0.02c0-0.13,0.01-0.26-0.01-0.39c-0.12-0.72,0.37-1.81-0.56-2.06
		c-0.77-0.21-0.95,0.91-1.41,1.42C170.81,404.59,170.66,404.81,170.5,405.01z"/>
	<path class="st26" d="M181,388.75c-0.3-0.16-0.6-0.32-0.9-0.47c2.63-4.66,5.26-9.31,7.89-13.97c0.41-0.26,0.82-0.37,1.23,0
		c-0.62,2.86-0.16,5.76-0.29,8.63c-0.08,1.77-0.05,3.55-0.06,5.32c-0.36,0.35-0.73,0.35-1.09,0c0-3.39,0-6.77,0-10.16
		c-0.14-0.06-0.27-0.11-0.41-0.17c-1.23,2.25-2.47,4.51-3.7,6.76c-0.28,1.04-0.08,2.1-0.13,3.14c-0.03,0.66-0.09,1.24-1,0.85
		c-0.11-0.41,0.19-1.13-0.26-1.2C181.49,387.37,181.42,388.31,181,388.75z"/>
	<path class="st27" d="M201.23,375.48c-0.46,0.73-0.29,1.55-0.29,2.33c-0.04,5.11-0.06,10.22-0.1,15.33
		c-0.01,0.65,0.15,1.32-0.7,1.94c0-9.59,0-19.17,0-28.76c0.4-0.51,0.36-1.12,0.34-1.71c-0.19-4.34,0.44-8.7-0.37-13.02
		c-0.11-0.59,0.02-1.18,0.27-1.74c0.17-0.36,0.38-0.65,0.83-0.66C201.21,357.96,201.22,366.72,201.23,375.48z"/>
	<path class="st24" d="M194.86,393.86c0,12.61,0,25.22,0,37.98c-1.26-0.39-1.16-1.28-1.16-2.1c0-7.04,0-14.08,0-21.12
		c0.56-0.69,0.38-1.51,0.39-2.29c0.02-3.5-0.02-7.01,0.03-10.51C194.13,395.13,193.7,394.16,194.86,393.86z"/>
	<path class="st24" d="M183.69,394.26c0,12.48,0,24.95,0,37.58c-1.26-0.38-1.16-1.28-1.16-2.09c0-7.04,0-14.08,0-21.12
		c0.56-0.69,0.38-1.51,0.39-2.29c0.02-3.44-0.02-6.88,0.03-10.31C182.96,395.38,182.6,394.48,183.69,394.26z"/>
	<path class="st28" d="M194.86,393.86c-0.68,1.17-0.31,2.45-0.34,3.68c-0.07,3.1-0.02,6.2-0.05,9.3c-0.01,0.68,0.25,1.52-0.77,1.78
		c0-8.78,0-17.55,0-26.33c0.33-0.37,0.39-0.82,0.39-1.29c0.02-4.62,0.01-9.23,0.01-13.85c0-0.54-0.24-1.03-0.27-1.55
		c-0.06-0.85-0.11-1.76,1.02-2.04C194.84,373.66,194.85,383.76,194.86,393.86z"/>
	<path class="st29" d="M194.84,363.57c-0.49,0.72-0.3,1.53-0.3,2.31c-0.04,4.81-0.04,9.62-0.09,14.44
		c-0.01,0.71,0.38,1.66-0.74,1.99c0-5.14,0-10.29,0-15.43c-0.14-0.05-0.28-0.11-0.42-0.16c-1.36,2.53-2.71,5.07-4.07,7.6
		c-0.41,0-0.82,0-1.23,0c2.02-3.98,4.04-7.97,6.06-11.95c0.39-0.29,0.77-0.37,1.16-0.01C195.08,362.75,194.96,363.16,194.84,363.57z
		"/>
	<path class="st24" d="M188.88,408.6c0.01,8.5,0.17,17.01-0.12,25.5c-0.33,0-0.67-0.01-1-0.01c0-8.5,0-17,0-25.5
		C188.13,408.3,188.5,408.31,188.88,408.6z"/>
	<path class="st30" d="M195.21,362.35c-0.39,0-0.78,0.01-1.16,0.01c1.99-4.42,3.97-8.84,5.96-13.25c0.38-0.02,0.64,0.17,0.83,0.48
		c0,5.1-0.01,10.2-0.02,15.29c0,0.57,0.15,1.25-0.68,1.45c-0.03-4.12-0.05-8.24-0.11-12.36c0-0.23,0.36-1.76-0.67-0.37
		C197.97,356.52,196.59,359.43,195.21,362.35z"/>
	<path class="st31" d="M200.83,349.58c-0.37,0-0.63-0.17-0.83-0.48c2.6-6.86,5.55-13.59,7.75-20.6c0.11-0.34,0.47-0.6,0.72-0.9
		c1.21,1.13-0.22,2.19-0.09,3.29c-2.39,6.1-4.79,12.2-7.18,18.3C201.08,349.32,200.95,349.45,200.83,349.58z"/>
	<path class="st22" d="M172.97,405.43c0.38-0.01,0.76-0.01,1.15-0.02c0,7.43,0,14.85,0,22.43c-1.25-0.39-1.14-1.29-1.14-2.1
		C172.96,418.98,172.97,412.2,172.97,405.43z"/>
	<path class="st32" d="M188.88,408.6c-0.38,0-0.75,0-1.13,0c0.01-6.78,0.01-13.55,0.02-20.33c0.36,0,0.73,0,1.09,0
		C188.86,395.04,188.87,401.82,188.88,408.6z"/>
	<path class="st25" d="M183.69,394.26c-0.7,1.31-0.3,2.72-0.33,4.08c-0.08,2.83-0.02,5.67-0.05,8.51c-0.01,0.68,0.25,1.52-0.78,1.78
		c0-6.65,0-13.29,0-19.94c1.01-0.25,0.72-1.07,0.78-1.74c0.07-0.76-0.19-1.57,0.35-2.25C183.67,387.89,183.68,391.07,183.69,394.26z
		"/>
	<path class="st33" d="M265.5,350.91c1.53,0.49,3.05,0.98,4.58,1.47c0.09,0.12,0.17,0.24,0.26,0.36c-0.5,0.24-0.09,0.84-0.46,1.13
		c-0.06,0.08-0.11,0.15-0.17,0.23c-1.59,0.22-2.9-0.47-4.15-1.32c-0.13-0.14-0.2-0.31-0.22-0.5
		C265.39,351.83,265.44,351.37,265.5,350.91z"/>
	<path class="st13" d="M370.78,369.92c-2.13-0.05-4.28,0.35-6.38-0.27C366.54,369.59,368.67,369.54,370.78,369.92z"/>
	<path class="st34" d="M285.03,437.36c2.39-0.4,4.78-0.8,7.17-1.2c1.26,0.03,2.46-0.25,3.59-0.79c0.26,0,0.53-0.01,0.79-0.01
		c1.26,0,2.47-0.2,3.6-0.79c0.13,0,0.26,0,0.39,0c2.06-0.1,4.08-0.37,5.99-1.2c0.26,0,0.53-0.01,0.79-0.01
		c0.82,0,1.64,0.02,2.39-0.39c4.67-1.23,9.45-1.9,14.19-2.79c13.45-2.52,26.9-5,40.36-7.47c1.88-0.35,3.78-0.59,5.67-0.89
		c0,8.95,0.01,17.9-0.02,26.85c0,1.24,0.09,2.31,1.71,2.27c-4.47,0.5-8.93,1.04-13.41,1.51c-11.34,1.18-22.67,2.33-34.01,3.48
		c-8.63,0.87-17.26,1.7-25.89,2.57c-7.82,0.79-15.64,1.6-23.46,2.4c-0.33,0.03-0.66,0-0.99-0.01c-1.38,0.53-2.24,0.02-2.39-1.41
		c-0.18-1.72-1.17-2.24-2.7-2.19c-1.14,0.03-2.24-0.19-3.35-0.4c-1.97-0.38-2.68-1.08-2.75-3.04c-0.1-3.18-0.02-6.36-0.03-9.55
		c-0.01-1.96,1.23-2.78,2.8-3.36c0.26,0,0.53-0.01,0.79-0.01c4.82-0.74,9.67-1.35,14.36-2.78c0.13,0,0.26,0,0.39,0
		C282.43,438.24,283.76,437.95,285.03,437.36z"/>
	<path class="st35" d="M265.49,440.95c-2.35,1.37-2.06,3.63-2.01,5.84c0.05,2.45,0.04,4.89,0,7.34c-0.02,1.28,0.38,1.97,1.8,1.99
		c1.44,0.02,2.85,0.49,4.32,0.39c1.81-0.12,2.76,0.79,2.65,2.61c-0.07,1.24,0.33,1.91,1.66,1.78c-0.76,0.45-1.63,0.26-2.44,0.4
		c-0.37,0.62-0.2,1.3-0.2,1.95c-0.01,13.87,0.01,27.75-0.03,41.62c-0.01,1.81,0.83,3.44,0.68,5.28c-0.21,2.58-0.56,3.1-3.11,3.43
		c-1.82,0.23-3.66,0.88-5.42-0.24c-0.64-0.68-0.72-1.52-0.71-2.39c0.01-3.74-0.11-7.49,0.09-11.23c-0.21-7.01-0.07-14.02-0.07-21.03
		c0-2.14-0.16-4.22-0.99-6.21c-1.65-4.11-4.67-7-8.46-9.09c-4.12-2.28-8.66-3.29-13.3-3.87c2.75,0.37,5.51,0.71,8.09,1.8
		c1.04,0.44,2.35,0.75,2.36,2.3c-1.61,1.39-3.66,0.98-5.5,1.18c-6.39,0.71-12.78,1.33-19.17,2.01c-1.19,0.13-1.98,0.64-2.53,1.63
		c-1.08,1.93-1.94,3.92-1.99,6.18c-0.02,0.93-0.07,1.87-0.88,2.55c-2.54,0.7-5.07,0.89-7.58-0.14c-0.69-0.78-0.5-1.75-0.5-2.66
		c-0.02-5.56-0.01-11.12-0.01-16.68c0-1.07-0.01-2.12-0.68-3.03c-1.82-0.35-2.24-0.11-2.29,1.56c-0.08,2.92,0,5.84-0.04,8.76
		c-0.01,0.97,0.13,2.03-0.86,2.71c-13.07,1.32-26.14,2.65-39.21,3.96c-0.33,0.03-0.66,0.01-0.99,0.01c0-3.45,0.06-6.9-0.04-10.35
		c-0.04-1.43,0.6-2.08,1.87-2.31c8.19-1.51,16.37-3,24.56-4.52c4.67-0.86,9.34-1.75,14.01-2.64c0.69-0.13,1.5-0.12,1.86-0.94
		c6.18-1.11,12.37-2.2,18.55-3.34c11.9-2.19,23.8-4.41,35.7-6.61C264.95,440.91,265.22,440.95,265.49,440.95z"/>
	<path class="st36" d="M347.24,514.67c0.29,1.09,0.4,2.2,0.4,3.33c-0.02,8.88-0.02,17.76,0,26.64c0,1.07-0.09,2.11-0.41,3.13
		c-5.59-1.07-11.19-2.11-16.77-3.22c-10.65-2.12-21.3-4.28-31.95-6.42c-0.25-0.05-0.49-0.19-0.74-0.29
		c-1.38-0.82-1.62-2.13-1.62-3.6c0.01-6.36,0.02-12.72,0-19.07c0-1.51,0.15-3.04-0.38-4.53c-0.15-0.41-0.38-1.06,0.48-1.15
		c6.4,0.59,12.8,1.16,19.2,1.79c8.64,0.86,17.27,1.76,25.91,2.66C343.32,514.14,345.28,514.42,347.24,514.67z"/>
	<path class="st37" d="M296.25,509.49c1.08,2.4,0.71,4.94,0.72,7.44c0.03,5.5,0.03,11-0.01,16.51c-0.01,1.53,0,3.03,0.81,4.4
		c-4.99-0.95-9.99-1.86-14.98-2.85c-9.39-1.86-18.77-3.75-28.16-5.64c-0.39-0.08-0.76-0.23-1.14-0.34c-1.52-0.52-1.57-1.82-1.59-3.1
		c-0.09-5.11,0.06-10.22-0.03-15.32c-0.02-1.19,0.03-2.39-0.09-3.58c-0.13-1.38,0.29-2.36,1.82-2.57c2.05-0.15,4.06-0.07,5.95,0.88
		c0.92,1.06,0.75,2.37,0.7,3.6c-0.06,1.66,0.11,3.05,2.14,3.36c0.46,0.07,0.74,0.54,1.08,0.85c2.13,0.22,4.21-0.41,6.33-0.41
		c0.97,0,1.26-0.51,1.25-1.38c-0.03-1.99-0.03-3.98-0.03-5.97c0-13.94,0-27.87,0.02-41.81c0-0.76-0.29-1.61,0.42-2.25
		c-0.03,8.1-0.07,16.2-0.09,24.3c-0.01,6.44,0.05,12.88-0.03,19.32c-0.02,1.42,0.37,2.01,1.81,2.14c5.74,0.52,11.48,1.11,17.22,1.7
		C292.34,508.94,294.29,509.23,296.25,509.49z"/>
	<path class="st38" d="M253.21,505.09c-0.75,0.14-0.91,0.65-0.87,1.33c0.41,6.48,0.08,12.97,0.17,19.45c0.02,1.18,0.21,2.23,1,3.13
		c-6.82-1.33-13.65-2.64-20.47-3.99c-6.63-1.31-13.25-2.67-19.87-4.01c-0.25-0.05-0.49-0.2-0.73-0.3c-0.81-1-1.17-2.11-0.75-3.39
		c0.36-0.34,0.83-0.38,1.29-0.43c1.44-0.21,2.87-0.52,4.32-0.59c1.61-0.08,2.36-0.82,2.33-2.51c-0.06-3.18-0.03-6.35-0.01-9.53
		c0.01-0.99-0.05-2,0.67-2.83c0.63-0.49,1.35-0.41,2.09-0.35c7.83,0.65,15.64,1.48,23.44,2.34c1.77,0.19,3.55,0.35,5.32,0.53
		C251.98,504.03,252.9,504.01,253.21,505.09z"/>
	<path class="st39" d="M211.63,517.59c1.24,0.78,0.69,2.03,0.81,3.11c-5.3-0.66-10.47-2-15.71-2.98c-3.55-0.66-7.07-1.51-10.6-2.27
		c-1.21-0.73-1.59-1.88-1.6-3.21c-0.03-3.7-0.09-7.41,0.03-11.11c0.04-1.3-0.03-2.94,2.08-2.83c6.68,0.38,13.31,1.24,19.97,1.92
		c0.59,0.06,1.19,0.08,1.79,0.12c1.42,1.36,0.77,3.05,0.75,4.64c0.22,2.38,0.22,4.78,0.08,7.16
		C209.08,514.45,209.37,516.41,211.63,517.59z"/>
	<path class="st40" d="M134.28,505.08c-1.29-1.71-1.25-3.69-1.21-5.69c0.05-2.18,0.02-4.37,0.03-6.55c3.59-0.14,7.1,0.64,10.66,0.9
		c4.67,0.34,9.33,0.9,13.98,1.45c2.15,0.26,4.36,0.13,6.46,0.82c0.58,0.53,0.78,1.21,0.79,1.97c0.06,3.98-0.02,7.96,0.05,11.93
		c0.01,0.48-0.09,0.92-0.47,1.26c-5.16-0.97-10.32-1.9-15.47-2.93C144.15,507.24,139.22,506.13,134.28,505.08z"/>
	<path class="st41" d="M164.57,511.17c-0.8-3.91-0.21-7.87-0.38-11.8c-0.05-1.12,0-2.24,0-3.36c6.31,0.61,12.63,1.19,18.94,1.86
		c1.17,0.12,2.41-0.22,3.51,0.44c-1.31,0.43-1.28,1.59-1.29,2.61c-0.05,3.9,0.01,7.8-0.04,11.7c-0.01,1.06,0.66,1.86,0.82,2.83
		c-5.09-0.97-10.18-1.94-15.26-2.93C168.75,512.1,166.66,511.62,164.57,511.17z"/>
	<path class="st42" d="M208.39,467.69c0.02-3.76,0.26-7.53-0.01-11.26c-0.17-2.37,0.89-2.96,2.8-3.1c0.45-0.03,0.91-0.01,1.37-0.01
		c0.2,5.89-0.03,11.77,0.11,17.66c0.16,6.86,0.55,13.72,0.38,20.59c-0.02,0.92,0.14,1.86-0.31,2.73c-1.85,1.21-2.83,1.14-4.2-0.33
		c-0.02-7.84-0.04-15.67-0.07-23.51C208.44,469.55,208.41,468.62,208.39,467.69z"/>
	<path class="st43" d="M208.52,493.98c1.24,0.67,2.58,0.3,3.88,0.37c0.75,0.57,0.61,1.41,0.62,2.18c0.03,2.11,0.03,4.21,0,6.32
		c-0.01,1.03,0.18,2.22-1.04,2.75c-1.21,0.52-2.43,0.57-3.47-0.48c-0.04-1.59-0.08-3.19-0.13-4.78
		C208.43,498.22,208.47,496.1,208.52,493.98z"/>
	<path class="st0" d="M313.34,365.12c1.34,0.74,2.9,0.44,4.29,0.91c1.38,1.85,0.56,3.97,0.61,5.96c0.04,1.37-0.13,2.77-0.12,4.17
		c0.04,12.87-0.35,25.74-0.2,38.61c0.01,1,0.12,2.04-1.02,2.58c-3.04,0.68-6.09,1.35-9.13,2.03c-0.8-0.69-0.81-1.61-0.81-2.56
		c0-16.64,0-33.29,0.01-49.93c0-1.03-0.18-2.19,1.2-2.61C309.89,364.56,311.62,364.84,313.34,365.12z"/>
	<path class="st0" d="M354.74,408.5c-4.08,0.94-8.16,1.89-12.24,2.83c-0.77-0.56-0.65-1.39-0.65-2.18c0-12.07-0.01-24.15,0-36.22
		c0-2.47,0.53-2.86,2.83-2.25c2.81,0.75,5.62,1.5,8.47,2.09c1.49,0.31,2.08,1.1,2.07,2.63c-0.03,10.42-0.02,20.83-0.02,31.25
		C355.2,407.29,355.29,407.98,354.74,408.5z"/>
	<path class="st0" d="M369.57,405.01c-4.13,0.96-8.26,1.92-12.39,2.88c0,0,0.04-0.11,0.04-0.11c-0.38-0.54-0.21-1.16-0.21-1.74
		c-0.01-9.95-0.01-19.91-0.01-29.86c0-2.29,0.1-2.41,2.39-2.03c2.93,0.49,5.83,1.16,8.77,1.63c1.25,0.2,1.99,0.95,1.99,2.32
		c0,8.43,0,16.85,0,25.28C370.16,404.01,370.02,404.56,369.57,405.01z"/>
	<path class="st0" d="M321.25,416.34c-0.61-0.52-0.38-1.23-0.38-1.87c-0.01-15.27,0.02-30.54-0.05-45.82
		c-0.01-1.77,0.51-2.19,2.15-1.81c1.55,0.35,3.14,0.5,4.71,0.74c1.13,0.31,1.58,1.11,1.6,2.22c0.01,0.86,0.01,1.73,0.01,2.59
		c0,13.01,0,26.02,0,39.03c0,1.12,0.15,2.29-0.81,3.16C326.06,415.17,323.65,415.75,321.25,416.34z"/>
	<path class="st44" d="M264.69,429.8c0.12-0.13,0.23-0.26,0.35-0.38c0.07-0.2,0.2-0.37,0.38-0.49c1.48-0.83,3.13-1.11,4.77-1.39
		c1.62-0.35,3.18-1.28,4.92-0.56c0.57,0.05,1.07-0.13,1.55-0.42c0.59-0.66,1.37-0.93,2.22-1.06c1.01-0.19,2.03-0.35,3-0.72
		c1.28-0.3,2.54-0.64,3.83-0.92c0.71-0.15,1.43-0.29,2.06,0.26c0.89-0.03,1.69-0.38,2.48-0.74c1.78-1.57,4.18-1.29,6.22-2.09
		c0.42-0.09,0.84-0.15,1.26-0.16c1.85-0.28,3.59-1.52,5.57-0.59c0.16,0.03,0.32,0.06,0.48,0.09c0.41,2.78-0.27,5.57,0,8.35
		c-5.04,1.07-10.07,2.16-15.11,3.2c-7.6,1.57-15.25,2.89-22.79,4.74c-0.37,0.09-0.79-0.01-1.19-0.03
		C263.99,434.52,263.9,432.16,264.69,429.8z"/>
	<path class="st0" d="M330.11,367.98c1.64,0.23,3.27,0.56,4.92,0.66c1.6,0.09,1.86,0.89,1.86,2.31
		c-0.05,13.88-0.03,27.76-0.02,41.64c-2.25,0.53-4.51,1.06-6.76,1.59c-0.73-0.62-0.81-1.46-0.81-2.35c0-13.83,0-27.67,0-41.5
		C329.29,369.44,329.38,368.6,330.11,367.98z"/>
	<path class="st0" d="M422.15,389.12c0.03,1.18,0.05,2.36,0.08,3.54c-5.68,1.69-11.51,2.79-17.27,4.15c-0.82-0.3-1.04-1-1.05-1.75
		c-0.07-4.24-0.1-8.49,0.01-12.73c0.04-1.64,0.97-2.41,2.58-2.35c4.3,0.16,8.6,0.35,12.9,0.34c2.35,0,2.57,0.3,2.62,2.65
		C422.06,385.03,421.84,387.08,422.15,389.12z"/>
	<path class="st0" d="M398.25,380.33c0.02,5.98,0.05,11.95,0.07,17.93c-3.43,1.08-6.95,1.74-10.45,2.52
		c-1.34,0.07-1.5-0.95-1.51-1.86c-0.07-6.01-0.09-12.03,0-18.04c0.03-1.77,0.77-2.33,2.53-2.18c2.43,0.21,4.86,0.43,7.29,0.62
		C397.02,379.38,397.72,379.66,398.25,380.33z"/>
	<path class="st0" d="M377.51,403.09c0.02-8.37,0.05-16.75,0.07-25.12c0.99-1.09,2.15-0.27,3.2-0.21c5.39,0.34,5.54,0.54,5.54,5.86
		c0,4.91-0.01,9.83,0.01,14.74c0,1.09-0.07,2.12-0.79,3.01C382.85,401.9,380.25,402.81,377.51,403.09z"/>
	<path class="st0" d="M375.95,377.92c0.03,8.5,0.07,17,0.1,25.5c-1.7,0.66-3.46,1.08-5.28,1.21c-0.8-0.56-0.61-1.41-0.61-2.18
		c-0.01-7.75-0.01-15.49,0-23.24c0-2.31,0.81-3.03,3.04-2.59C374.2,376.81,375.4,376.74,375.95,377.92z"/>
	<path class="st45" d="M338.4,412.31c-0.35-0.39-0.27-0.87-0.27-1.32c0.01-13.77,0.02-27.54,0.03-41.31
		c2.86-0.41,3.68,0.23,3.68,2.91c0.01,12.2,0,24.4,0.01,36.59c0,1,0.09,2.03-0.99,2.61C340.04,411.96,339.22,412.13,338.4,412.31z"
		/>
	<path class="st46" d="M340.86,411.78c0.6-0.76,0.39-1.65,0.39-2.5c0.01-11.95,0.01-23.9,0.01-35.85c0-3.14,0-3.14-3.09-3.77
		c1.95-1.03,3.93-0.5,5.91-0.09c2.79,0.77,5.68,1.01,8.51,1.59c1.09,0.23,2.25,0.27,3.05,1.23c-0.01,11.95-0.03,23.89-0.04,35.84
		c-0.28,0.09-0.57,0.18-0.85,0.27c0.02-11.1,0.04-22.2,0.08-33.29c0-1.06-0.38-1.48-1.44-1.71c-3.17-0.7-6.32-1.51-9.46-2.35
		c-1.11-0.3-1.5-0.14-1.5,1.11c0.05,13.03,0.06,26.05,0.07,39.08C341.95,411.48,341.41,411.63,340.86,411.78z"/>
	<path class="st47" d="M308.17,364.28c-0.49,0.37-0.47,0.92-0.46,1.45c0.02,17.88,0.04,35.77,0.06,53.65
		c-0.54,0.13-1.09,0.25-1.63,0.38c-0.7-0.53-0.57-1.3-0.57-2.01c-0.01-17.27-0.01-34.53,0-51.8c0-0.72-0.09-1.49,0.63-1.99
		C306.85,364.07,307.56,363.84,308.17,364.28z"/>
	<path class="st48" d="M375.95,377.92c-4.97-1.59-5.14-1.47-5.14,3.46c-0.01,7.75-0.02,15.5-0.03,23.25
		c-0.36,0.28-0.75,0.44-1.21,0.39c0.01-8.89,0-17.79,0.06-26.68c0.01-1.15-0.38-1.67-1.49-1.87c-3.13-0.55-6.27-1.06-9.36-1.8
		c-1.55-0.37-1.6,0.28-1.6,1.45c0.03,10.55,0.03,21.1,0.04,31.65c-0.67-0.49-0.41-1.22-0.41-1.84c-0.01-11.29-0.01-22.58,0-33.87
		c0-1.85,0.36-2.01,2.81-1.35c-0.23,0.57-0.98,0.66-1.24,1.23c0.52,0.84,1.38,0.8,2.12,0.95c4.23,0.86,8.48,1.59,12.73,2.28
		c0.99,0.16,1.98,0.31,2.69,1.13C375.94,376.84,375.95,377.38,375.95,377.92z"/>
	<path class="st49" d="M330.11,367.98c0,15.4-0.01,30.8-0.01,46.2c-0.54,0.13-1.09,0.27-1.63,0.4c0.02-15.05,0.04-30.1,0.07-45.16
		c0-0.79-0.14-1.44-0.87-1.84C328.49,367.71,329.3,367.85,330.11,367.98z"/>
	<path class="st47" d="M316.9,417.34c0.68-1.31,0.4-2.74,0.4-4.11c0.06-12.62,0.06-25.24,0.1-37.86c0.01-3.11,0.45-6.22,0.23-9.34
		c0.58,0,1.19-0.13,1.67,0.34c-0.36,0.69-0.18,1.43-0.18,2.15c-0.02,6.84,0.14,13.68-0.05,20.51c-0.23,8.36-0.09,16.71-0.15,25.07
		c-0.01,0.84-0.22,1.74,0.41,2.49c0.02,0.09,0.04,0.19,0.05,0.28C318.56,417.02,317.73,417.18,316.9,417.34z"/>
	<path class="st0" d="M306.19,363.95c-0.02,18.6-0.04,37.2-0.05,55.8c-0.36,0.12-0.73,0.24-1.09,0.36
		c-0.04-0.53-0.12-1.06-0.12-1.59c-0.01-17.74-0.01-35.47,0.02-53.21C304.94,364.66,304.3,363.05,306.19,363.95z"/>
	<path class="st50" d="M385.54,401.36c0.02-6.93,0.03-13.87,0.09-20.8c0.01-1.17-0.47-1.67-1.58-1.79c-2.16-0.24-4.31-0.53-6.47-0.8
		c0-0.43,0-0.86,0-1.29c1.1-1.04,2.4-0.47,3.59-0.35c5.04,0.52,10.08,1.02,15.11,1.56c0.74,0.08,1.43,0.23,1.96,0.8
		c0.01,0.55,0.01,1.09,0.02,1.64c-3.35-0.35-6.71-0.68-10.05-1.07c-0.93-0.11-1.18,0.27-1.17,1.09c0.01,6.43,0.01,12.85,0,19.28
		c0,0.61,0.24,1.01,0.84,1.15C387.18,401.32,386.27,401,385.54,401.36z"/>
	<path class="st51" d="M399.83,398.06c-0.57-0.99-0.27-2.08-0.27-3.12c-0.03-4.84,0-9.69,0.01-14.53c0.91-1.02,2.07-0.87,3.12-0.46
		c1.08,0.42,1.15,1.52,1.16,2.55c0.02,4.12,0,8.24,0.01,12.36c0,0.83-0.13,1.59-0.74,2.2C402.03,397.39,400.93,397.73,399.83,398.06
		z"/>
	<path class="st52" d="M403.12,397.06c0.01-4.43,0.03-8.87,0.04-13.3c0.01-3.58,0-3.58-3.59-3.35c0-0.58-0.01-1.17-0.01-1.75
		c2-0.72,4.1-0.5,6.09-0.28c4.56,0.5,9.12,0.2,13.68,0.32c0.99,0.03,2.01-0.07,2.78,0.75c0.18,3.23,0.21,6.45,0.03,9.68
		c-0.62-2.08-0.21-4.21-0.25-6.32c-0.03-1.25-0.34-1.75-1.69-1.76c-4.58-0.05-9.16-0.18-13.73-0.38c-1.48-0.06-1.98,0.38-1.95,1.89
		c0.09,4.12,0.03,8.24,0.03,12.36c0,0.66-0.1,1.34,0.39,1.9C404.38,397.17,403.76,397.13,403.12,397.06z"/>
	<path class="st53" d="M264.69,429.8c0.37,2.36,0.66,4.72-0.01,7.07c-7.19,1.47-14.38,2.94-21.57,4.42
		c-5.04,1.04-10.08,2.1-15.11,3.15c0.08-0.44,0.02-0.97,0.25-1.31c1.06-1.57,1.2-2.93-0.57-4.09c-0.24-0.16-0.33-0.56-0.48-0.84
		c1.06-1.31,2.38-1.56,3.91-0.94c0.44-0.12,0.87-0.24,1.31-0.37c2.52-1.67,5.3-2.26,8.28-1.99c0.57-0.02,1.16,0.18,1.67-0.25
		c0.24-0.62,0.79-0.89,1.36-1c2.45-0.48,4.78-1.8,7.4-1.11c0.56-0.01,1.13,0.07,1.59-0.37c1.77-1.76,4.26-1.47,6.4-2.2
		c1-0.34,2.14-0.8,3.16,0.12C263.08,430.04,263.85,429.62,264.69,429.8z"/>
	<path class="st35" d="M280.64,438.15c-1.23,1.61-3.24,1.25-4.83,1.59c-2.65,0.57-5.38,0.94-8.06,1.44c-0.54,0.1-1.04,0.2-1.47-0.25
		c3.85-1.23,7.9-1.48,11.82-2.39C278.93,438.35,279.79,438.28,280.64,438.15z"/>
	<path class="st35" d="M306.56,433.37c-1.82,1.28-3.82,1.65-5.99,1.2C302.5,433.83,304.56,433.75,306.56,433.37z"/>
	<path class="st35" d="M285.03,437.36c-1.14,1.22-2.49,1.39-4,0.8C282.32,437.68,283.65,437.39,285.03,437.36z"/>
	<path class="st35" d="M300.18,434.56c-1.01,1.11-2.21,1.37-3.6,0.79C297.72,434.81,298.93,434.58,300.18,434.56z"/>
	<path class="st35" d="M295.79,435.36c-1.04,0.96-2.19,1.46-3.59,0.79C293.33,435.6,294.54,435.39,295.79,435.36z"/>
	<path class="st35" d="M309.75,432.97c-0.72,0.62-1.45,1.17-2.39,0.39C308.06,432.69,308.94,433.04,309.75,432.97z"/>
	<path class="st0" d="M422.12,379.45c-4.97,0.27-9.94,0.24-14.89-0.15c-2.55-0.2-5.18,0.28-7.67-0.64c0-2.23,0.02-4.46-0.03-6.69
		c-0.02-0.92,0.3-1.26,1.24-1.3c1.57-0.06,3.13-0.25,4.69-0.39c4.48-0.02,8.92-0.52,13.37-1.02c0.98-0.11,1.98-0.07,2.96-0.1
		c0.47,2.41,0.09,4.84,0.21,7.26c0.04,0.79-0.1,1.58,0.11,2.36C422.12,379,422.12,379.22,422.12,379.45z"/>
	<path class="st52" d="M422.12,378.78c-0.65-3.19-0.08-6.42-0.32-9.62c0.87,1.24,0.35,2.63,0.4,3.95
		C422.27,375,422.15,376.89,422.12,378.78z"/>
	<path class="st0" d="M213.17,350.4c0.02-7.16,0.04-14.32,0.07-21.48c0-0.86,0.04-1.72,0.07-2.58c2.67,1.73,5.3,3.53,8.03,5.16
		c1.13,0.68,0.99,1.6,0.99,2.57c0,15.14,0.01,30.29,0,45.43c0,19.93-0.01,39.85-0.02,59.78c-3.01,0.74-5.98,1.63-9.06,2.02
		c-0.02-9.69-0.05-19.39-0.07-29.08c0.02-13.38,0.06-26.77,0.06-40.15C213.24,364.85,213.19,357.62,213.17,350.4z"/>
	<path class="st0" d="M262.27,430.12c-3.19,0.69-6.37,1.38-9.56,2.07c-0.04-0.73-0.11-1.45-0.11-2.18
		c-0.01-26.64-0.01-53.28,0-79.93c0-2.71,0-2.7,2.46-1.7c0.8,0.32,1.61,0.61,2.42,0.91c1.52,0.61,3.02,1.31,4.58,1.79
		c1.11,0.34,1.38,0.94,1.38,2.02c-0.16,19.62-0.2,39.25-0.47,58.87c-0.07,5.37,0.04,10.74-0.22,16.1
		C262.7,428.77,262.92,429.55,262.27,430.12z"/>
	<path class="st0" d="M251.12,432.56c-2.92,0.7-5.84,1.41-8.76,2.11c-0.66-0.5-0.4-1.22-0.4-1.85c-0.01-29.44-0.01-58.88-0.01-88.32
		c0-0.51,0.06-1.02,0.1-1.76c2.93,1.3,5.7,2.52,8.47,3.75c0.7,0.31,0.63,0.94,0.63,1.53c0,1.73,0,3.46,0,5.18
		c0,25.59,0,51.17,0,76.76C251.16,430.83,251.14,431.69,251.12,432.56z"/>
	<path class="st0" d="M240.7,434.91c-2.7,0.93-5.49,1.44-8.28,1.99c-0.01-32.63-0.02-65.26-0.03-97.9c0-0.26,0.05-0.52,0.1-1.06
		c2.58,1.28,5.05,2.51,7.51,3.73c0.46,0.23,0.68,0.6,0.67,1.12c-0.01,0.6,0.01,1.2,0.01,1.79
		C240.68,374.7,240.69,404.81,240.7,434.91z"/>
	<path class="st0" d="M231.1,437.27c-1.3,0.31-2.6,0.62-3.91,0.94c-1.19,0.19-2.3,0.75-3.54,0.69c-0.02-4.12-0.05-8.24-0.05-12.35
		c0-30.29,0-60.58,0-90.88c0-0.79,0-1.58,0-2.7c2.46,1.38,4.69,2.63,6.92,3.88c0.84,0.47,0.56,1.28,0.56,1.97
		c0.02,4.92,0.01,9.83,0.01,14.75C231.1,381.47,231.1,409.37,231.1,437.27z"/>
	<path class="st0" d="M287.77,424.11c-1.97,0.44-3.93,0.88-5.9,1.32c-1.23,0.4-1.74-0.17-1.83-1.33c-0.02-0.33-0.01-0.66-0.01-1
		c0-21.04-0.01-42.08,0.02-63.12c0-0.9-0.4-2.07,1-2.45c1.47,0.4,2.92,0.93,4.42,1.18c1.92,0.33,2.51,1.23,2.5,3.22
		c-0.09,16.34-0.04,32.69-0.06,49.03C287.9,415.35,287.82,419.73,287.77,424.11z"/>
	<path class="st0" d="M296.63,421.84c-2.04,0.87-4.2,1.23-6.38,1.53c-0.01-20.77-0.02-41.53-0.03-62.3c0-0.26,0.06-0.52,0.12-0.93
		c2.15,0.57,4.33,0.75,6.29,1.78c0.63,0.64,0.56,1.45,0.56,2.25c0,18.47,0,36.94,0,55.42C297.18,420.39,297.25,421.2,296.63,421.84z
		"/>
	<path class="st0" d="M275.12,426.98c-1.66,0.38-3.32,0.76-4.99,1.13c-0.83-0.87-0.69-1.97-0.69-3.02
		c-0.01-11.22-0.21-22.45,0.05-33.67c0.26-11.49,0.04-22.97,0.19-34.46c0.01-0.97-0.23-2.01,0.48-2.88
		c5.03,1.44,5.03,1.44,5.03,6.63c0,21.29,0,42.58,0,63.88C275.18,425.39,275.14,426.18,275.12,426.98z"/>
	<path class="st0" d="M303.3,420.53c-1.82,0.39-3.65,0.79-5.47,1.18c-0.76-0.57-0.64-1.4-0.64-2.19c0-18.44,0-36.87,0-55.31
		c0-0.79-0.1-1.62,0.64-2.19c1.84,0.46,4.25,0.16,5.38,1.54c1.01,1.24,0.29,3.45,0.29,5.23c0.02,16.39,0.02,32.78,0,49.17
		C303.49,418.82,303.36,419.67,303.3,420.53z"/>
	<path class="st54" d="M270.16,354.09c-0.01,20.7-0.02,41.39-0.02,62.09c0,3.98,0,7.96,0,11.94c-1.58,0.39-3.16,0.78-4.74,1.17
		c-0.62-0.57-0.51-1.33-0.51-2.05c0-11.67,0-23.34,0-35.02c0-1.06,0.12-2.11,0.4-3.14c0.4-0.5,0.96-0.77,1.56-0.75
		c1.95,0.05,2.22-1.13,2.21-2.72c-0.02-9.33-0.03-18.65,0-27.98c0-1.21-0.34-2.55,0.79-3.54c0.04-0.07,0.05-0.14,0.03-0.22
		C269.95,353.97,270.04,354.04,270.16,354.09z"/>
	<path class="st0" d="M279.02,426.14c-0.78,0.14-1.57,0.28-2.35,0.43c-0.01-22.89-0.01-45.79-0.01-68.68c0-1.96,0.02-1.96,2.83-0.73
		c0.63,0.64,0.55,1.45,0.55,2.25c0,21.38,0,42.76,0,64.15C280.04,424.55,280.13,425.57,279.02,426.14z"/>
	<path class="st55" d="M279.02,426.14c0.65-0.82,0.42-1.78,0.42-2.69c0.02-22.1,0.03-44.2,0.05-66.3c0.53,0.09,1.11-0.01,1.57,0.39
		c-0.55,0.63-0.35,1.39-0.35,2.1c-0.01,21.2-0.01,42.39,0.01,63.59c0,0.88-0.48,2.14,1.17,2.2
		C281,425.98,279.94,425.79,279.02,426.14z"/>
	<path class="st0" d="M280.58,355.64c0.04-3.24,0.1-6.49,0.09-9.73c0-1.16,0.28-1.53,1.3-0.74c0.05,0.04,0.11,0.09,0.17,0.11
		c4.67,1.68,6.66,4.86,5.65,9.83c-0.18,0.89-0.05,1.85-0.06,2.78C285.32,357.22,282.81,356.87,280.58,355.64z"/>
	<path class="st56" d="M297.82,362.02c0,19.9,0.01,39.79,0.01,59.69c-0.4,0.04-0.8,0.09-1.2,0.13c-0.03-0.93-0.09-1.85-0.09-2.78
		c-0.01-18.18-0.01-36.37,0-54.55c0-0.86,0.06-1.72,0.09-2.58C297.03,361.96,297.42,361.99,297.82,362.02z"/>
	<path class="st0" d="M289.06,358.31c0-2.89,0-5.77,0-8.9c2.41,1.24,4.62,2.37,6.82,3.52c0.22,0.11,0.5,0.36,0.51,0.56
		c0.16,2.09,0.36,4.19-0.12,6.26c-0.03,0.12-0.33,0.18-0.51,0.27C293.54,359.45,291.3,358.88,289.06,358.31z"/>
	<path class="st0" d="M297.77,360.37c0-1.72,0.03-3.43-0.01-5.15c-0.03-1.01,0.4-1.14,1.19-0.76c2.14,1.02,4.27,2.07,6.42,3.08
		c1.03,0.48,0.85,1.38,0.85,2.22c0,0.86-0.04,1.71-0.07,2.57C303.33,361.81,300.49,361.34,297.77,360.37z"/>
	<path class="st45" d="M307.78,362.71c-0.33-4.23-0.33-4.23,3.49-2.67c1.77,0.73,3.55,1.45,5.3,2.22c1.22,0.54,1.75,1.26,0.3,2.2
		c-1.18-0.16-2.36-0.33-3.53-0.49C311.49,363.55,309.64,363.13,307.78,362.71z"/>
	<path class="st0" d="M375.93,376.3c-5.75-0.72-11.43-1.86-17.11-2.98c-0.95-0.19-1.81-0.36-1.63-1.69
		c0.18-1.33,1.17-0.69,1.84-0.86c0.19-0.05,0.39-0.05,0.59-0.07c0.79,0,1.59,0,2.38,0c0.75,0.02,1.49,0.05,2.24,0.07
		c2.02,0.41,4.08-0.05,6.11,0.25c1.19,0.03,2.4,0.22,3.57,0.07c1.87-0.25,2.32,0.55,2.11,2.22
		C375.91,374.3,375.96,375.31,375.93,376.3z"/>
	<path class="st57" d="M319.34,416.58c-1.41-0.24-0.8-1.36-0.79-2.06c0.07-12.19,0.2-24.38,0.31-36.57c0.03-3.18,0-6.36,0.04-9.54
		c0.01-0.69-0.29-1.48,0.41-2.04c0.06,0.52,0.17,1.04,0.17,1.56c0.01,15.76,0.01,31.52,0,47.28
		C319.48,415.67,319.39,416.13,319.34,416.58z"/>
	<path class="st58" d="M355.63,372.39c-3.97-0.47-7.82-1.42-11.55-2.82c3.43,0.26,6.85,0.59,10.28,0.76
		C356,370.41,355.66,371.44,355.63,372.39z"/>
	<path class="st59" d="M318.94,364.75c-0.11-1.01-0.05-1.81,1.31-1.15c1.89,0.92,4.07,1.14,5.85,2.35
		C323.69,365.69,321.28,365.39,318.94,364.75z"/>
	<path class="st0" d="M398.24,378.69c-6.2-0.17-12.34-1.09-18.5-1.76c-0.72-0.08-1.44-0.17-2.16-0.25
		c-0.44-5.48-0.44-5.43,4.88-5.48c4.63-0.04,9.27,0.07,13.89-0.39c1.57-0.16,2.08,0.35,1.96,1.93
		C398.16,374.71,398.25,376.7,398.24,378.69z"/>
	<path class="st13" d="M370.34,371.04c-2.04,0.07-4.08,0.13-6.1-0.25C366.28,370.81,368.33,370.4,370.34,371.04z"/>
	<path class="st60" d="M265.49,389.08c-0.03,8.16-0.07,16.32-0.09,24.48c-0.01,5.24,0,10.48,0,15.73c-0.12,0.04-0.23,0.09-0.35,0.13
		c-1.04-0.07-0.81-0.87-0.81-1.48c0.11-16.78,0.23-33.55,0.34-50.33c0.05-7.89,0.06-15.79,0.13-23.68c0.01-0.54-0.64-1.52,0.63-1.65
		c0.01,0.07,0.04,0.13,0.11,0.16c0.77,0.68,0.85,1.59,0.85,2.54c0.01,10.51,0.01,21.03,0,31.54
		C266.3,387.47,266.25,388.39,265.49,389.08z"/>
	<path class="st34" d="M265.49,389.08c-0.01-12.21-0.03-24.42-0.04-36.64c1.5,0.45,3.03,0.84,4.4,1.65
		c0,10.72,0.01,21.45,0.01,32.17c0,2.83,0,2.83-2.78,2.83C266.55,389.09,266.02,389.08,265.49,389.08z"/>
	<path class="st0" d="M253.21,505.09c-4.53-0.51-9.06-1.04-13.6-1.53c-6.39-0.69-12.78-1.36-19.18-2.04
		c-0.8-0.59-0.83-1.45-0.83-2.32c-0.03-6.66-0.02-13.33-0.01-19.99c0-0.88,0.1-1.72,0.75-2.38c-0.19-3.34,0.56-6.43,2.39-9.27
		c0.62-0.95,1.28-1.47,2.51-1.58c8.06-0.74,16.11-1.59,24.16-2.41c0.32-0.03,0.64-0.16,0.95-0.24c0.98-0.49,1.64,0.19,2.33,0.67
		c3.03,2.14,4.93,5.15,6.49,8.43c0.64,1.19,1.05,2.47,1.06,3.79c0.07,7.8,0.19,15.59-0.05,23.39c0.17,1.3,0.14,2.61,0.1,3.92
		c-0.02,0.8-0.12,1.58-0.93,2.03C257.31,505.39,255.26,505.24,253.21,505.09z"/>
	<path class="st61" d="M220.35,476.82c0.03,8.23,0.06,16.46,0.08,24.69c-0.01,4.45-0.07,8.89,0.01,13.34
		c0.03,1.36-0.5,1.96-1.74,2.09c-1.97,0.2-3.94,0.38-5.92,0.56c-0.25-0.31-0.6-0.61-0.61-1.01c-0.12-3.7-0.59-7.41,0.26-11.07
		c0.17-0.73,0.19-1.44,0.2-2.16c0.01-8.11,0-16.21,0.02-24.32c0-0.71-0.24-1.46,0.24-2.12
		C215.38,476.82,217.86,476.82,220.35,476.82z"/>
	<path class="st62" d="M259.53,499.56c-0.03-6.47-0.11-12.93-0.07-19.4c0.01-2.78-0.01-5.53-1.13-8.13
		c1.15-1.63,2.48-1.13,3.84-0.33c0.98,1.84,1.4,3.78,1.37,5.89c-0.09,7.33-0.08,14.66-0.11,22
		C262.05,500.9,261.34,500.9,259.53,499.56z"/>
	<path class="st63" d="M212.89,476.81c-0.04,13.56-0.07,27.13-0.11,40.69c-0.39,0.03-0.77,0.06-1.16,0.09
		c-0.39-0.06-0.78-0.17-1.18-0.18c-1.55-0.04-2.12-0.71-2.04-2.34c0.16-3.31,0.08-6.63,0.11-9.94c4.57-0.01,3.84,0.53,3.91-3.84
		c0.04-2.31-0.01-4.62-0.02-6.93c0.03-12.75,0.05-25.49,0.08-38.24c0-0.93,0.04-1.86,0.07-2.78c0.51,0.72,0.26,1.54,0.26,2.3
		C212.85,462.69,212.87,469.75,212.89,476.81z"/>
	<path class="st64" d="M262.16,471.69c-1.26,0.29-2.62-0.47-3.84,0.33c-1.93-3.56-4.32-6.7-7.95-8.7c-3.32-2.22-7.11-3.06-11.4-3.8
		C249.34,459.25,258.64,463.76,262.16,471.69z"/>
	<path class="st65" d="M259.53,499.56c1.3-0.14,2.6,0.9,3.9,0.02c0.02,4.51,0.04,9.02,0.06,13.53c-4-0.49-3.99-0.49-4.01-4.41
		c-0.01-1.05-0.07-2.1-0.1-3.15C259.42,503.55,259.47,501.55,259.53,499.56z"/>
</g>
</svg>
