<svg xmlns="http://www.w3.org/2000/svg" viewBox="0 0 254.62 254.61"><g id="Capa_2" data-name="Capa 2"></g><g id="Capa_1-2" data-name="Capa 1"><path d="M0 149.37V21.7c.38-2.53.38-5.12 1.52-7.53A25.4 25.4 0 0 1 16.17.73C17.91.09 19.86.3 21.7 0h211.05a5.51 5.51 0 0 0 2.1.19c7.93.85 13.2 5.48 17.17 12a19.78 19.78 0 0 1 2.57 10.66v95.39a2.26 2.26 0 0 1-.92 1.84c-3 2.71-6.14 5.3-9.15 8-2.1 1.9-4.22 3.79-6.37 5.63-3.08 2.63-6.06 5.36-9.13 8-2.77 2.38-5.54 4.77-8.31 7.14-4.29 3.66-8.75 7.1-13.19 10.58q-9 7.11-18 14.35c-6.09 4.9-12.11 9.89-18.17 14.82-2.32 1.89-4.61 3.83-6.95 5.7a2.11 2.11 0 0 1-1.67.59c-2.76-.83-5.06-2.59-7.65-3.76-1.62-.72-3.19-1.58-4.76-2.41-.68-.35-1.38-.68-1.65-1.49a7.26 7.26 0 0 1 .1-3.92 1.77 1.77 0 0 1 .66-1.17c1.37-.74 1.34-2 1-3.17a5.77 5.77 0 0 1 2-6.41c1.07-.85 1.87-2 2.89-2.93a3.92 3.92 0 0 0 1-2.82c.28-3.55.34-7.1.34-10.66a7 7 0 0 1 2.47-5.81 12 12 0 0 0 2.36-3.53 129.75 129.75 0 0 0 6.27-11.68 31.26 31.26 0 0 0 1.14-3.47 7.88 7.88 0 0 1 2.49-3.76c.15-.13 0 .07.11-.1 2.84-4.47 5.81-8.94 4.07-14.66a28.18 28.18 0 0 1-1.3-6.7 9 9 0 0 0-3.8-7.19c-3.44-2.36-5-5.86-6.57-9.48-1.42-3.32-3-6.56-4.68-9.77-1.54-3-4.35-4.14-7.51-4.52a17.42 17.42 0 0 1-3-.63 4.77 4.77 0 0 1-3.09-2.93 31.56 31.56 0 0 1-2.76-15.3c.34-4.34-1.25-8.24-3.38-11.85-2.44-4.13-7.11-5.47-11.73-3.73a14.8 14.8 0 0 1-1.55.63c-1.54.12-1.85 1.54-2.6 2.49a14.35 14.35 0 0 1-1.6 2.19c-2.61 2.91-4 6.25-3.12 10.22a35.68 35.68 0 0 1 .32 6.69c.06 2.23-.2 4.48.31 6.69.73 3.18-1.29 4.68-4.11 4.46a41.6 41.6 0 0 0-9.85.65 8.7 8.7 0 0 1-4.21-.43 44 44 0 0 0-10.78-1.9c-2.22-.18-3.54-1.09-4-3.28-.82-3.88-1.77-7.73-2.32-11.66-.29-2.06-.58-4.12-.8-6.19a13.2 13.2 0 0 1 1.11-7.15 83.1 83.1 0 0 0 2.82-7.88 1.9 1.9 0 0 0 .07-1.75c-.75 0-.84.66-1.11 1.11-.49.83-1.09 1.56-2.16 1.35S82.85 36 82.8 35.14c-.13-2.5-.68-4.93-1-7.4a9.85 9.85 0 0 0-.53-2.22c-.55-1.47-1.59-1.82-2.88-.94a10.54 10.54 0 0 0-3.09 3.91c0 .09-.06.2-.11.28-2.55 3.45-1.48 7.16-.79 10.84.37 2 .68 4 1 6s-.15 4-.32 5.92c-.2 2.28-.46 4.54-.53 6.83a78.65 78.65 0 0 0-.26 8.68c.22 2.78.18 5.58.52 8.36.46 3.76 2.6 6 6 7.33 3.1 1.16 6.37 1.76 9.43 3a11.81 11.81 0 0 1 6.11 4.81A9 9 0 0 1 97.71 95c.09 6.76 1.14 13.46 1.34 20.22.16 5.12.45 10.25.86 15.36a166.56 166.56 0 0 0 2.45 20.42 13.41 13.41 0 0 0 3.59 7.28 4.28 4.28 0 0 1 1.3 3.16 24.65 24.65 0 0 0 .24 4.11 2.34 2.34 0 0 1-.35 2c-.75.59-1.44.17-2.13-.13-5.65-2.41-11.24-5-17-7.23Q69.39 153 50.22 147.1c-4.37-1.33-8.7-2.82-13.15-3.87a44.44 44.44 0 0 0-27.88 2.14 56.14 56.14 0 0 0-6.82 3.38c-.69.43-1.37 1.13-2.37.62Z" style="fill:#70c0a2"></path><path class="cls-2" d="M0 230.61v-23.82a2.31 2.31 0 0 1 2.05-.11c8.08 1.89 15.92 4.6 23.78 7.23 4.44 1.49 8.87 3 13.34 4.36a9.8 9.8 0 0 0 3.31.44c5.65-.19 11.29.08 16.92.37 6.69.34 13.38.75 20.07 1.1s13.52.58 20.28.3c10.69-.45 21.25-1.75 31.42-5.34a86.16 86.16 0 0 0 26.19-14.73c6.08-5 12-10.14 18.12-15.1 5.63-4.57 11.32-9.08 16.91-13.7 5.05-4.17 10.23-8.17 15.37-12.22s10.42-8.25 15.51-12.53c2.59-2.17 5.05-4.51 7.66-6.66 2.22-1.83 4.26-3.85 6.48-5.69a22.71 22.71 0 0 0 3.88-3.59 16 16 0 0 1 2.48-2 106 106 0 0 1 9.18-7.89c.47-.34 1.11-1.13 1.63 0v111.31a20.56 20.56 0 0 1-6.21 14.91 28.29 28.29 0 0 1-7.67 5.7 17.61 17.61 0 0 1-8.14 1.59H23.39c-2.28-1.4-5-1.31-7.42-2.37C7.35 248.43 2.2 241.94.89 232.51a2.77 2.77 0 0 0-.89-1.9Z" style="fill: #79ac2c;"></path><path d="m149 187.22 7.28 3.82c2.2 1.16 4.39 2.35 6.58 3.52.32.85-.24 1.36-.77 1.82-9.79 8.63-20.63 15.49-33.16 19.45a93.92 93.92 0 0 1-18.93 3.84 149.08 149.08 0 0 1-19.47.84c-6-.19-12-.42-17.95-.76-5.22-.29-10.45-.54-15.67-.8-5-.24-10-.13-14.94-.27-2.57-.07-4.93-1.19-7.35-1.94-6.17-1.91-12.22-4.16-18.38-6.11-4.8-1.52-9.62-3-14.52-4.1a3.06 3.06 0 0 1-1.68-1v-56.2a53.17 53.17 0 0 1 16.46-7 47.79 47.79 0 0 1 24.5 1.22c11.82 3.56 23.57 7.3 35.18 11.5 10 3.63 19.89 7.7 29.62 12.09.42.19.85.34 1.27.51 1-.49 1.79.21 2.65.54.6.23 1.06.74 1.72.86 3.91 1.55 7.7 3.36 11.47 5.21.68.08 1.08.76 1.77.83a38.18 38.18 0 0 1 5.33 2.52 6.73 6.73 0 0 1 2 .94c5 2 9.73 4.53 14.54 6.92a3.85 3.85 0 0 1 2.45 1.75Z" style="fill:#95b424"></path><path class="cls-2" d="M254.4 118.83v1.83a56.42 56.42 0 0 0-6.91 5.74c-2 2-4.41 3.73-6.46 5.79a44.61 44.61 0 0 1-4 3.56 13.89 13.89 0 0 0-3.4 3.07c-.75 1.14-2.05 1.77-3.07 2.67l-6.41 5.6c-2.39 2.09-4.86 4.1-7.34 6.09-4.15 3.32-8.35 6.59-12.53 9.87-3.37 2.65-6.78 5.27-10.12 7.95-2.88 2.31-5.68 4.71-8.54 7-4.27 3.47-8.59 6.87-12.83 10.37-3.82 3.15-7.63 6.32-11.36 9.57-12.15 10.62-25.94 18-41.88 21a130.18 130.18 0 0 1-16.61 1.94c-5.49.32-11 .33-16.46.17-5.31-.16-10.65-.24-15.95-.8-1.91-.21-3.86-.21-5.77-.27-3.35-.1-6.7-.3-10-.46-4.63-.22-9.25-.11-13.87-.27-2.09-.07-4-1-6-1.67-9.89-3.15-19.62-6.78-29.66-9.45L0 206.8v-1.22a63.53 63.53 0 0 1 11.22 2.81c9.21 2.9 18.38 6 27.57 9a14.7 14.7 0 0 0 4.79.77c2.75 0 5.5-.1 8.24 0 7.5.29 15 .56 22.49 1.17 2.17.18 4.37.23 6.54.27 5.28.08 10.56.6 15.85.38 11.65-.49 23.21-1.53 34.28-5.53a85.64 85.64 0 0 0 25.87-14.65 45.84 45.84 0 0 0 5.95-5.18 49.34 49.34 0 0 0 6.21-4.85c9.6-7.76 19.14-15.6 28.76-23.33 11.77-9.45 23.76-18.62 35-28.73 6.65-6 13.42-11.84 20.14-17.74a15.55 15.55 0 0 1 1.49-1.14ZM22.92 254.39c-5.59 0-10.32-2.23-14.44-5.75A23.48 23.48 0 0 1 .28 234c0-.12-.17-.23-.26-.34v-3.05c1 0 1.45.54 1.53 1.52a21.58 21.58 0 0 0 5.14 12.49 22.35 22.35 0 0 0 14.47 8.24c1.04.14 1.59.54 1.76 1.53Z" style="fill: #79ac2c;"></path><path class="cls-4" d="M149 187.22a7.75 7.75 0 0 1-2.7-1.22 2.62 2.62 0 0 1 .17-3.38c.41-.58.56-.83 0-1.44-1.24-1.28-1-3.41.53-5.1a31.4 31.4 0 0 0 3.2-4.06 15.52 15.52 0 0 0 2.09-10.56 129.8 129.8 0 0 1-1.14-13.5 59.55 59.55 0 0 1 0-6.68c.19-2.12 1.09-3.79 3.09-4.51 5.56-2 8.14-6.64 10.34-11.58.68-1.52-.76-2.62-1.43-3.81-.47-.83-1.39-.63-2.22-.45s-1.4.28-2.08.46a8.24 8.24 0 0 0-6 5.17c-.19.47-.3 1-.51 1.44s-.37 1.47-1.26 1.21-.91-1.09-.77-1.8a45.12 45.12 0 0 1 1.73-6 23.83 23.83 0 0 1 2.33-4.79 2.34 2.34 0 0 0-.13-3.18 13.67 13.67 0 0 1-2.15-3.66c-1-2.28-2.54-3.92-5.23-4.06-.52 0-1.11-.14-1.2-.73s.5-.86 1-1c3.43-1 5.19-1.19 7 2.62a29.88 29.88 0 0 0 2.43 4.57 16.12 16.12 0 0 0 5.94 5.12 2.16 2.16 0 0 0 2.64-.33c3.44-2.71 3.54-3.28 1.24-7.88a3.86 3.86 0 0 1-.68-1.83c0-.89.53-1.15 1.3-.66a7.59 7.59 0 0 1 3.37 6.19 11.27 11.27 0 0 1-1.4 6.21c-.3.58-.52 1.19-.88 1.88 1.08-2.54 2.62-4.72 3.19-7.37a4.32 4.32 0 0 0-1.77-4.81c-.91-.66-1.72-1.43-2.59-2.13-.43-.34-.94-.74-.67-1.4a1.35 1.35 0 0 1 1.68-.71 9.69 9.69 0 0 1 4 1.59 3.2 3.2 0 0 0-1.55-2.17 21.52 21.52 0 0 1-8.19-9.88c-1.53-3.32-3.05-6.65-4.39-10.07a7.17 7.17 0 0 0-5.33-4.56c-4.67-1-9.34-1.35-13.94.57a5.39 5.39 0 0 1-6.65-1.41c-1-1.18-2.24-2.22-3.34-3.36a7.18 7.18 0 0 1-1.13-1.44c-.34-.59-.72-1.23-.21-1.83s1.23-.3 1.83 0c1.74.74 3.41 1 4.89-.65a9 9 0 0 1-3.06-.2c-.8-.16-1.6-.35-1.59-1.31s.91-1 1.69-1a1.33 1.33 0 0 0 .36 0 4 4 0 0 0-2.44.71 1 1 0 0 1-1.39-.16 1.15 1.15 0 0 1 .08-1.54 4.22 4.22 0 0 1 2.5-1.38c-.34-.4-.83-.49-1.14-.84a1.2 1.2 0 0 1-.31-1.52.91.91 0 0 1 1.33-.34c1.18.62 1.22-.13 1.12-.94a21.82 21.82 0 0 1-.48-3.31c.06-1.95 1.15-3.31 3.06-3.3 3.72 0 4.32-1.7 3.77-5.43-.22-1.52-1.29-2.7-2.13-4-1.32-2-3.15-2.21-5.23-2.21a12.28 12.28 0 0 1-3.89-.58 1 1 0 0 1-.3-.37 1.07 1.07 0 0 1 .62-1.21c5.81-3.3 11.91-1.4 14.87 4.55A23 23 0 0 1 143.5 59c-.46 3.95 1.11 7.56 2.17 11.27.9 3.14 3 4.32 5.87 4.54 4.67.37 7.66 2.75 9.41 7 1.63 4 3.76 7.76 5.38 11.77A9.75 9.75 0 0 0 170 98a10.83 10.83 0 0 1 5 9.57 15 15 0 0 0 1 4.73c1.06 3.32 1.35 6.56-.77 9.64a6.27 6.27 0 0 0-.6 2c-.71 2.68-2.89 4.34-4.47 6.41a1.77 1.77 0 0 0-.44.73c-1.23 5.68-4.56 10.38-7.26 15.36-.82 1.52-1.52 3.31-2.79 4.32a6.83 6.83 0 0 0-2.41 4.52c-.41 2.11 0 4.27-.07 6.4s-.28 4.46-.45 6.69a3 3 0 0 1-1 2c-1.37 1.28-2.69 2.61-4 3.91a3.09 3.09 0 0 0-.93 2.77 27.36 27.36 0 0 1 .5 4c0 .79-.22 1.31-1 1.32s-1 .5-1 1.18c-.08 1.24-.23 2.45-.31 3.67Z" style="fill: #23536d;"></path><path class="cls-4" d="M111.18 169.49a27.38 27.38 0 0 1-4.14-1.85 44.17 44.17 0 0 1-.43-6.08 3.22 3.22 0 0 0-1-2.62c-2.58-2.32-3.51-5.42-4.06-8.65A234.35 234.35 0 0 1 99 124.51c-.49-8.47-.73-17-1.75-25.4a28.38 28.38 0 0 1-.08-3.2 9.45 9.45 0 0 0-5.68-8.84 50.34 50.34 0 0 0-8.06-2.74c-1-.31-2.05-.6-3-1-3.65-1.46-5.89-4-6.22-8.08a107.17 107.17 0 0 1 .3-23.14c.64-4.78-.2-9.29-.92-13.89-.23-1.5-.52-3-.76-4.51a1.9 1.9 0 0 1 0-1c1.38-2.92 2.26-6.14 4.87-8.34 2.16-1.82 4-1.27 4.55 1.48a68.86 68.86 0 0 1 1.25 9.45c0 .59-.25 1.6.77 1.7s1.25-.72 1.52-1.45a3.15 3.15 0 0 1 .34-.84c.53-.63.94-1.68 2-1.19s.41 1.35.22 2a53.07 53.07 0 0 1-3.11 9.18c-1.51 3.1-1.24 6.3-.83 9.59.62 4.84 1.7 9.6 2.65 14.38.49 2.48 1.62 3.45 4.17 3.53a33.11 33.11 0 0 1 9.77 1.61 11 11 0 0 0 5.85.37 34.65 34.65 0 0 1 8.2-.41 5.89 5.89 0 0 0 2.82-.44 2 2 0 0 0 1.13-2.41 25.63 25.63 0 0 1-.47-6.82 54.31 54.31 0 0 0-.46-8.35 10.71 10.71 0 0 1 4.16-10.34 6 6 0 0 0 1.08-1.8c.77-.35 1-1.78 2.26-1.14.44.79 0 1.35-.5 1.9A22.47 22.47 0 0 0 121.3 50a9.06 9.06 0 0 0-.41 1.81 6.45 6.45 0 0 1 .48-1.9c.6-1 1-2.12 1.66-3.08 1.26-1.76 4.63-.88 5.59.66.35.56 0 1-.54 1.19a2.66 2.66 0 0 1-1.94-.08c-.83-.27-1.32.06-1.39.88-.22 2.88-1 5.68-1.23 8.57a16.7 16.7 0 0 0 1.57 8.16 9.18 9.18 0 0 1-1.28 10.51c-.65.78-.49 1.26.36 1.64 1 .45 2.14.66 3.19 1 .59.2 1.33.45 1.2 1.15s-.9.71-1.53.72a5.65 5.65 0 0 1-2-.2c-2.53-.89-5.17-1.47-7.66-2.43a16.52 16.52 0 0 0-9.41-1 17.86 17.86 0 0 1-8.74-.54 34.34 34.34 0 0 0-8.71-1.32c-.87 0-1.71-.21-2.57-.31s-1.81-.17-2.35.89a1 1 0 0 1-1.28.59c-.54-.21-.6-.76-.66-1.28-.62-5-1.16-10.06-2.28-15a36.58 36.58 0 0 1-.68-6.5c-.15-3.65-.51-7.3-.43-11 0-1.37 1-2.18 1.82-3.06 1.23-1.3 1.25-1.51.14-3a6.41 6.41 0 0 1-1.36-3.79 34.25 34.25 0 0 0-.76-5.11 1.14 1.14 0 0 0-.83-1 .78.78 0 0 0-.88.47c-1.26 2.49-2.58 5-2.63 8.26a13.72 13.72 0 0 1 2.49-3c.49-.39 1.08-.78 1.66-.38s.28 1.12 0 1.65a34.45 34.45 0 0 1-2.13 3.53 2.42 2.42 0 0 0-.27 2.44 22.57 22.57 0 0 1 1.19 10.2c-.23 3.34-.46 6.68-.77 10-.14 1.57-.24 3.15-.45 4.7a28 28 0 0 0 .74 9.96 6.39 6.39 0 0 0 3.58 4.49 15.22 15.22 0 0 0 3.42 1.29c3.57.84 7 2 10.52 3.16s7 2.17 10.55 3a9.05 9.05 0 0 1 5.79 4.16 2.89 2.89 0 0 1-.27 3.9 3.51 3.51 0 0 0-.78 2.7c.26 3-.81 5.69-2.17 8.29-.44.84-1 1.44-2 1.2a1.84 1.84 0 0 1-1.45-1.92c0-1.68-.19-3.35-.33-5a23.76 23.76 0 0 0-1.93-7 3.93 3.93 0 0 0-1.67-1.87 2 2 0 0 0-.27 1.59c.42 4.7.39 9.43.85 14.13.16 1.62-.09 3.24.1 4.87.88 7.5 1.9 15 2.84 22.48a63 63 0 0 0 4.1 15.54 23.59 23.59 0 0 1 1.25 6.71c.22 2.41 1.14 4.63 1.39 7a33.24 33.24 0 0 1 .09 4.57 1.19 1.19 0 0 1-.65 1.2Z" style="fill: #23536d;"></path><path d="M125.56 42.48c-1-.16-1.45.88-2.26 1.14.66-1.08 1.34-2.13 2.71-2.4Z" style="fill:#e7eae5"></path><path class="cls-6" d="M121.17 50a19.93 19.93 0 0 1 3.83-6.54c.26-.28.63-.53.58-1a34.62 34.62 0 0 1 9.88 1.28c-1.13.67-.92 1.08-.07 1.79 2.43 2 2.88 4.77 2.21 7.76a2.69 2.69 0 0 1-2.69 2.25c-.51 0-1 0-1.52.08-2 .17-2.72 1-2.54 3 .11 1.16.4 2.3.56 3.46.08.63.28 1.38-.62 1.65-.68.2-1.33.23-1.52-.7-.06-.32-.26-.41-.55-.23s-.52.56-.21.88a2.25 2.25 0 0 0 1.71.85.92.92 0 0 1 1.05.89c0 .75-.65.65-1.15.56a3.28 3.28 0 0 0-2.64 1.02.67.67 0 0 0-.17.95c.25.35.53.09.78-.07 1.48-1 3.11-.76 4.87-.64-.65.72-1.46.6-2.16.79s-1.7-.3-1.67.7 1.13.5 1.75.65a3.84 3.84 0 0 0 3.74-.71 3.18 3.18 0 0 1-3.06 3.45c-1.79.28-3.22-.57-4.73-1.37a1.05 1.05 0 0 0 .32 1.2 56.92 56.92 0 0 0 5.51 5.9c1.46 1.38 3.29 1.26 5 .5 4.55-2 9.24-1.66 13.93-.82 3.4.61 5.49 2.76 6.72 6a92.13 92.13 0 0 0 5.38 11.74 18.55 18.55 0 0 0 6.6 7c1.61 1 2.2 2.43 2.06 4.53a7.59 7.59 0 0 0-6.55-2.72 4.48 4.48 0 0 0 2.25 2.16c3.25 1.56 4 3.24 3.31 6.75-.63 3.08-2.56 5.46-4.28 8.31a9.64 9.64 0 0 1 1-4c1.62-3.8 1.49-7.41-1.09-10.78-.37-.48-.64-1-1.56-.84.46 1.64 1.56 2.93 2.13 4.47.9 2.42.76 3.39-1.16 5.09-3.24 2.86-3.39 2.87-6.91.34a17.27 17.27 0 0 1-5.88-7.25c-.18-.42-.36-.84-.55-1.26-1.46-3.38-3.34-4-6.84-2.12 3.44 0 5.49 1.87 6.64 4.9a9.22 9.22 0 0 0 2.08 3.34 2.26 2.26 0 0 1 .36 3.16c-2.32 3.36-3.24 7.27-4.45 11.07a1.6 1.6 0 0 0 .41 1.74c.23-.77.41-1.4.6-2a9 9 0 0 1 6.88-6.44c4.4-1.13 5-.82 6.8 3.32a1.11 1.11 0 0 1-.1 1 35.07 35.07 0 0 1-5 8.34 13.15 13.15 0 0 1-5.47 3.77 4.57 4.57 0 0 0-3.26 4.63 105.3 105.3 0 0 0 1.07 18.69c.89 5.9-.44 11.1-4.81 15.35a6.22 6.22 0 0 0-1.34 1.84c-1.06 2.31-.37 3.57 2.23 3.85-.52.89-1.83.64-2.17 1.66a12 12 0 0 0-.45 2.85l-14.7-7.02a1.35 1.35 0 0 1 .68-1.28c3.33-2.11 3.88-5.57 4.22-9 .54-5.45.43-10.94.7-16.41.05-1-.3-1.9-.3-2.62.56 2 .1 4.27.13 6.53s-.16 4.76-.32 7.14-.68 4.62-.87 6.94a8.84 8.84 0 0 1-4 7 3.55 3.55 0 0 1-2.08.84l-5.44-2.5c-.65-.62-.24-1.52-.65-2.42-.31.65-.16 1.41-.82 1.69l-11.63-5.31a27.73 27.73 0 0 0-1.4-10.66 9 9 0 0 1-.29-2.93c-.1-3.48-1.43-6.53-2.6-9.65-2-5.34-2.47-11-3.32-16.54-1.9-12.43-2.51-25-3.11-37.52 0-.7-.12-1.41-.2-2.29a6.35 6.35 0 0 1 3.82 3.78 25 25 0 0 1 1.87 9.35 27.69 27.69 0 0 0 .14 2.89 1 1 0 0 0 1 1 1 1 0 0 0 1-.71c1.37-3.06 3-6 2.49-9.59a2.18 2.18 0 0 1 .84-2 2 2 0 0 0 .3-2.87 8.51 8.51 0 0 0-5.35-4c-5.84-1.21-11.38-3.36-17.05-5.09-2.23-.68-4.52-1.13-6.72-1.94-3.92-1.44-5.12-4.51-5.65-8.27-.63-4.56.17-9 .47-13.53.31-4.71.94-9.41.5-14.16a12.2 12.2 0 0 0-1.18-4.69 1.69 1.69 0 0 1 .13-1.94 58.13 58.13 0 0 0 2.93-5.1c-2.19.87-3 3-4.07 5a6 6 0 0 1-.44-4.31 35.29 35.29 0 0 1 2.41-6.24c.31-.68.75-1.4 1.69-1.3s1.26.84 1.36 1.61c.27 2.11 1.13 4.12.92 6.31a2.74 2.74 0 0 0 1.15 2.54c.88.57.74 1.62 1.41 2.24.35.32 0 .54-.28.67-2.56 1.34-3.29 3.49-3 6.24.5 4.34.21 8.75.9 13.08.51 3.21 1.09 6.41 1.67 9.61.34 1.92-.06 3.94 1 5.78.39.66-.43 1.63-.23 2.55.9-.19.93-1 1.12-1.63s.42-.76 1-.65c3.49.73 7.12.44 10.59 1.24 2.62.6 5.16 1.58 7.91 1.44a24.5 24.5 0 0 0 3.64-.32 14.51 14.51 0 0 1 8.98 1 5.14 5.14 0 0 0 3.36.7c.52-.13.73.27 1.06.45a11.55 11.55 0 0 0 6.41 1.53 1.29 1.29 0 0 0-1-.6c-.88-.25-1.78-.43-2.65-.69-2.88-.86-2.9-1.06-1.14-3.37s2.74-5.27 1.4-8.14a22.53 22.53 0 0 1-1.47-14.57 29.26 29.26 0 0 0 .64-5.12c0-1.23.9-.76 1.49-.53.91.35 1.76 1 3 .39a5.33 5.33 0 0 0-3.48-1.45 2.52 2.52 0 0 0-2.68 1.8c-.21.63-.33 1.52-1.31 1.6Z" style="fill: #fff;"></path><path class="cls-7" d="M129.71 178a3.44 3.44 0 0 1 1.34-1.2 8.61 8.61 0 0 0 4.06-6.43c.93-6 1.3-12.1 1.66-18.18.11-1.84-.32-3.7.07-5.91.91 2.07.29 3.89.44 5.64a107.53 107.53 0 0 1-.17 16.74 21.93 21.93 0 0 1-1.16 5.49 6.56 6.56 0 0 1-3.48 4c-.36.17-.76.31-.94.73Z" style="fill: #24536e;"></path><path d="M122.8 174.81a4.67 4.67 0 0 0 0-2.07c-.07-.43-.1-1 .51-1.07s.79.35 1 .77a5.45 5.45 0 0 1 0 3.1Z" style="fill:#2d5872"></path><path d="M135.69 57.84a1.39 1.39 0 0 1-1.27.45c-.39 0-1.06.22-.93-.57.09-.55.59-.68 1.07-.52s.82.12 1.13.64Z" style="fill:#ebecf0"></path><path class="cls-6" d="M121.13 50c.6 1.51.21 2.92-.43 4.69-1-2 0-3.27.47-4.66Z" style="fill: #fff;"></path><path class="cls-10" d="M102.17 111.56c1.45 2.88 2.57 5.81 4.11 8.54a20 20 0 0 0 3.48 4.79c1.95 1.88 4 1.44 6.08 0 1-.68.67-1.7.38-2.64-1.31-4.21-2.7-8.4-3.64-12.72a45.81 45.81 0 0 1-1-12 2.34 2.34 0 0 1 1.09-2.17c.59 5.07 3 9.55 3.84 14.42a46.67 46.67 0 0 1 .8 12.09c-.05.62-.09 1.23.7 1.48s.46.69.13 1a14.45 14.45 0 0 1-4.67 3.61c-2.18.95-3.49.64-4.94-1.22a20.94 20.94 0 0 1-2.53-4.15 58.15 58.15 0 0 1-3.73-10.25 3.87 3.87 0 0 1-.1-.78ZM145.82 106.37a136.66 136.66 0 0 0-15.65 20.73c-.22.35-.37 1-.95.69s-.07-.75.06-1.07A110.37 110.37 0 0 1 139.49 107c1.23-1.84 2-2.06 4.14-1.39.68.23 1.37.47 2.19.76ZM160.62 104.29a9.43 9.43 0 0 1-5-3c-1.34-1.37-2.56-2.87-3.87-4.28a1 1 0 0 1-.18-1.35 1.1 1.1 0 0 1 .17-.25c1-1.13 1.62-3 3.18-3s2 2 2.49 3.34c1.16 2.72 2.09 5.5 3.21 8.54Z" style="fill: #23536e;"></path><path class="cls-7" d="M146.9 134.58a1.35 1.35 0 0 1 0 .45c-2 6.44-1.8 13.14-2.37 19.75a14.89 14.89 0 0 0 .11 4.11c.25 1.32-.51 2.42-.6 3.88a3 3 0 0 1-.73-2.11c-.07-5.9-.12-11.8-.24-17.69a6.66 6.66 0 0 1 1-3.88c.95-1.48 1.73-3.07 2.58-4.61ZM150.58 108.6a86.36 86.36 0 0 0-15.11 16.69 1.79 1.79 0 0 1 .14-1.72c3.17-4.7 6-9.66 9.74-13.95.17-.19.35-.37.52-.55 1.57-1.58 2.65-1.7 4.71-.47Z" style="fill: #24536e;"></path><path d="M104.78 128.47a12.56 12.56 0 0 1 1.53 1.34 9.34 9.34 0 0 0 3.84 2.82c3 1.26 3.47 4.35 1.17 6.48a2.93 2.93 0 0 1-3.51.51 9 9 0 0 1-2.88-2.41c1.13-.31 1.73.41 2.42.77 1 .52 1.92 1 2.81-.15a2.47 2.47 0 0 0-.22-3.44c-.9-.82-1.92-1.49-2.89-2.24a5.45 5.45 0 0 1-2.27-3.68Z" style="fill:#26546f"></path><path d="M127.92 112.46a26 26 0 0 1 5.25-9.7c1.14-1.31 3.29-1.41 5.09-.52a6.76 6.76 0 0 0 4.69.91 1.44 1.44 0 0 1-1.95.62c-.43-.18-.89-.21-1.29-.36-2.88-1.08-4.8.48-6.49 2.4-1.44 1.64-2.67 3.46-4 5.18-.41.51-.87 1.01-1.3 1.47Z" style="fill:#27556f"></path><path d="M129.14 54.19v3.56a5.51 5.51 0 0 0-4.07 0 .91.91 0 0 1-1.35-.57c-.18-.78.5-.86 1-1 1.52-.31 3.28.06 4.42-1.99Z" style="fill:#2b5771"></path><path d="M135.47 97.75h3c.51 0 1.14.1 1 .78s-.62.35-1.08.24c-1.89-.46-3.82 0-5.72-.13-.41 0-1.12.25-1.14-.35 0-.76.75-.45 1.18-.47h2.72Z" style="fill:#58738a"></path><path d="M130.59 48.47c1-1.46 2.08-2.77 4-3-.29 1.73-1.59 2.72-4 3Z" style="fill:#2c5772"></path><path d="M128.77 58.43c-1.45 1.21-2.26 1.2-3.84 0Z" style="fill:#335b75"></path><path d="M133.52 96c1.48-.69 3-.33 4.89-.38a7.85 7.85 0 0 1-4.89.38Z" style="fill:#3e627b"></path><path d="M134.6 100.36a3.26 3.26 0 0 1-.57.35 1.54 1.54 0 0 1-1.64-.51.48.48 0 0 1-.06-.41c.55-.43 1 0 1.57.14a2.82 2.82 0 0 1 .7.43Z" style="fill:#57728a"></path><path d="m140.33 90.67 1.3 1.46c-1.36.24-1.55-.42-1.3-1.46Z" style="fill:#5e778e"></path><path d="M128.74 46a1 1 0 0 1 .76 1.27c0 .06-.27.14-.36.09a.91.91 0 0 1-.4-1.36Z" style="fill:#375e77"></path></g></svg>