<svg xmlns="http://www.w3.org/2000/svg" viewBox="0 0 200.23 200.22">title>Recurso 1<g id="Capa_2" data-name="Capa 2"></g><g id="Capa_1-2" data-name="Capa 1"></g><g id="Capa_2-2" data-name="Capa 2"></g><g id="Capa_1-2-2" data-name="Capa 1-2"><path class="cls-1" d="M200.23,151.66v32.21c-.88,7.78-5.44,12.64-12.39,15.62-1.28.55-2.65.41-4,.73H16.34c-7.79-1-12.74-5.52-15.6-12.62-.58-1.44-.48-3-.74-4.44V17.07A16.62,16.62,0,0,1,3.08,8.14,20,20,0,0,1,13.18.55,26.65,26.65,0,0,1,17.06,0H183.15a16.65,16.65,0,0,1,9,3.08,20,20,0,0,1,7.51,10,30.27,30.27,0,0,1,.53,3.28V147.59C199.62,147.77,200,151.57,200.23,151.66Z"></path></g><path class="cls-2" d="M11.3,125.85c.38-.45.9-.26,1.36-.26,2.24,0,4.48,0,6.71,0,.94,0,1.23-.31,1.19-1.22-.07-1.27,0-2.54,0-3.81a7.45,7.45,0,0,1-.17-1.56c0-4.55,0-9.09,0-13.64a3.32,3.32,0,0,1,.34-2A3.7,3.7,0,0,1,23,103H93.81c.44,0,.88,0,1.32,0s.7,0,.68-.42-.42-.37-.73-.4a3.71,3.71,0,0,1-1.55-.21c-.6-.51-.4-1.21-.46-1.85-.12-1.21.27-2.45-.26-3.63a1.66,1.66,0,0,1-1.07-1.77c0-1.23,0-2.46,0-3.68S91.27,89.2,90,88.81a8.29,8.29,0,0,0-4.42,0,1.85,1.85,0,0,0-1.73,2.1c0,1.27,0,2.54,0,3.82a2,2,0,0,1-.86,1.81c-.43,1.24-.15,2.52-.21,3.77-.07,1.61-.3,1.88-1.94,1.93-2.92.1-3,0-3-2.91,0-.83,0-1.66,0-2.49-.78-1.67-.48-3.45-.51-5.19,0-2.2-.32-2.51-2.49-3a8.34,8.34,0,0,0-3.91.22,1.87,1.87,0,0,0-1.55,2c0,1.23,0,2.46,0,3.69a2.42,2.42,0,0,1-.58,1.84c-.47,1.27-.16,2.58-.22,3.87-.07,1.65-.26,1.89-1.9,1.9a11.26,11.26,0,0,1-2.72-.11.92.92,0,0,1-.38-.29c-.44-1.2-.14-2.44-.23-3.66,0-.6.15-1.24-.27-1.78a2.41,2.41,0,0,1-.54-1.84c0-1.27,0-2.54,0-3.81a1.71,1.71,0,0,0-1.31-1.74,8.22,8.22,0,0,0-5.3,0,1.76,1.76,0,0,0-1.31,1.76c0,1.18,0,2.36,0,3.55a4.15,4.15,0,0,1-.35,2,16.64,16.64,0,0,0-.19,4c-.07,1.59-.25,1.8-1.86,1.83-3.37.07-3.36.07-3.38-3.36a4.7,4.7,0,0,0-.22-2.32,2,2,0,0,1-.84-1.81c0-1.32,0-2.63,0-3.94a1.76,1.76,0,0,0-1.38-1.83,8.31,8.31,0,0,0-5.17,0,1.9,1.9,0,0,0-1.39,2,41.68,41.68,0,0,1-.13,5.24,27.39,27.39,0,0,0-.15,4.34c-.06,1.4-.32,1.67-1.73,1.74-3.41.18-3.49.09-3.51-3.28A7.4,7.4,0,0,0,34,96.33c-.65-1.39-.33-2.86-.36-4.3,0-2.54-.43-3-2.95-3.45a7.33,7.33,0,0,0-1.05-.11c-3.2,0-3.91.74-4,3.89,0,1.36.45,2.83-.58,4.07-.43,1.28-.14,2.6-.2,3.9-.08,1.58-.28,1.84-1.85,1.84a3.77,3.77,0,0,1-2.29-.3,3.26,3.26,0,0,1-.35-2c0-3.75-.1-7.51.07-11.26a.71.71,0,0,0-.17-.48c.39-.79.42-1.47-.55-1.85a2.19,2.19,0,0,1,2.1-.81h2.87c1,0,2,0,3-.07a13,13,0,0,0,3,0,4.85,4.85,0,0,1,2.48,0c1,.31,1.91-.1,2.88,0a12.7,12.7,0,0,0,3.59,0c1-.16,1.93,0,2.9,0a14,14,0,0,1,2.9-.06,6.61,6.61,0,0,0,2.87,0c.76-.25,1.44.1,2.16.07a30.32,30.32,0,0,1,5,0,21.41,21.41,0,0,0,2.4,0c1.93,0,3.89.12,5.81,0,2.32-.12,4.64-.08,6.95-.09s4.64,0,7,0,4.51,0,6.76-.08,4.45,0,6.67,0c2.38,0,4.78.31,7.14-.28.32-.08.59.15.87.18.55,0,0-.3.1-.45-.21-.45-.36-.91-.54-1.36,0-.12-.08-.24-.12-.36a2,2,0,0,1-.1-1.31,53.1,53.1,0,0,1,5.54-5.06c2.58-2.32,5.24-4.55,7.82-6.87.27-.24.53-.47.81-.69,1.39-1.07,1.57-1,2.89.16,4,3.57,8,7.19,12,10.73,1,.92,2.29,1.76,2.09,3.45a8,8,0,0,1-.08,1.54c-.22.84.48.57.8.59,1.75.13,3.5,0,5.25,0,6.52,0,13,0,19.56-.06,3.72,0,7.44,0,11.16,0,3.92-.06,7.84,0,11.77,0a1.7,1.7,0,0,1,1.34.39c-.33.42-1,.67-.75,1.4.33,4.47.11,9,.13,13.42a1.39,1.39,0,0,1-.55,1.28,13.44,13.44,0,0,1-4.69.16c-.9-.06-1-.78-1.07-1.53-.09-1.39.21-2.8-.2-4.17a2.52,2.52,0,0,1-.6-2c0-1.23,0-2.45,0-3.68a1.85,1.85,0,0,0-1.37-1.87,8.07,8.07,0,0,0-5.16-.07,1.79,1.79,0,0,0-1.4,1.83c0,.74,0,1.49,0,2.23A9.4,9.4,0,0,1,163,96.8c0,1.28,0,2.55,0,3.83a1.38,1.38,0,0,1-1.47,1.59c-3.81.33-4,.16-4-3.68a4.29,4.29,0,0,0-.2-2.07,2.5,2.5,0,0,1-.86-2.12c0-1.23,0-2.46,0-3.69A1.78,1.78,0,0,0,155,88.84a8.38,8.38,0,0,0-4.81,0,1.78,1.78,0,0,0-1.44,1.81c0,1.24,0,2.47,0,3.7a3.89,3.89,0,0,1-.35,1.93,18.19,18.19,0,0,0-.16,4c-.07,1.53-.33,1.82-1.86,1.88-3,.12-3.12,0-3.15-3.08a6.52,6.52,0,0,0-.2-2.71,2.59,2.59,0,0,1-.59-2c0-1.27,0-2.54,0-3.81a1.71,1.71,0,0,0-1.32-1.75,8.19,8.19,0,0,0-5,0,1.71,1.71,0,0,0-1.3,1.76c0,1.22,0,2.45,0,3.68a2.93,2.93,0,0,1-.56,2c-.49,1.22-.19,2.49-.23,3.73-.06,1.94-.13,2-2.06,2.15-.38,0-.81-.09-1,.37.54.68,1.3.4,1.95.41H175.6a8.32,8.32,0,0,1,2.23.14c.94.42.78,1.29.78,2,0,4.29,0,8.59,0,12.88V119c0,.68.13,1.11.86.47.33-.28.66-.6,1.16-.48a9.46,9.46,0,0,1-.27,6.17,1.76,1.76,0,0,1-1.17,1,10,10,0,0,1-3,.37c-4.65,0-9.3,0-14,0-1.74,0-1.8-.08-2.33-1.68a7.42,7.42,0,0,1-.3-2.34q0-6.45,0-12.9c0-.55.17-1.15-.29-1.62a36.62,36.62,0,0,0-9.18.11c-.47.47-.33,1.07-.34,1.62,0,4.31,0,8.61,0,12.91,0,3.84-.09,3.9-3.87,3.9h-18.7a5.93,5.93,0,0,1-1.83-.13.58.58,0,0,1-.4-.61,3.65,3.65,0,0,0-.81-2.8,1.55,1.55,0,0,1,.18-2,1.6,1.6,0,0,0,0-2.43,1.93,1.93,0,0,1,.07-2.65,1.49,1.49,0,0,0,0-2.22,1.83,1.83,0,0,1,.05-2.62,1.4,1.4,0,0,0,0-2.1,1.83,1.83,0,0,1-.07-2.62,1.45,1.45,0,0,0,0-2.21.65.65,0,0,1-.1-.83c.45-1,0-1.74-.92-1.47a23.68,23.68,0,0,1-5.24.38c-.33,0-.87,0-.86.39s.58.41.94.42c1.15,0,2.3,0,3.44,0s1.27.35.64,1.31a1.45,1.45,0,0,0,.09,1.81c.91,1.28.87,1.88-.12,3-.39.38-.26.91-.39,1.36-.06.21-.13.46-.37.48s-.34-.22-.42-.43a.74.74,0,0,1-.05-.25c-.11-3.75-3.24-5.08-6-5.47a10.11,10.11,0,0,0-5.9.85,5,5,0,0,0-3,4c-.06.45.28,1.23-.68,1.22a11.41,11.41,0,0,0-1.12-2.48,1.75,1.75,0,0,1,.25-2.2,1.45,1.45,0,0,0,0-2.12c-.64-.75-.06-1,.58-1.1a25.47,25.47,0,0,1,2.9-.06,5.25,5.25,0,0,0,1,0c.22,0,.47-.08.49-.36s-.24-.33-.45-.38a6.16,6.16,0,0,0-1,0,12.6,12.6,0,0,1-4.19-.35,1.27,1.27,0,0,0-1.42.46c-.39.44.06.71.28,1s.07.65-.18.92a1.42,1.42,0,0,0,0,2c.8,1.08.77,1.66-.09,2.81a1.41,1.41,0,0,0,0,1.91c.84,1.14.85,1.7,0,2.81a1.39,1.39,0,0,0,0,2,2,2,0,0,1,.06,2.75,1.63,1.63,0,0,0,0,2.36,1.65,1.65,0,0,1,.17,2.19,3.23,3.23,0,0,0-.73,2.55.64.64,0,0,1-.32.68,71.89,71.89,0,0,1-8.56.13,1.08,1.08,0,0,1-1.11-.94,5.83,5.83,0,0,0-.42-1.52,6.68,6.68,0,0,1-.18-2.09c0-4.48,0-9,0-13.43,0-1.63-.1-1.73-1.71-1.74-1.93,0-3.86,0-5.79,0s-1.94.06-2,1.9V121.8a6.94,6.94,0,0,1-.19,2.22c-.84,2.46-.84,2.46-3.54,2.46H53.45c-2.73,0-2.73,0-3.56-2.45a6.89,6.89,0,0,1-.19-2.22c0-4.4,0-8.79,0-13.19,0-1.85-.06-1.89-2-1.9s-3.87,0-5.8,0c-1.59,0-1.7.11-1.7,1.74,0,4.44,0,8.88,0,13.32a7.27,7.27,0,0,1-.18,2.23c-.82,2.46-.82,2.46-3.54,2.46-4.44,0-8.89.14-13.32,0-3.56-.15-7.11-.19-10.66-.23A1.72,1.72,0,0,1,11.3,125.85Z"></path><path class="cls-1" d="M108.53,63.55c-.79-.69-7.33-.57-7.72-.85a71,71,0,0,0-9.25-3.12,11.11,11.11,0,0,0-4.3,0,1.6,1.6,0,0,0-1.16.53c-.08.1-11.34,1.61-13.44,2.09a3.47,3.47,0,0,1-2.18-.38c-2.14-.9-4.24-1.91-6.47-2.62-5.38-1.73-10.34-1.29-15,2.25-2.47,1.89-5.34,3.23-7.73,5.27A4.44,4.44,0,0,0,40,68a9.83,9.83,0,0,1-3.24,3.59c-1.45,1.08-2.48,2.63-4.07,3.52-1,0-2,.41-2.94-.29A39.22,39.22,0,0,1,35.43,69c1-.94,2-1.95,3-2.95A65.39,65.39,0,0,1,60.13,51.86a77.77,77.77,0,0,1,21.22-5.27c3.66-.43,7.32-.65,11-.82,4.13-.18,8.26-.31,12.39-.18a113,113,0,0,1,29.38,4.49,53,53,0,0,1,12.16,5.24c-.47.57-1.15.54-1.8.63a24.27,24.27,0,0,0-9.5,3.12"></path><path class="cls-1" d="M118.59,62.22a12.74,12.74,0,0,1-2,.09c-1.06-1.32-1.06-1.32-2.36,0"></path><path class="cls-3" d="M29.77,74.85l3.26,0a2.68,2.68,0,0,1,1.83-.38c1,0,2.08,0,3.11,0,.66.07,1.31-.07,2,0,4.69-.06,9.37,0,14.06,0a9.91,9.91,0,0,1,2,.09,5.66,5.66,0,0,0,2.08.84,3,3,0,0,0,3.15-.82,9.87,9.87,0,0,1,2.1-.11q9.31,0,18.65,0a4.66,4.66,0,0,1,2.06.24c.56.51,0,.71-.3.79-1,.26-2,.89-2.59,1,1.88-1.37,4.36-.67,7-.42a1.49,1.49,0,0,0-.94-.26,7.13,7.13,0,0,1-.91,0c-.59-.1-1.39,0-1.16-1.06a1.82,1.82,0,0,1,1-.28c3.07,0,6.15,0,9.22,0,.94,0,1.61.41,1.65,1.47-.81.88-1.88.46-2.77.38-1.69-.17-3.11.8-4.12.68,1.36-.21,3.27-.87,5.31-.62a3.86,3.86,0,0,1,1.7.66,1.11,1.11,0,0,1,.4.7c-.8,1.42-1.56,1.87-3,1.46s-2.43.83-3.38.33a4,4,0,0,0,2.34-.35,1,1,0,0,1,1,.17c.29.19.62.38.61.79s-.45.49-.75.63c-.75.33-1.59-.2-2.2.2,1,.14,2.18-.29,3.34-.12a1.38,1.38,0,0,0,1.19-.36,1.41,1.41,0,0,1,1.17-.5,1,1,0,0,1,.46.36,1.9,1.9,0,0,1,.17,1.38c-.17.47.24.86.21,1.32-2-.18-4,.08-6.07-.1-.17,0,0,.25-.08.08s0,0,.13,0c2,.35,4.07-.21,6.08.28l.49,1.33a38,38,0,0,1-6,.2c-5,0-10.08,0-15.13,0s-10.17,0-15.25,0c-5.44,0-10.87,0-16.31,0-5.13,0-10.25.09-15.38.1-2.85,0-5.69.06-8.54.06-.37,0-.93.34-1-.4-.16-.56-.55-.53-1-.43-.81.18-.33-.36-.34-.62,1.13-1,2.5-.27,3.75-.43.82-.11,1.73-.1,2.59-.15-1.61-.08-3.22.27-4.83-.07-.53-.11-.92.5-1.48.39a18.52,18.52,0,0,1,.51-3.71,4.87,4.87,0,0,0,2.93-.21,2.32,2.32,0,0,1,2.1,0c.49.31,1,.1,1.55.05a2.62,2.62,0,0,1-1.88-.26,1.53,1.53,0,0,0-1.4,0,9.17,9.17,0,0,1-3.3.38c.15-4.7.15-4.69,4.79-4.7C27,74.92,28.38,74.87,29.77,74.85Z"></path><path class="cls-4" d="M183.2,125.9c1.19,0,2.38,0,3.56,0s1,.77,1,1.48.13,1.49-1,1.33a7.5,7.5,0,0,0-1.06,0h-172c-2.55,0-2.55,0-2.36-2.55a52.75,52.75,0,0,1,9.57.09,7.08,7.08,0,0,0,.92,0c5.5,0,11,.2,16.49-.07A105.09,105.09,0,0,1,49.08,126c10.2.54,20.39.2,30.59.19,3.5,0,7-.39,10.52-.19,3.29.18,6.57.22,9.86.26a43.1,43.1,0,0,0,4.57-.37c.7-.44.09-1.66,1.13-1.9a3.89,3.89,0,0,1,2.56.23c.36,1,1.11,1.26,2.14,1.25q4-.08,8.09,0a9.87,9.87,0,0,1,3.25.2,12.39,12.39,0,0,0,4.39.55c7.3.07,14.6.19,21.88,0,3.29-.1,6.59-.38,9.85-.18,6.23.39,12.46.15,18.69.26a7.91,7.91,0,0,0,2.33-.27C180.35,125.89,181.78,126.11,183.2,125.9Z"></path><path class="cls-5" d="M129.08,85.16l.06-1.8a.18.18,0,0,1,.29,0,16.94,16.94,0,0,0,3.56,0,21.14,21.14,0,0,1-3.73-.16,10.61,10.61,0,0,0-.28-2.11.57.57,0,0,1,.2-.32.84.84,0,0,1,1.18.17c.61.71,1.22,1,2,.26a.7.7,0,0,1,.83,0c-.95-.92-.95-.94.3-1.54-1.65-.31-3.45-.2-4.22-2.09a.8.8,0,0,1,.3-.46c1.52-1.7,3.16-.24,4.62-.24-.86-.5-2-.35-3-.67-.49-.15-.71.18-1,.42s-.63.2-.71-.3c.21-1.58.41-1.82,1.94-1.82a54.57,54.57,0,0,1,6,.09c.75.3.61.66,0,1-.42.22-1,0-1.55.58,1.65-.63,3.1-1.12,4.39.59-.17-.55-.48-.59-.67-.77s-.44-.29-.64-.46c-.48-.38-.5-.7.15-.9,4.11-.18,8.22-.2,12.33,0a2.83,2.83,0,0,0,4,0c4.46-.2,8.92-.18,13.38,0,.55.18.79.5.19.87s-.94.79-1.34,1c1.06-1.43,2.53-.77,4-.34,0-.38-.29-.24-.44-.29a4.54,4.54,0,0,1-.63-.18c-.38-.22-.85-.46-.22-.94a10.08,10.08,0,0,1,2.63-.13,1.82,1.82,0,0,1,.87.3,12.73,12.73,0,0,0,2,0c1.24-.15,1.77.37,1.74,1.57a6.72,6.72,0,0,0-5.41,1.25c-.88-1-1.86,0-2.67,0,.69.31,1.63-1,2.4.07.86,0,1.38-.75,2.21-1a4.65,4.65,0,0,1,2.9-.14c.27.11.4-.08.57-.19a16.48,16.48,0,0,1,.48,3.21c-.29.2-.59,0-.88,0-1.05-.11-2.08-.61-3,.07,1.2-.52,2.53.16,3.87-.07.26,1.35.47,2.7.81,4,.21.82-.91.61-.81,1.25s-.42.43-.73.42c-6.78-.2-13.55.08-20.33.06-8.85,0-17.7,0-26.55,0A2.46,2.46,0,0,1,129.08,85.16Z"></path><path class="cls-1" d="M20.29,88.1c.68.08.5.62.5,1q0,6.33,0,12.67a3.37,3.37,0,0,1,0,1.61q0,8,0,16.06c0,.38.11.8-.25,1.11a17.23,17.23,0,0,1-5.85-11.7c-.52-5.89,1.19-11.25,3.56-16.49C18.9,90.94,19.61,89.52,20.29,88.1Z"></path><path class="cls-6" d="M180.59,119l-1.27,1.15c-.25.22-.47.68-.82.55s-.25-.7-.25-1.06c0-2.42,0-4.84,0-7.26s0-5.1,0-7.65c0-.47.15-1-.25-1.38a2.3,2.3,0,0,1,0-1.49c.38-.41.23-.91.23-1.38,0-3.94,0-7.88,0-11.82,0-.46-.17-1,.24-1.37,2.92,5.12,5.39,10.4,6.11,16.35.6,5,.11,9.61-2.92,13.76a2,2,0,0,1-.43-1.6c0-3.68,0-7.36,0-11A6,6,0,0,1,182,102a9.12,9.12,0,0,1,.15-1.28c.16-.54.75-1.09,0-1.62-.53-.35-1-.62-1.69-.18s-.89.71-.5,1.38.1,1.4.4,2.06a2.19,2.19,0,0,1,.72,1.75c-.13,4.29,0,8.58-.06,12.87C181,117.68,181.15,118.42,180.59,119Z"></path><path class="cls-7" d="M21.6,84.64c1.48,0,3,.11,4.44.1,3.06,0,6.12,0,9.18-.14,1.83-.09,3.7-.17,5.5-.1,2.28.09,4.55,0,6.82,0a45.9,45.9,0,0,0,5-.07c1.6-.13,3.23.08,4.84.08s3.23-.07,4.84-.1,3.25,0,4.87,0l5.1,0,6.82,0c1.58,0,3.15,0,4.73.06q3.67,0,7.33,0c2.23,0,4.46,0,6.69-.1a2.77,2.77,0,0,1,1.53.24c.42.45.72.91.07,1.49-.51-.71-1-1.43-1.8-.23-.13.21-.4.1-.55-.11-.4-.57-.82-.6-1.26,0-.25.34-.49.3-.73,0-.06-.07-.13-.2-.17-.19a10.43,10.43,0,0,1-2.79,0c-.36,0-.82.63-1.25-.09-.93.72-2.08-.38-3,.37l-.09.1c-.81-.85-2,.19-2.6-.29C84.16,85,84,86,83.47,86s-.63-1-1.6-.38c-.65.41-1.86.13-2.81,0-.07,0-.13-.2-.17-.19-.89.18-1.78.54-2.66,0-.46.78-1,.1-1.36.12a16.28,16.28,0,0,0-2.73.11c-.5.12-.67.46-1.15-.09-.73-.85-.95.77-1.55.44s-.74-1.12-1.4-.24c-.78,1-.84-.38-1.35-.45s-.69,1.38-1.42.5c-.48-.57-.8-.6-1.22,0-.16.23-.43.48-.62.18-.76-1.15-1.26-.37-1.79.26-.52-.55-1-1.46-1.67-.29-.86-.51-1.73-.06-2.55-.12a2.9,2.9,0,0,0-1.39,0,4.21,4.21,0,0,1-2.58,0c-1-.92-1.17.31-1.69.33s-.86-1.39-1.6-.24a.55.55,0,0,1-.08.1c-.89-.67-2.06.32-2.75-.25-1-.82-1,.51-1.56.44s-.67-1.33-1.41-.45c-.43.51-.59.58-1,0-.8-1-1,.34-1.55.52-.48-.65-1-1.3-1.71-.17,0,.07-.32.11-.34.07-.6-1.06-1.17-.71-1.76,0,0,0-.25,0-.33-.11s-.18-.3-.31-.42c-.86-.76-1,.84-1.56.54s-.7-1.37-1.45-.31l-.14.22c-.83-.84-2,.28-2.64-.28-1-.92-1.11.57-1.65.42s-.73-1.51-1.54-.31a.76.76,0,0,1-.08.11c-.86-.68-1.85.11-2.74-.23,0,0-.05-.07-.08-.1-.89-.78-1,.79-1.56.57s-.61-1.45-1.41-.38c-.19.25-.44.64-.68.24-.69-1.12-1.14-.52-1.65.11-.06.07-.26,0-.39,0C19.7,84.77,20.07,84.45,21.6,84.64Z"></path><path class="cls-8" d="M173.79,74.81l-.87,0a2.81,2.81,0,0,1-1.76-1,35.19,35.19,0,0,0-4.36-3.62,9,9,0,0,1-2.53-2.66,8,8,0,0,0-2.43-2.2c-3.2-2.25-6.51-4.35-9.77-6.5-2.93-1.92-6.23-1.93-9.56-1.17A39.89,39.89,0,0,0,137,59.4a2.6,2.6,0,0,1-1.91.31.52.52,0,0,1-.23-.72c0-.57.51-.63.89-.82a31.55,31.55,0,0,1,10.56-2.85,17.1,17.1,0,0,1,10,3.74c2.16,1.61,4.64,2.82,6.81,4.47a10,10,0,0,1,3.26,3.53c.44.91,1.4,1.43,2.17,2.08A21.74,21.74,0,0,1,173.79,74.81Z"></path><path class="cls-9" d="M105.36,126.12c-.41.4-.92.24-1.38.24-27.34,0-54.67.06-82,0-3.55,0-7.11-.13-10.66-.2a.46.46,0,0,1,0-.26c2.85,0,5.71-.18,8.55,0,5.9.43,11.81.06,17.72.22,1,0,2,.12,1.75-1.41-.06-.35.24-.54.51-.69a9.1,9.1,0,0,1,3.12-.13,61.76,61.76,0,0,1,7.2.12c.27.17.57.36.51.7-.24,1.4.59,1.42,1.62,1.41q13.63,0,27.26,0c1,0,2,.08,1.74-1.42-.06-.36.26-.53.53-.68a28.67,28.67,0,0,1,5.24-.14,30.09,30.09,0,0,1,5.11.12c.2.17.49.34.44.62-.31,1.69.8,1.54,1.9,1.53,2.54,0,5.09,0,7.64,0A3.06,3.06,0,0,1,105.36,126.12Z"></path><path class="cls-10" d="M129.08,85.16c1.92,0,3.83-.13,5.75-.13,3.47,0,6.94.07,10.42.06,4,0,8,0,12-.09,3.21,0,6.41-.14,9.61-.07,3.63.08,7.25-.26,10.87.12.06,0,.13-.1.19-.16.85-.21,1.21.2,1.28,1-1.32,0-2.67.06-4,0-1,0-2,0-3.06-.09a16.31,16.31,0,0,0-3,.06c-.95.09-1.93,0-2.9,0a26,26,0,0,1-3.41.06c-1-.11-2,0-3-.09s-2.17.19-3.25.1a22.8,22.8,0,0,0-3,0c-1.08,0-2.16,0-3.24,0s-2-.06-2.94,0a26.45,26.45,0,0,1-3.33.07,8,8,0,0,0-1.55,0,17,17,0,0,1-3.42,0c-1.05-.28-2.09,0-3.16-.16a13.93,13.93,0,0,0-2.93.1c-1.34.09-2.68-.09-4,.1C128.61,86.13,128.9,85.49,129.08,85.16Z"></path><path class="cls-11" d="M180.59,119c0-5.12.07-10.25.17-15.38,0-.77-1-.57-.91-1.25.68-1.09,1.57-1,2.55-.46,0,.33.2.76-.22.94-.73.3-.59.94-.59,1.46,0,4.36.06,8.72.09,13.09,0,2.41-.32,4.86.65,7.19.21.5.19,1.14.87,1.32-1.25.9-2.56.61-3.88.2-.17-.06-.19-.15-.07-.28,1.46-.74,1.12-2.24,1.34-3.44A16.7,16.7,0,0,0,180.59,119Z"></path><path class="cls-12" d="M20.29,83.33a2.83,2.83,0,0,1,2.47-.56,6.61,6.61,0,0,0,3-.09,1.31,1.31,0,0,1,1.13,0c.25.13.68.18.5.6s-.41.21-.69.21a45.36,45.36,0,0,0-6.49.07Z"></path><path class="cls-13" d="M92.16,124a.62.62,0,0,1-.58.24c-3.06,0-6.12,0-9.18,0a2,2,0,0,1-.59-.21c0-5.49,0-11,0-16.47,0-1,.25-1.28,1.25-1.25,2.68.07,5.36.06,8,0,.88,0,1.1.25,1.1,1.11C92.14,112.92,92.16,118.45,92.16,124Z"></path><path class="cls-14" d="M50.15,124a1,1,0,0,1-.84.24H40.83a1.59,1.59,0,0,1-1-.24c0-5.41.05-10.82,0-16.23,0-1.27.39-1.54,1.56-1.5,2.37.08,4.75.1,7.12,0,1.28-.06,1.72.21,1.7,1.62C50.09,113.25,50.15,118.62,50.15,124Z"></path><path class="cls-15" d="M149.74,107.41l10,0a.64.64,0,0,1,0,.45c-.12,2.28,0,4.57,0,6.85,0,.85-.2,1.29-1.19,1.28s-1.24-.34-1.21-1.24c0-1.32,0-2.64,0-4,0,1.37,0,2.74,0,4.11,0,.92-.45,1.06-1.23,1.08s-1-.3-1-1.08c.05-2.13,0-4.26.05-6.39-.05,4.7,0,9.41,0,14.11,0-1.78,0-3.55,0-5.32,0-1,.13-1.51,1.26-1.35.6.08,1.22,0,1.84,0,1.52.1,1.52.07,1.53,1.55,0,2.25,0,4.5,0,6.76a1.84,1.84,0,0,1-1.47.44c-2.37,0-4.75,0-7.12,0-1.45,0-1.58-.19-1.58-1.61q0-7.25,0-14.51C149.58,108.17,149.45,107.76,149.74,107.41Z"></path><path class="cls-16" d="M82.61,96.06c.67,0,.83-.42.81-1,0-1.49,0-3,0-4.47a1.71,1.71,0,0,1,1.25-1.89,9.11,9.11,0,0,1,6.18,0,1.72,1.72,0,0,1,1.24,1.91c-.06,1.4,0,2.81,0,4.21-.07.92.28,1.26,1.13,1.26.28.32,0,.52-.17.73-.58.25-.46.78-.48,1.24,0,1.22.08,2.45-.09,3.66a1,1,0,0,1-.18.38c-.51.38-1.1.21-1.66.23-1.93.07-3.86-.09-5.79,0-1,.07-1.44-.38-1.46-1.38A20.65,20.65,0,0,0,83.19,97a2.91,2.91,0,0,0-.46-.32C82.54,96.52,82.4,96.33,82.61,96.06Z"></path><path class="cls-16" d="M162.68,96.54c.8-1.92.39-3.93.41-5.89a1.88,1.88,0,0,1,1.44-2.05,9.4,9.4,0,0,1,5.7,0,1.94,1.94,0,0,1,1.59,2.21c-.09,1.4,0,2.81,0,4.21,0,.5,0,1,.61,1.11.23.26.05.45-.1.65a3.22,3.22,0,0,0-.24.28,22.08,22.08,0,0,0-.09,3.81c0,1-.36,1.5-1.47,1.5-2,0-4,0-6.06,0-.56,0-1.16,0-1.48-.6-.16-1.59,0-3.19-.1-4.78A1.23,1.23,0,0,0,162.68,96.54Z"></path><path class="cls-17" d="M39.27,96c0-1.79.1-3.59.07-5.38a1.82,1.82,0,0,1,1.37-2,9.19,9.19,0,0,1,6.06,0,1.7,1.7,0,0,1,1.28,1.88c-.08,1.53,0,3.06,0,4.6,0,.61.17.9.78.89.26.3,0,.53-.11.77-.57.84-.23,1.78-.3,2.68-.06.73,0,1.48-.08,2.22a.89.89,0,0,1-.18.38c-1.07.59-2.22.17-3.33.24-1.3.09-2.61,0-3.92,0s-1.55-.24-1.57-1.5C39.28,99.19,39.3,97.59,39.27,96Z"></path><path class="cls-16" d="M68.39,96c.62-.12.5-.61.5-1,0-1.5,0-3,0-4.48a1.66,1.66,0,0,1,1.18-1.83,9.05,9.05,0,0,1,6.2,0,1.67,1.67,0,0,1,1.28,1.89,23.4,23.4,0,0,0,0,2.37c0,1.24-.22,2.52.59,3.63a3,3,0,0,0-.25.25.91.91,0,0,0-.14.34c-.09,1.28,0,2.55,0,3.81,0,1-.42,1.44-1.43,1.4-2-.08-4,0-6,0-1,0-1.41-.42-1.43-1.41A22.31,22.31,0,0,0,68.67,97l-.25-.3C68.3,96.5,68.09,96.28,68.39,96Z"></path><path class="cls-18" d="M53.84,96c.5-.29.31-.78.31-1.19,0-1.4.07-2.81,0-4.21a1.76,1.76,0,0,1,1.33-2,9.16,9.16,0,0,1,6.07,0,1.7,1.7,0,0,1,1.29,1.88c-.08,1.49,0,3,0,4.47,0,.4-.18.94.51,1a.51.51,0,0,1,.07.54A2.61,2.61,0,0,1,63,97a17.35,17.35,0,0,0-.14,3.67c-.06,1.43-.21,1.64-1.59,1.65-1.85,0-3.7.06-5.54,0-1.47,0-1.71-.31-1.76-1.83a30.18,30.18,0,0,0-.08-3.56c-.06-.11-.11-.23-.17-.35A.44.44,0,0,1,53.84,96Z"></path><path class="cls-16" d="M133.86,96c.59-.22.39-.73.39-1.13,0-1.45.06-2.9,0-4.35a1.71,1.71,0,0,1,1.28-1.89,9.25,9.25,0,0,1,6.08,0,1.68,1.68,0,0,1,1.27,1.88c-.07,1.5,0,3,0,4.49,0,.42-.1.9.48,1,0,.34-.17.64-.14,1,0,1.51.08,3-.07,4.53a.81.81,0,0,1-.82.71,70.33,70.33,0,0,1-7.82-.09.48.48,0,0,1-.22-.14,1,1,0,0,1-.18-.39c-.25-1.67.18-3.38-.27-5A.5.5,0,0,1,133.86,96Z"></path><path class="cls-16" d="M24.8,96c.61-.14.48-.63.48-1.05,0-1.49.06-3,0-4.48a1.7,1.7,0,0,1,1.3-1.87,9.26,9.26,0,0,1,6.06,0,1.71,1.71,0,0,1,1.28,1.89c-.06,1.44,0,2.89,0,4.34,0,.42-.13.9.38,1.16a1.86,1.86,0,0,1-.11.84c-.17,1.58.06,3.17-.13,4.75-.19.67-.73.67-1.27.68-2.1,0-4.2-.07-6.3,0-.92,0-1.22-.45-1.25-1.28A23.9,23.9,0,0,0,25.08,97a3.2,3.2,0,0,1-.25-.27C24.72,96.48,24.52,96.27,24.8,96Z"></path><path class="cls-16" d="M148.11,96a17.45,17.45,0,0,0,.18-5.2,2.07,2.07,0,0,1,1.76-2.34,9.34,9.34,0,0,1,5.68.16A1.64,1.64,0,0,1,157,90.43c-.07,1.53,0,3.07,0,4.6,0,.52,0,1,.7,1,.08.28-.12.45-.25.66a1.84,1.84,0,0,0-.15.35c-.1,1.27,0,2.54,0,3.81,0,1-.38,1.46-1.39,1.47-2,0-4,.06-6.05,0-1.06,0-1.45-.61-1.46-1.6A31.67,31.67,0,0,0,148.11,96Z"></path><path class="cls-19" d="M25.28,96.55c.6,1.25.25,2.57.24,3.85s.14,1.71,1.62,1.55a44.51,44.51,0,0,1,6.11,0,.52.52,0,0,0,.54-.23c.5-1.73.09-3.5.23-5.24l.26-.47c.57,1.23.19,2.52.23,3.77.08,2.1,0,2.1,2.08,2.1,2.46,0,2.41,0,2.47-2.49,0-1.14-.3-2.31.21-3.43.53,1.58.23,3.21.27,4.82,0,.83.13,1.18,1.17,1.14,2.42-.09,4.85.07,7.27.12,1.45-.31,2.92,0,4.38-.12.48,0,1.08.26,1.41-.38.12-1.22,0-2.44.06-3.66,0-.47-.1-1,.27-1.37.61,1.34.24,2.76.23,4.13,0,1.08.43,1.35,1.34,1.35,1.92,0,3.83,0,5.75,0,.81,0,1.17-.26,1.17-1.2,0-1.42-.35-2.87.23-4.26.54.69.27,1.51.34,2.27a9.45,9.45,0,0,0,.17,2.71,2.35,2.35,0,0,0,.29.26h0a18.89,18.89,0,0,0,4.25.14c.23,0,.37-.2.49-.38a15.3,15.3,0,0,0,.16-3.38c0-.56-.08-1.14.35-1.61.6,1.38.26,2.84.24,4.25,0,1,.37,1.29,1.25,1.25a48.29,48.29,0,0,1,5.77,0c.89.07,1.24-.24,1.23-1.25,0-1.42-.34-2.88.22-4.27a31,31,0,0,1,.14,4.62c.19-1.29-.2-3,.16-4.61a1,1,0,0,1,.24,0c0,1.48.09,3,.08,4.44,0,.65.19.9.89.94,3.3.17,3.26.19,3.31-3.1,0-.92-.3-1.88.22-2.76l.23.47c.66,1.13.09,2.37.3,3.35.15-1-.26-2.18.23-3.32.68,1.28.27,2.65.25,4s.35,1.56,1.62,1.48a43.53,43.53,0,0,1,6.85.06,1.39,1.39,0,0,1,1.48-.12c.75,0,1.5,0,2.24,0,.42,0,.65.15.67.61s-.18.73-.69.71c-.31,0-.62,0-.93,0q-36.27,0-72.56,0c-.55,0-1.62.55-1.58-.68s1-.46,1.56-.59c.82-.2,1.76.34,2.51-.38a18.4,18.4,0,0,0,.14-3.4C25,97.62,24.85,97,25.28,96.55Z"></path><path class="cls-19" d="M148.11,96c.95,1.35.51,2.89.49,4.33s.4,1.67,1.71,1.59c1.79-.12,3.6,0,5.4.05.77,0,1.17-.25,1.15-1.21,0-1.41-.34-2.87.23-4.26.62,1.15,0,2.4.22,3.12-.14-.73.37-2-.2-3.14l.52-.49c.59,1.18.2,2.44.24,3.66.08,2.21,0,2.21,2.25,2.21,2.48,0,2.48,0,2.49-2.47,0-1,0-1.93.07-2.89a.41.41,0,0,1,.22,0,22.29,22.29,0,0,1,.14,3.74c0,.51-.14,1,.13,1.53a45.49,45.49,0,0,0,6.5.16c1.94,0,1.88,0,2-2,0-1.16-.35-2.35.24-3.46.37,1.63,0,3.32.26,5,.1.17.19-.12.05,0s-.11,0-.11-.07a22.84,22.84,0,0,1,.12-4.89c.07-.15.15-.29.22-.44a19.9,19.9,0,0,1,.16,4.69c0,.82.17,1.19,1.08,1.14,1.45-.09,2.9,0,4.35-.07a1.11,1.11,0,0,1,0,1.49c-.74,0-1.49,0-2.24,0H131.41c-.82,0-1.74.12-1.23-1.22a13.63,13.63,0,0,1,4.18,0c2.56,0,5.12-.07,7.68-.08.31,0,.6.13.81-.2a25.1,25.1,0,0,0,0-5.2l.47-.51c.45,1.59.14,3.2.18,4.8,0,.79.21,1,1,1,3.34,0,3.32.08,3.35-3.2A5.43,5.43,0,0,1,148.11,96Z"></path><path class="cls-20" d="M105.36,126.12l-3.22,0c-.17-1.1-1-2.27.62-3.13.39-.2.49-1.3-.17-1.85a1.65,1.65,0,0,1,0-2.78,1.47,1.47,0,0,0-.2-2.25,2,2,0,0,1-.08-2.6c1-.69,1-1.5,0-2.2a2,2,0,0,1,.09-2.61,1.28,1.28,0,0,0,.11-2.15,1.7,1.7,0,0,1,.51-2.93c-.93-.11-1.44-.66-1-1.29s1.29-1.35,2-1c1.56.81,3.17.3,4.74.47a4.64,4.64,0,0,0,.53,0c.6,0,1.16,0,1.13.84s-.54.77-1.08.77c-1.53,0-3,0-4.66.11.58.39,1,.77.94,1.52a1.84,1.84,0,0,1-.83,1.63c-.52.34-.48,1.55-.06,1.75,1.32.64.73,1.72.9,2.62l-.1.16c-.37.49-.9,1-.39,1.7.41-.53-.13-1.39.68-1.7a.63.63,0,0,1,.29.29,11.1,11.1,0,0,1,.16,3.4c0,1.1.11,1.94,1.47,1.94a.63.63,0,0,1,.55.39c-.37.89-2.19.09-2,1.71a14.52,14.52,0,0,1,0,3.16c-.18,1.6,1.53,1,2.08,1.85-1,.36-1.89,0-2.74.27C105,124.81,105.54,125.51,105.36,126.12Z"></path><path class="cls-21" d="M121.94,108.88a1.39,1.39,0,0,0,.41-2.34,1.91,1.91,0,0,1,.25-3.11c-1.62,0-3.25,0-4.88,0-.81,0-1.18-.27-1-1.09.14-.57.63-.53,1.07-.53,1.19,0,2.38,0,3.56,0a2.23,2.23,0,0,0,1.6-.38c.52-.43,2.08.18,2.35.81.35.79-.1,1.19-.95,1.34a1.66,1.66,0,0,1,.34,3,1.46,1.46,0,0,0,.09,2.09,1.75,1.75,0,0,1,.1,2.68,1.27,1.27,0,0,0,0,2.15,1.66,1.66,0,0,1-.1,2.65,1.54,1.54,0,0,0,0,2.28,1.75,1.75,0,0,1,.11,2.62,1.29,1.29,0,0,0,0,2.2c1,.83.46,1.89.21,2.87a8.4,8.4,0,0,1-2.69.13c-.92,0-.63-1-1.15-1.37a3.25,3.25,0,0,0-1.54-.24,1.45,1.45,0,0,1-1.27-.54c-.07-.26.07-.41.27-.53a5.39,5.39,0,0,1,2.26-.12.78.78,0,0,0,1-.4c1-.93,0-1.61-.31-2.38a4.44,4.44,0,0,1,.08-2,1.68,1.68,0,0,0,0-2.63,4.52,4.52,0,0,1-.09-2.1c.49-.82,1.12-1.63.27-2.6A5.62,5.62,0,0,1,121.94,108.88Z"></path><path class="cls-22" d="M35.56,107.36q0,5.72,0,11.41a2.6,2.6,0,0,0,.22,1.53c-.85.36-1.23,0-1.33-.85a12.18,12.18,0,0,0-.18-2.08,15.56,15.56,0,0,0-.21,2.25c-.07.4-.15.79-.69.8s-.65-.37-.73-.77c-.16-.78,0-1.58-.24-2.68-.21,1-.06,1.83-.18,2.57-.06.38-.09.87-.64.84s-.48-.46-.54-.8a14.15,14.15,0,0,0-.22-2.23,21.5,21.5,0,0,0-.2,2.27c-.06.4-.17.79-.7.8s-.64-.38-.72-.78a18.63,18.63,0,0,0-.25-2.56c-.19,1,0,1.75-.17,2.5-.07.4-.15.81-.67.84s-.7-.43-.77-.87a18.82,18.82,0,0,0-.21-2.34,8.57,8.57,0,0,0-.13,2.24c0,.93-.35,1.21-1.2.84a2.91,2.91,0,0,0,.2-1.54l.06-11.12c1.15-.31,1.12.6,1.16,1.24.11,1.65,0,3.31.05,5v-4.19a5.26,5.26,0,0,1,.08-1.19c.1-.44.26-.91.79-.91s.64.55.67,1c.1,1.41,0,2.81.05,4.22a4,4,0,0,0,.13,1.42c.19-1.66.06-3.32.14-5,0-.65-.18-1.68.8-1.66s.74,1,.76,1.7c.06,1.65,0,3.31.14,5a34.59,34.59,0,0,0,.13-4.07,11.86,11.86,0,0,1,.05-1.58c.06-.42.06-1,.64-1s.58.61.6,1c.11,1.84,0,3.69.18,5.54.14-1.54.08-3.08.13-4.62,0-.75-.17-1.91.86-1.92s.66,1.15.7,1.83c.08,1.57,0,3.15.15,4.73.19-1.75.06-3.51.15-5.26C34.47,108.18,34.4,107.3,35.56,107.36Z"></path><path class="cls-22" d="M53.52,120.27a2.21,2.21,0,0,0,.24-1.51q0-5.57,0-11.13c1-.29.86.52.9,1,.12,1.31,0,2.63,0,4a4,4,0,0,0,.16,1.57c.11-1.56.06-3.13.11-4.69,0-.75-.17-1.91.88-1.88s.65,1.18.68,1.87c.07,1.56,0,3.13.15,4.69.15-1.6.09-3.21.14-4.81,0-.67-.11-1.7.79-1.68s.75,1,.77,1.72c0,1.53,0,3.07,0,4.6,0-1.39,0-2.79,0-4.19a6.73,6.73,0,0,1,0-1.19c.08-.49.22-1,.8-1s.67.61.69,1.07c.09,1.58,0,3.16,0,4.74a1.24,1.24,0,0,0,.15.79c.13-1.59.05-3.19.12-4.79,0-.69-.25-1.79.75-1.82s.77,1.08.8,1.76c.08,1.62,0,3.24.15,4.86.18-1.74.07-3.48.15-5.22,0-.82,0-1.73,1.19-1.83-.1,4.38-.2,8.77,0,13.15-.73.39-1,0-1.18-.65s0-1.49-.2-2.24a13.29,13.29,0,0,0-.2,2.18c-.07.45-.16.9-.77.86s-.61-.43-.68-.83a21.26,21.26,0,0,0-.21-2.23,18.49,18.49,0,0,0-.2,2.22c-.05.34-.08.77-.53.8s-.58-.43-.65-.81a16,16,0,0,0-.24-2.45c-.18,1,0,1.78-.18,2.53-.07.4-.19.79-.72.78s-.63-.4-.71-.8a17.12,17.12,0,0,0-.21-2.24,10.2,10.2,0,0,0-.16,1.83c-.06.5,0,1.16-.74,1.19s-.71-.63-.77-1.14a9.74,9.74,0,0,0-.18-1.85,15.31,15.31,0,0,0-.18,2C54.6,120.13,54.39,120.68,53.52,120.27Z"></path><path class="cls-23" d="M163.36,120.52c.24-4,0-8.07.11-12.1,1.05-.09,1.09.7,1.13,1.39.09,1.62,0,3.25.17,4.88.13-1.44.07-2.88.13-4.32,0-.67-.27-1.79.79-1.77s.73,1.13.76,1.81c.05,1.28,0,2.55,0,3.83,0-1.47,0-2.94,0-4.4,0-.55,0-1.31.79-1.28s.72.77.75,1.32c.08,1.62,0,3.25.13,4.87a43.34,43.34,0,0,0,.16-4.55c0-.65-.18-1.65.83-1.62s.71,1,.73,1.58c.07,1.5,0,3,.16,4.49.14-1.39.06-2.78.13-4.17,0-.71-.31-1.89.82-1.87s.71,1.13.73,1.83c.05,1.3,0,2.62,0,3.93,0-1.48-.06-3,0-4.44,0-.63,0-1.54,1.15-1.25q0,5.16.07,10.34a3.23,3.23,0,0,0,.17,1.54c-.7.43-1.08.22-1.15-.57a7.84,7.84,0,0,0-.17-2c-.18.62-.08,1.28-.2,1.91-.08.4-.19.8-.71.79s-.62-.41-.71-.81a17.82,17.82,0,0,0-.22-2.3c-.23.91-.07,1.67-.22,2.38-.08.35-.19.7-.63.73s-.68-.33-.76-.74c-.15-.69,0-1.4-.15-2.17-.37.41-.17.84-.23,1.22-.12.64.2,1.68-.8,1.64s-.66-1.06-.74-1.71a6.64,6.64,0,0,1,0-.89,14.35,14.35,0,0,1-.15,2c-.11.37-.32.64-.75.6s-.51-.31-.59-.62c-.18-.73,0-1.49-.22-2.54a17,17,0,0,0-.23,2.24C164.42,120.43,164.25,121.09,163.36,120.52Z"></path><path class="cls-24" d="M121.94,108.88c.12.8-.18,1.65.29,2.4a13.78,13.78,0,0,0-.27,2.4V116a7.46,7.46,0,0,1,0,2.45v2.34a9.57,9.57,0,0,1,0,2.45c0,.2,0,.45-.17.58s-.29,0-.39-.16c-.55-.7-.32-1.52-.35-2.3a18.57,18.57,0,0,1,0-2.11c0-.93-.24-1.54-1.29-1.57a.79.79,0,0,1-.67-.37c0-.42.36-.49.63-.51,1.11-.06,1.42-.68,1.32-1.67,0-.31,0-.62,0-.93,0-2,0-2-1.81-2.71a1.2,1.2,0,0,1-.5-.42c-.48-.68-.59-1.54-1.14-2.2a5.24,5.24,0,0,0-8.53.9c-.17.31-.27.64-.41,1-.78,1-1.38,1.18-2.76.58l-.27,0c-.16-.08-.17-.17,0-.28v0c.07-.1.21-.21.2-.31-.22-3.72,2.64-5.65,5.92-6.18a11.38,11.38,0,0,1,6.57.82c2,.91,2.78,2.25,3.3,5.4C121.88,110.17,121.46,109.44,121.94,108.88Z"></path><path class="cls-22" d="M67.87,120.3a2.13,2.13,0,0,0,.21-1.4c0-3.76,0-7.52,0-11.29,1.1-.41,1.06.47,1.1,1.07.11,1.36,0,2.72,0,4.09a3.77,3.77,0,0,0,.14,1.37c.16-1.71.06-3.42.13-5.12,0-.56-.15-1.47.71-1.43.67,0,.56.88.59,1.43.06,1.68,0,3.38.14,5.06a39.28,39.28,0,0,0,.13-4.2,7.3,7.3,0,0,1,.06-1.32c.09-.49.24-1,.83-1s.64.64.67,1.11c.1,1.82-.05,3.66.18,5.49.13-1.65.07-3.29.12-4.93,0-.62-.18-1.59.67-1.63s.86.93.89,1.61c.07,1.65,0,3.31.15,5a34,34,0,0,0,.12-4,11.86,11.86,0,0,1,0-1.58c.06-.42.08-1,.65-1s.57.61.6,1c.1,1.84,0,3.69.17,5.54.14-1.43.11-2.87.12-4.3a4.85,4.85,0,0,1,.17-1.7c.18-.46.42-.9,1.05-.76l0,11.39a3.12,3.12,0,0,0,.19,1.54c-.91.38-1.3,0-1.39-.92a8.83,8.83,0,0,0-.19-2,15.46,15.46,0,0,0-.17,2c-.06.38-.08.89-.57.92s-.58-.55-.65-1a18.17,18.17,0,0,0-.17-2.28,8.09,8.09,0,0,0-.17,1.93c-.07.54.07,1.3-.74,1.32s-.71-.81-.79-1.37a9.55,9.55,0,0,0-.14-1.79,3.08,3.08,0,0,0-.17,1.31c-.08.65.21,1.74-.62,1.77s-.57-1.07-.67-1.7.13-1-.34-1.62a8.26,8.26,0,0,0-.25,2.37c-.06.42,0,1-.6,1s-.57-.57-.62-1a13.4,13.4,0,0,0-.19-2,10.63,10.63,0,0,0-.17,1.95C69.15,120.2,68.82,120.69,67.87,120.3Z"></path><path class="cls-25" d="M145.22,108.68c0,3.49,0,7,.05,10.48a2.1,2.1,0,0,0,.22,1.39l-.16.13c-.76.18-.89-.35-1-.9s0-1.31-.18-2.29c-.25,1-.1,1.77-.24,2.47-.08.41-.23.79-.75.75s-.56-.37-.64-.72a19.2,19.2,0,0,0-.24-2.11,7.73,7.73,0,0,0-.17,1.66c-.06.51,0,1.19-.76,1.16s-.67-.69-.74-1.2a7.09,7.09,0,0,0-.16-1.74c-.25.41-.12.8-.17,1.17-.09.61.2,1.65-.6,1.65s-.58-1.07-.67-1.71a4.92,4.92,0,0,0-.2-1.3c-.17,1-.05,1.67-.18,2.35-.07.4-.21.8-.72.79s-.62-.41-.69-.81c-.13-.68,0-1.38-.19-2.23a7.12,7.12,0,0,0-.21,2c-.08.52-.1,1.09-.85,1.1a.51.51,0,0,1-.34-.21c.2-4.12.14-8.24,0-12.36,1.13,0,1.14.93,1.19,1.7.09,1.58,0,3.16.16,4.75.13-1.38.07-2.77.14-4.15,0-.71-.31-1.89.83-1.86,1,0,.69,1.15.73,1.84.07,1.4,0,2.81.14,4.21a22.48,22.48,0,0,0,.13-3.17c0-.49,0-1,0-1.45s-.08-1.37.64-1.39.63.82.66,1.36c.07,1.56,0,3.13.14,4.69a22.17,22.17,0,0,0,.13-3.26,16.21,16.21,0,0,1,0-1.71c.06-.51,0-1.18.77-1.17s.72.67.75,1.18c.1,1.66,0,3.32.16,5a20.36,20.36,0,0,0,.13-3.12c0-.44,0-.88,0-1.32.08-.65-.19-1.67.76-1.7s.78,1,.81,1.65c.06,1.48,0,3,.13,4.44.21-1.6.06-3.21.18-4.81C144.36,109.35,144.17,108.49,145.22,108.68Z"></path><path class="cls-26" d="M77.62,107.37a1.37,1.37,0,0,0-.82,1.49c0,1.67,0,3.35,0,5,0,.47.39,1.34-.55,1.32s-.46-.81-.47-1.27c0-1.62,0-3.25,0-4.88a2.24,2.24,0,0,0-.16-1.27c-.56.14-.36.57-.37.86,0,1.89,0,3.78,0,5.68,0,.36.12.87-.47.91s-.58-.52-.58-.94c0-1.84,0-3.69,0-5.54,0-.39,0-1-.42-1s-.35.61-.35,1c0,1.76,0,3.52,0,5.28,0,.45.32,1.22-.55,1.2s-.47-.72-.48-1.14c0-1.81,0-3.61,0-5.41,0-.31.19-.85-.3-.87s-.45.54-.47.92a9.2,9.2,0,0,1,0,1.05c-.23,1.82.53,3.7-.39,5.47-1.43-1.72-.3-3.73-.65-5.58a9.64,9.64,0,0,1,0-1.32c0-.2,0-.44-.37-.56a4.2,4.2,0,0,0-.15,1.86c0,1.63,0,3.25,0,4.88,0,.36,0,.74-.54.73s-.51-.39-.51-.75v-5.81c0-.54.06-1.11-.75-1.07-.52-1-.38-1.43.91-1.39,2.63.08,5.28,0,7.91,0C78,106.21,78.11,106.58,77.62,107.37Z"></path><path class="cls-26" d="M63.35,107.11a1.88,1.88,0,0,0-.83,1.79c0,1.8,0,3.6,0,5.41,0,.37.13.88-.46.92s-.58-.52-.58-.93c0-1.94,0-3.87,0-5.81,0-.32.12-.81-.43-.77s-.34.46-.34.74c0,1.81,0,3.61,0,5.42,0,.47.39,1.34-.54,1.32s-.47-.81-.48-1.27c0-1.75,0-3.51,0-5.27,0-.32.18-.85-.3-.87s-.47.54-.48.92c0,1.84,0,3.69,0,5.54,0,.35.17.94-.4.93s-.39-.59-.39-1c0-1.85,0-3.69,0-5.54,0-.34.06-.85-.38-.86s-.4.49-.4.83c0,1.71,0,3.43,0,5.14,0,.49.37,1.38-.48,1.39s-.52-.93-.54-1.45c0-1.71,0-3.43,0-5.15,0-.3.17-.83-.36-.81s-.41.49-.41.85c0,1.85,0,3.7,0,5.54,0,.4.2,1-.46,1s-.57-.63-.57-1.06c0-1.8,0-3.6,0-5.41,0-.44.2-1-.55-1.12-.54-1.38-.54-1.38.92-1.39,2.67,0,5.34,0,8,0C63.37,106.24,63.85,106.31,63.35,107.11Z"></path><path class="cls-27" d="M35.56,107.36c-.65.23-.78.71-.77,1.35,0,1.85,0,3.69,0,5.54,0,.4.17,1-.53,1s-.5-.62-.5-1c0-1.89,0-3.79,0-5.68,0-.27.14-.72-.29-.75s-.48.42-.48.76c0,1.9,0,3.79,0,5.68,0,.4.18,1-.51,1s-.52-.59-.53-1c0-2.14,0-4.28,0-6.45-.74.07-.53.53-.53.81,0,1.76,0,3.52,0,5.28,0,.47.39,1.34-.55,1.32s-.46-.81-.47-1.26c0-1.81,0-3.61,0-5.41,0-.33.11-.83-.41-.81s-.37.51-.37.84c0,1.89,0,3.78,0,5.67,0,.4.18,1-.51,1s-.52-.59-.53-1c0-1.71,0-3.43,0-5.14,0-.44.36-1.29-.37-1.27s-.38.87-.39,1.36c0,1.63,0,3.25,0,4.88,0,.39.24,1.09-.36,1.09s-.41-.74-.42-1.15c0-1.71,0-3.43,0-5.14,0-.59,0-1.19-.8-1.24-.59-1-.35-1.44.91-1.41,2.63.08,5.28.07,7.91,0C36,106.2,36,106.61,35.56,107.36Z"></path><path class="cls-26" d="M145.22,108.68c-.76.1-.53.7-.54,1.13,0,1.67,0,3.35,0,5,0,.41.11,1-.58.93s-.46-.55-.47-.92c0-1.63,0-3.26,0-4.89,0-.41.31-1.16-.41-1.15s-.34.7-.35,1.1c0,1.62,0,3.25,0,4.88,0,.4.16,1-.53,1s-.5-.61-.51-1c0-1.76,0-3.52,0-5.28,0-.29,0-.7-.38-.71s-.39.4-.39.7c0,1.63,0,3.25,0,4.88,0,.49.38,1.36-.48,1.39s-.52-.85-.54-1.33c0-1.62,0-3.25,0-4.88,0-.24.1-.54-.35-.72a12,12,0,0,0-.17,3.32c0,1,0,1.94,0,2.91,0,.36,0,.74-.52.74s-.52-.37-.53-.73c0-1.63,0-3.26,0-4.89,0-.47.29-1.34-.34-1.33-.81,0-.39.91-.41,1.4-.06,1.54,0,3.08,0,4.62,0,.37.13.88-.46.92s-.58-.51-.58-.93c0-1.63,0-3.26,0-4.88a1.86,1.86,0,0,0-.83-1.79c-.3-.46-.37-.83.36-.83,3,0,6-.1,9,0C146.27,107.42,145.24,108.22,145.22,108.68Z"></path><path class="cls-26" d="M173,108.68c-.83,0-.79.66-.79,1.25,0,1.58,0,3.17,0,4.75,0,.38.23,1-.43,1s-.35-.62-.36-1c0-1.72,0-3.44,0-5.15,0-.33.1-.83-.41-.81s-.37.52-.37.84c0,1.72,0,3.44,0,5.15,0,.4.17,1-.52,1s-.52-.59-.52-1c0-1.63,0-3.26,0-4.88,0-.4.24-1.07-.36-1.1s-.4.66-.41,1c0,1.63,0,3.26,0,4.88,0,.4.2,1-.47,1s-.56-.64-.56-1.06c0-1.72,0-3.44,0-5.15,0-.32.11-.81-.44-.77s-.34.46-.34.75c0,1.58,0,3.17,0,4.75,0,.49.39,1.42-.41,1.4s-.34-1-.35-1.46c-.05-1.54,0-3.08,0-4.62,0-.33.11-.83-.39-.82s-.38.51-.38.84c0,1.71,0,3.43,0,5.15,0,.4.18,1-.51,1s-.52-.58-.52-1c0-1.68,0-3.35,0-5,0-.65-.12-1.12-.77-1.34-.44-.78-.37-1.14.68-1.12,2.63.06,5.25.07,7.88,0C173.23,107.27,173.57,107.59,173,108.68Z"></path><path class="cls-28" d="M121.74,124.25c.58,1.87.58,1.87,2.75,1.86l.66,0h22.69c.78,0,1.22,0,1.33-1.06.57-5.39.08-10.79.27-16.19,0-.48-.27-1.06.3-1.44q0,8-.07,16c0,.5.11.83.72.83,3,0,6,0,8.94,0,.14,0,.27-.17.4-.26a68.66,68.66,0,0,1-.11-7.59c0-2.92-.16-5.85.07-8.77l0-.25c.6.29.33.85.33,1.28,0,4.34.06,8.69,0,13a22.39,22.39,0,0,0,.48,3.85c.09.58.48.54.87.54,5.4,0,10.79,0,16.19,0a10.54,10.54,0,0,0,1.67-.26l.07.28a15.27,15.27,0,0,1-4,.27q-26,0-52.06,0c-.53,0-1.29.39-1.54-.53A1.13,1.13,0,0,1,121.74,124.25Z"></path><path class="cls-29" d="M129.16,81a6.87,6.87,0,0,1,.19,2.35v0l-.21.06C129.33,81.7,128,81,127,80.12c-3.07-2.81-6.2-5.55-9.31-8.32-1-.93-2.09-1.87-3.1-2.84-.53-.51-.91-.46-1.45,0-3.25,2.87-6.54,5.7-9.81,8.54L98.5,81.75a1.91,1.91,0,0,1-.29-1.29c.52-1.42,1.88-2.06,2.92-2.95,3.88-3.35,7.66-6.84,11.61-10.11,1.07-.88,1.39-.91,2.35,0,4.41,4.28,9,8.33,13.44,12.62C128.8,80.3,129.23,80.47,129.16,81Z"></path><path class="cls-30" d="M119.06,83.93c0,1.63,0,3.26,0,4.88,0,.83-.18,1.18-1.09,1.16-2.9,0-5.81,0-8.71,0-.8,0-1.08-.25-1.07-1.06q.06-5.09,0-10.17c0-.84.35-1,1.1-1q4.36,0,8.72,0c.81,0,1.07.26,1,1.06C119,80.5,119.06,82.21,119.06,83.93Z"></path><path class="cls-31" d="M25.27,101.78c-1.06.63-2.22.15-3.32.31-.42.06-1.12-.26-1.1.53s.72.48,1.13.48q15.92,0,31.81,0H94.57c.26,0,.53,0,.79,0s1,.17,1-.55-.54-.45-.91-.47l-2,0c-.07,0-.09-.1-.07-.16s0-.08.07-.08c.83,0,1.67,0,2.5,0,.58,0,.77.28.75.83s-.26.7-.74.69H22.88c-.7,0-1.4,0-2.11,0a1.28,1.28,0,0,1,0-1.61c3.8.2,3.78.2,3.82-3.61,0-.71-.28-1.47.21-2.14l.25.51C25.37,98.28,25,100.05,25.27,101.78Z"></path><path class="cls-32" d="M67.87,120.3c.72.09,1.06-.16,1-1s0-1.58,0-2.37c0-.34.1-.61.51-.61s.52.26.52.61c0,1,0,2.08,0,3.29.75-.4.42-.94.55-1.33.27-.85-.7-2.49.67-2.46s.33,1.65.61,2.52c.12.35-.06.77.25,1.26.55-.92.17-1.84.31-2.68.07-.45-.3-1.23.58-1.18.73,0,.42.74.46,1.17s0,1.05,0,1.58c0,.38-.25,1.07.41,1s.32-.7.35-1.1c0-.65,0-1.31,0-2,0-.37,0-.74.53-.74s.52.38.52.74c0,1,0,2,0,3.32.79-.88.45-1.63.53-2.29a11.62,11.62,0,0,0,0-1.18c0-.35.14-.6.54-.59s.5.3.5.64c0,.74,0,1.49,0,2.24s.22,1.17,1,1c.16.45-.21.38-.42.38H68.36C68.13,120.67,67.8,120.73,67.87,120.3Z"></path><path class="cls-33" d="M163.36,120.52c.63.12.89-.14.87-.78s0-1.5,0-2.24c0-.35.12-.61.53-.6s.5.28.51.62c0,.79,0,1.58,0,2.37,0,.27,0,.58.37.59s.4-.29.4-.56c0-.66,0-1.32,0-2,0-.36-.19-1,.36-1s.4.64.43,1c0,.66,0,1.32,0,2,0,.28.08.55.44.5s.32-.27.32-.49c0-.66,0-1.32,0-2,0-.43-.23-1.11.56-1.08s.46.63.48,1c0,.66,0,1.32,0,2,0,.27.05.57.39.56s.38-.31.38-.58c0-.75,0-1.5,0-2.25,0-.35,0-.73.51-.75s.54.36.54.72c0,.71,0,1.41,0,2.11,0,.29-.08.72.35.74s.41-.47.42-.79c0-.7,0-1.4,0-2.11,0-.26,0-.56.32-.63s.58.27.61.54a9.86,9.86,0,0,1,.08,2.36c-.12.82.31.75.82.72-.21.45-.21.47-.36.47h-9.19C163.28,121,163,121,163.36,120.52Z"></path><path class="cls-32" d="M53.52,120.27c.53.08.85-.09.83-.69a6.29,6.29,0,0,1,0-1.44c.14-.6-.52-1.72.54-1.69s.37,1.13.49,1.75a8.75,8.75,0,0,1,0,1.45c0,.27,0,.57.39.57s.37-.3.38-.57a2.6,2.6,0,0,1,0-.4c.27-.94-.59-2.71.5-2.71s.26,1.73.55,2.65a2.24,2.24,0,0,1,0,.52c0,.23,0,.46.32.5s.43-.23.44-.51c0-.79,0-1.58,0-2.37,0-.4-.14-1,.56-1s.47.53.48.91a24.66,24.66,0,0,0,.14,2.84c.65-.55.32-1.26.4-1.89a11.78,11.78,0,0,0,0-1.19c0-.38.09-.71.58-.68s.46.34.47.66c0,.79,0,1.59,0,2.37,0,.33-.11.83.41.8s.35-.52.36-.84c0-.75,0-1.49,0-2.24,0-.36,0-.74.52-.75s.53.36.53.73c0,.79,0,1.58,0,2.37,0,.63.24.9.87.79.28.29,0,.4-.18.4q-4.76,0-9.51,0c-.11,0-.21-.12-.31-.2S53.48,120.34,53.52,120.27Z"></path><path class="cls-34" d="M25.81,120.29c.61.08,1,0,.85-.81a9.33,9.33,0,0,1,0-2.24c0-.37.15-.87.65-.83s.36.53.37.86c0,.79,0,1.58,0,2.37,0,.27,0,.58.38.58s.38-.3.39-.57a3.46,3.46,0,0,1,0-.79c.21-.82-.49-2.38.49-2.35,1.18,0,.31,1.57.55,2.41a4.15,4.15,0,0,1,0,.79c0,.28.08.54.44.5s.31-.27.32-.5a2.34,2.34,0,0,1,0-.65c.29-.88-.66-2.53.55-2.53,1.05,0,.26,1.68.49,2.59.08.32-.05.7.2,1.06.51-.29.31-.76.33-1.14,0-.62,0-1.23,0-1.85,0-.39,0-.85.57-.81s.48.43.48.78c0,.79,0,1.58,0,2.37,0,.3,0,.7.4.68s.37-.42.37-.72c0-.79,0-1.58,0-2.37,0-.36,0-.74.52-.74s.53.36.53.72c0,.75,0,1.5,0,2.24s.27,1,1,1c.05.21,0,.36-.24.36q-4.75,0-9.52,0c-.11,0-.22-.11-.31-.19S25.78,120.35,25.81,120.29Z"></path><path class="cls-35" d="M116.43,97.86c0,3.31.16,3.2-3.12,3.17-2.45,0-2.45,0-2.45-2.39,0-.74,0-1.49,0-2.23-.08-1.23.41-1.82,1.68-1.74.65,0,1.31,0,2,0,1.73,0,1.92.18,1.93,1.86Z"></path><path class="cls-36" d="M54.1,101.85c-2,.52-4.08.12-6.12.21,0-.08,0-.17,0-.26.52-1.15.13-2.37.26-3.55.06-.59-.17-1.22.28-1.74l.23-.48c.61.72.19,1.57.26,2.36a16.05,16.05,0,0,1,0,2.5c-.05.72.15,1,.93,1,3.56.1,3.53.12,3.58-3.38,0-.82-.32-1.71.27-2.48l0,.5a25.56,25.56,0,0,1,.13,3.91C54,100.91,53.81,101.4,54.1,101.85Z"></path><path class="cls-37" d="M98.77,83.3c-.83.57-1.8.16-2.64.17a14.23,14.23,0,0,1-4.31-.25c.69-.71,5.57-.82,6.89-.15A.24.24,0,0,1,98.77,83.3Z"></path><path class="cls-38" d="M68.64,101.78a8.79,8.79,0,0,1-5,0c1.17,0,2.35,0,3.53.06.8,0,1-.25,1-1,0-1.58-.32-3.19.2-4.76,0,.2,0,.43.26.52A28.44,28.44,0,0,1,68.64,101.78Z"></path><path class="cls-39" d="M93.44,101.82a1,1,0,0,0,0,.24H92.09l.06-.29c.55-.47.31-1.11.38-1.69.13-1.18-.32-2.42.36-3.54l.26-.48c.51,1.24.11,2.54.23,3.81C93.43,100.52,93.42,101.17,93.44,101.82Z"></path><path class="cls-25" d="M145.49,120.55c.36.29.13.48-.15.48-3.17,0-6.35,0-9.53,0-.42,0-.57-.2-.16-.52l.14.09c3.18,0,6.37,0,9.56,0Z"></path><path class="cls-40" d="M134.36,102.06h-4.18a3.59,3.59,0,0,1,2.26-.19c.9,0,1.11-.31,1.08-1.13-.05-1.3,0-2.61,0-3.91,0-.3-.21-.74.34-.83v.5c.49.81.16,1.71.25,2.56s-.2,1.83.22,2.7Z"></path><path class="cls-38" d="M63.62,101.79H63.3a11.45,11.45,0,0,1,0-5.24V96c.44.09.32.46.32.73C63.65,98.42,63.63,100.1,63.62,101.79Z"></path><path class="cls-41" d="M135,59.07c2.48-.55,4.93-1.14,7.41-1.73a13.77,13.77,0,0,1,12.5,3c1.9,1.52,4.09,2.69,6.12,4a11.76,11.76,0,0,1,4,3.68,10.2,10.2,0,0,0,2.92,2.61,17.63,17.63,0,0,1,3.89,3.47c.29.4.78.38,1.09.69l-2.88.09a.61.61,0,0,1-.81,0H155a3.44,3.44,0,0,1-3.14,0H138.6a.54.54,0,0,1-.77,0c-2,0-4,0-6,0-1.84,0-1.84,0-2.06,1.85a.49.49,0,0,1,0,.53l-.33.32a2.3,2.3,0,0,1-1.23-.72c-3.73-3.61-7.7-7-11.41-10.59-.39-.38-.92-.71-.91-1.38.47-.6,1.31-.67,1.81-1.26a2.6,2.6,0,0,0,.71-1.37.89.89,0,0,1,.19-.31"></path><path class="cls-41" d="M96.81,76.2c-.09-.93-.52-1.33-1.54-1.31-3.1.06-6.19,0-9.29,0a1.43,1.43,0,0,0-1,.19.48.48,0,0,1-.76,0,1.22,1.22,0,0,0-.87-.19H61.25a4.6,4.6,0,0,0-.52.06,6.67,6.67,0,0,1-4.3,0c-5,0-9.93,0-14.89-.06l-1.72,0c.06-.8.78-.88,1.28-1.12C43.47,72.58,46,71.33,48.24,70c1.36-.78,16.41-5.33,22.81-6.6,2.67-.53,5.12-1.54,7.75-2.21,1-.1,9.33-1.2,10.49-1.27a9.81,9.81,0,0,1,4.57.76c.07.89,16,3,16.76,2.65s7.38-1.5,8-1.25a6.86,6.86,0,0,1-.39,3.32c-4.15-.08-13,6-16.37,8.87-1.13,1-2.19,2-3.37,3-.33.26-.58.7-1.11.53l-.27-.53C97.05,76.89,96.77,76.59,96.81,76.2Z"></path><path class="cls-8" d="M79.16,61.72c-.81.8-1.93.7-2.91.93-5.43,1.28-11,2.07-16.31,3.77a18.2,18.2,0,0,0-6,2.63c-.47.37-1,.2-1.51.3s-.61-.26-.71-.62c-.11-.81.44-1.19,1-1.55a23.17,23.17,0,0,1,10.31-3.71l.51-.27c1.39-.52,2.9-.58,4.58-1.05-4-1.57-7.77-3-12-2.27A9.91,9.91,0,0,0,52,61.65c-2.39,1.8-5,3.25-7.46,5a18.6,18.6,0,0,0-3.9,3.51,24.77,24.77,0,0,1-5.79,4.75H33a28.39,28.39,0,0,1,4.64-4.46,6.23,6.23,0,0,0,1.67-2,8.6,8.6,0,0,1,2.88-2.84C45,63.42,48.1,61.71,51,59.79c3.86-2.52,8.07-2.33,12.32-1.13a40,40,0,0,1,6.85,2.71,4.45,4.45,0,0,0,3.3.33c1.48-.4,3-.62,4.51-.94a1.1,1.1,0,0,1,.89.08C79.2,61.07,79.41,61.33,79.16,61.72Z"></path><path class="cls-42" d="M94.14,61.5C91.83,61,89.4,60,87,60.6a1.09,1.09,0,0,1-1.22-.52c-.23-.81.38-.7.84-.79a14.28,14.28,0,0,1,7,.39c1.59.47,28,3.62,30.61,1.1-.16.33-3.1,1.14-3.26,1.47C115.87,65.35,94.9,61.93,94.14,61.5Z"></path><path class="cls-41" d="M34.81,74.87A6.34,6.34,0,0,1,37,73,24.54,24.54,0,0,0,41,69.08c1.82-2.18,4.39-3.47,6.72-5,1.06-.7,2.15-1.33,3.16-2.12,4-3.11,8.38-3.15,13-1.71a39.27,39.27,0,0,1,5.16,2C67.07,62.94,35.87,74.87,34.81,74.87Z"></path><path class="cls-43" d="M112.46,64.4c1.34-1.43,2.33-.31,3.37.46,2.5,2.72,5.38,5,8.06,7.57,1.82,1.72,3.65,3.41,5.48,5.11l1.27,1.12c.35.31.54.64,1.19.33s1.47.49,2.31.5c.28,0,.08.48-.16.55a10.19,10.19,0,0,1-1.36.22c.43.59,1.3.71,1.35,1.76-.88-.78-1.51-.8-2.24,0-.45.51-.91-.24-1.25-.55s-.52-.84-1.14-.59c-1.61-1.68-3.27-3.31-5-4.87-2.54-2.31-5-4.72-7.51-7-.64-.59-1.34-1.15-1.93-1.78-.83-.87-1.42-.66-2.2.05-4.73,4.27-9.63,8.35-14.32,12.67a.91.91,0,0,1-.47.23c-.45,0-.71.3-1,.59-.51.55-1,.47-1.74.46-1,0-2.27-.33-3.3.33a.54.54,0,0,1-.65.08,1.68,1.68,0,0,1,1.68-1.12c.66,0,1.35.29,2-.32-.64-1.1-1.44-.58-2.33-.36a10.8,10.8,0,0,1-2.61.05.68.68,0,0,1,.73-.68c1.16,0,2.36-.52,3.39-.28a3.14,3.14,0,0,0,3.32-1.14Z"></path><path class="cls-44" d="M97.92,80.16c1.93-2.36,4.43-4.11,6.64-6.16,2.57-2.38,5.29-4.6,7.9-6.93.89-.8,1.51-1.33,2.61-.13,1.51,1.64,3.32,3,4.92,4.55,2.93,2.84,5.88,5.66,8.92,8.38a1.07,1.07,0,0,1,.43,1l-.18.06c-4.73-4.38-9.48-8.76-14.18-13.18-.81-.77-1.28-.91-2.21-.08-4.81,4.3-9.7,8.51-14.56,12.76Z"></path><path class="cls-8" d="M51.92,68.65c.38.22,1.9.48,1.28.72-2.9,1.08-9.43,3.49-12.23,4.82a12.58,12.58,0,0,0-1.11.67c-.61,0-3.41-.47-4-.46,1.84-1.77,6.36-2.19,8.63-3.2,2-.9,4.14-1.61,6.22-2.4"></path><path class="cls-37" d="M38.86,82.14a46.12,46.12,0,0,1-5.47-.57c-.81-.21-1.78.3-2.69.4-.34,0-1,.23-1-.26s.52-.83,1-.75c1.27.18,2.62-1.15,3.81.2,1.17-.47,2.33.17,3.5.06a3.3,3.3,0,0,1,1,.07c.29.07.64.27.56.62S39.17,82.24,38.86,82.14Z"></path><path class="cls-45" d="M79.29,82.05a1,1,0,0,1,1-.79c1.1,0,2.17-.24,3.26-.29a20.22,20.22,0,0,0,2-.33,10.21,10.21,0,0,1,3.49.64.37.37,0,0,1,.2.54.53.53,0,0,1-.47.1c-3.13-.75-6.21.29-9.32.24C79.46,82.16,79.39,82.1,79.29,82.05Z"></path><path class="cls-37" d="M55.83,81.22c2-.09,3.58.43,5.23-.23a3.14,3.14,0,0,1,2.31.19c.39.17,1,.25.77.81s-.66.18-1,0a12.88,12.88,0,0,0-1.23-.45,1.2,1.2,0,0,0-1.14.05c-2,1.66-4.27-.21-6.37.36a.37.37,0,0,1-.47-.34c0-.35.27-.41.54-.41C55,81.21,55.58,81.22,55.83,81.22Z"></path><path class="cls-46" d="M55,80.27c-2.68.25-5.36.71-8.16.14C47.85,79.48,52.82,79.37,55,80.27Z"></path><path class="cls-47" d="M37.74,80.71c1.13-1.32,2.26-1.62,3.41-.91a1.61,1.61,0,0,0,1.47.26,5.65,5.65,0,0,1,2.2-.16c.33,0,1-.24.91.37s-.61.44-1,.39c-1.56-.22-3.14.71-4.71-.19C39.41,80.11,38.66,80.87,37.74,80.71Z"></path><path class="cls-37" d="M40.32,76.55c1.48-1,3.12-.45,4.67-.56a12.62,12.62,0,0,0,2.81,0,2.9,2.9,0,0,1,1.31,0c.43.08,1.2.16,1,.68-.23.7-.67-.09-1-.11a5.09,5.09,0,0,0-1.17,0A33.48,33.48,0,0,1,40.32,76.55Z"></path><path class="cls-48" d="M84.21,75.1H85a2.64,2.64,0,0,0,2,.33,1.29,1.29,0,0,1,1.26.18c.25.22.72.4.56.79s-.56,0-.86,0c-2-.11-3.91-1.06-5.88.06a4,4,0,0,1-2.39.35A19.31,19.31,0,0,1,84.21,75.1Z"></path><path class="cls-47" d="M29.86,76.73c1.6-2.1,6-2.06,9.39,0a1.4,1.4,0,0,1-1.58.12A10.3,10.3,0,0,0,29.86,76.73Z"></path><path class="cls-45" d="M81.24,80.47a1.06,1.06,0,0,1-1.24,0c-.32-.15-.68-.39-1-.16-1.62,1.21-3.4.14-5.08.39-.29,0-.7.07-.73-.35s.37-.4.66-.42.71,0,1.06,0c1.17,0,2.32.33,3.55-.2A2.41,2.41,0,0,1,81.24,80.47Z"></path><path class="cls-49" d="M68.91,76.81c.36-.66.73-.82,1-.82,1.59,0,3.17,0,4.77-.08.92-.07,2,0,2.94,0,.36,0,.83,0,.84.44s-.51.34-.82.35A41.26,41.26,0,0,1,71,76.47,4.37,4.37,0,0,0,68.91,76.81Z"></path><path class="cls-45" d="M96.81,76.2c.2.32.68.55.33,1-2.68-1.18-5.31-.11-8,0A11.62,11.62,0,0,1,96.81,76.2Z"></path><path class="cls-50" d="M55.39,78.86c1.35-.12,2.51-.58,3.79-.4a8.48,8.48,0,0,0,3.33.12c.31-.08.82-.09.88.33s-.46.34-.76.46c-1,.38-1.86-.34-2.72-.18a26.3,26.3,0,0,1-3.65.16C56,79.36,55.73,79.45,55.39,78.86Z"></path><path class="cls-37" d="M71.9,80.12c-2.62.72-5.23,0-7.84.22C66.66,79.36,69.29,79.66,71.9,80.12Z"></path><path class="cls-46" d="M51.86,77c.41-.39.58-.63.65-.6,1.18.46,2.4-.52,3.53.09.44.24.75,0,1.12,0a1.43,1.43,0,0,1,1.44.44c.14.19.23.38.07.59s-.33.19-.58.14c-1.35-.24-2.67-.67-4.1-.21C53.42,77.61,52.83,76.88,51.86,77Z"></path><path class="cls-48" d="M65.14,79c.56-.77,1-1,1.5-.87,1.2.31,2.42-.26,3.62.19.65.25,1.26-.19,1.86-.44.34-.14.91-.19,1,.28s-.45.36-.75.47C70.09,79.46,67.74,78.43,65.14,79Z"></path><path class="cls-51" d="M39.32,83.31c-3.28.62-6.58-.43-9.85.31C32.74,82.61,36,82.87,39.32,83.31Z"></path><path class="cls-51" d="M89.32,83.46c-3.29-.24-6.58.21-10,.1C80.24,82.87,86.92,82.7,89.32,83.46Z"></path><path class="cls-37" d="M20.8,79.62c1.79-.42,3.55-1.13,5.45-.38.43.16,1-.1,1.52-.11.28,0,.57.15.57.43s-.35.34-.6.32a6.49,6.49,0,0,1-2.55-.34c-1-.47-2,.56-3.12.51-.48,0-1.06.37-1.27-.43Z"></path><path class="cls-52" d="M45.85,78.28a1,1,0,0,1,1.42-.42c1.54.86,3.15.14,4.7.31.21,0,.43-.11.64-.1.44,0,1.07.06,1.06.51,0,.73-.62.29-1,.27-.74,0-1.48,0-2.23,0C48.9,78.84,47.34,79.07,45.85,78.28Z"></path><path class="cls-52" d="M60.23,77.88c.06-.83.51-1.29.8-1.26,1.2.11,2.38-.64,3.54-.1a1,1,0,0,0,1-.11c.55-.3,1-.18,1.54.41-1.15.06-1.91.55-3.1.37A4.45,4.45,0,0,0,60.23,77.88Z"></path><path class="cls-53" d="M66.87,82.21c.18-.56.74-.7,1.3-.72a17.63,17.63,0,0,0,3.9-.28,1.13,1.13,0,0,1,1,.17.55.55,0,0,1,.24.57c-.06.27-.27.27-.51.27Z"></path><path class="cls-46" d="M56,83.91c.38-.71.74-1.22,1.21-1.08,1.56.48,3.17.1,4.73.44.29.06.75.1.69.46s-.52.2-.85.19C59.91,83.89,58.05,83.91,56,83.91Z"></path><path class="cls-51" d="M45.74,82a1.05,1.05,0,0,1,1.47-.75,13.73,13.73,0,0,0,3.38.25,1.55,1.55,0,0,1,.65.07c.32.14.91.17.77.67s-.58.12-.9.07C49.33,82,47.53,82.4,45.74,82Z"></path><path class="cls-53" d="M22.66,76.19a13.72,13.72,0,0,1,3.85,0,2.4,2.4,0,0,0,1.53.21,1.49,1.49,0,0,1,1.3.49c.15.19.47.34.19.64a.39.39,0,0,1-.59,0c-1.06-.95-2.46-.4-3.68-.77a18.19,18.19,0,0,1-2.61-.61Z"></path><path class="cls-52" d="M32.94,78.83a7.49,7.49,0,0,0,3.05.64c.28,0,.72.37.5.76s-.54.12-.78-.08A1,1,0,0,0,34.6,80,1.44,1.44,0,0,1,33,79.81a.65.65,0,0,0-.85,0c-.27.19-.64.59-.88.17s.32-.64.58-.91S32.39,78.82,32.94,78.83Z"></path><path class="cls-46" d="M86.06,78.87a1.34,1.34,0,0,1,1.34.39c.22.25.63.48.32.87s-.56,0-.8-.24a4,4,0,0,0-.62-.43c-.82,1.21-2.23.1-3.18.8-.18.13-.42.22-.59,0s.06-.47.23-.65a.62.62,0,0,1,.32-.2A6.53,6.53,0,0,0,86.06,78.87Z"></path><path class="cls-46" d="M82.19,78.14a1.11,1.11,0,0,1,1.45-.88,3.07,3.07,0,0,0,2.46-.38,1.55,1.55,0,0,1,1.92.39c.23.2.49.44.22.77s-.55.2-.78-.06a1.4,1.4,0,0,0-1.91-.21C84.48,78.37,83.35,77.36,82.19,78.14Z"></path><path class="cls-37" d="M30.76,78.36c.45-1.39,1.69-2.11,2.57-1.5a2.59,2.59,0,0,0,2.05.4,3.52,3.52,0,0,1,1.16.11.54.54,0,0,1,.25.4c0,.22-.24.29-.38.23a3,3,0,0,0-2.3,0,.27.27,0,0,1-.25,0C32.77,77,31.74,77.17,30.76,78.36Z"></path><path class="cls-54" d="M56.43,75h4.3c.1.21.73.43.17.62a6,6,0,0,1-2.3.29c-.66-.05-1.26-.43-2-.28C56.05,75.69,56.35,75.21,56.43,75Z"></path><path class="cls-55" d="M22.53,81.49a1.3,1.3,0,0,1,1.24-1,27.35,27.35,0,0,1,3.38.28c.33,0,.74.33.63.71s-.54.26-.86.13A8.49,8.49,0,0,0,22.53,81.49Z"></path><path class="cls-46" d="M74.84,78.75a.49.49,0,0,1,.35-.68,28.9,28.9,0,0,1,3.07-.51c.38,0,.85.29.79.69s-.53.23-.81.12c-.65-.25-1,.75-1.69.33S75.39,78.93,74.84,78.75Z"></path><path class="cls-46" d="M39.74,78.59c.41-.88,1-1.16,1.42-1a9.35,9.35,0,0,0,2.28.27c.39,0,.82.31.73.75s-.52.2-.76.07c-.6-.32-1.22.46-1.76,0S40.53,78.37,39.74,78.59Z"></path><path class="cls-56" d="M46.76,83.5H41.11c1-.65,1.65-1.37,2.71-.61.46.33,1,.13,1.55.17S46.33,83,46.76,83.5Z"></path><path class="cls-57" d="M23.14,78.19a1.79,1.79,0,0,1,2-.64,3.38,3.38,0,0,0,2,0,.86.86,0,0,1,1,.41.35.35,0,0,1,0,.34c-.28.35-.71,0-.93.11C25.87,79,24.59,77.31,23.14,78.19Z"></path><path class="cls-53" d="M49.38,83.73c.29-.56.72-.76,1-.63A5.6,5.6,0,0,0,53.7,83c.43-.1.77.13.74.49s-.4.33-.73.21a1.3,1.3,0,0,0-1.14,0c-.7.38-1.35.6-2,0C50.25,83.44,49.87,83.78,49.38,83.73Z"></path><path class="cls-48" d="M90.78,78.27c.53-.79,3.67-1.09,5.11-.26C94.13,77.84,92.47,78.66,90.78,78.27Z"></path><path class="cls-58" d="M64.41,83.79a1,1,0,0,1,1.46-.71,3.73,3.73,0,0,0,2.73,0c.29-.13.86-.07.87.32,0,.55-.6.14-.78.26C67.27,84.64,65.9,83.18,64.41,83.79Z"></path><path class="cls-59" d="M72.15,83.47c1.38-.65,2.78-.21,4-.9.35-.21.84.12,1.19.39a.34.34,0,0,1,.1.33c0,.1-.22.24-.28.22C75.51,82.93,73.92,84,72.15,83.47Z"></path><path class="cls-53" d="M22.65,76.19a1.8,1.8,0,0,1-1.22,1,1,1,0,0,1,1.23-1Z"></path><path class="cls-60" d="M108.46,110.53a5.09,5.09,0,0,1,5-3.77c2.82-.05,4.53,1.24,5.33,4a8.3,8.3,0,0,1,.4,4.27c-.15,2.27.13,4.53,0,6.79a2.7,2.7,0,0,1-.45,1.87l-.2.24c.25.63.52,1.26-.11,1.84-3.06,0-6.12,0-9.17.06-1.35,0-1-.85-1-1.59a36,36,0,0,1,0-6.89,30.09,30.09,0,0,0-.15-3.11A10.94,10.94,0,0,1,108.46,110.53Z"></path><path class="cls-61" d="M108.46,110.53l0,13.16a.66.66,0,0,1-.22.58l-2.7,0c.74-.53,1.64,0,2.43-.35-2.11-.39-2.11-.39-2.13-2.72,0-.44,0-.88,0-1.32,0-2.26,0-2.26,2.06-2.59-2.06-.26-2.06-.26-2.06-2.48,0-1.14,0-2.29,0-3.43C106.79,111.17,107.94,111.83,108.46,110.53Z"></path><path class="cls-62" d="M118.47,125.8c0-.62.07-1.23.11-1.84,1,.55,2.12.1,3.16.29,0,.53,0,1-.07,1.57Z"></path><path class="cls-63" d="M135.41,82.21s-.26,0-.34-.13a.44.44,0,0,1,.3-.62c.88-.13,1.55-1.18,2.72-.3a5.87,5.87,0,0,0,2.5.32c.41,0,.89.07.78.62s-.51.28-.87.25a11,11,0,0,1-3-.5C136.81,81.56,136.33,82.32,135.41,82.21Z"></path><path class="cls-46" d="M172.72,82.09c-2.18-.69-4.16.55-6.39.14,1.18-1.42,3.06-.63,4.38-1.43A1.93,1.93,0,0,1,172.72,82.09Z"></path><path class="cls-37" d="M151.8,81.43c1.07.09,2,.35,3-.19a1.61,1.61,0,0,1,1.41.09c.34.19.78.51.54.91s-.58,0-.81-.21c-.4-.29-.89-.47-1.2-.11-1.28,1.52-2.76-.17-4.08.3-.07,0-.23-.12-.28-.21a.31.31,0,0,1,.22-.41A10.14,10.14,0,0,1,151.8,81.43Z"></path><path class="cls-45" d="M137.83,74.88h.77c.69.45,1.38.9,2.08,1.33.18.11.45.17.38.43s-.36.35-.64.29a1.84,1.84,0,0,1-.36-.15c-.76-.38-1.34-1.46-2.28-1-.79.39-1.69.29-2.47.74.44-.56.52-1.55,1.67-1.17C137.39,75.48,137.64,75.2,137.83,74.88Z"></path><path class="cls-37" d="M144.29,76.72c-.73,0-1.26,0-1.78,0-.25,0-.6,0-.59-.33a.52.52,0,0,1,.57-.44c1.61,0,3.22,0,4.83,0,.37,0,.81.16.68.59-.19.62-.53,0-.81,0C146.15,76.44,145.14,76.94,144.29,76.72Z"></path><path class="cls-45" d="M169.23,74.92H170c.35.66,1,.36,1.52.51s.92.38.73.89-.56,0-.85-.06c-1.29-.16-2.63-1-3.8.4a1,1,0,0,1-1.22.15Z"></path><path class="cls-64" d="M171.89,77.5a6.33,6.33,0,0,1,4.17-1.58,1.87,1.87,0,0,1,1.42.5h0c-.14.19.16.76-.41.57a5.13,5.13,0,0,0-5,1.16.27.27,0,0,1-.43-.11C171.78,77.89,171.67,77.61,171.89,77.5Z"></path><path class="cls-37" d="M159.85,76.68c.19-.48.43-.71.74-.71,1.59,0,3.19,0,4.78,0,.22,0,.47.08.5.33s-.25.44-.5.44a38.11,38.11,0,0,1-3.86-.1A3.8,3.8,0,0,0,159.85,76.68Z"></path><path class="cls-46" d="M151.31,79.16c1.52-1.15,3.07-.3,4.52-.57a.47.47,0,0,1,.54.29c.09.28-.16.38-.34.48s-.44.27-.61.22a14.05,14.05,0,0,0-3.49-.16A1.87,1.87,0,0,1,151.31,79.16Z"></path><path class="cls-50" d="M148.81,80.66c-.62-.23-1.36.51-2.15.1-.22-.11-.59-.08-.55-.44a.5.5,0,0,1,.59-.41c1.22.29,2.44-.54,3.67,0,.16.07.48,0,.53.2s-.22.49-.48.51C149.94,80.68,149.45,80.66,148.81,80.66Z"></path><path class="cls-37" d="M158.62,79.66a5.66,5.66,0,0,0,2.63.27c.11,0,.34.14.4.26a.34.34,0,0,1-.34.45c-1.47,0-2.95,0-4.43,0-.06,0-.2-.23-.17-.28a.71.71,0,0,1,.34-.36C157.55,79.84,158.07,79.77,158.62,79.66Z"></path><path class="cls-37" d="M154.23,77.64c.2-.72.41-1.33,1.27-1.14.69.15,1.23-.73,2-.16.19.14,1-.27,1,.28s-.82.91-1.27.75C156.2,77,155.32,77.59,154.23,77.64Z"></path><path class="cls-46" d="M145.12,80.46c-1.58.68-3.16.36-4.71.31.28-.94,1-1.52,1.54-1.07.83.68,1.67.41,2.53.44A.61.61,0,0,1,145.12,80.46Z"></path><path class="cls-65" d="M129.7,77.23l0-.53c.94-1.21,2.24-.75,3.33-.52.53.12,1.24.06,1.7.54.21.21.52.43.24.77s-.45,0-.65-.14c-1-.77-2.36-.39-3.48-.95C130.43,76.18,130.37,77.3,129.7,77.23Z"></path><path class="cls-46" d="M162.42,80.38a2.78,2.78,0,0,1,1.76-.22,1.69,1.69,0,0,0,1.31-.27c.77-.59,1.41-.26,1.91.55C165.7,80.7,164.11,81.3,162.42,80.38Z"></path><path class="cls-66" d="M166.65,83.85a11.15,11.15,0,0,1,6.08-.37v.37Z"></path><path class="cls-63" d="M157.44,79c.16-.78.65-.66,1.07-.7,1.1-.12,2.28.33,3.31-.45a.42.42,0,0,1,.58.16c.2.34-.11.41-.33.56A2.3,2.3,0,0,1,160,79,5,5,0,0,0,157.44,79Z"></path><path class="cls-37" d="M153.4,77.28l-.19.35c-1.16-.67-2.56-.08-3.73-.67-.19-.1-.28-.22-.17-.41a.41.41,0,0,1,.53-.26c.86.36,1.76,0,2.64.16C153,76.54,153.31,76.65,153.4,77.28Z"></path><path class="cls-48" d="M158.49,82.71a1,1,0,0,1,1.14-1c.68,0,1.38.14,2-.37.3-.24.56,0,.77.26a.53.53,0,0,1,.18.59c-.19.47-.52,0-.76.09C160.75,82.66,159.62,82.41,158.49,82.71Z"></path><path class="cls-58" d="M134.89,83.61c2.66-.6,4.78-.55,6.39.25-1.05,0-1.8,0-2.55,0-.92,0-1.86-.45-2.77.19C135.66,84.26,135.33,83.93,134.89,83.61Z"></path><path class="cls-63" d="M148.76,78.83c-.87-.32-2,.77-3-.2-.16-.16-.59-.08-.43-.48a.49.49,0,0,1,.75-.28c1,.76,2.11.29,3.16.43.34,0,.95-.17.87.44s-.56.05-.85.11A3.68,3.68,0,0,1,148.76,78.83Z"></path><path class="cls-57" d="M178,79.62c-.08.52-.39.33-.74.36-.74.06-1.49-.55-2.08-.19s-1.41-.1-2.07.09a4.89,4.89,0,0,1,4.89-.25Z"></path><path class="cls-37" d="M129.35,83.32c1-.6,3.88-.43,4.42.31-1.38.33-2.8-.12-4.16.26-.37.1-.15-.39-.26-.59Z"></path><path class="cls-37" d="M136.09,80.25c.23-1.31.69-1.61,1.66-1a1.08,1.08,0,0,0,.71.11c.74,0,1,.33.89,1C138.23,80.5,137.21,79.64,136.09,80.25Z"></path><path class="cls-67" d="M168.22,80.51c.05-.74.4-1.17,1.05-1.12a1.42,1.42,0,0,0,1.28-.37c.28-.29.56-.06.78.17s.55.46.49.86c0,.1-.15.17-.23.26-.65-1.31-1.54.6-2.31-.19C168.91,79.75,168.8,80.67,168.22,80.51Z"></path><path class="cls-45" d="M145.24,82c.19-.36.47-.9.92-.62a3.75,3.75,0,0,0,2.14.36,1.09,1.09,0,0,1,.9.46.29.29,0,0,1-.09.45c-.35.22-.54-.16-.8-.24-.84-.28-1.7.36-2.55-.08C145.58,82.23,145.22,82.51,145.24,82Z"></path><path class="cls-68" d="M174,83.61c1-.77,3.9-.71,4.45.11C177,83.65,175.56,84,174,83.61Z"></path><path class="cls-69" d="M152.83,83.07c.68.76,1.67.4,2.55.54.27,0,.56.17.51.48s-.38.25-.62.17a11.38,11.38,0,0,0-2.61-.15c-.27,0-.73.13-.72-.31S152.31,83.14,152.83,83.07Z"></path><path class="cls-48" d="M135.75,78.15c.46-1.42.86-1.64,2-1.08a2.57,2.57,0,0,0,1,.18c.37,0,.71,0,.83.65-.87-.31-1.72.48-2.58-.42C136.43,76.86,136.35,78,135.75,78.15Z"></path><path class="cls-70" d="M151.83,74.87l3.14,0a1.1,1.1,0,0,1-1.43.9C153,75.52,152,75.93,151.83,74.87Z"></path><path class="cls-71" d="M173.85,82c.43-1,2.42-1.66,3.07-1.08a.53.53,0,0,1,.18.59c0,.08-.25.19-.3.16C175.78,81,174.85,81.59,173.85,82Z"></path><path class="cls-46" d="M171.89,77.5a.57.57,0,0,1-.27.54c-.2-.4-.62-.72-.94-.47-.75.57-1.57.13-2.34.37-.11-.55.27-.74.58-.67a1.87,1.87,0,0,0,1.76-.41C171.25,76.45,171.6,77.05,171.89,77.5Z"></path><path class="cls-53" d="M146.14,84c-1.13-.06-1.89-.08-2.64-.14-.29,0-.84.19-.78-.36s.55-.85,1-.58C144.34,83.34,145.18,83.26,146.14,84Z"></path><path class="cls-46" d="M141.59,78.36c0-.44.49-.9.7-.73.6.51,1.52-.11,2,.68a.42.42,0,0,1,0,.48c-.12.18-.27.11-.45.07C143.08,78.68,142.34,78.53,141.59,78.36Z"></path><path class="cls-37" d="M163.47,78.67c.85-1.16,2.18-1.27,2.77-.3A9.77,9.77,0,0,1,163.47,78.67Z"></path><path class="cls-57" d="M176.78,78a7.14,7.14,0,0,1-3.16.28A2.58,2.58,0,0,1,176.78,78Z"></path><path class="cls-58" d="M147.59,83.72c.94-.2,1.82,0,2.6-.37a.36.36,0,0,1,.51.4c0,.31-.23.25-.47.25C149.4,84,148.54,84.83,147.59,83.72Z"></path><path class="cls-58" d="M134.34,78.37a4.53,4.53,0,0,1-2.9-.5A2.51,2.51,0,0,1,134.34,78.37Z"></path><path class="cls-48" d="M160,83.68c-.5.42-1,.81-1.56.59S157.6,83.7,157,84C158,82.67,159.1,84.44,160,83.68Z"></path><path class="cls-53" d="M165.28,83.75c-1.12-.27-2.09.3-3.11.06C164.4,82.67,164.4,82.67,165.28,83.75Z"></path><path class="cls-72" d="M182.4,101.9c-.85.18-1.82-.32-2.56.46-.13-.7.14-1.45-.29-2.1a1.53,1.53,0,0,1,1.82-1.08,1.16,1.16,0,0,1,1.08,1.35Z"></path><path class="cls-73" d="M182.45,100.53c-.67-1.44-1.15-1.48-2.9-.27-.74-1.41.68-1.49,1.3-1.87.85-.52,1.45.43,2,.87S182.85,100.18,182.45,100.53Z"></path><path class="cls-74" d="M159.69,107.64c.25,2.52.08,5,.1,7.58,0,2.93,0,5.85-.06,8.78-.36,0-.31-.26-.3-.56,0-2.11,0-4.22.06-6.32,0-.81-.27-1.05-1.07-1.07-3.18-.09-3.18-.12-3.18,3v4.71h-.12v-16c.53,2.39-.08,4.68.12,6.94,0,.45-.13,1,.62,1.07s1.3,0,1.26-1c-.07-1.36-.05-2.73,0-4.09,0-.3-.49-.9.2-.94s.26.59.27.88c.05,1.4,0,2.81,0,4.22,0,.68.23.94.92.93s1-.19.94-.9c-.18-1.68.25-3.36-.22-5.07A3.38,3.38,0,0,1,159.69,107.64Z"></path><path class="cls-74" d="M158.94,121c0,.61,0,1.23,0,1.84,0,.22,0,.45-.29.52s-.4-.08-.53-.27a15,15,0,0,1-.12-4.53c.12-.2.3-.35.53-.27a.61.61,0,0,1,.4.62c0,.7,0,1.39,0,2.09Z"></path><path class="cls-75" d="M92.89,96.54c0,1.51,0,3,0,4.52,0,.56-.06,1-.77.71,0-1.47,0-3,0-4.43C92.13,96.8,92.17,96.36,92.89,96.54Z"></path><path class="cls-2" d="M83.37,96.56v5.24h-.53V96.53Z"></path><path class="cls-76" d="M163.17,101.81c-.59-1-.19-2-.27-3-.06-.74,0-1.49,0-2.24.58,1.06.15,2.2.26,3.29C163.22,100.49,163.17,101.15,163.17,101.81Z"></path><path class="cls-77" d="M172.19,96.53v5.2h-.32v-5.2Z"></path><path class="cls-78" d="M48.56,96.51c0,1.53.06,3.07.07,4.6,0,.39,0,.85-.61.69,0-1.47,0-2.94,0-4.41C48,97,47.8,96.44,48.56,96.51Z"></path><path class="cls-79" d="M77.87,96.54v5.17h-.3V96.53Z"></path><path class="cls-80" d="M68.64,101.78c0-1.74,0-3.48,0-5.22a.22.22,0,0,1,.21,0C68.78,98.29,69.18,100.06,68.64,101.78Z"></path><path class="cls-81" d="M63.33,96.54l0,5.24c-.58.38-.5-.09-.5-.41,0-1.6,0-3.21,0-4.82Z"></path><path class="cls-82" d="M54.1,101.85c-.57-1.26-.14-2.58-.26-3.87-.05-.48,0-1,0-1.45h.28Z"></path><path class="cls-83" d="M134.33,101.77c-.74,0-.48-.6-.48-1,0-1.43,0-2.86,0-4.29.72,0,.48.6.49,1C134.36,98.91,134.34,100.34,134.33,101.77Z"></path><path class="cls-2" d="M142.87,96.58a8.7,8.7,0,0,1,0,5.2C142.85,100.05,142.86,98.32,142.87,96.58Z"></path><path class="cls-84" d="M34,96.5c.66,1.69.23,3.43.22,5.15a2.1,2.1,0,0,1-.45.09C34,100,33.57,98.23,34,96.5Z"></path><path class="cls-85" d="M25.27,101.78c-.54-1.72-.12-3.49-.22-5.23a.31.31,0,0,1,.23,0C25.28,98.29,25.27,100,25.27,101.78Z"></path><path class="cls-86" d="M157.11,96.52c.15.06.44.11.44.17,0,1.71,0,3.42,0,5.13h-.48V96.54Z"></path><path class="cls-87" d="M105.63,120.8c0,.63,0,1.2,0,1.76,0,.28.2.79-.43.69-.4-.06-.86,0-.91-.69C104.21,121.61,104.36,120.91,105.63,120.8Z"></path><path class="cls-88" d="M105.72,117.27c-.39.35.41,1.13-.51,1.19a.78.78,0,0,1-.91-1c.09-.62,0-1.48.93-1.44S105.36,116.89,105.72,117.27Z"></path><path class="cls-2" d="M105.6,111l0,.28v2.17c-.61,0-1.06,0-1.13-.73S104.63,111.23,105.6,111Z"></path><path class="cls-89" d="M118.78,123.72c.16-4,.1-8,0-12,0-.3,0-.61,0-.91a1.3,1.3,0,0,0,1.38.53c1.13-.19,1.34.4,1.26,1.37a18.17,18.17,0,0,0,0,2.76c.12,1.24-.16,2-1.6,1.7a2.88,2.88,0,0,0-.69.09c2.27.3,2.27.3,2.28,2.49,0,1.32,0,2.64,0,4Z"></path><path class="cls-90" d="M122,118.48a2.33,2.33,0,0,1,0-2.45c.9,0,.8.67.83,1.29S122.74,118.45,122,118.48Z"></path><path class="cls-91" d="M122,123.27a2.33,2.33,0,0,1,0-2.45c.88.25.82,1,.83,1.67S122.41,123.19,122,123.27Z"></path><path class="cls-92" d="M122,113.68c-.29-.84-.75-1.7.27-2.4A1.36,1.36,0,0,1,122,113.68Z"></path><path class="cls-32" d="M145.35,120.63c-2.68.39-5.37.08-8.06.16-.5,0-1,.2-1.5-.18.67,0,.72-.47.71-1,0-.7,0-1.4,0-2.1,0-.35.13-.61.53-.6s.51.27.51.62c0,.7,0,1.4,0,2.1,0,.33-.14.82.36.85s.4-.47.41-.79c0-.71,0-1.41,0-2.11,0-.33,0-.64.47-.67s.56.29.59.68a11.59,11.59,0,0,0,.21,3.07c.54-1.07.22-2,.32-2.84,0-.37-.1-.87.49-.9s.55.54.57,1c0,.7,0,1.4,0,2.1,0,.28.07.55.44.51s.32-.26.32-.49c0-.7,0-1.4,0-2.1,0-.41-.15-1,.55-1s.48.62.49,1c0,.66,0,1.32,0,2,0,.27,0,.57.38.57s.39-.29.39-.56c0-.62,0-1.24,0-1.85,0-.43-.26-1.13.48-1.14s.51.75.55,1.2a9.26,9.26,0,0,1,0,1.58C144.64,120.22,144.79,120.57,145.35,120.63Z"></path><path class="cls-23" d="M114.79,88.85c-.3,0-.12-1.62-.88-.26-.18.34-.48.34-.62-.12s-.33-.61-.63-.09c-.06.12-.1.12-.25-.09a.42.42,0,0,0-.66-.12c-.09.07.1.86-.43.09s-.3.52-.67.59a1.15,1.15,0,0,1-.27-.27c-.13-.31-.24-.61.06-.89.13-.92-.06-1.87.14-2.91.76.42.43,1,.59,1.47-.16-.49.23-1.44-.36-1.43s-.22.93-.33,1.43.22,1.14-.27,1.61c-.61-.35-.45-1-.48-1.5a20,20,0,0,0-.09-2.19.84.84,0,0,1,0-.81,10.4,10.4,0,0,0,.11-2.43,2.66,2.66,0,0,1,.51-1.81c.89-.61,1.88-.13,2.82-.21a6.08,6.08,0,0,1,4,.71.43.43,0,0,1-.07.35,2.44,2.44,0,0,1-1.52.25c-.7,0-1.06.27-1,1s0,1.17.87,1.15,1.26.55,1.89.83a1.25,1.25,0,0,1,.66.37c0,.44-.32.5-.59.64a2.08,2.08,0,0,1-2.24,1c-.69-.16-.79.64-.83,1.21s.09,1,.8,1.09,1.5-.26,2.08.42c-.18.52-.66.48-1.06.52A1.64,1.64,0,0,0,114.79,88.85Z"></path><path class="cls-93" d="M117,83.87c.24-.09.59.09.71-.3-.63-.94-.19-2-.34-3-.06-.33.27-.9-.46-.92-1.13-.33-2.38,0-3.47-.6-.12.82-.88,0-1.17.44a3.7,3.7,0,0,1-1.68-.39,1.22,1.22,0,0,0-.69,1.27,13.27,13.27,0,0,1-.11,3.21c-.24.1-.27.19,0,.29a12.63,12.63,0,0,1,.11,3.13,1.76,1.76,0,0,0,.69,1.61l0,.25c-1,.16-1.42-.12-1.39-1.24.08-2.59.06-5.18,0-7.76,0-.95.21-1.34,1.24-1.3,2.06.07,4.12,0,6.18,0,1,0,1.34.31,1.33,1.3q-.06,3.95,0,7.89c0,.85-.24,1.21-1.12,1.14-.7-.06-1.4,0-2.11,0,0-.48,0-.81.66-.79.47,0,1,.23,1.45-.25A4.5,4.5,0,0,1,117,83.87Z"></path><path class="cls-2" d="M111.39,97.9c0-3-.32-2.68,2.66-2.69,1.84,0,1.84,0,1.84,1.91a.56.56,0,0,1,0,.13c-.06,3.76.6,3.16-3.28,3.26-1,0-1.33-.36-1.23-1.3A11.45,11.45,0,0,0,111.39,97.9Z"></path><path class="cls-94" d="M133.32,60.63l-.52.25A5.33,5.33,0,0,1,130,61.94a45.1,45.1,0,0,1-6.23.76c-.68,0-1.43.07-1-1l.19-.29a3.7,3.7,0,0,1,2.11-.56,31.78,31.78,0,0,0,7.52-1.64,1.77,1.77,0,0,1,1.26-.15,1,1,0,0,1,.29.75C134.16,60.36,133.51,60.27,133.32,60.63Z"></path><path class="cls-95" d="M80.49,62a1.23,1.23,0,0,1-1-1.26,16.15,16.15,0,0,1,7.78-.89c0,.32-2.67.79-2.81,1.08C83.82,62.27,81.86,61.87,80.49,62Z"></path><path class="cls-96" d="M51.93,68.89a1.67,1.67,0,0,1,.21-2.17,11.53,11.53,0,0,1,8.69-4.43,1.55,1.55,0,0,1,1.68,1,.62.62,0,0,0,.8.46c-1.05.19-2.13.3-3.16.58a23.26,23.26,0,0,0-7.49,3.3A1.47,1.47,0,0,0,51.93,68.89Z"></path><path class="cls-96" d="M85.58,65.64a6.38,6.38,0,0,1-.52,3c-.43.85-1.09,1.46-2.11,1.17a1.81,1.81,0,0,1-1.33-2.26,6.84,6.84,0,0,1,3.14-4.23c.51-.37.61,0,.66.39C85.51,64.32,85.53,65,85.58,65.64Z"></path><path class="cls-97" d="M79.76,60.41c0-.84.67-1.15,1.18-1.59a3.58,3.58,0,0,1,.8-.42c.79-.38,1.67-1.17,2.33-1,.91.22.13,1.53.6,2.24"></path><path class="cls-98" d="M117,83.87a32.42,32.42,0,0,1-.13,3.94h-1.44c-1.68,0-2.23-.91-1.5-2.47.16-.33.33-.7.75-.54C115.79,85.2,116.39,84.51,117,83.87Z"></path><path class="cls-99" d="M117,83.56a3.35,3.35,0,0,0-2.44-.9c-.14,0-.43,0-.44-.1a5.19,5.19,0,0,1,0-2.32c.14-.55.73-.32,1.13-.34.57,0,1.13,0,1.7,0A4.29,4.29,0,0,1,117,83.56Z"></path><path class="cls-98" d="M111.58,86.3c.32-.48-.37-1.38.64-1.43s1.22.56,1,1.41c-.12.58.43,1.51-.79,1.52S111.9,86.79,111.58,86.3Z"></path><path class="cls-99" d="M113.29,81.5c-.28.3.39,1-.52,1.09-1.38.21-1.13-.73-1.09-1.47,0-.44-.4-1.17.68-1.18C113.73,79.93,113.1,80.88,113.29,81.5Z"></path><path class="cls-100" d="M117,83.56,117,79.89a.31.31,0,0,0,0-.25c-.09-.28-.27-.65.21-.7s.57.34.58.7c0,1.31,0,2.62,0,3.93Z"></path><path class="cls-98" d="M110.33,87.82V83.88c1.67,1.12.86,2.52.93,3.74-.7-.7-.16-1.65-.51-2.49-.4.91.23,1.9-.41,2.7Z"></path><path class="cls-30" d="M110.62,88.6c-.76.07-.82-.4-.81-1,0-1.25,0-2.5,0-3.75.66.6.17,1.38.31,2.06s-.21,1.3.2,1.9h0C110.51,88.06,110.77,88.25,110.62,88.6Z"></path><path class="cls-99" d="M111.12,80.06a3.67,3.67,0,0,1,.09,2.51A2.94,2.94,0,0,1,111.12,80.06Z"></path><path class="cls-101" d="M109.82,83.57c0-1.21,0-2.42,0-3.63,0-.59.2-.9.82-.85-.63.72-.44,1.6-.52,2.44C110,82.21,110.46,83,109.82,83.57Z"></path><path class="cls-99" d="M110.41,83.34V80.18c.31,1,0,2.12.43,3.17Z"></path></svg>