<?xml version="1.0" encoding="UTF-8"?>
<!DOCTYPE svg PUBLIC "-//W3C//DTD SVG 1.1//EN" "http://www.w3.org/Graphics/SVG/1.1/DTD/svg11.dtd">
<svg xmlns="http://www.w3.org/2000/svg" version="1.1" width="201px" height="201px" style="shape-rendering:geometricPrecision; text-rendering:geometricPrecision; image-rendering:optimizeQuality; fill-rule:evenodd; clip-rule:evenodd" xmlns:xlink="http://www.w3.org/1999/xlink">
<g><path style="opacity:0.993" fill="#b1ddfd" d="M 12.5,-0.5 C 71.1667,-0.5 129.833,-0.5 188.5,-0.5C 193.5,2.5 197.5,6.5 200.5,11.5C 200.5,70.5 200.5,129.5 200.5,188.5C 197.422,193.913 193.089,197.913 187.5,200.5C 129.5,200.5 71.5,200.5 13.5,200.5C 6.33418,197.837 1.66751,192.837 -0.5,185.5C -0.5,128.167 -0.5,70.8333 -0.5,13.5C 1.74343,6.9222 6.07676,2.25553 12.5,-0.5 Z"></path></g>
<g><path style="opacity:1" fill="#5b916d" d="M 173.5,74.5 C 158.99,74.1707 144.657,74.5041 130.5,75.5C 129.883,75.6107 129.383,75.944 129,76.5C 124.355,71.6897 119.355,67.3564 114,63.5C 108.406,67.2555 103.239,71.5889 98.5,76.5C 97.6919,76.1924 97.0253,75.6924 96.5,75C 84.8381,74.5001 73.1714,74.3335 61.5,74.5C 52.1667,74.5 42.8333,74.5 33.5,74.5C 38.8121,67.3542 45.4788,61.8542 53.5,58C 56.8333,57.3333 60.1667,57.3333 63.5,58C 66.4662,59.2663 69.4662,60.4329 72.5,61.5C 78.2094,60.7446 83.8761,59.7446 89.5,58.5C 97.4743,59.7621 105.474,60.7621 113.5,61.5C 124.416,60.5706 135.083,58.5706 145.5,55.5C 152.284,56.0569 158.284,58.5569 163.5,63C 167.439,66.4294 170.772,70.2628 173.5,74.5 Z"></path></g>
<g><path style="opacity:1" fill="#f8f0ea" d="M 128.5,80.5 C 128.5,82.5 128.5,84.5 128.5,86.5C 142.677,86.8291 156.677,86.4958 170.5,85.5C 173.167,85.5 175.833,85.5 178.5,85.5C 178.5,84.1667 178.5,82.8333 178.5,81.5C 178.749,87.9655 178.749,94.6322 178.5,101.5C 178.167,101.5 177.833,101.5 177.5,101.5C 175.901,101.768 174.568,101.434 173.5,100.5C 173.784,98.5853 173.451,96.9187 172.5,95.5C 173.352,88.5117 170.519,86.1784 164,88.5C 163.503,90.8098 163.337,93.1432 163.5,95.5C 162.539,97.2646 162.205,99.2646 162.5,101.5C 161.167,101.5 159.833,101.5 158.5,101.5C 158.795,99.2646 158.461,97.2646 157.5,95.5C 158.501,88.9999 155.835,86.4999 149.5,88C 148.536,92.0659 148.203,96.2325 148.5,100.5C 147.039,101.686 145.705,101.686 144.5,100.5C 144.784,98.5853 144.451,96.9187 143.5,95.5C 144.816,88.666 142.149,86.166 135.5,88C 134.594,89.6995 134.261,91.5328 134.5,93.5C 133.686,95.631 133.186,97.9644 133,100.5C 132.075,101.047 131.242,101.713 130.5,102.5C 146.486,103.499 162.486,103.833 178.5,103.5C 178.334,109.176 178.501,114.843 179,120.5C 179.383,119.944 179.883,119.611 180.5,119.5C 180.675,121.621 180.341,123.621 179.5,125.5C 172.745,126.123 166.412,125.456 160.5,123.5C 160.5,118.167 160.5,112.833 160.5,107.5C 157.038,106.518 153.371,106.185 149.5,106.5C 149.5,112.833 149.5,119.167 149.5,125.5C 141.5,125.5 133.5,125.5 125.5,125.5C 125.5,117.5 125.5,109.5 125.5,101.5C 122.753,101.187 120.086,101.52 117.5,102.5C 121.168,103.04 122.668,105.04 122,108.5C 120.158,105.163 117.325,103.83 113.5,104.5C 109.82,103.765 107.32,105.099 106,108.5C 105.506,106.866 105.34,105.199 105.5,103.5C 107.288,103.785 108.955,103.452 110.5,102.5C 107.914,101.52 105.247,101.187 102.5,101.5C 102.77,109.555 102.437,117.555 101.5,125.5C 97.9878,126.055 94.9878,125.388 92.5,123.5C 92.5,117.833 92.5,112.167 92.5,106.5C 89.1667,106.5 85.8333,106.5 82.5,106.5C 81.5098,112.645 81.1765,118.978 81.5,125.5C 70.7792,126.142 60.4459,125.475 50.5,123.5C 50.5,117.833 50.5,112.167 50.5,106.5C 47.1667,106.5 43.8333,106.5 40.5,106.5C 39.5098,112.645 39.1765,118.978 39.5,125.5C 32.8333,125.5 26.1667,125.5 19.5,125.5C 21.2962,118.331 21.9629,110.997 21.5,103.5C 46.5089,103.833 71.5089,103.5 96.5,102.5C 96.3764,101.893 96.0431,101.56 95.5,101.5C 94.5,101.5 93.5,101.5 92.5,101.5C 93.634,96.7974 92.9674,92.2974 90.5,88C 87.975,87.1041 85.8083,87.6041 84,89.5C 83.7096,91.9204 83.2096,94.2537 82.5,96.5C 82.8841,98.6648 82.2174,100.332 80.5,101.5C 78.7826,100.332 78.1159,98.6648 78.5,96.5C 77.9271,93.8534 77.2604,91.1867 76.5,88.5C 74.2984,87.2203 72.1317,87.2203 70,88.5C 69.6049,91.2066 69.1049,93.8733 68.5,96.5C 69.2436,99.9496 67.9103,101.616 64.5,101.5C 64.7947,99.2646 64.4614,97.2646 63.5,95.5C 64.3522,88.5117 61.5189,86.1784 55,88.5C 54.5034,90.8098 54.3367,93.1432 54.5,95.5C 53.5386,97.2646 53.2053,99.2646 53.5,101.5C 52.1667,101.5 50.8333,101.5 49.5,101.5C 49.7947,99.2646 49.4614,97.2646 48.5,95.5C 49.8158,88.666 47.1492,86.166 40.5,88C 39.6998,92.08 39.1998,96.2467 39,100.5C 37.9887,101.337 36.8221,101.67 35.5,101.5C 35.7947,99.2646 35.4614,97.2646 34.5,95.5C 35.3522,88.5117 32.5189,86.1784 26,88.5C 25.5045,90.4727 25.3379,92.4727 25.5,94.5C 24.7321,96.7146 24.0654,99.0479 23.5,101.5C 22.8333,101.5 22.1667,101.5 21.5,101.5C 22.0001,95.9717 21.3334,90.6383 19.5,85.5C 19.6236,84.8933 19.9569,84.56 20.5,84.5C 46.6614,85.4978 72.9947,85.8312 99.5,85.5C 99.3713,83.7839 99.038,82.1172 98.5,80.5C 103.336,75.8234 108.503,71.4901 114,67.5C 119.016,71.6859 123.85,76.0192 128.5,80.5 Z"></path></g>
<g><path style="opacity:1" fill="#90502c" d="M 130.5,75.5 C 130.423,76.7498 129.756,77.5831 128.5,78C 129.252,78.6708 129.586,79.5041 129.5,80.5C 129.167,80.5 128.833,80.5 128.5,80.5C 123.85,76.0192 119.016,71.6859 114,67.5C 108.503,71.4901 103.336,75.8234 98.5,80.5C 94.0293,80.3276 93.6959,79.4943 97.5,78C 93.6862,75.5599 89.8529,75.3932 86,77.5C 83.0459,77.4056 82.8792,76.9056 85.5,76C 77.3228,75.8292 69.3228,75.3292 61.5,74.5C 73.1714,74.3335 84.8381,74.5001 96.5,75C 97.0253,75.6924 97.6919,76.1924 98.5,76.5C 103.239,71.5889 108.406,67.2555 114,63.5C 119.355,67.3564 124.355,71.6897 129,76.5C 129.383,75.944 129.883,75.6107 130.5,75.5 Z"></path></g>
<g><path style="opacity:1" fill="#a35129" d="M 33.5,74.5 C 42.8333,74.5 52.1667,74.5 61.5,74.5C 69.3228,75.3292 77.3228,75.8292 85.5,76C 82.8792,76.9056 83.0459,77.4056 86,77.5C 89.8529,75.3932 93.6862,75.5599 97.5,78C 93.6959,79.4943 94.0293,80.3276 98.5,80.5C 99.038,82.1172 99.3713,83.7839 99.5,85.5C 72.9947,85.8312 46.6614,85.4978 20.5,84.5C 20.2161,81.2234 20.5495,78.0567 21.5,75C 25.4862,74.5012 29.4862,74.3345 33.5,74.5 Z"></path></g>
<g><path style="opacity:1" fill="#a5532b" d="M 173.5,74.5 C 175.144,74.2865 176.644,74.6198 178,75.5C 178.495,77.4727 178.662,79.4727 178.5,81.5C 178.5,82.8333 178.5,84.1667 178.5,85.5C 175.833,85.5 173.167,85.5 170.5,85.5C 156.833,85.5 143.167,85.5 129.5,85.5C 129.5,83.8333 129.5,82.1667 129.5,80.5C 129.586,79.5041 129.252,78.6708 128.5,78C 129.756,77.5831 130.423,76.7498 130.5,75.5C 144.657,74.5041 158.99,74.1707 173.5,74.5 Z"></path></g>
<g><path style="opacity:1" fill="#dcc4b7" d="M 128.5,80.5 C 128.833,80.5 129.167,80.5 129.5,80.5C 129.5,82.1667 129.5,83.8333 129.5,85.5C 143.167,85.5 156.833,85.5 170.5,85.5C 156.677,86.4958 142.677,86.8291 128.5,86.5C 128.5,84.5 128.5,82.5 128.5,80.5 Z"></path></g>
<g><path style="opacity:1" fill="#592915" d="M 34.5,95.5 C 33.8529,96.2739 33.5195,97.2739 33.5,98.5C 33.6399,100.03 34.3065,101.03 35.5,101.5C 36.8221,101.67 37.9887,101.337 39,100.5C 39.1998,96.2467 39.6998,92.08 40.5,88C 47.1492,86.166 49.8158,88.666 48.5,95.5C 47.6314,97.717 47.298,100.05 47.5,102.5C 38.6506,102.826 29.9839,102.493 21.5,101.5C 22.1667,101.5 22.8333,101.5 23.5,101.5C 25.3435,99.7211 26.0102,97.3878 25.5,94.5C 25.3379,92.4727 25.5045,90.4727 26,88.5C 32.5189,86.1784 35.3522,88.5117 34.5,95.5 Z"></path></g>
<g><path style="opacity:1" fill="#562614" d="M 63.5,95.5 C 62.232,97.6702 62.232,99.8368 63.5,102C 60.5184,102.498 57.5184,102.665 54.5,102.5C 54.5,100.167 54.5,97.8333 54.5,95.5C 54.3367,93.1432 54.5034,90.8098 55,88.5C 61.5189,86.1784 64.3522,88.5117 63.5,95.5 Z"></path></g>
<g><path style="opacity:1" fill="#562612" d="M 78.5,96.5 C 77.5386,98.2646 77.2053,100.265 77.5,102.5C 74.4816,102.665 71.4816,102.498 68.5,102C 69.807,100.057 69.807,98.2232 68.5,96.5C 69.1049,93.8733 69.6049,91.2066 70,88.5C 72.1317,87.2203 74.2984,87.2203 76.5,88.5C 77.2604,91.1867 77.9271,93.8534 78.5,96.5 Z"></path></g>
<g><path style="opacity:1" fill="#572814" d="M 95.5,101.5 C 92.0381,102.482 88.3714,102.815 84.5,102.5C 84.9746,99.9179 84.3079,97.9179 82.5,96.5C 83.2096,94.2537 83.7096,91.9204 84,89.5C 85.8083,87.6041 87.975,87.1041 90.5,88C 92.9674,92.2974 93.634,96.7974 92.5,101.5C 93.5,101.5 94.5,101.5 95.5,101.5 Z"></path></g>
<g><path style="opacity:1" fill="#e0ad76" d="M 108.5,77.5 C 112.167,77.5 115.833,77.5 119.5,77.5C 119.5,81.5 119.5,85.5 119.5,89.5C 115.833,89.5 112.167,89.5 108.5,89.5C 108.5,85.5 108.5,81.5 108.5,77.5 Z"></path></g>
<g><path style="opacity:1" fill="#643218" d="M 110.5,79.5 C 112.833,79.5 115.167,79.5 117.5,79.5C 117.813,82.2469 117.48,84.9135 116.5,87.5C 114.591,88.3482 112.591,88.6816 110.5,88.5C 110.5,85.5 110.5,82.5 110.5,79.5 Z"></path></g>
<g><path style="opacity:1" fill="#562714" d="M 143.5,95.5 C 142.659,97.3792 142.325,99.3792 142.5,101.5C 140.167,101.5 137.833,101.5 135.5,101.5C 135.167,98.8333 134.833,96.1667 134.5,93.5C 134.261,91.5328 134.594,89.6995 135.5,88C 142.149,86.166 144.816,88.666 143.5,95.5 Z"></path></g>
<g><path style="opacity:1" fill="#562713" d="M 157.5,95.5 C 156.659,97.3792 156.325,99.3792 156.5,101.5C 153.615,101.806 150.948,101.473 148.5,100.5C 148.203,96.2325 148.536,92.0659 149.5,88C 155.835,86.4999 158.501,88.9999 157.5,95.5 Z"></path></g>
<g><path style="opacity:1" fill="#552613" d="M 172.5,95.5 C 171.659,97.3792 171.325,99.3792 171.5,101.5C 168.833,101.5 166.167,101.5 163.5,101.5C 163.5,99.5 163.5,97.5 163.5,95.5C 163.337,93.1432 163.503,90.8098 164,88.5C 170.519,86.1784 173.352,88.5117 172.5,95.5 Z"></path></g>
<g><path style="opacity:1" fill="#b29384" d="M 143.5,95.5 C 144.451,96.9187 144.784,98.5853 144.5,100.5C 143.833,100.833 143.167,101.167 142.5,101.5C 142.325,99.3792 142.659,97.3792 143.5,95.5 Z"></path></g>
<g><path style="opacity:1" fill="#b79888" d="M 172.5,95.5 C 173.451,96.9187 173.784,98.5853 173.5,100.5C 172.833,100.833 172.167,101.167 171.5,101.5C 171.325,99.3792 171.659,97.3792 172.5,95.5 Z"></path></g>
<g><path style="opacity:1" fill="#b59789" d="M 34.5,95.5 C 35.4614,97.2646 35.7947,99.2646 35.5,101.5C 34.3065,101.03 33.6399,100.03 33.5,98.5C 33.5195,97.2739 33.8529,96.2739 34.5,95.5 Z"></path></g>
<g><path style="opacity:1" fill="#a99388" d="M 25.5,94.5 C 26.0102,97.3878 25.3435,99.7211 23.5,101.5C 24.0654,99.0479 24.7321,96.7146 25.5,94.5 Z"></path></g>
<g><path style="opacity:1" fill="#ecc293" d="M 125.5,125.5 C 124.5,125.5 123.5,125.5 122.5,125.5C 121.781,120.882 121.281,116.215 121,111.5C 120.292,110.619 119.458,109.953 118.5,109.5C 116.593,106.668 113.927,105.834 110.5,107C 109.177,107.816 108.511,108.983 108.5,110.5C 106.815,111.184 105.815,112.517 105.5,114.5C 106.671,118.482 106.671,122.482 105.5,126.5C 104.5,126.5 103.5,126.5 102.5,126.5C 102.5,125.833 102.167,125.5 101.5,125.5C 102.437,117.555 102.77,109.555 102.5,101.5C 105.247,101.187 107.914,101.52 110.5,102.5C 108.955,103.452 107.288,103.785 105.5,103.5C 105.34,105.199 105.506,106.866 106,108.5C 107.32,105.099 109.82,103.765 113.5,104.5C 117.325,103.83 120.158,105.163 122,108.5C 122.668,105.04 121.168,103.04 117.5,102.5C 120.086,101.52 122.753,101.187 125.5,101.5C 125.5,109.5 125.5,117.5 125.5,125.5 Z"></path></g>
<g><path style="opacity:1" fill="#804a2f" d="M 157.5,95.5 C 158.461,97.2646 158.795,99.2646 158.5,101.5C 159.833,101.5 161.167,101.5 162.5,101.5C 162.205,99.2646 162.539,97.2646 163.5,95.5C 163.5,97.5 163.5,99.5 163.5,101.5C 166.167,101.5 168.833,101.5 171.5,101.5C 172.167,101.167 172.833,100.833 173.5,100.5C 174.568,101.434 175.901,101.768 177.5,101.5C 163.5,102.833 149.5,102.833 135.5,101.5C 137.833,101.5 140.167,101.5 142.5,101.5C 143.167,101.167 143.833,100.833 144.5,100.5C 145.705,101.686 147.039,101.686 148.5,100.5C 150.948,101.473 153.615,101.806 156.5,101.5C 156.325,99.3792 156.659,97.3792 157.5,95.5 Z"></path></g>
<g><path style="opacity:1" fill="#9a7a6a" d="M 48.5,95.5 C 49.4614,97.2646 49.7947,99.2646 49.5,101.5C 50.8333,101.5 52.1667,101.5 53.5,101.5C 53.2053,99.2646 53.5386,97.2646 54.5,95.5C 54.5,97.8333 54.5,100.167 54.5,102.5C 57.5184,102.665 60.5184,102.498 63.5,102C 62.232,99.8368 62.232,97.6702 63.5,95.5C 64.4614,97.2646 64.7947,99.2646 64.5,101.5C 67.9103,101.616 69.2436,99.9496 68.5,96.5C 69.807,98.2232 69.807,100.057 68.5,102C 71.4816,102.498 74.4816,102.665 77.5,102.5C 77.2053,100.265 77.5386,98.2646 78.5,96.5C 78.1159,98.6648 78.7826,100.332 80.5,101.5C 82.2174,100.332 82.8841,98.6648 82.5,96.5C 84.3079,97.9179 84.9746,99.9179 84.5,102.5C 88.3714,102.815 92.0381,102.482 95.5,101.5C 96.0431,101.56 96.3764,101.893 96.5,102.5C 71.5089,103.5 46.5089,103.833 21.5,103.5C 20.1667,102.833 20.1667,102.167 21.5,101.5C 29.9839,102.493 38.6506,102.826 47.5,102.5C 47.298,100.05 47.6314,97.717 48.5,95.5 Z"></path></g>
<g><path style="opacity:1" fill="#926752" d="M 134.5,93.5 C 134.833,96.1667 135.167,98.8333 135.5,101.5C 149.5,102.833 163.5,102.833 177.5,101.5C 177.833,101.5 178.167,101.5 178.5,101.5C 178.5,102.167 178.5,102.833 178.5,103.5C 162.486,103.833 146.486,103.499 130.5,102.5C 131.242,101.713 132.075,101.047 133,100.5C 133.186,97.9644 133.686,95.631 134.5,93.5 Z"></path></g>
<g><path style="opacity:1" fill="#525a64" d="M 183.5,125.5 C 182.432,126.434 181.099,126.768 179.5,126.5C 179.5,126.167 179.5,125.833 179.5,125.5C 180.341,123.621 180.675,121.621 180.5,119.5C 180.171,113.463 180.504,107.463 181.5,101.5C 182.196,109.557 182.862,117.557 183.5,125.5 Z"></path></g>
<g><path style="opacity:1" fill="#52230f" d="M 82.5,106.5 C 85.8333,106.5 89.1667,106.5 92.5,106.5C 92.5,112.167 92.5,117.833 92.5,123.5C 89.1667,123.5 85.8333,123.5 82.5,123.5C 82.5,117.833 82.5,112.167 82.5,106.5 Z"></path></g>
<g><path style="opacity:1" fill="#4e220f" d="M 118.5,109.5 C 118.5,114.833 118.5,120.167 118.5,125.5C 115.167,125.5 111.833,125.5 108.5,125.5C 108.5,120.5 108.5,115.5 108.5,110.5C 108.511,108.983 109.177,107.816 110.5,107C 113.927,105.834 116.593,106.668 118.5,109.5 Z"></path></g>
<g><path style="opacity:1" fill="#5c2b15" d="M 160.5,107.5 C 160.5,112.833 160.5,118.167 160.5,123.5C 157.167,123.5 153.833,123.5 150.5,123.5C 150.5,118.167 150.5,112.833 150.5,107.5C 153.833,107.5 157.167,107.5 160.5,107.5 Z"></path></g>
<g><path style="opacity:1" fill="#a8897b" d="M 35.5,120.5 C 35.5,115.833 35.5,111.167 35.5,106.5C 32.5,106.5 29.5,106.5 26.5,106.5C 26.5,111.167 26.5,115.833 26.5,120.5C 25.5128,115.695 25.1795,110.695 25.5,105.5C 29.1667,105.5 32.8333,105.5 36.5,105.5C 36.8205,110.695 36.4872,115.695 35.5,120.5 Z"></path></g>
<g><path style="opacity:1" fill="#9d7c6d" d="M 68.5,106.5 C 71.6248,105.521 74.9581,105.187 78.5,105.5C 78.5,110.167 78.5,114.833 78.5,119.5C 77.5151,115.366 77.1818,111.032 77.5,106.5C 74.5,106.5 71.5,106.5 68.5,106.5 Z"></path></g>
<g><path style="opacity:1" fill="#53230f" d="M 35.5,120.5 C 32.5,120.5 29.5,120.5 26.5,120.5C 26.5,115.833 26.5,111.167 26.5,106.5C 29.5,106.5 32.5,106.5 35.5,106.5C 35.5,111.167 35.5,115.833 35.5,120.5 Z"></path></g>
<g><path style="opacity:1" fill="#8f6857" d="M 63.5,106.5 C 60.5,106.5 57.5,106.5 54.5,106.5C 54.8182,111.032 54.4849,115.366 53.5,119.5C 53.5,114.833 53.5,110.167 53.5,105.5C 57.0419,105.187 60.3752,105.521 63.5,106.5 Z"></path></g>
<g><path style="opacity:1" fill="#5e301c" d="M 135.5,107.5 C 138.833,107.5 142.167,107.5 145.5,107.5C 145.5,112.167 145.5,116.833 145.5,121.5C 142.167,121.5 138.833,121.5 135.5,121.5C 135.5,116.833 135.5,112.167 135.5,107.5 Z"></path></g>
<g><path style="opacity:1" fill="#572814" d="M 163.5,107.5 C 166.833,107.5 170.167,107.5 173.5,107.5C 173.5,111.833 173.5,116.167 173.5,120.5C 170.167,120.5 166.833,120.5 163.5,120.5C 163.5,116.167 163.5,111.833 163.5,107.5 Z"></path></g>
<g><path style="opacity:1" fill="#bba07c" d="M 160.5,107.5 C 157.167,107.5 153.833,107.5 150.5,107.5C 150.5,112.833 150.5,118.167 150.5,123.5C 153.833,123.5 157.167,123.5 160.5,123.5C 166.412,125.456 172.745,126.123 179.5,125.5C 179.5,125.833 179.5,126.167 179.5,126.5C 160.326,126.83 141.326,126.497 122.5,125.5C 123.5,125.5 124.5,125.5 125.5,125.5C 133.5,125.5 141.5,125.5 149.5,125.5C 149.5,119.167 149.5,112.833 149.5,106.5C 153.371,106.185 157.038,106.518 160.5,107.5 Z"></path></g>
<g><path style="opacity:1" fill="#b48d56" d="M 118.5,109.5 C 119.458,109.953 120.292,110.619 121,111.5C 121.281,116.215 121.781,120.882 122.5,125.5C 141.326,126.497 160.326,126.83 179.5,126.5C 181.099,126.768 182.432,126.434 183.5,125.5C 185.167,125.5 186.833,125.5 188.5,125.5C 188.5,126.5 188.5,127.5 188.5,128.5C 129.5,128.5 70.5,128.5 11.5,128.5C 11.5,127.5 11.5,126.5 11.5,125.5C 14.1667,125.5 16.8333,125.5 19.5,125.5C 46.995,126.498 74.6616,126.831 102.5,126.5C 103.5,126.5 104.5,126.5 105.5,126.5C 106.671,122.482 106.671,118.482 105.5,114.5C 105.815,112.517 106.815,111.184 108.5,110.5C 108.5,115.5 108.5,120.5 108.5,125.5C 111.833,125.5 115.167,125.5 118.5,125.5C 118.5,120.167 118.5,114.833 118.5,109.5 Z"></path></g>
<g><path style="opacity:1" fill="#bba07e" d="M 40.5,106.5 C 40.5,112.167 40.5,117.833 40.5,123.5C 43.8333,123.5 47.1667,123.5 50.5,123.5C 60.4459,125.475 70.7792,126.142 81.5,125.5C 81.1765,118.978 81.5098,112.645 82.5,106.5C 82.5,112.167 82.5,117.833 82.5,123.5C 85.8333,123.5 89.1667,123.5 92.5,123.5C 94.9878,125.388 97.9878,126.055 101.5,125.5C 102.167,125.5 102.5,125.833 102.5,126.5C 74.6616,126.831 46.995,126.498 19.5,125.5C 26.1667,125.5 32.8333,125.5 39.5,125.5C 39.1765,118.978 39.5098,112.645 40.5,106.5 Z"></path></g>
<g><path style="opacity:1" fill="#51220f" d="M 68.5,106.5 C 71.5,106.5 74.5,106.5 77.5,106.5C 77.1818,111.032 77.5151,115.366 78.5,119.5C 75.3752,120.479 72.0419,120.813 68.5,120.5C 68.5,115.833 68.5,111.167 68.5,106.5 Z"></path></g>
<g><path style="opacity:1" fill="#52230f" d="M 63.5,106.5 C 63.5,111.167 63.5,115.833 63.5,120.5C 59.9581,120.813 56.6248,120.479 53.5,119.5C 54.4849,115.366 54.8182,111.032 54.5,106.5C 57.5,106.5 60.5,106.5 63.5,106.5 Z"></path></g>
<g><path style="opacity:1" fill="#5a2810" d="M 40.5,106.5 C 43.8333,106.5 47.1667,106.5 50.5,106.5C 50.5,112.167 50.5,117.833 50.5,123.5C 47.1667,123.5 43.8333,123.5 40.5,123.5C 40.5,117.833 40.5,112.167 40.5,106.5 Z"></path></g>
</svg>