<?xml version="1.0" encoding="utf-8"?>
<!-- Generator: Adobe Illustrator 24.0.2, SVG Export Plug-In . SVG Version: 6.00 Build 0)  -->
<svg version="1.1" id="Capa_1" xmlns="http://www.w3.org/2000/svg" xmlns:xlink="http://www.w3.org/1999/xlink" x="0px" y="0px"
	 viewBox="0 0 595.28 841.89" style="enable-background:new 0 0 595.28 841.89;" xml:space="preserve">
<style type="text/css">
	.st0{fill:#030405;}
	.st1{fill:#040506;}
	.st2{fill:#D0CFCF;}
	.st3{fill:#E4E3E4;}
	.st4{fill:#B7B6B6;}
	.st5{fill:#ACABAB;}
	.st6{fill:#FDFDFD;}
	.st7{fill:#050506;}
	.st8{fill:#CCCBCB;}
	.st9{fill:#A4A3A3;}
	.st10{fill:none;}
	.st11{font-family:'ScriptMTBold';}
	.st12{font-size:48px;}
	.st13{fill:#E89253;}
	.st14{font-family:'FranklinGothic-Demi';}
	.st15{font-size:60px;}
	.st16{letter-spacing:6;}
</style>
<g>
	<path class="st0" d="M131.75,84.47c-16.35,6-32.05,13.46-47.7,21.06c-3.58,1.74-7.2,3.4-10.72,5.24c-3.24,1.69-6.11,1.88-8.06-1.72
		c-1.98-3.64,0.42-5.38,3.22-7.02c9.02-5.27,18.78-8.98,28.12-13.56c20.57-10.09,41.86-18.43,63.73-25.18
		c31.45-9.71,63.5-15.54,96.63-15.13c21.27,0.27,42.14,2.87,62.52,8.63c20.52,5.8,39.69,14.76,57.27,26.97
		c8.56,5.94,17.42,11.42,26.66,16.28c12.73,6.69,26.3,7.01,39.82,4c24.48-5.45,44.19,3.73,62.36,18.72
		c6.14,5.07,11.3,11.24,17.82,15.87c2.83,2.72,2.66,5.6,0.12,8.3c-2.74,2.92-5.6,1.37-8.02-0.47c-3.45-2.61-6.14-6.09-9.34-8.99
		c-9.36-8.47-18.84-16.76-31.01-21.15c-8.92-3.21-17.92-4.22-27.34-2.47c-11.55,2.15-23.23,4.3-34.91,0.89
		c-10.23-2.99-19.71-7.7-28.69-13.48c-17.1-11.01-33.8-22.8-53.16-29.68c-11.03-3.92-22.33-6.97-33.91-9.11
		c-14.74-2.73-29.56-3.98-44.49-3.85c-14.42,0.12-28.73,1.47-43.01,3.79c-20.13,3.27-39.64,8.69-58.94,15.06
		c-3.3,0.02-5.87,2.15-8.85,3.09C138.46,81.77,134.92,82.64,131.75,84.47z"/>
	<path class="st1" d="M99.91,179.37c-15.45-10.83-19.35-31.45-8.2-45.94c9.46-12.3,24.72-14.8,34.39-4.38
		c6.44,6.94,7.13,17.32,1.78,24.23c-1.84,2.38-3.96,4.52-7.07,2.45c-2.99-1.99-4.11-4.64-1.32-7.93c3.64-4.29,2.07-8.46-1.03-12.1
		c-3.25-3.82-7.38-3.9-11.77-1.82c-10.69,5.07-14.57,18.06-8.56,28.88c6.49,11.69,18.97,14.69,30.14,7.26
		c12.58-8.37,18.84-26.92,13.76-41.03c-3.08-8.56-9.82-12.85-18.3-14.24c-13.73-2.24-25.43,2.53-35.59,11.58
		c-4.61,4.1-8.71,8.68-12.13,13.82c-2.43,3.65-5.78,3.45-8.6,1.55c-3.09-2.07-1.43-4.79,0.37-7.29
		c8.35-11.65,18.11-21.55,31.77-26.97c16.36-6.48,35.06-3.48,45.43,7.7c8.9,9.61,10.44,21.18,8.01,33.53
		c-2.71,13.78-10.39,24.19-22.16,31.69C120.33,185.67,110.01,185.92,99.91,179.37z"/>
	<path class="st2" d="M150.73,77.48c5.94-3.72,12.84-4.8,19.37-6.83c13.15-4.08,26.61-7.02,40.2-9.26
		c17.45-2.88,35.01-3.78,52.7-3.31c19.21,0.51,38,3.48,56.41,8.8c19.43,5.62,36.98,15.15,53.75,26.3
		c11.99,7.96,23.93,15.97,38.01,20.14c10.23,3.03,20.61,3.01,30.6,0.7c23.2-5.37,42.02,2.39,58.87,17.47
		c4.58,4.1,8.94,8.43,13.48,12.58c2.26,2.07,4.36,5.01,8.11,2.89c3.9-2.21,2.06-5.36,1.22-8.32c3.83,1.48,3.94,4.23,2.1,7.19
		c-1.92,3.08-4.56,5.01-8.32,2.69c-4.45-2.74-7.62-6.92-11.41-10.4c-9.56-8.79-19.4-17.3-31.99-21.42
		c-7.85-2.57-15.81-3.99-24.39-2.25c-12.45,2.53-25.2,5.01-37.81,0.92c-10.04-3.26-19.5-7.9-28.35-13.76
		c-16.95-11.23-33.86-22.69-53.18-29.55c-16.63-5.9-33.8-9.77-51.45-11.39c-17.26-1.59-34.48-1.95-51.7,0.4
		c-6.88,0.94-13.84,1.4-20.67,2.62c-7.6,1.35-15.06,3.48-22.65,4.97C172.44,70.83,161.97,75.58,150.73,77.48z"/>
	<path class="st3" d="M498.64,188.38c-7.05,9.88-17.09,12.82-28.36,10.92c-9.35-1.57-15.43-8.39-19.12-16.61
		c-4.54-10.1-2.95-20.19,2.57-29.68c0.31-0.54,0.99-0.96,0.36-1.9c-3.47,2.15-5.34,5.62-7.63,8.78c-2.31,3.19-5.07,6.02-9.61,3.64
		c-4.4-2.3-5.1-5.13-2.55-9.33c1.14-1.89,2.55-3.47,4.22-4.87c0.47,0.3,0.73,0.73,0.81,1.28c0.03,1.95-1.2,3.4-2.01,5.03
		c-0.78,1.58-1.27,3.25,0.42,4.5c1.77,1.3,3.5,0.72,4.94-0.71c1.89-1.88,3.5-4.01,5.01-6.21c4.86-7.07,11.23-12.18,19.34-15.1
		c8.73-3.15,17.26-3.01,24.5,3.16c7.43,6.34,8.91,15.07,6.85,24.19c-1.09,4.84-1.51,10.35-6.5,13.46c-0.54,0.02-1.01-0.16-1.4-0.53
		c0.59-5.56,3.12-10.62,4.04-16.15c1.57-9.48-4.02-22.25-15.93-21.45c-3.29,0.22-6.64-0.34-10.44,0.86
		c5.11-0.14,9.69-0.32,13.88,1.9c4.35,2.31,7.05,6.14,8.69,10.56c2.5,6.74,2.24,13.37-2.27,19.36c-2.96,3.93-7.29,4.34-10.88,1.12
		c0.45-0.68,1.13-1.01,1.89-1.21c5.84-1.44,9.52-6.59,8.63-12.58c-0.96-6.48-3.98-12-10.33-14.25c-5.91-2.09-11.76-1.05-16.81,3.31
		c-8.04,6.93-10.19,15.8-8.43,25.75c1.74,9.87,7.12,17.29,16.87,20.56c7.82,2.62,15.1,0.63,21.68-4.19c1.99-1.46,3.62-3.5,6.21-4.07
		C497.77,187.87,498.24,188.03,498.64,188.38z"/>
	<path class="st2" d="M498.64,188.38c-0.4-0.03-0.81-0.05-1.21-0.08c-0.84-2.07,0.63-3.46,1.51-4.99c2.73-4.78,4.7-9.79,6.17-15.15
		c1.8-6.59,0.88-12.77-0.58-19.15c-3.46-15.17-20.1-21.18-30.7-19.75c-12.56,1.69-22.44,7.65-30.24,17.45
		c-1.26,1.59-2.23,3.8-4.84,3.78c-0.08-0.38-0.16-0.77-0.24-1.16c7.18-11.04,16.67-18.58,29.75-22.14
		c10.82-2.95,19.8-0.2,28.48,5.62c7.74,5.18,10.96,13.05,11.88,21.84C509.93,167.17,506.46,178.46,498.64,188.38z"/>
	<path class="st4" d="M99.91,179.37c10.14,5.37,20.46,5,30.9,0.98C123.32,187.41,105.49,186.18,99.91,179.37z"/>
	<path class="st5" d="M131.75,84.47c2.84-2.68,6.23-3.95,10.13-3.89C138.93,82.98,135.29,83.59,131.75,84.47z"/>
	<path class="st6" d="M330.34,164.71c-10.05-0.3-16-5-16.43-12.01c-0.31-5,2.43-7.83,9.68-9.88c1.76-0.5,3.57-0.78,5.36-1.15
		c6.39-1.32,7.84-0.47,9.61,5.64c0.37,1.28,1.01,2.51,1.16,3.81c0.29,2.59,4.12,4.27,1.96,7.42
		C338.65,162.93,334.74,165.64,330.34,164.71z"/>
	<path class="st7" d="M438.75,150.49c7.18-8.76,14.68-17.11,26.01-20.65c11.83-3.69,23.21-3.07,32.75,5.37
		c9.25,8.18,11,19.17,9.29,30.95c-1.19,8.21-5.02,15.28-9.38,22.14c-5.4,4.7-10.87,9.27-18.39,10.07
		c-17.72,1.91-30.26-14.53-28.35-31.6c0.88-7.9,4.51-14.18,10.9-19.36c5.22-4.24,17.36-3.7,21.68,0.66
		c6.24,6.29,8.01,15.86,3.55,22.72c-1.67,2.57-3.72,4.22-6.99,3.62c-4.08-1.84-3.56-5.12-2.61-8.48c1.53-5.42,0.8-8.59-2.36-9.96
		c-4.01-1.74-8.1,0-10.89,4.48c-3.22,5.17-3.87,10.51-1.43,16.15c0.72,3.9,2.72,6.93,6.16,8.97c0.41,0.21,0.79,0.45,1.18,0.68
		c6.58,2.07,12.58,1.54,17.56-3.77c1.35-1.43,2.78-2.77,4.32-4c6.25-10.01,8.53-20.54,2.91-31.48c-4.5-8.77-17.42-11.98-27.07-7.96
		c-8.93,3.72-15.56,9.78-20.98,17.55c-2.29,3.28-4.54,8.43-9.51,5.3c-5.37-3.38-0.77-7.13,1.19-10.51
		C438.48,151.1,438.61,150.79,438.75,150.49z"/>
	<path class="st6" d="M477.68,174.51c6.71,2.38,10.46,0.83,12.6-6.74c3.09-10.91-3.68-25.41-16.63-24.81
		c-3.04,0.14-6.09,0.02-9.08,0.02c9.07-6.91,23.72-4.9,28.6,4.75c2.35,4.64,4.4,9.7,2.38,15.91c-1.6,4.9-2.56,10.05-4.85,14.77
		c-3.71,8.67-13.45,12-21.98,8.03l0,0c-3.41-2.39-5.83-5.44-6.56-9.65c-2.54-6.95-1.87-13.37,3.3-18.96
		c2.85-3.09,7.55-4.12,10.39-2.41c2.61,1.57,3.77,6.11,2.02,9.95C476.45,168.52,477.1,171.46,477.68,174.51z"/>
	<path class="st8" d="M477.68,174.51c-2.94-2.29-1.99-5.61-1.11-8c1.59-4.33,2.38-8.3-2.15-10.77c-3.65-1.99-9.97,2.63-11.73,7.58
		c-1.7,4.8-0.3,9.5-0.11,14.24c-0.33,0.35-0.61,0.32-0.83-0.12c-3.44-7.64-2.12-14.51,3.53-20.56c3.06-3.28,6.98-3.93,10.88-2.04
		c3.43,1.65,4.33,6.64,2.37,11c-1.44,3.2-1.2,6.02,1.3,8.56C479.12,174.44,478.4,174.47,477.68,174.51z"/>
	<path class="st9" d="M468.73,186.45c9.45,3.13,16.63,0.06,21.98-8.03c0.36,0.02,0.71,0.04,1.07,0.06
		c-3.87,7.93-12.4,12.11-20.41,9.99C470.2,188.17,469.22,187.62,468.73,186.45z"/>
	<path class="st9" d="M461.75,177.44c0.28,0.01,0.56,0.05,0.84,0.12c1.34,3.45,4.12,5.91,6.15,8.89
		C464.52,184.9,462.55,181.62,461.75,177.44z"/>
	<rect x="224.76" y="145.3" class="st10" width="143.04" height="37.44"/>
	<text transform="matrix(1 0 0 1 224.7561 178.7045)" class="st11 st12">UCAR</text>
	<g>
		<path class="st13" d="M171.45,548.51c-13.07,4.8-25.62,10.76-38.12,16.83c-2.86,1.39-5.75,2.72-8.57,4.19
			c-2.59,1.35-4.89,1.5-6.45-1.38c-1.58-2.91,0.34-4.3,2.58-5.61c7.21-4.21,15.01-7.17,22.48-10.84
			c16.44-8.06,33.46-14.73,50.94-20.13c25.14-7.76,50.76-12.42,77.23-12.09c17,0.21,33.68,2.29,49.97,6.9
			c16.4,4.64,31.72,11.8,45.78,21.56c6.84,4.75,13.93,9.13,21.31,13.01c10.17,5.34,21.02,5.6,31.83,3.19
			c19.56-4.36,35.32,2.98,49.84,14.97c4.91,4.05,9.03,8.98,14.24,12.68c2.26,2.18,2.13,4.47,0.1,6.63c-2.19,2.33-4.47,1.1-6.41-0.37
			c-2.76-2.09-4.91-4.87-7.47-7.18c-7.48-6.77-15.06-13.4-24.79-16.9c-7.13-2.57-14.32-3.38-21.85-1.97
			c-9.23,1.72-18.57,3.44-27.9,0.71c-8.18-2.39-15.75-6.15-22.93-10.77c-13.66-8.8-27.02-18.23-42.49-23.73
			c-8.82-3.13-17.85-5.57-27.1-7.28c-11.78-2.18-23.63-3.18-35.56-3.08c-11.52,0.1-22.96,1.18-34.38,3.03
			c-16.09,2.61-31.68,6.94-47.11,12.04c-2.64,0.02-4.69,1.72-7.07,2.47C176.82,546.35,173.99,547.04,171.45,548.51z"/>
		<path class="st13" d="M156.09,646.38c-15.45-10.83-19.35-31.45-8.2-45.94c9.46-12.3,24.72-14.8,34.39-4.38
			c6.44,6.94,7.13,17.32,1.78,24.23c-1.84,2.38-3.96,4.52-7.07,2.45c-2.99-1.99-4.11-4.64-1.32-7.93c3.64-4.29,2.07-8.46-1.03-12.1
			c-3.25-3.82-7.38-3.9-11.77-1.82c-10.69,5.07-14.57,18.06-8.56,28.88c6.49,11.69,18.97,14.69,30.14,7.26
			c12.58-8.37,18.84-26.92,13.76-41.03c-3.08-8.56-9.82-12.85-18.3-14.24c-13.73-2.24-25.43,2.53-35.59,11.58
			c-4.61,4.1-8.71,8.68-12.13,13.82c-2.43,3.65-5.78,3.45-8.6,1.55c-3.09-2.07-1.43-4.79,0.37-7.29
			c8.35-11.65,18.11-21.55,31.77-26.97c16.36-6.48,35.06-3.48,45.43,7.7c8.9,9.61,10.44,21.18,8.01,33.53
			c-2.71,13.78-10.39,24.19-22.16,31.69C176.51,652.68,166.19,652.93,156.09,646.38z"/>
		<path class="st13" d="M391.49,607.42c6.08-9.56,14.68-17.11,26.01-20.65c11.83-3.69,23.21-3.07,32.75,5.37
			c9.25,8.18,11,19.17,9.29,30.95c-1.19,8.21-4.08,15.98-9.38,22.14c-4.66,5.42-10.87,9.27-18.39,10.07
			c-17.72,1.91-30.26-14.53-28.35-31.6c0.88-7.9,4.51-14.18,10.9-19.36c5.22-4.24,17.36-3.7,21.68,0.66
			c6.24,6.29,8.01,15.86,3.55,22.72c-1.67,2.57-3.72,4.22-6.99,3.62c-4.08-1.84-3.56-5.12-2.61-8.48c1.53-5.42,0.8-8.59-2.36-9.96
			c-4.01-1.74-8.1,0-10.89,4.48c-3.22,5.17-3.97,10.18-2.18,16.06c1.16,3.79,3.47,7.02,6.91,9.06c0.41,0.21,0.79,0.45,1.18,0.68
			c6.58,2.07,13.16,1.96,18.14-3.35c1.35-1.43,2.52-2.97,3.74-4.41c6.25-10.01,8.53-20.54,2.91-31.48
			c-4.5-8.77-17.42-11.98-27.07-7.96c-8.93,3.72-15.56,9.78-20.98,17.55c-2.29,3.28-4.54,8.43-9.51,5.3
			C384.49,615.44,391.31,607.7,391.49,607.42z"/>
		<rect x="209.58" y="606.55" class="st10" width="181.18" height="53.93"/>
		<text transform="matrix(1 0 0 1 214.9082 646.569)" class="st13 st14 st15 st16">UCAR</text>
	</g>
</g>
</svg>
