<svg xmlns="http://www.w3.org/2000/svg" viewBox="0 0 200.23 200.22"><defs><style>.cls-2{fill:#7fcbda}.cls-3{fill:#fcbd1d}.cls-4{fill:#f49509}.cls-5{fill:#a7daec}.cls-6{fill:#fedeb0}.cls-8{fill:#ed6e1d}.cls-10{fill:#be5c18}.cls-13{fill:#060708}.cls-17{fill:#fff}.cls-21{fill:#0b3846}.cls-22{fill:#081417}.cls-24{fill:#e63818}.cls-35{fill:#ec6e1d}</style></defs><g id="Capa_2" data-name="Capa 2"><g id="Capa_1-2" data-name="Capa 1"><path d="M200.23 151.66v32.21c-.88 7.78-5.44 12.64-12.39 15.62-1.28.55-2.65.41-4 .73H16.34c-7.79-1-12.74-5.52-15.6-12.62-.58-1.44-.48-3-.74-4.44V17.07a16.62 16.62 0 0 1 3.08-8.93A20 20 0 0 1 13.18.55 26.65 26.65 0 0 1 17.06 0h166.09a16.61 16.61 0 0 1 9 3.08 20 20 0 0 1 7.51 10 29.88 29.88 0 0 1 .53 3.28v131.23c-.57.18-.88-.26-1.23-.54a19.85 19.85 0 0 0-9-4.14 2.09 2.09 0 0 1-1.48-.67c-.39-.92-.24-2-.76-2.88a7.25 7.25 0 0 0-4.89-3.4 32 32 0 0 0-10.37-.85c-2.67.19-5.34.36-8 .62a.75.75 0 0 1-.65-.87c.22-.57.75-.81 1.2-1.14a40 40 0 0 0 11.59-12.49 16.19 16.19 0 0 0 2.31-8.23c0-5-2.78-8.32-7.71-9.21a25.16 25.16 0 0 0-7.3-.12 43.2 43.2 0 0 0-8.34 1.72c-4.83 1.53-9.62 3.18-14.5 4.54a2.52 2.52 0 0 1-1.41.15c-.87-.55-.7-1.32-.27-2 2.15-3.26 3.34-7 5.17-10.41a3.18 3.18 0 0 0 .28-2.21 42.06 42.06 0 0 0-1.84-6.7c-.91-2.43-1.65-4.93-2.41-7.41a20.38 20.38 0 0 0-1.47-3.67 4.19 4.19 0 0 1-.51-1.83 8.43 8.43 0 0 0-4.11-4.56 1.29 1.29 0 0 1-.34-2.13c2.15.6 2.62.42 3.84-1.7 1.79-3.15 2.55-6.44 1.36-10a7 7 0 0 0-7.35-5.13c-3.32.22-5 2.42-6.22 5.24-.39 1.18.46 2 .85 3a9.17 9.17 0 0 1-.88 4 1.64 1.64 0 0 0 .06 1.88 1.37 1.37 0 0 1 .2 1.65 3.33 3.33 0 0 1-2.66-.19c-.8-.26-1.52-.71-2.32-1-.31-.14-.71 0-1-.37a6.17 6.17 0 0 1 .63-2.63c2.17-2.35 2.54-4.55 1.16-6.85a7.42 7.42 0 0 0-7.73-3.34A33.32 33.32 0 0 0 111 55a5.14 5.14 0 0 1-2-.73A6.76 6.76 0 0 0 99.91 59c-.24 1 .36 1.79.77 2.62a9.41 9.41 0 0 1-.89 3.94 1.55 1.55 0 0 0 .1 1.79 2.9 2.9 0 0 1 .47 2.06c-.11 1.52-.06 3 1.57 3.74.07.41-.25.56-.5.72a10.68 10.68 0 0 0-3.86 4.25c-.43.63-.7 1.34-1.08 2-.21.38-.37.82-.92.82-.58-.22-.65-.77-.79-1.26a15.77 15.77 0 0 0-2.28-5.11 3.67 3.67 0 0 1-.61-1.67 12.33 12.33 0 0 0-.49-2c-.55-1.74-1.53-2.94-3.53-3-1.22-.06-2.2-.92-3.39-1.13a1.56 1.56 0 0 1-1-.61c-.35-.94.17-1.76.4-2.61 1.94-1.29 2.27-3.17 1.87-5.27-.52-2.69-4.3-5.44-7-5.12a7.34 7.34 0 0 0-5.21 2.62 3 3 0 0 0-.18 3.82c.28 1-.53 2-.19 3a8.89 8.89 0 0 0 .54 3.13 2.45 2.45 0 0 1-.81 2.88 17.13 17.13 0 0 1-3 2 2.22 2.22 0 0 0-1.4 1.8 9.73 9.73 0 0 0-1.35 5.38 7.6 7.6 0 0 1-.87 3.69 9.76 9.76 0 0 0-1 4.28 30.59 30.59 0 0 1-.28 4.78c-.23 1.27.68 2.33 1 3.5.16.49.68 1 .13 1.52a2.58 2.58 0 0 1-1.8-.53 66.2 66.2 0 0 0-11-4.67A38 38 0 0 0 43 88.7c-6.1-.06-11.86 1.19-16.7 5.27a17.42 17.42 0 0 0-5 7.06 29.89 29.89 0 0 0-2 10.45 3.87 3.87 0 0 0 .16 1.18 14.6 14.6 0 0 0 1.9 6.86 14.16 14.16 0 0 0 6.44 5.36 18.21 18.21 0 0 1 2 .88 28.08 28.08 0 0 0 11.2 4.4c5.51 1 11.1 1.66 16.48 3.33 1 .3 1.91.59 2.88.87a1.77 1.77 0 0 1 1.28.81c.07.5-.27.73-.63.91-4 2-8 4.25-12.65 4.61a83.92 83.92 0 0 1-13.17.22A49.31 49.31 0 0 0 28 141c-2.95.2-5.9.31-8.83.77a27.19 27.19 0 0 0-11.31 4.39 1.4 1.4 0 0 1-.38.16 6 6 0 0 0-2.58 2.09A9 9 0 0 1 2.16 151c3.55 2.18 7.17 3.54 11.32 3.06 2.91-.34 5.75-1 8.61-1.64a21 21 0 0 1 11.92 1c2.29.86 4.53 1.83 6.8 2.74a41.86 41.86 0 0 0 11.92 2.58c5.69.51 11.36-.26 17-.07 1.68.06 3.37.15 5 .35 3.07.38 4.75 1.74 5 4.45.07.92.73 1.27 1.47 1.55a15.36 15.36 0 0 0 6.29.56c4.41-.23 8.56-1.57 12.76-2.78a49.9 49.9 0 0 1 16.65-1.57c7.79.42 15.52 1.64 23.35 1.56a39.2 39.2 0 0 0 17.1-3.79c2-1 4-1.88 6.05-2.66a35.73 35.73 0 0 1 10.91-2.16c6-.31 12-.3 18-.52 2.51-.09 5.06-.32 7.24-1.84a.62.62 0 0 1 .68-.16Z" style="fill:#c5e5f0"/><path class="cls-2" d="M200.23 151.66a8.51 8.51 0 0 1-5.7 2.14c-5.58.43-11.18.42-16.78.52-6.28.11-12.36 1.1-18.08 4a41.23 41.23 0 0 1-10.51 4 55 55 0 0 1-14.66.73c-2.39-.17-4.77-.35-7.16-.55-3.69-.31-7.38-.67-11.08-.9a53.86 53.86 0 0 0-7.07.13 44.84 44.84 0 0 0-9.06 1.55c-2.69.76-5.3 1.85-8.08 2.19-3.62.45-7.26 1.26-10.9 0a2.28 2.28 0 0 1-1.89-2.38 3.37 3.37 0 0 0-2.6-3.23 19.31 19.31 0 0 0-5.8-.71c-3.6-.11-7.19 0-10.79.18a49.68 49.68 0 0 1-24.31-4.76 20.35 20.35 0 0 0-10.45-2.17 52.64 52.64 0 0 0-8.45 1.6c-5.73 1.4-10.89.18-15.78-3.16 1.75-.24 2.55-1.56 3.49-2.73.77-1 1.5-2 2.88-2.17a15.18 15.18 0 0 0 4.12 1.54 51.35 51.35 0 0 0 12.28 1.7h6.59a1.91 1.91 0 0 1 .89 0c2.44 0 4.88-.21 7.32-.25a1.56 1.56 0 0 1 .68 0c4.15-.26 8.3.11 12.46 0h1.68a1.41 1.41 0 0 1 .46 0c5.93-.27 11.85-.82 17.77-1.22a108.21 108.21 0 0 1 11.3-.35 2.17 2.17 0 0 1 1.68.45c.1.58-.41.62-.74.76a8 8 0 0 0-2.94 1.94 1.53 1.53 0 0 1-1.63.49c-2-.48-4.07-.32-5.94-1.31a2 2 0 0 0-1.93.37 17.91 17.91 0 0 1-7.94 2.11c-.55 0-1.08-.06-1.6 0 4.06.28 8.13-.33 12.21-.2 1.87.06 3.6.25 4.82 1.89a1.3 1.3 0 0 0 1.31.4 5.21 5.21 0 0 1 4.38 1.43c1.38 1.29 3.25 1.09 4.91.62a2.52 2.52 0 0 1 2.92.62 2.51 2.51 0 0 0 2.65.68 10.32 10.32 0 0 0 2.73-.91 12.41 12.41 0 0 1 8.26-1.26 28.05 28.05 0 0 0 5.26.39 6.66 6.66 0 0 0 2.67-.61 5.71 5.71 0 0 0-2.75-.91 35.5 35.5 0 0 0-8.74.1 5.06 5.06 0 0 1-3.45-.58 3.42 3.42 0 0 0-3 .06c-1.3.43-1.41.39-1.63-1-.15-.93-.74-1.81-.39-2.81.56-.59 1.19-.28 1.79-.12a54.86 54.86 0 0 0 7.85 1.59c3.13.38 6.22-.06 9.32-.19 5.06-.22 10.1-.83 15.14-1.34 1.67-.17 3.33-.41 5-.43a3.53 3.53 0 0 1 1.07-.18c4.85-.4 9.71-.71 14.58-.89 2.39-.09 4.79-.07 7.17-.31a2.39 2.39 0 0 1 1.72 1.13c.63.77 1.3 1.5 1.88 2.31.4.55.69.51 1.08 0 .74-.94 1.54-1.81 2.3-2.73a2.82 2.82 0 0 1 1.59-1.18c5.69-.54 11.35-1.3 17-2.37 2.38-.45 4.69-1 6.45-2.88a.62.62 0 0 1 .65-.21 20.73 20.73 0 0 1 11.53 5.3c-.01 1.35-.01 2.71-.01 4.08Z"/><path class="cls-3" d="M19.19 112.79a23.44 23.44 0 0 1 1.11-10.15c2.63-8.31 8.71-12.57 17-13.93 8.12-1.33 15.8.45 23.15 3.92 1.91.9 3.8 1.87 5.69 2.81 2 .35 3.55 1.53 5.27 2.39 1.06.53 2.1 1.12 3.17 1.64.51.28 1 .52 1.53.8a24.66 24.66 0 0 0 3 1.58c.44.25 1 .39 1.12 1-.05.53-.49.69-.86.91a27.24 27.24 0 0 0-8.42 8.17 28.06 28.06 0 0 0-3.6 6.58 1.39 1.39 0 0 1-.87.93c-2.1 0-4.08-.7-6.12-1.08-6.88-1.28-13.36-3.87-20-6.07a46.33 46.33 0 0 0-11.22-2.47 18.46 18.46 0 0 0-6.41.65c-1.43.38-2.86.79-3.54 2.32Z"/><path class="cls-4" d="M155.53 105c5.75-1.71 11.57-2.94 17.52-1.18a8.67 8.67 0 0 1 6.28 8.43 16.55 16.55 0 0 1-2.29 8.93A39.06 39.06 0 0 1 164 134.84c-.53.17-.86-.19-1.08-.54a4.13 4.13 0 0 0-3.83-2.12 2.48 2.48 0 0 1-1-.25 5.74 5.74 0 0 1-1.68-2.14 33.44 33.44 0 0 0-7.51-8.14c-1.15-1-2.32-2-3.42-3-.26-.25-.55-.47-.54-.88.16-.59.69-.86 1.11-1.22 3.08-2.62 6.14-5.27 8.13-8.9a10.25 10.25 0 0 1 1.35-2.65Zm-136.34 7.79c-.14-1.14.43-1.65 1.48-2.06a20.39 20.39 0 0 1 9.61-1.2c5.64.54 10.83 2.59 16.1 4.4A102.12 102.12 0 0 0 62 118.27c1.53.27 3 .62 4.56.93l.1.16c.06 1.34-.73 2.41-1.15 3.6a56.34 56.34 0 0 0-2.65 7.83c-.12.58-.26 1.19-1 1.42a3.62 3.62 0 0 1-2-.39 58.58 58.58 0 0 0-18.26-3.58 34.28 34.28 0 0 1-10.39-1.53c-.6-.21-1.16-.51-1.74-.78A17 17 0 0 1 23 122a12.92 12.92 0 0 1-3.81-9.21Z"/><path class="cls-5" d="M39.19 149.24h-.49c-2.5-.52-5-1.16-7.45.24h-.73a2.63 2.63 0 0 0-1.71-.35h-3.57a1.51 1.51 0 0 0-1.21.35h-.24a4 4 0 0 0-2.23-.76 39.51 39.51 0 0 1-9.56-1.35 31.91 31.91 0 0 0-3.58-.93c-.3 0-.78 0-.75-.56a18.14 18.14 0 0 1 7-3.59 49.68 49.68 0 0 1 12.5-1.75c2.39-.1 4.79-.27 7.18-.14 2.19.12 4.38.24 6.58.18 4.34-.1 8.71 0 12.86-1.62 2.62-1 5.06-2.37 7.6-3.54.08 0 .11-.2.16-.31.41-.34.85-.14 1.25 0 2.27.76 4.59 1.39 6.84 2.19a1.87 1.87 0 0 1 1.26.84 1.24 1.24 0 0 1-.87 1.61c-2.86 1.21-5.59 2.66-8.79 3a96.66 96.66 0 0 0-12.44 2.56c-.5.13-1.36.13-1.26.82s1 .45 1.5.55.87-.31 1.25-.58a1.76 1.76 0 0 1 1.44 0 3.37 3.37 0 0 0 2.59 1c2.24 0 4.47-.29 6.71-.19a3.42 3.42 0 0 1 1.52.26c.2.11.46.21.43.51s-.26.39-.47.5a.56.56 0 0 1-.34.1c-1.64-.32-3.23.46-4.87.22a4.41 4.41 0 0 0-3.43.7h-.25a2.27 2.27 0 0 0-1.48-.35c-1.54.09-3.1-.21-4.63.2a.47.47 0 0 1-.35 0c-1.67-1-3.5-.47-5.26-.59a4.18 4.18 0 0 0-2.71.78Z"/><path class="cls-6" d="M139 75.71a4.09 4.09 0 0 0 .55 1.94c1.53 3 2.14 6.35 3.29 9.5a48.34 48.34 0 0 1 2.4 8.27 3.47 3.47 0 0 1-.29 2.42c-1.9 3.46-3 7.32-5.36 10.57a1.23 1.23 0 0 0 .06 1.46 2.43 2.43 0 0 1-.85 2.75.25.25 0 0 1-.12 0c-1.12-.38-3.37-3.39-3.47-4.61a9.94 9.94 0 0 0 1.41-4.87c0-.41 0-.91.58-1a.84.84 0 0 1 .17 1.06c.33-2.22 1.24-4.53 1.59-7a3.47 3.47 0 0 0-.26-1.27c-.09-.21-.18-.43-.28-.63-.41-1.08-1.22-1.92-1.73-3s-1.08-2-1.64-2.93a1.23 1.23 0 0 0-1.37-.69c-3.34.39-5.07-1.24-4.95-4.59.15-.92.48-1.79.71-2.69 1-3.17 4.09-5.63 7-5.6a3.73 3.73 0 0 1 2.56.91Z"/><path class="cls-5" d="M188.7 142.27c-1.53 2.17-3.87 2.86-6.28 3.36-4.6 1-9.25 1.6-13.92 2.13a16.15 16.15 0 0 1-4.17.27.5.5 0 0 1 0-.32 4.61 4.61 0 0 1 .7-1.09c1-1.3 2.14-2.57 3.25-3.81a1.19 1.19 0 0 0 0-1.86c-1.08-1.21-2.05-2.54-3.09-3.79-.38-.46-1-.87-.8-1.62 1.41-.73 3-.5 4.45-.62 4.77-.41 9.57-.67 14.26.65a7.59 7.59 0 0 1 5 3.47 6.13 6.13 0 0 1 .6 3.23Z"/><path class="cls-6" d="m74.52 99.82-8.4-4.39c-.46-1.21-.91-2.42-1.39-3.62-.12-.3-.37-.58-.27-.9.78-2.36.14-4.86.69-7.24a7.91 7.91 0 0 1 .85-2.48 5.47 5.47 0 0 0 .76-3.19 9.07 9.07 0 0 1 1.57-5.88c1.09-1.23 2-1.24 3 .1a7.07 7.07 0 0 1 .67 8.15 6.39 6.39 0 0 0-.48 2A10.91 10.91 0 0 1 71.1 86a30.51 30.51 0 0 0-1.77 3.22 1.23 1.23 0 0 0 0 1.35 13.52 13.52 0 0 0 1.33 2.1c1.21 2 2 4.25 3.66 6 .32.27.57.7.2 1.15Z"/><path d="m70.7 138.13-9.16-3A102.49 102.49 0 0 0 43.31 131c-4.75-.69-9.38-1.84-13.37-4.73-.13-.09-.24-.2-.36-.3 5.55 1.71 11.32 1.72 17 2.22a55.49 55.49 0 0 1 14 3.43c.45.16.91.29 1.36.43a3.64 3.64 0 0 1 1.75.35c4.73 1.82 9.3 4.05 14 5.85 1.23.47 2.52.8 3.71 1.37.33.16 1.07.21.63.94a21.25 21.25 0 0 1-5.9-.41c-1.37-.49-2.81-.77-4.19-1.23a1.94 1.94 0 0 1-1.24-.79Z" style="fill:#060608"/><path class="cls-6" d="M134.34 69.2c-.36.77-.49 1.47.49 1.89a.86.86 0 0 1-.33.44 4.46 4.46 0 0 1-2.77 2.56c-1.9.56-2.68.38-3.93-1.16-2.31-1.18-2.94-2.86-1.85-4.91a1.7 1.7 0 0 0-.58-1.62 1 1 0 0 1-.28-1.39c1-1.42.94-3.11 1.38-4.67a2.44 2.44 0 0 1 4.08-2.16 8.78 8.78 0 0 1 3.37 4.82c.15.48.21.91.79 1.21.76.4.73 2 0 3a1.35 1.35 0 0 0-.21 1.63.41.41 0 0 1-.16.36Z"/><path class="cls-3" d="M73.29 59.66c-.61 0-.86-.37-.93-1a4.25 4.25 0 0 1 .89-3.25 7.68 7.68 0 0 1 8.13-2.28c3.34 1.27 5.19 3.94 4.94 7.23a3.28 3.28 0 0 1-2.14 3.16c-.59.69-1.35.57-2.11.45Z"/><path class="cls-6" d="M102 73.24c-2.08-.86-2.07-.86-2-3.26 0-1.06.24-2.16-.8-3a.76.76 0 0 1-.09-1c1-1.35 1-3 1.41-4.52.19-2.56 2-3.45 4.15-2a8.93 8.93 0 0 1 3.12 4.42 3.51 3.51 0 0 0 .41 1 2.43 2.43 0 0 1 .29 3.4 1.5 1.5 0 0 0-.25 1.35 2.2 2.2 0 0 1 0 .37 5 5 0 0 1 0 2.27 4.17 4.17 0 0 1-4.66 2.61 1.61 1.61 0 0 1-1.58-1.64Z"/><path class="cls-8" d="M164.41 135.54c1.52 1.88 3 3.79 4.56 5.64.4.48.49.77 0 1.29-1.31 1.45-2.55 3-3.82 4.45a26 26 0 0 1-3-3.53c-3.35-4.11-6.72-8.2-10.06-12.32a4.41 4.41 0 0 1-.68-1c-.26-.63-.19-1.11.63-1.17a2.67 2.67 0 0 1 1.28 1.18 2.8 2.8 0 0 0 2.54 1.21 3 3 0 0 1 2.05.39c1 0 2 .24 3 .29s1.28 1.16 1.91 1.77c.36.35.6.82 1.06 1.08a1.12 1.12 0 0 0 .53.72Z"/><path class="cls-3" d="M138.69 112.57c.74-.76.56-1.85 1-2.73 4.94-1.26 9.75-2.92 14.59-4.47.41-.13.84-.22 1.26-.33a14.78 14.78 0 0 1-3.4 6.1 43.49 43.49 0 0 1-7.18 6.64c-.62.16-.93-.35-1.32-.63a18.2 18.2 0 0 0-3.6-2.49c-.63-.58-1.51-1-1.35-2.09Zm-4.35-43.37a1.74 1.74 0 0 0 0-.22.66.66 0 0 1 .33-.12c1.91 0 2.56-.74 2.32-2.64a10.44 10.44 0 0 0-6.46-8.71 4.55 4.55 0 0 0-4.49.1c-.19.12-.43.24-.65 0 1.14-3.84 4.06-6 7.78-5.73 3.51.24 6.23 3 6.91 7a13.16 13.16 0 0 1-2.21 9.44 3.85 3.85 0 0 1-1.37 1.32c-.81.53-1.61.61-2.16-.44Zm-26.34.7a.2.2 0 0 1 0-.15c.24-.36.57-.17.87-.13 1.23.15 1.79-.25 2-1.47a6.15 6.15 0 0 0-.41-3.18 10.36 10.36 0 0 0-6-6.22 4.72 4.72 0 0 0-4.28.09.8.8 0 0 1-.69.1A7.21 7.21 0 0 1 110 54.21l1 .57a4.25 4.25 0 0 1 2.32 2.44 8.35 8.35 0 0 1 1.07 4.36c-.16.82 0 1.66-.12 2.48a13.78 13.78 0 0 1-2.47 5.6 3.42 3.42 0 0 1-1.55 1.24c-.95.2-1.89.25-2.25-1Z"/><path d="M114.18 61.48a10.34 10.34 0 0 0-3.12-6.7c4.37-3.29 10.64-1.27 11.89 3.84.58 2.38-.13 4.25-2 5.33a1.52 1.52 0 0 1-1.39.52 10.45 10.45 0 0 1-5.38-2.99Z" style="fill:#c9930b"/><path class="cls-6" d="M84.6 66.33a32.74 32.74 0 0 0 4.89 1.45 2.39 2.39 0 0 1 1.92 2.09c.57 3 2.35 5.52 3.38 8.34a12.93 12.93 0 0 0 .87 2.59A4.36 4.36 0 0 1 93 84.29a1.57 1.57 0 0 1-1.16-.77 31.09 31.09 0 0 1-3.09-5.07c.08-.2 0-.06 0 0 0 .4 0 .67-.48.3-.34-.77 0-1.63-.34-2.39a16 16 0 0 0-.53-1.95 20.69 20.69 0 0 1-1.21-3.87 7.91 7.91 0 0 0-1.36-3.28c-.17-.26-.37-.58-.23-.93Z"/><path class="cls-10" d="M71.7 80.16a6.82 6.82 0 0 0-.12-7c-1-1.72-1.54-1.91-3.25-1.11a1.92 1.92 0 0 1 1.09-1.6 34.81 34.81 0 0 0 3.2-2.06c1 .24 1.23 1 1.35 1.87.31 2.24.51 2.35 2.75 1.8a1.91 1.91 0 0 1 1.39-.06 3.31 3.31 0 0 1 .89 2.21c.3 1.85.49 3.71.69 5.57.14 1.31-.18 1.76-1.44 2a7.88 7.88 0 0 1-4.71-.06c-.8-.29-1.54-.64-1.84-1.56Zm48.54-13.59c.24 0 .48-.2.71 0a3.3 3.3 0 0 1 2.13 2.11c.61 1.62.84 3.33 1.32 5a3 3 0 0 1-.59 2.27 12.79 12.79 0 0 1-4.62 4.59c-.87.53-1.42.38-1.58-.47-.55-2.86-1.48-5.65-1.55-8.6a4.93 4.93 0 0 1 2.39-2.82 2.2 2.2 0 0 0 1-1.39c.19-.26.36-.64.79-.69Zm-35.64-.24a6.58 6.58 0 0 1 1.87 3.55 43.75 43.75 0 0 0 1.2 4.35c-.57 1.24-1 2.59-2.34 3.26-.6 0-.81-.57-1.18-.91s-.41-.93-1-.44-.24.84 0 1.26.87 1 .56 1.7a1.36 1.36 0 0 1-.3.38c-.58.49-1.19 1.12-2 .9s-.78-1.14-.9-1.82c-.43-2.48-1.22-4.89-1.28-7.43.62-1.14 1.16-2.34 2.45-2.94a2 2 0 0 0 1-1.43c.14-.33.3-.62.73-.58Z"/><path class="cls-6" d="M83.11 66.64a2.41 2.41 0 0 1-1.74 2.18c-1 .31-.93 1.65-1.83 2.12a3.16 3.16 0 0 1-1.68 1.14c-.37.14-.73.3-1.11.41-2.28.66-3 .31-3.08-1.95 0-1-.69-1.41-1-2.11a2.46 2.46 0 0 0 .48-3.3 4.56 4.56 0 0 1-.22-2.67c.1-.42.38-.55.79-.57a5.52 5.52 0 0 1 4.94 3.41c.55 1.69.89 1.88 2.49 1.14a1.79 1.79 0 0 1 1.96.2Z"/><path d="M116.33 71.36c.18 2.43.89 4.77 1.3 7.16.12.7.28 1.4.46 2.27 2.52-1.55 4.75-3.21 5.84-6a1.38 1.38 0 0 0 .15-.8c-.65-2-.76-4.08-1.75-6a3.77 3.77 0 0 0-1.39-1.44 2.45 2.45 0 0 1 1.58.46A9.44 9.44 0 0 0 126 68v2.13c0 1.5.36 1.95 1.87 2.2.2 0 .5-.12.55.25a1.73 1.73 0 0 1-.66.51c-2.24.92-3.42 2.79-4.35 4.88-.68 1.16-1.14 2.44-1.93 3.55a3.62 3.62 0 0 1-1.06 1.11 2.58 2.58 0 0 0-1.75 1.73.34.34 0 0 1-.44 0c-.6-.65-1.23-1-2.08-.37a.63.63 0 0 1-.87-.15 2.23 2.23 0 0 1-.35-2.18 1.57 1.57 0 0 0 .7-1.72c-.3-2.52-.62-5-1.06-7.54.29-.8.72-1.48 1.76-1.04Z" style="fill:#07090a"/><path d="M125.44 57.63c2.31-1.79 4.61-1.09 6.74.25a10.9 10.9 0 0 1 5.27 8.39 4.33 4.33 0 0 1 0 .72c-.11 2-1.23 2.75-3.08 2l-1-.76a3.17 3.17 0 0 0 1.45-3.23c0-.32.11-1.13-.75-.62-.15.09-.21 0-.37-.65a9.4 9.4 0 0 0-2.65-4.73 4.23 4.23 0 0 0-1.27-.87c-1.5-.63-2.38-.25-2.85 1.27-.11.34-.15.7-.47.93a2.34 2.34 0 0 1-1.02-2.7Zm-25.91 1.31a4 4 0 0 1 4-.88 10.64 10.64 0 0 1 7.74 8.8c.28 2.75-.69 3.61-3.27 2.89-.49-.49-.64-.88 0-1.43.83-.68.71-1.71.62-2.67 0-.21-.18-.51-.29-.45-1 .52-.68-.42-.78-.73a9.16 9.16 0 0 0-2.76-4.47c-1.83-1.48-3.11-1.12-4 1a2.58 2.58 0 0 1-.32.49 2.15 2.15 0 0 1-.94-2.55Z" style="fill:#091518"/><path class="cls-8" d="m134.41 71.15.42-.07A8.56 8.56 0 0 1 139 75.7c-.78.15-1.35-.48-2.11-.53-2.77-.18-4.58 1.33-6.09 3.36a17.12 17.12 0 0 0-1.05 1.88 2.62 2.62 0 0 1-2.74 0c-.76-.53-.42-1.21-.22-1.83a9.67 9.67 0 0 1 1.69-3.65 1.77 1.77 0 0 1 1.15-.16c2.53.12 3.92-.89 4.58-3.31a.51.51 0 0 1 .2-.31Z"/><path class="cls-13" d="M83.11 66.64s-.07.07-.1.07a4.06 4.06 0 0 0-3.35.82c-.23.18-.41-.11-.55-.3a4.78 4.78 0 0 1-1-2.28 1.16 1.16 0 0 0-1-1.15c-.31-.07-.68-.2-.78-.5-.34-1.07-1.36-.94-2-.88-.5 0-1.06-.76-1.5 0-.48-1 .08-1.9.39-2.81a23.94 23.94 0 0 1 7 3 4.2 4.2 0 0 0 3.94.82 6.41 6.41 0 0 1-.72 2.68q-.15.31-.33.53Z"/><path d="m120.24 66.57-.43.74a17.33 17.33 0 0 0-3.31.79c-.64.23-1-.37-1.28-.85-.62-1-.68-2.12-1.27-3.08.2-.89-.26-1.83.23-2.69.87.49 1.78.91 2.59 1.47a4.89 4.89 0 0 0 4.14 1 8.15 8.15 0 0 1-.67 2.62Z" style="fill:#070708"/><path class="cls-5" d="M7.7 145.88c3.57.63 7 2 10.65 2.22 1.28.1 2.56.21 3.84.19a1.61 1.61 0 0 1 1.61 1.19 44.62 44.62 0 0 1-14.72-2.4c-.62-.22-1.54-.17-1.64-1.18Z"/><path d="M102 73.24c.73 1.37 1.89 1.5 3.25 1.19A3.45 3.45 0 0 0 108 72.1a.37.37 0 0 1 .54.05c.52 1.26-.21 2.09-1.06 2.76a5.68 5.68 0 0 1-4.63 1.1 4.5 4.5 0 0 1-1-.45c-.42-.28-.74 0-1.07.2a8.37 8.37 0 0 0-2.14 2.18c-.3.41-.55.88-1.09 1a.55.55 0 0 1-.49-.15 2.41 2.41 0 0 1 .33-1 8.47 8.47 0 0 1 4.61-4.55Z" style="fill:#ac4e19"/><path d="M97.39 77.82c-.09.34-.17.68-.26 1 .31.89-.36 1.63-.38 2.48a4.63 4.63 0 0 1-1 2.75c-.83 1-.86 2.29-1.39 3.4a.39.39 0 0 1-.6-.13c-.26-1-1.18-1.55-1.32-2.55a.74.74 0 0 1 .59-.64 9.43 9.43 0 0 0 2.68-3.33c.53-.99 1.11-1.99 1.68-2.98Z" style="fill:#e6c297"/><path class="cls-17" d="M94.22 150.22a12.13 12.13 0 0 1 .76 3.72 5.35 5.35 0 0 1 3.24-.85c.66.07 1.46-.17 1.72.83.08.31.5.14.76.13 1.84-.1 3.67-.24 5.51-.34a17.67 17.67 0 0 1 8.93 1.3 5.18 5.18 0 0 1-3.27 1.21 20.65 20.65 0 0 1-5.38-.33 12.09 12.09 0 0 0-8.49 1.16 9.66 9.66 0 0 1-2.82 1 2.8 2.8 0 0 1-3.2-1 1.23 1.23 0 0 0-1.91-.4 5.8 5.8 0 0 1-6.19-1.07 3.71 3.71 0 0 0-3.45-.88c-.89.1-1.47.09-2-.8-.71-1.25-2-1.42-3.36-1.47-3.65-.15-7.28.2-10.92.25a7.86 7.86 0 0 1-3.34-.67c1.46-.11 2.93-.18 4.39-.36a14.56 14.56 0 0 0 6.12-1.94 2.63 2.63 0 0 1 3.19 0c1 .64 2.45.49 3.69.72s2.33.34 3.29-.93a4.15 4.15 0 0 1 3.1-1.5 1.48 1.48 0 0 1 2 .58c.6.71 1.08.63 1.69.11a7.05 7.05 0 0 1 2.88-1.62 1.75 1.75 0 0 1 .72 0 3.16 3.16 0 0 1 2.34 3.15Z"/><path class="cls-5" d="m156.57 148.5-22.42 1.23c-.22-.48.17-.73.4-1 .93-1.2 2-2.28 3-3.44a6.65 6.65 0 0 0 1.05-1.29 2.21 2.21 0 0 1 1.2-.83c3.53-.81 7.06-1.6 10.53-2.62 1.42-.42 1.65-.27 2.08 1.07a4 4 0 0 0 1.08 2.43c.9 1.05 1.78 2.11 2.63 3.21.27.35.68.74.45 1.24Z"/><path class="cls-8" d="M156.57 148.5c-1.26-1.59-2.5-3.19-3.8-4.75a2.21 2.21 0 0 1-.62-1.95c0-1.18-.92-2.2-.64-3.44a16.9 16.9 0 0 0 0-3.1 3.9 3.9 0 0 0-1-2.49 2.45 2.45 0 0 1-.76-1.33c.53-1 .92-1 1.71-.1 1.66 1.94 3.22 4 4.85 5.93 2.52 3 5 6.12 7.49 9.18.32.4.72.77.7 1.34l-.06.23c-1.23 1.41-2.48 2.8-3.67 4.24-.4.49-.6.45-1 0-1.09-1.26-2.15-2.51-3.2-3.76Z"/><path class="cls-5" d="M91.12 147.37c-1.34.38-2.25 1.42-3.36 2.15-.44.29-.76.51-1.06-.18a2.43 2.43 0 0 0-2.11-1.34c-.38-.33-.84-.19-1.27-.2-3.87-.15-7.75 0-11.61.27-4.64.29-9.28.73-13.93 1-1.31.07-2.62.16-3.93.18.64-1.67 2.1-1.21 3.3-1.14a4.79 4.79 0 0 0 2.43-.2 2.79 2.79 0 0 1 1.89 0 1.3 1.3 0 0 0 1.35-.22 10.07 10.07 0 0 0-4.85-.28 45 45 0 0 1-4.78.13 1.55 1.55 0 0 1-1.5-1.17c.42-.5 1-.42 1.56-.44 1.72-.09 3.44.15 5.15.21a57.53 57.53 0 0 0 11.7-1.09c2.76-.48 5.5-1.05 8.3-1.35a14.77 14.77 0 0 1 6.37.8c1.78.6 3.53 1.32 5.31 1.92.45.16 1.05.24 1.04.95Z"/><path class="cls-8" d="m137.75 145.42-3.6 4.32c-.24.14-.44.41-.77.24-1.56-.94-2.37-2.58-3.58-3.86-.16-.17-.29-.37-.44-.55a6 6 0 0 0-.62-.62c-.93-1-1.75-2.07-2.63-3.1-1.12-1.31-.81-2.95-1-4.46a19.14 19.14 0 0 1 0-3.47 3.71 3.71 0 0 0-1-2.94 1.78 1.78 0 0 1-.66-1.23c.22-.7.68-.7 1.22-.39a3.23 3.23 0 0 1 .87.82c3.89 4.73 7.88 9.38 11.77 14.11.21.31.6.6.44 1.13Z"/><path class="cls-5" d="M129.6 145.38c1.26 1.53 2.52 3.07 3.79 4.6l-9 .89c-1.7.17-3.4.41-5.11.52-4.06.28-8.11.58-12.17.72a36 36 0 0 1-11.64-1.85c-.38-.11-.79-.51-1.21 0-.57-1.16-1-2.41-2.45-2.84a1 1 0 0 1 1.07-.36c2.14.26 4.31 0 6.46.33a13.24 13.24 0 0 1 3.7.94 23 23 0 0 0 12.89 1.65 41.76 41.76 0 0 1 5.12-.57 1.42 1.42 0 0 0 1.08-.43c.44-.35 1-.25 1.49-.33 1.83-.28 3.71-.46 5.22-1.72.27-.53.23-1.19.76-1.55Zm-90.41 3.86a1.8 1.8 0 0 1 2-1.2h4.2a2 2 0 0 1 1.64.56c.16.18.29.36.59.24 1.58-.66 3.23-.17 4.85-.31a1.14 1.14 0 0 1 1.15.71Zm-7.93.24a1.73 1.73 0 0 1 1.83-1.2 29.49 29.49 0 0 1 4.6.24 1.32 1.32 0 0 1 1 .72c-2.47-.02-4.94.43-7.43.24Zm-7.21 0c.07-.64.52-.72 1-.71h4.18a1.26 1.26 0 0 1 1.26.72Z"/><path class="cls-4" d="M82.3 140.31c-6.41-2.23-12.59-5-18.83-7.69-.62-.79-.25-1.63-.06-2.42a80.3 80.3 0 0 1 3-9.6 1.78 1.78 0 0 0 .19-1.37 34.56 34.56 0 0 1 4.47-8.15 28 28 0 0 1 9-8.2c.33-.15.5 0 .58.31-.06.69-.57 1-1.08 1.35-5.13 3.16-8.4 7.9-11.11 13.11-.67 1.29-.55 1.43.85 1.72a249.27 249.27 0 0 0 27.18 4c2.94.27 5.89.54 8.86.57.89 0 1.15-.3 1.21-1.16a41.4 41.4 0 0 0 0-6.1 2.05 2.05 0 0 1 .4-1.81.64.64 0 0 1 .6.06 2.32 2.32 0 0 1 .57 1.53 22 22 0 0 1 .06 5.84c-.22 1.63 0 1.81 1.62 1.8 2.67 0 5.33.25 8 .37a1.32 1.32 0 0 1 .38.13c.69.74.52 1.72.67 2.61a4.32 4.32 0 0 0 .62 2c1.9 2.42 2.68 5.33 3.7 8.15s2.29 5.37 4.75 7.2c.28.21.59.44.45.89a1.79 1.79 0 0 1-1.24.65 19.32 19.32 0 0 1-6.52.32 3.93 3.93 0 0 1-1.87-3.14c-.06-1.32-.51-1.41-1.8-1.28a5.45 5.45 0 0 1-3.24-.3 2.51 2.51 0 0 0-2.71.13c-.69.41-1.3.93-2 1.37a2.58 2.58 0 0 1-2.58.3c-1.24-.48-2.57.08-3.86.14a5.64 5.64 0 0 1-1.3.15c-3.2-.75-6.38-1.53-9.7-.73a3.47 3.47 0 0 1-2.33-.41 18.24 18.24 0 0 0-5.15-1.55c-.62-.1-1.35-.1-1.78-.79Z"/><path d="M107.46 114.92H107a2.66 2.66 0 0 1-2.2.22c-4.92-.69-9.35-2.7-13.66-5-3.45-1.88-6.51-4.37-9.91-6.33a1.8 1.8 0 0 1-.66-.68c-.09-.2-.27-.23-.46-.24l-4.3-2.38c.43-.47 1-.28 1.46-.23a13.68 13.68 0 0 0 9.23-2.17 10.23 10.23 0 0 0 3.17-3.21c.29-.46.5-1 1.1-1.2 1.06.72 1.43 1.91 2 3a7.68 7.68 0 0 1-1 3.53c-.31.74-.7 1.43-1 2.19a1.52 1.52 0 0 0-.11 1c.11.3.22.67.57.7s.34-.39.44-.62a80.74 80.74 0 0 0 3.1-8.55 2.33 2.33 0 0 1 .52-1.07c1-.2 1.45.18 1.88 1.66a28.89 28.89 0 0 1-1 5.29c-.33 1.52-.77 3-1 4.57a1.28 1.28 0 0 0 1 1.61 39.05 39.05 0 0 0 7.19 1.24 20 20 0 0 0 3.94.12 2.25 2.25 0 0 1 1.23.91c1.09 1.33 2.07 2.75 3.22 4 .32.35.69.78.48 1.28s-.81.42-1.27.43a5.66 5.66 0 0 0-1.78.23 2.15 2.15 0 0 1-1.72-.3Z" style="fill:#071114"/><path class="cls-10" d="M90.76 93.72c-2.39 5.28-9.1 7.89-14.26 6.76a4.18 4.18 0 0 0-.71 0 3.35 3.35 0 0 1-1.26-.64 1 1 0 0 0-.36-.86c-1.77-1.77-2.63-4.08-3.76-6.23-1.16-2.3-.51-4.51.32-6.71a24.92 24.92 0 0 0 .46-3.76c.55-.3 1 0 1.47.21a10.53 10.53 0 0 0 5.73.86c1.31-.19 1.64.09 1.86 1.4s.42 2.77.6 4.15c.21 1.65-.22 2.16-1.92 2.32A15.15 15.15 0 0 1 72 90a2.59 2.59 0 0 0-.67-.26.85.85 0 0 0-.15 0c-.29.8.26 1.14.83 1.44a13.27 13.27 0 0 0 7.56 1.89c1.57-.15 1.62 0 1.9 1.58a25.13 25.13 0 0 1 .17 3.47c0 .76.28 1.23 1.15 1.14s1.37-.51 1.28-1.36a32.14 32.14 0 0 0-.82-3.75c-.33-1.47-.2-1.82 1.14-2.48 1.62-.8 3-2 4.55-2.86 1.22.62 1.82 1.82 2.62 2.83.04.81.01 1.6-.8 2.08Z"/><path d="M140.13 114.41c1.68.53 2.79 1.89 4.16 2.86.22.16.43.34.65.51 2.66 2.38 5.35 4.73 8 7.13 2.11 1.93 3.5 4.4 5 6.78a5.73 5.73 0 0 0-.83 0 4.24 4.24 0 0 1-4.83-2.35c-.07-.13-.24-.2-.36-.3-.3-.14-.65-.1-.94-.29a39 39 0 0 1-4-4.88c-2.13-2.68-4.23-5.4-6.32-8.12-.32-.37-.76-.75-.53-1.34Z" style="fill:#c67215"/><path d="M66.6 119.22c.57.08.43.43.32.8-.83 2.61-1.7 5.21-2.48 7.84a16.08 16.08 0 0 0-1 4.76L62 132c.71-.89.63-2 .94-3 .89-2.88 2.12-5.62 3.2-8.43.13-.46.29-.9.46-1.35Z" style="fill:#ef790a"/><path class="cls-2" d="M82.3 140.31c2.55.46 5.12.78 7.46 2.05a2.73 2.73 0 0 0 2.1.2 13.58 13.58 0 0 1 7.21.3c.81.2 1.61.42 2.42.63-.2.76-.85.63-1.37.63a12.53 12.53 0 0 1-2.76-.19c2.61.08 5.62.84 8.7.88a7 7 0 0 1 4.17 1.31 3.65 3.65 0 0 0 2.28.56h3.47c.4 0 .89 0 1 .45s-.34.65-.78 1c1.55.22 3 .33 4.42.45.51 0 1.06 0 1.42.45l.6.41c-3 .34-5.75.76-8.58 1.05a21.6 21.6 0 0 1-11.49-1.93 14.27 14.27 0 0 0-4.78-1c-2-.19-4.06.05-6.08-.24h-.61c-3.59-1.38-7.09-3.19-11-3.34a34.63 34.63 0 0 0-7.54 1c-4.73.88-9.48 1.77-14.32 1.52-2.19-.11-4.38-.22-6.57-.2h-1.44a.94.94 0 0 1-.29.2c-.58.19-1.36.37-1.55-.3s.65-.77 1.16-.9a113 113 0 0 1 11.38-2.32 20.65 20.65 0 0 0 6.83-1.98 10.6 10.6 0 0 1 7.84-1.26 1.18 1.18 0 0 0 .59 0c2.02.37 4.08.37 6.11.57Z"/><path class="cls-5" d="M76.2 139.72a3.61 3.61 0 0 1-2 .14 9.25 9.25 0 0 0-5.53 1.19c-3.31 1.92-7 2.29-10.63 2.93-3.19.56-6.35 1.27-9.48 2.08v.31h1.69c-.42.7-2.59 1-3.14.49s-.15-1.48.74-1.7c2.43-.59 4.88-1.14 7.32-1.69 2.79-.63 5.63-1 8.43-1.52 2.35-.45 4.39-1.85 6.62-2.71.53-.2.45-.69.48-1.12Z"/><path class="cls-21" d="M140.13 114.41c2.43 3.17 4.85 6.36 7.29 9.52 1.22 1.58 2.48 3.13 3.73 4.69a1.58 1.58 0 0 1-1.4 1.76c-.63-.19-.91-.75-1.28-1.22-2.36-3-4.67-6.1-7.09-9.09-1.38-1.95-2.95-3.76-4.36-5.69-.62-.69-1.08-1.5-1.69-2.2-.71-.91-1.38-1.86-2.15-2.72-3.47-4.57-7.1-9-10.53-13.62a22.66 22.66 0 0 0-1.48-1.91c-.41-.5-.79-1-1.2-1.53s-.84-.93-.91-1.6a1.89 1.89 0 0 1 1.3-1.72c.9.26 1.22 1.17 1.87 1.71 1 1.67 2.35 3.13 3.53 4.69l8.68 11.18c.36.46.84.88.83 1.55a43.81 43.81 0 0 0 3.4 4.38 9.48 9.48 0 0 0 1.46 1.82Z"/><path class="cls-22" d="M125.52 95.7c-1-1.29-2-2.58-3-3.85a1.35 1.35 0 0 1-.4-1 1.19 1.19 0 0 1-.12-1.14c.41-1.88.77-3.76 1.29-5.62.58-2.08.58-2.08-1-3.32-.3-1 .29-1.71.72-2.48a.62.62 0 0 1 .5-.17 1.55 1.55 0 0 1 .65.27c.67.44 1.08.18 1.4-.47a16 16 0 0 1 1.44-2.55c.26-.35.48-.74 1-.84a.63.63 0 0 1 .71.44c-.56 1.45-1.11 2.9-1.69 4.34-.22.54-.09.85.47.9a5.28 5.28 0 0 0 2.37.18 8.87 8.87 0 0 1-.71 2.67c-.5.79-1.26.59-1.94.43s-1.13 0-1.31.75c-.46 2-1 4-1.44 6-.16.77 0 1.23.84 1.41a36.21 36.21 0 0 0 4.94 1 9.26 9.26 0 0 0 5.7-1 1.64 1.64 0 0 1 1.26-.25 12.41 12.41 0 0 1 1.63 2.91c.44 1-.09 1.58-1 1.92a13.71 13.71 0 0 1-4.57.86 34.52 34.52 0 0 1-5.83-.51 4.54 4.54 0 0 1-1.91-.88Z"/><path class="cls-8" d="M137.1 91.35c-2.88 2-6 2.07-9.26 1.28-1.12-.27-2.24-.54-3.37-.75-.61-.11-.82-.39-.68-1 .57-2.56 1.13-5.12 1.87-7.64.14-.47.28-.56.73-.36a3.42 3.42 0 0 0 2.66.18c0 1.9.38 3.59 2.5 4.25a2.71 2.71 0 0 0 2.31 0c.63-.38 1-.08 1.24.42.68 1.18 1.34 2.4 2 3.62Zm-11.58 4.35a26.8 26.8 0 0 0 9.93.66 20.54 20.54 0 0 0 2.18-.57 1.27 1.27 0 0 0 1.11-1.54l.25.47a4.16 4.16 0 0 1-.07 1.89c-.38 1.55-.89 3.06-1.22 4.62-.07.34-.1.73-.49.91-.3 1.46-.1 3-.81 4.42a4.12 4.12 0 0 1-1.11 1.63q-4.41-5.62-8.83-11.26Z"/><path d="M137.21 102.14a26.11 26.11 0 0 1 1.25-5.22c.23-.72.35-1.47.53-2.2.63 1 .3 2 .1 3a46.81 46.81 0 0 1-1.74 6.17c-.07-.81-.11-1.28-.14-1.75Z" style="fill:#c7e4ec"/><path class="cls-24" d="M149.79 130.26a4.44 4.44 0 0 0 1.37-1.64.65.65 0 0 1 .75.45c-.81.45-.2.91.06 1.25 1.18 1.5 2.4 3 3.61 4.45 3 3.67 6 7.33 9 11a2.09 2.09 0 0 1 .61 1.15 2.47 2.47 0 0 1-.79.88c-2.23-2.71-4.46-5.4-6.68-8.12s-4.53-5.56-6.78-8.36c-.4-.5-.76-.47-1.18-.07-.65-.35-.54-.68.03-.99Z"/><path class="cls-13" d="M89.14 89a18 18 0 0 1-5 3.27c-.65.29-.8.6-.61 1.28.39 1.38.7 2.78 1 4.19.12.58.26 1.22-.4 1.62a2.77 2.77 0 0 1-2.41.33c-.5-.18-.49-.79-.47-1.27A29.7 29.7 0 0 0 81 94c0-.44-.11-.61-.64-.52-3.35.57-6.27-.67-9.14-2.17-1.12-.59-.32-1.57-.71-2.62a12.88 12.88 0 0 0 5.84 2.11 10.4 10.4 0 0 0 3.34 0c.65-.11.9-.33.81-1q-.39-2.79-.73-5.57c-.06-.49-.37-.59-.77-.49-2.83.72-5.36-.2-7.85-1.37a3.94 3.94 0 0 1 .51-2.1c2.14 1.92 4.59 1.7 7.12 1.1.4-.1.56-.27.51-.64-.4-2.72-.4-5.49-1.21-8.15a1.84 1.84 0 0 0-.25-.39 3 3 0 0 1 1.7-1.19c.56 2.92 1.14 5.84 1.66 8.77.11.63.36.61.77.34l1.76-1.22A2 2 0 0 1 85.47 81c-.53.84-1.47 1.06-2.27 1.46a1.5 1.5 0 0 0-1 1.9c.28 1.32.47 2.67.68 4 .12.77.46.93 1.14.53a11.58 11.58 0 0 0 3.37-2.82c.27-.35.47-.88 1.09-.76a1 1 0 0 1 .21.31c.06 1.12.7 2.17.45 3.38Z"/><path d="M70.73 86a26.48 26.48 0 0 0-.32 6.71 12.58 12.58 0 0 1-1.63-2.45.69.69 0 0 1 0-.78A34 34 0 0 1 70.73 86Z" style="fill:#c7e2e9"/><path d="M123.5 78.38h-.42a.62.62 0 0 1 0-.68c1-2.51 2.49-4.45 5.24-5.14.18 1.23 1 1.56 2.08 1.4 1.58-.24 3.07-.67 3.61-2.47.05-.17.14-.38.4-.37-.08 3-2.27 4.5-5.79 3.83l-.74-.26c-.69-.14-1.07.39-1.51.74a11.22 11.22 0 0 0-1.88 2.13c-.26.38-.49.77-.99.82Z" style="fill:#ab4e19"/><path class="cls-10" d="M108.37 72.11H108v-2.2a2.08 2.08 0 0 0 2.32.71 1 1 0 0 1 .46.91c0 1.09.69 1.14 1.52 1.15s1.49-.6 2.3-.28c.84 1.52.76 3.23 1 4.86.16 1 .18 2.07.39 3.07s0 1.46-1.09 1.39a.65.65 0 0 1-.53-.44c-.59-1.62-1.4-3.13-2.07-4.71-.19-1.93-1.74-2.85-3-4a2.05 2.05 0 0 0-.93-.46Z"/><path d="M114.61 72.39a5.45 5.45 0 0 1-3 .67c-.82 0-1.39-.27-1.19-1.3a3.94 3.94 0 0 0-.13-1.16c2.17-1.61 2.89-4 3.62-6.44a1.25 1.25 0 0 1 1 1.21 4.79 4.79 0 0 0 .76 2c.28.47.4.6 1.11.26s1.93-1.23 3-.32a2.44 2.44 0 0 1-1.71 1.93c-1 .33-1 1.55-1.77 2.13-.77-.04-1.15.63-1.69 1.02Z" style="fill:#d7a66c"/><path d="M85.33 77.34a7.78 7.78 0 0 0 1.82-2.74c.07-.2.08-.63.52-.38a3.69 3.69 0 0 1 .59 2c.06 1.3.41 2.69-1.11 3.5a2.4 2.4 0 0 1-1.82-2.38Z" style="fill:#0b0909"/><path d="M93 84.13a.67.67 0 0 1-.43.45c-.7-.47-1.31-1.12-2.25-1.08a3.44 3.44 0 0 1-1-1.25 7.08 7.08 0 0 1-1-1.87c-.18-.55-.38-1.16.28-1.59l.27-.74c1.37 2.02 2.21 4.41 4.13 6.08Z" style="fill:#c6e5ee"/><path d="M88.55 78.78c-.38 1.41.48 2.4 1.13 3.47a.57.57 0 0 1-.77 0c-.84-.76-1.79-1.46-1.88-2.74a4 4 0 0 0 1.23-3.37c.48.86.19 1.78.29 2.64Z" style="fill:#bd5d1c"/><path d="M87 79.56c.55.72 1.14 1.43 1.65 2.18a1.22 1.22 0 0 0 1 .52l.77 1.06c0 1.28-1.1 1.69-2 2.27a.46.46 0 0 1 0-.23c-.85-1.25-1.78-2.44-2.75-3.6a1.19 1.19 0 0 1-.37-.85 4.25 4.25 0 0 0-1.61-2.08 5.12 5.12 0 0 0-1.09-1.55.75.75 0 0 1 0-1.19c.63-.78 1-.92 1.62 0a3 3 0 0 0 1.08 1.23 8.6 8.6 0 0 0 1.7 2.24Z" style="fill:#0e3846"/><path class="cls-6" d="M112.41 76.43a23.18 23.18 0 0 1 2.51 5.3c.17.69.34 1.39.52 2.08a2.7 2.7 0 0 1 .91 1.36c.66 2.29 1.7 4.46 2.2 6.8.18.59.27 1.2.48 1.78a6.26 6.26 0 0 1-.71 5.35c-.78 1.29-1.34 2.7-2 4a5.79 5.79 0 0 0-.59 1.26c-.16.49-.51.89-.67 1.37-.39 2-1.79 3.39-3.23 4.71a4.34 4.34 0 0 1-2.73-3.39 8.19 8.19 0 0 0 1.61-4.79 2.57 2.57 0 0 1 .46-1.82c.14-.15.44-.17.49-.31.66-1.79 1.54-3.55.93-5.56a3.46 3.46 0 0 0-.34-.76c-.38-.91-1.18-1.55-1.54-2.46a31 31 0 0 1-1.54-2.83 1.37 1.37 0 0 0-1.55-.8c-3.43.35-5-1.22-4.76-4.62.24-.84.4-1.69.67-2.52 1.06-3 3.79-5.2 6.51-5.27.9.01 1.96 0 2.37 1.12Z"/><path d="m118.22 92.05-2.78-8.25c.12 0 .27 0 .34-.08 1.19-1.17 2-.36 2.74.55a6.8 6.8 0 0 1 1.69-1.93c1.4-1.26 1.92-3.08 2.86-4.63v.68a5.62 5.62 0 0 0-.7 2.37 2.77 2.77 0 0 1-.59 2.76 5.56 5.56 0 0 0-1.1 4.36c.08.42.14.88-.32 1.18a5.79 5.79 0 0 0-1.12 1.8c.02.71-.43 1.01-1.02 1.19Z" style="fill:#d8b388"/><path d="M120.22 82.36a4.78 4.78 0 0 1-1.69 1.93c-.34-1.44.79-1.58 1.69-1.93Z" style="fill:#c06320"/><path d="M111 91.33a15.24 15.24 0 0 1 1.49 2.48c.28 1.43.1 1.75-1.21 2.23a3.08 3.08 0 0 1-.57.17A23.62 23.62 0 0 1 100 95.8a2.2 2.2 0 0 1-1.21-.8c-.89-1.08-1.77-2.16-2.62-3.27a1.36 1.36 0 0 1-.39-1c.7-2.57 1.17-5.19 1.93-7.74a1 1 0 0 0-.53-1.28 1.45 1.45 0 0 1-.74-.57 6.48 6.48 0 0 1 .68-2.35h.46a1.29 1.29 0 0 1 .7.09c.61.32.93.06 1.19-.5a19.47 19.47 0 0 1 1.45-2.38c.24-.35.43-.78 1-.8a1.43 1.43 0 0 1 .76.52c.28.55-.11 1-.29 1.44s-.4.94-.58 1.42c-.61 1.55-.58 1.61 1 1.83a1.25 1.25 0 0 1 1 .38 10.28 10.28 0 0 1-.69 2.48c-.52.72-1.28.59-2 .47s-1.09.1-1.29.83c-.51 1.85-.92 3.72-1.39 5.59a1 1 0 0 0 .85 1.39 41.53 41.53 0 0 0 6.26 1 7.65 7.65 0 0 0 3.81-.93c.51-.24 1.02-.7 1.64-.29Z" style="fill:#091517"/><path class="cls-8" d="M103.77 80.76c-3.22 0-3.24 0-2.13-2.92a11.11 11.11 0 0 1 1-2.15 6.87 6.87 0 0 0 4.06-.69 2.8 2.8 0 0 0 1.67-2.9c.26-.31.53-.26.83 0a10.72 10.72 0 0 1 3.32 3.48c.18.31.38.65-.11.89a4.08 4.08 0 0 0-4.49-.2 8.27 8.27 0 0 0-4.15 4.49Z"/><path class="cls-35" d="M101.88 75.17a17.83 17.83 0 0 0-2.2 3.74c-.35 1-.78.86-1.42.39l-.68-.47a11.63 11.63 0 0 1 3.14-3.52c.38-.25.72-.55 1.16-.14Z"/><path class="cls-6" d="M88.5 85.58a3.34 3.34 0 0 1 1.67-1.7c.28-.11.29-.33.29-.57 1.16-.33 1.71.33 2.11 1.27a15.3 15.3 0 0 1 1.63 2.9c.76.31.64.93.55 1.54a21 21 0 0 1-1.1 2c-.65.66-1.31 1.22-2.27.52A9 9 0 0 1 89.15 89a5.15 5.15 0 0 1-.65-3.42Z"/><path class="cls-8" d="M94.46 89.09a1.7 1.7 0 0 0-.26-1.6 6 6 0 0 1 1.44-4 5.38 5.38 0 0 0 .82-2.35c1.86.16 2.06.48 1.61 2.21-.58 2.19-1.1 4.39-1.64 6.59-.08.34 0 .75-.49.85a2.17 2.17 0 0 1-1.48-1.7Z"/><path class="cls-4" d="M151.91 138.18c-.16 1.22.33 2.4.23 3.62 0-1.22-.53-1.31-1.59-1a81.22 81.22 0 0 1-10.89 2.67c-.26-.72.28-1.11.66-1.54 2-2.26 2-2.24.09-4.55-1.56-1.87-3.2-3.68-4.69-5.61a3.52 3.52 0 0 0-3-1.43c-1.18 0-2.41.3-3.52-.37-1.51-1.39-3.06-2.75-4.58-4.13-.42-.39-1.28-.72-.67-1.6a3.43 3.43 0 0 1 1.49-.38 44.27 44.27 0 0 0 12.46-2.64 2.26 2.26 0 0 1 .82-.16.86.86 0 0 1 .36.08c1.14 1 1.72 2.49 2.63 3.69 2.89 3.82 5.87 7.58 8.84 11.34a11 11 0 0 1 1.36 2.01Z"/><path class="cls-8" d="M129.38 129.79a7.28 7.28 0 0 0 3.31.21 4 4 0 0 1 3.46 1.68c2 2.47 4.06 4.9 6.14 7.31.43.49.44.76 0 1.29a19.49 19.49 0 0 0-2.65 3.22l-.89.75c-.67.19-.91-.37-1.22-.74-3.6-4.27-7.16-8.57-10.73-12.87a17.43 17.43 0 0 1-1.6-1.93c-.37-.6-.48-1.12.35-1.42a.9.9 0 0 1 .7.39 5.07 5.07 0 0 0 3.13 2.11Z"/><path class="cls-24" d="M125.49 127.38c-.29.36-.43.64 0 1.11 1.91 2.24 3.76 4.53 5.64 6.79l7 8.43a4 4 0 0 0 .63.53 2.58 2.58 0 0 1-1 1.17L127 132.63c-.79-.94-1.58-1.89-2.36-2.84-.32-.38-.66-.58-1.12-.23-.77-.11-.57-.58-.4-1.05a8 8 0 0 1 1.69-1.75c.44-.01.75.1.68.62Z"/><path d="M151.91 138.18a46.58 46.58 0 0 1-4.8-5.78c-1.41-1.78-2.88-3.52-4.24-5.33a33.84 33.84 0 0 1-3.7-5.69 2.64 2.64 0 0 1 2.52-1.49l8.1 10.37c-.16.33-.44.65 0 1 2.02 1.89 2.38 4.31 2.12 6.92Zm-28.56-9.62c0 .35-.36.76.18 1 .06.15.07.35.18.43 1.77 1.36 2 3.25 1.77 5.26a28.92 28.92 0 0 0 .27 5c.12 1.35 1.42 2.06 2.15 3.08.39.55.86 1 1.21 1.62-.12.44-.38.41-.7.23-3-1.44-4.07-4.36-5.35-7.07a46.81 46.81 0 0 1-1.67-4.84 5.92 5.92 0 0 0-1-2 9.75 9.75 0 0 1-2.13-6.53 2.18 2.18 0 0 1 1.8-.46 8 8 0 0 1 3.29 4.28Z" style="fill:#c67115"/><path d="M128.41 145.2a.91.91 0 0 0 .7-.23c.31-.05.57 0 .48.41a3.14 3.14 0 0 1-.51 1.71c-2.63 1.23-5.28.52-7.92 0-.42-.08-1-.29-.74-1 2.7 0 5.41.07 7.99-.89Z" style="fill:#84cdda"/><path class="cls-17" d="M120.42 146.16c.64.91 1.67.8 2.57.91a23 23 0 0 0 6.09 0c.18.45-.22.39-.44.5a14.13 14.13 0 0 1-6.54 1.46 39.9 39.9 0 0 1-6.92-.7c.46-.66 1.27-.52 1.72-1.15a15.13 15.13 0 0 0-4-.06 4.26 4.26 0 0 1-3.16-.83 6.17 6.17 0 0 0-4-1.1c-3.29 0-6.48-.93-9.75-1.05-.29 0-.73 0-.68-.48s.45-.26.7-.24c1.19.09 2.38.24 3.58.3a2.69 2.69 0 0 0 1.86-.27c1-.14 1.85-.84 2.88-.25.23.13.41-.16.6-.29a1.2 1.2 0 0 1 1.64.09c.59.66 1.14.43 1.69.1 1-.61 1.91-1.3 2.88-1.93a2.06 2.06 0 0 1 2.74.14c.36.33.94.1 1.16.18 1.12.38 2.14-.41 3.17-.1.76.23.86 1 .94 1.66s-.26 1.82 1 2.18c.16.1.18.62.27.93Z"/><path class="cls-3" d="M80.54 103.09a24.92 24.92 0 0 1 4.32 2.53c5.63 4 11.56 7.41 18.42 8.87a21.63 21.63 0 0 0 3.68.44c0 2.71.3 5.41 0 8.12-.09.92-.07 1.34-1.32 1.29-3-.12-6-.33-9-.58-3.65-.31-7.28-.75-10.91-1.23s-7-1-10.49-1.63c-2.35-.39-4.69-.88-7-1.3-.74-.13-1-.31-.63-1.15a39.8 39.8 0 0 1 5.5-8.81 23.66 23.66 0 0 1 6.62-5.64 5.19 5.19 0 0 0 .81-.91Zm26.92 11.83 1.94-.1c1-.15 2 0 2.94-.1.65-.07.94.49 1.3.89a4.65 4.65 0 0 1 .78 1.18c.59 1.9 1.93 3.38 2.85 5.09.47.88 1.21 1.71.72 2.84-3.14-.07-6.28-.16-9.42-.21-.69 0-.88-.29-.89-.94 0-1.59.42-3.16.25-4.76-.14-1.3-.32-2.59-.47-3.89Z"/><path d="M118 124.72c-.3-1.93-1.53-3.4-2.48-5a11.07 11.07 0 0 1-1.34-2.66c.45-.19.66.17.88.42 1.69 2 3.26 4.11 4.9 6.17.19.24.43.5.2.85a5.42 5.42 0 0 1-1.92.24Z" style="fill:#ca8d1c"/><path class="cls-21" d="M120.15 124.5c-2-2.52-3.86-5.06-6-7.44-.88-2.26-2.74-2.45-4.78-2.24a5.18 5.18 0 0 1 2.11-.17c.42 0 .84-.14.44-.58-1.6-1.74-2.8-3.81-4.51-5.45a3.3 3.3 0 0 1-1.06-.94c-2.92-3.63-5.79-7.3-8.7-10.93a10 10 0 0 1-.78-1.34c-.35-.6-.42-1.45-1.39-1.46A7.67 7.67 0 0 0 93.17 92c-.23-.48.22-.81.28-1.22a5.24 5.24 0 0 1 1-1.72l1.47 1.73a43.84 43.84 0 0 0 3.81 4.58c2.32 2.14 4 4.8 6 7.21 1 1.16 1.89 2.36 2.81 3.56.26.34.62.64.54 1.14.83 1 1.37 2.33 2.63 3 1.27 1.34 2.29 2.89 3.55 4.24q3.09 4.1 6.36 8c.7 1.06 1.57 2 2.35 3 .31.4.72.76.71 1.34a3 3 0 0 1-1.38 1.63 45.1 45.1 0 0 0-3.15-3.99Z"/><path class="cls-8" d="M96.89 95.41a38 38 0 0 1 4 4.84c2.2 2.77 4.53 5.43 6.53 8.37a31.91 31.91 0 0 1-12-1.47c-1.18-.34-.78-1.26-.64-2 .43-2.18 1-4.34 1.46-6.52.25-1.03.44-2.13.65-3.22ZM93.31 92a2.06 2.06 0 0 1 2.19 2c-1 3.75-2.49 7.33-3.85 11-1.6-.79-1.81-1.35-1.06-3a18.73 18.73 0 0 0 1.92-5.22 7.93 7.93 0 0 1 .12-3.56 1.32 1.32 0 0 1 .68-1.22Z"/><path d="M93.31 92c-.55 1.49-.36 3.11-.8 4.62l-1.76-2.91.61-2.14a2.06 2.06 0 0 0 2.07-.76c.24.43-.09.8-.12 1.19Z" style="fill:#c5e4ed"/><path class="cls-22" d="M115.17 114.68a12 12 0 0 1-3.42-4.37 7.78 7.78 0 0 1 1.85-2.46c.94-.73.48-1.71 1.1-2.32.29-.37.64.12 1-.06 0-.42-.21-.8-.23-1.21s.42-.86.6-1.3c.49.4.23 1.08.58 1.53.14.19.27.43.55.4s.23-.29.3-.46c1.25-3.1 2.37-6.25 3.31-9.46.13-.45.16-1 .67-1.2a5.73 5.73 0 0 1 1.41 1.93 2.36 2.36 0 0 1 .09 1.75c-.43 2.57-1.23 5.06-1.71 7.61-.44 2.34-.4 2.44 1.94 3a34.33 34.33 0 0 0 9.14 1.13 1.66 1.66 0 0 1 1.15.22 10.49 10.49 0 0 1 2.07 2.57c-.26.52-.76.59-1.25.66a85.56 85.56 0 0 1-11.68 2c-1.9.21-3.81.45-5.73.49a2.42 2.42 0 0 1-1.74-.45Z"/><path class="cls-8" d="M133.47 109.37a12.52 12.52 0 0 1-5.1 0 31.91 31.91 0 0 1-6.89-1.39c-.75-.27-1-.56-.91-1.44.51-3.68 1.71-7.2 2.28-10.86 2.25 2.54 4.21 5.31 6.29 8a66.7 66.7 0 0 1 4.33 5.69Zm-12.03-15.62c-.91 4.08-2.59 7.91-4 11.83-1.34-.55-1.57-.93-1.46-2.63a44.67 44.67 0 0 1 2-4 6.38 6.38 0 0 0 .7-5.12 1.68 1.68 0 0 1 .07-1.13c.25-.64.67-1.11 1.38-.42.48.46.87.96 1.31 1.47Zm-1.06-4.68a3.13 3.13 0 0 0 0-1.18 4.07 4.07 0 0 1 .58-3.65 8.15 8.15 0 0 0 1.49-3.46 3.62 3.62 0 0 1 1.34.46.81.81 0 0 1 .49 1.14c-.9 2.79-1.41 5.68-2.1 8.52-.97-.3-1.18-1.24-1.8-1.83Z"/><path d="m141.68 119.89-2.52 1.49h-.23a6.76 6.76 0 0 1-1.7-2.13 26 26 0 0 1-2.83-5.11c-.17-.44-.41-.88-.11-1.37.31-.22.55 0 .69.21a2.93 2.93 0 0 0 2.29 1.21Z" style="fill:#cb8e1b"/><path d="M137.27 114.17c-1.61.79-2.13-.54-2.86-1.46a.31.31 0 0 1-.08-.44l1.22-.33a17 17 0 0 1 1.72 2.23Z" style="fill:#cfa563"/><path d="M120.19 92.23c-.68-.31-1-.07-1.19.63a9.46 9.46 0 0 1-.26.91c-.36-.52-.3-1.17-.52-1.73.09-.62.83-.67 1-1.19.36.47.86.79.97 1.38Z" style="fill:#271f1b"/><path class="cls-35" d="M123.5 78.38a13.49 13.49 0 0 1 3.35-3.75c.4-.26.74-.52 1 .09a12.34 12.34 0 0 0-2.14 3.58c-.43 1.2-1 1.12-1.78.46-.13-.12-.28-.25-.43-.38Z"/><path class="cls-10" d="M85.35 80.9a29.62 29.62 0 0 1 3 3.53c.24.27.13.61.12.92a12.52 12.52 0 0 1-4.6 4.07c-.72.35-1.1.46-1.22-.59-.19-1.7-.55-3.38-.87-5.06-.12-.67 0-1.1.7-1.4.99-.37 1.92-.97 2.87-1.47Z"/><path class="cls-8" d="M111 91.33a4.87 4.87 0 0 0-.88.34 9.73 9.73 0 0 1-7.5.92c-1.36-.3-2.73-.55-4.09-.83-.52-.11-.87-.35-.71-1 .62-2.38 1.24-4.76 1.82-7.15.13-.55.3-.72.87-.47a3.07 3.07 0 0 0 2.55.07c-.06 1.83.3 3.43 2.31 4.1a2.75 2.75 0 0 0 2.21.06c.85-.45 1.29 0 1.64.57.65 1.14 1.21 2.27 1.78 3.39Zm-1.88 15.98-9.35-11.68v-.23a23.4 23.4 0 0 0 11.43.22c.94-.25 1.57-.71 1.35-1.82.25.14.23.39.24.62a1 1 0 0 1 .16.68 18.15 18.15 0 0 1-1.63 5.42c-.2 1.85-.2 3.73-1.08 5.46-.31.56-.5 1.09-1.12 1.33Z"/><path d="M111.29 100.53a18.29 18.29 0 0 1 1.09-4.37 4.93 4.93 0 0 0 .38-1.73 2 2 0 0 1 .37 1.67c-.17 1.38-.62 2.7-.9 4.06-.14.68-.5.56-.94.37Z" style="fill:#c0601d"/><path d="M115.43 104.25c.06 0 .15.1.16.17.13.56 1.14 1 .54 1.61s-.85-.6-1.43-.5Z" style="fill:#cfa26c"/><path class="cls-3" d="M134.32 112.27c0 .15.06.3.08.44.28 2 1.48 3.55 2.43 5.22a28.49 28.49 0 0 1 2.1 3.42 49.77 49.77 0 0 1-11.46 2.82c-1.22.16-2.46.23-3.69.34-.63.23-1-.24-1.27-.61a7.8 7.8 0 0 0-1.06-1.09l-6-7.5a.7.7 0 0 1-.23-.64 113.19 113.19 0 0 0 19.1-2.4Z"/><path d="M121.45 122.82c.94.34 1.36 1.4 2.33 1.7a58.72 58.72 0 0 0 4.36 4c.44.39.82.85 1.23 1.28-1.54.39-2.39-.57-3.21-1.61-.22-.27-.32-.65-.68-.8a.7.7 0 0 0-.76-.45 39.3 39.3 0 0 1-3.27-4.12Z" style="fill:#c77316"/></g></g></svg>