<?xml version="1.0" encoding="utf-8"?>
<!-- Generator: Adobe Illustrator 24.0.2, SVG Export Plug-In . SVG Version: 6.00 Build 0)  -->
<svg version="1.1" id="Capa_1" xmlns="http://www.w3.org/2000/svg" xmlns:xlink="http://www.w3.org/1999/xlink" x="0px" y="0px"
	 viewBox="0 0 595.28 841.89" style="enable-background:new 0 0 595.28 841.89;" xml:space="preserve">
<style type="text/css">
	.st0{fill:#C5E5F0;}
	.st1{fill:#7FCBDA;}
	.st2{fill:#FCBD1D;}
	.st3{fill:#F49509;}
	.st4{fill:#A7DAEC;}
	.st5{fill:#FEDEB0;}
	.st6{fill:#060608;}
	.st7{fill:#ED6E1D;}
	.st8{fill:#C9930B;}
	.st9{fill:#BE5C18;}
	.st10{fill:#07090A;}
	.st11{fill:#091518;}
	.st12{fill:#060708;}
	.st13{fill:#070708;}
	.st14{fill:#AC4E19;}
	.st15{fill:#E6C297;}
	.st16{fill:#FFFFFF;}
	.st17{fill:#071114;}
	.st18{fill:#C67215;}
	.st19{fill:#EF790A;}
	.st20{fill:#0B3846;}
	.st21{fill:#081417;}
	.st22{fill:#C7E4EC;}
	.st23{fill:#E63818;}
	.st24{fill:#C7E2E9;}
	.st25{fill:#AB4E19;}
	.st26{fill:#D7A66C;}
	.st27{fill:#0B0909;}
	.st28{fill:#C6E5EE;}
	.st29{fill:#BD5D1C;}
	.st30{fill:#0E3846;}
	.st31{fill:#D8B388;}
	.st32{fill:#C06320;}
	.st33{fill:#091517;}
	.st34{fill:#EC6E1D;}
	.st35{fill:#C67115;}
	.st36{fill:#84CDDA;}
	.st37{fill:#CA8D1C;}
	.st38{fill:#C5E4ED;}
	.st39{fill:#CB8E1B;}
	.st40{fill:#CFA563;}
	.st41{fill:#271F1B;}
	.st42{fill:#C0601D;}
	.st43{fill:#CFA26C;}
	.st44{fill:#C77316;}
</style>
<g>
	<path class="st0" d="M356.98,395.19c0,10.74,0,21.47,0,32.21c-0.88,7.78-5.44,12.64-12.39,15.62c-1.28,0.55-2.65,0.41-3.96,0.73
		c-55.85,0-111.69,0-167.54,0c-7.79-1-12.74-5.52-15.6-12.62c-0.58-1.44-0.48-2.97-0.74-4.44c0-55.36,0-110.73,0-166.09
		c0.13-3.28,1.22-6.24,3.08-8.93c2.53-3.64,5.93-6.13,10.1-7.59c1.25-0.44,2.6-0.3,3.88-0.55c55.36,0,110.73,0,166.09,0
		c3.32,0.1,6.3,1.21,9.03,3.08c3.64,2.48,6.01,5.91,7.51,9.99c0.39,1.05,0.26,2.2,0.53,3.28c0,43.75,0,87.49,0,131.24
		c-0.57,0.18-0.88-0.26-1.23-0.54c-2.65-2.14-5.65-3.52-9.01-4.14c-0.55-0.1-1.11-0.17-1.48-0.67c-0.39-0.92-0.24-1.96-0.76-2.88
		c-1.09-1.95-2.87-2.88-4.89-3.4c-3.4-0.88-6.87-1.1-10.37-0.85c-2.67,0.19-5.34,0.36-8.01,0.62c-0.48-0.09-0.67-0.41-0.65-0.87
		c0.22-0.57,0.75-0.81,1.2-1.14c4.7-3.39,8.69-7.44,11.59-12.49c1.46-2.54,2.32-5.26,2.31-8.23c-0.02-4.99-2.78-8.32-7.71-9.21
		c-2.42-0.44-4.87-0.39-7.3-0.12c-2.83,0.31-5.62,0.86-8.34,1.72c-4.83,1.53-9.62,3.18-14.5,4.54c-0.46,0.13-0.92,0.29-1.41,0.15
		c-0.87-0.55-0.7-1.32-0.27-1.98c2.15-3.26,3.34-7,5.17-10.41c0.38-0.7,0.43-1.42,0.28-2.21c-0.45-2.28-1.02-4.52-1.84-6.7
		c-0.91-2.43-1.65-4.93-2.41-7.41c-0.39-1.26-0.84-2.5-1.47-3.67c-0.31-0.57-0.48-1.18-0.51-1.83c-0.69-2.13-2.27-3.46-4.11-4.56
		c-0.86-0.59-1.02-1.29-0.34-2.13c2.15,0.6,2.62,0.42,3.84-1.7c1.79-3.15,2.55-6.44,1.36-10.02c-1.13-3.39-3.85-5.37-7.36-5.13
		c-3.32,0.22-5.05,2.42-6.22,5.24c-0.39,1.18,0.46,1.99,0.85,2.95c-0.04,1.39-0.23,2.76-0.88,4.02c-0.34,0.66-0.39,1.25,0.06,1.88
		c0.35,0.49,0.59,1.05,0.2,1.65c-0.92,0.47-1.8,0.08-2.66-0.19c-0.8-0.26-1.52-0.71-2.32-0.97c-0.31-0.14-0.71-0.05-0.96-0.37
		c-0.11-0.95,0.35-1.77,0.63-2.63c2.17-2.35,2.54-4.55,1.16-6.85c-1.54-2.58-4.93-4.02-7.73-3.34c-1.1,0.27-2.04,0.89-3.09,1.26
		c-0.76,0.01-1.34-0.46-2-0.73c-3.6-1.48-8.12,0.44-9.13,4.72c-0.24,1.02,0.36,1.79,0.77,2.62c-0.03,1.37-0.29,2.7-0.89,3.94
		c-0.31,0.64-0.35,1.2,0.1,1.79c0.47,0.61,0.52,1.34,0.47,2.06c-0.11,1.52-0.06,2.96,1.57,3.74c0.07,0.41-0.25,0.56-0.5,0.72
		c-1.7,1.05-2.94,2.5-3.86,4.25c-0.43,0.63-0.7,1.34-1.08,2c-0.21,0.38-0.37,0.82-0.92,0.82c-0.58-0.22-0.65-0.77-0.79-1.26
		c-0.52-1.81-1.15-3.57-2.28-5.11c-0.36-0.49-0.52-1.07-0.61-1.67c-0.1-0.67-0.28-1.32-0.49-1.97c-0.55-1.74-1.53-2.94-3.53-3.04
		c-1.22-0.06-2.2-0.92-3.39-1.13c-0.39-0.09-0.73-0.27-0.97-0.61c-0.35-0.94,0.17-1.76,0.4-2.61c1.94-1.29,2.27-3.17,1.87-5.27
		c-0.52-2.69-4.3-5.44-7.05-5.12c-2.04,0.24-3.89,0.94-5.21,2.62c-1,1.27-1.05,2.69-0.18,3.82c0.28,1.04-0.53,2-0.19,3.04
		c0.05,1.06,0.11,2.11,0.54,3.13c0.47,1.12,0.04,2.08-0.81,2.88c-0.94,0.73-1.87,1.48-2.96,2.01c-0.74,0.36-1.31,0.91-1.4,1.8
		c-0.98,1.66-1.41,3.44-1.35,5.38c0.03,1.28-0.27,2.53-0.87,3.69c-0.69,1.33-0.97,2.79-1.01,4.28c-0.04,1.59-0.03,3.18-0.32,4.77
		c-0.23,1.27,0.68,2.33,1.05,3.5c0.16,0.49,0.68,0.96,0.13,1.52c-0.7,0.17-1.24-0.25-1.8-0.53c-3.58-1.81-7.19-3.53-11.05-4.67
		c-3.36-0.98-6.8-1.63-10.29-1.66c-6.1-0.06-11.86,1.19-16.7,5.27c-2.29,1.93-3.96,4.29-5.05,7.06c-1.31,3.36-1.9,6.86-1.96,10.45
		c-0.01,0.41,0.05,0.8,0.16,1.18c0.15,2.42,0.62,4.76,1.9,6.86c1.53,2.52,3.83,4.14,6.44,5.36c0.65,0.3,1.35,0.5,1.97,0.88
		c3.39,2.35,7.18,3.67,11.21,4.4c5.51,1,11.1,1.66,16.48,3.33c0.96,0.3,1.91,0.59,2.88,0.87c0.49,0.14,1.02,0.28,1.28,0.81
		c0.07,0.5-0.27,0.73-0.63,0.91c-4.04,2.03-8.01,4.25-12.65,4.61c-4.38,0.34-8.77,0.57-13.17,0.22c-2.39-0.19-4.79-0.12-7.19,0.04
		c-2.95,0.2-5.9,0.31-8.83,0.77c-4.1,0.64-7.88,2.05-11.31,4.39c-0.12,0.07-0.25,0.13-0.38,0.16c-1.1,0.4-1.87,1.2-2.58,2.09
		c-0.77,0.97-1.49,1.99-2.72,2.65c3.55,2.18,7.17,3.54,11.32,3.06c2.91-0.34,5.75-1.04,8.61-1.64c4.08-0.84,8.03-0.45,11.92,1.02
		c2.29,0.86,4.53,1.83,6.8,2.74c3.83,1.52,7.82,2.22,11.92,2.58c5.69,0.51,11.36-0.26,17.04-0.07c1.68,0.06,3.37,0.15,5.03,0.35
		c3.07,0.38,4.75,1.74,4.96,4.45c0.07,0.92,0.73,1.27,1.47,1.55c2.04,0.76,4.16,0.67,6.29,0.56c4.41-0.23,8.56-1.57,12.76-2.78
		c5.44-1.57,11-1.87,16.65-1.57c7.79,0.42,15.52,1.64,23.35,1.56c5.98-0.06,11.68-1.22,17.07-3.85c1.98-0.97,3.98-1.88,6.05-2.66
		c3.52-1.33,7.17-1.97,10.91-2.16c6-0.31,12-0.3,17.99-0.52c2.51-0.09,5.06-0.32,7.24-1.84
		C356.5,395.14,356.74,395.08,356.98,395.19z"/>
	<path class="st1" d="M356.98,395.19c-1.58,1.58-3.63,1.98-5.7,2.14c-5.58,0.43-11.18,0.42-16.78,0.52
		c-6.28,0.11-12.36,1.1-18.08,3.98c-3.34,1.68-6.78,3.26-10.51,3.99c-4.85,0.95-9.73,1.09-14.66,0.73
		c-2.39-0.17-4.77-0.35-7.16-0.55c-3.69-0.31-7.38-0.67-11.08-0.9c-2.35-0.14-4.71-0.04-7.07,0.13c-3.08,0.22-6.09,0.71-9.06,1.55
		c-2.69,0.76-5.3,1.85-8.08,2.19c-3.62,0.45-7.26,1.26-10.9,0c-1.17-0.4-1.89-0.96-1.89-2.38c0-1.66-1.06-2.69-2.6-3.23
		c-1.88-0.66-3.86-0.64-5.8-0.71c-3.6-0.11-7.19-0.01-10.79,0.18c-8.49,0.43-16.6-1.08-24.31-4.76c-3.26-1.56-6.76-2.46-10.45-2.17
		c-2.87,0.22-5.67,0.9-8.45,1.58c-5.73,1.4-10.89,0.18-15.78-3.16c1.75-0.24,2.55-1.56,3.49-2.73c0.77-0.96,1.5-2,2.88-2.17
		c1.26,0.8,2.71,1.14,4.12,1.54c4.01,1.13,8.12,1.56,12.28,1.7c0.14,0,0.28,0,0.42,0c2.06-0.02,4.12,0.04,6.17-0.03
		c0.3-0.07,0.59-0.07,0.89,0c2.44-0.04,4.88-0.21,7.32-0.25c0.23-0.05,0.45-0.04,0.68,0.01c4.15-0.26,8.3,0.11,12.46,0.04
		c0.56-0.01,1.12,0.02,1.68-0.02c0.15-0.03,0.3-0.03,0.46-0.01c5.93-0.27,11.85-0.82,17.77-1.22c3.74-0.25,7.49-0.43,11.25-0.29
		c0.59,0.02,1.21-0.04,1.68,0.45c0.1,0.58-0.41,0.62-0.74,0.76c-1.08,0.47-2.07,1.06-2.86,1.94c-0.45,0.5-0.98,0.65-1.63,0.49
		c-1.97-0.48-4.07-0.32-5.94-1.31c-0.67-0.35-1.36,0.04-1.93,0.37c-2.46,1.42-5.15,1.92-7.94,2.11c-0.55,0.04-1.08-0.06-1.6-0.01
		c4.06,0.28,8.13-0.33,12.21-0.2c1.87,0.06,3.6,0.25,4.82,1.89c0.33,0.44,0.8,0.45,1.31,0.4c1.67-0.17,3.07,0.21,4.38,1.43
		c1.38,1.29,3.25,1.09,4.91,0.62c1.19-0.33,2.08-0.31,2.92,0.62c0.72,0.8,1.64,0.92,2.65,0.68c0.94-0.22,1.89-0.44,2.73-0.91
		c2.6-1.49,5.37-1.68,8.26-1.26c1.74,0.25,3.49,0.47,5.26,0.39c0.88-0.04,1.74-0.17,2.67-0.61c-0.9-0.67-1.84-0.76-2.75-0.91
		c-2.92-0.5-5.83-0.12-8.74,0.1c-1.21,0.09-2.32,0.16-3.45-0.58c-0.9-0.6-2.01-0.28-3.02,0.06c-1.3,0.43-1.41,0.39-1.63-0.99
		c-0.15-0.93-0.74-1.81-0.39-2.81c0.56-0.59,1.19-0.28,1.79-0.12c2.58,0.7,5.18,1.27,7.85,1.59c3.13,0.38,6.22-0.06,9.32-0.19
		c5.06-0.22,10.1-0.83,15.14-1.34c1.67-0.17,3.33-0.41,5-0.43c0.35-0.11,0.7-0.18,1.07-0.18c4.85-0.4,9.71-0.71,14.58-0.89
		c2.39-0.09,4.79-0.07,7.17-0.31c0.8,0.04,1.26,0.57,1.72,1.13c0.63,0.77,1.3,1.5,1.88,2.31c0.4,0.55,0.69,0.51,1.08,0.01
		c0.74-0.94,1.54-1.81,2.3-2.73c0.43-0.52,0.87-1.04,1.59-1.18c5.69-0.54,11.35-1.3,16.97-2.37c2.38-0.45,4.69-1.04,6.45-2.88
		c0.16-0.17,0.38-0.29,0.65-0.21c4.39,0.58,8.25,2.31,11.53,5.3C356.98,392.46,356.98,393.82,356.98,395.19z"/>
	<path class="st2" d="M175.94,356.32c-0.44-3.47,0.06-6.86,1.11-10.15c2.63-8.31,8.71-12.57,16.99-13.93
		c8.12-1.33,15.8,0.45,23.15,3.92c1.91,0.9,3.8,1.87,5.69,2.81c1.96,0.35,3.55,1.53,5.27,2.39c1.06,0.53,2.1,1.12,3.17,1.64
		c0.51,0.28,1.03,0.52,1.53,0.8c0.9,0.68,1.98,1.03,2.96,1.58c0.44,0.25,0.99,0.39,1.12,0.99c-0.05,0.53-0.49,0.69-0.86,0.91
		c-3.49,2.02-6.12,4.93-8.42,8.17c-1.46,2.05-2.73,4.21-3.6,6.58c-0.15,0.42-0.41,0.78-0.87,0.93c-2.1,0.01-4.08-0.7-6.12-1.08
		c-6.88-1.28-13.36-3.87-19.95-6.07c-3.65-1.22-7.36-2.18-11.22-2.47c-2.18-0.16-4.32,0.06-6.41,0.65
		C178.05,354.38,176.62,354.79,175.94,356.32z"/>
	<path class="st3" d="M312.28,348.57c5.75-1.71,11.57-2.94,17.52-1.18c3.9,1.15,6.12,4.38,6.28,8.43c0.12,3.23-0.73,6.18-2.29,8.93
		c-3.2,5.64-7.65,10.11-13.09,13.62c-0.53,0.17-0.86-0.19-1.08-0.54c-0.91-1.38-2.1-2.2-3.83-2.12c-0.34,0.02-0.7-0.11-1.04-0.25
		c-0.81-0.51-1.22-1.37-1.68-2.14c-1.93-3.25-4.68-5.73-7.51-8.14c-1.15-0.98-2.32-1.95-3.42-3c-0.26-0.25-0.55-0.47-0.54-0.88
		c0.16-0.59,0.69-0.86,1.11-1.22c3.08-2.62,6.14-5.27,8.13-8.9C311.31,350.31,311.55,349.31,312.28,348.57z"/>
	<path class="st3" d="M175.94,356.32c-0.14-1.14,0.43-1.65,1.48-2.06c3.12-1.22,6.27-1.52,9.61-1.2c5.64,0.54,10.83,2.59,16.1,4.4
		c5.13,1.76,10.28,3.41,15.64,4.34c1.53,0.27,3.04,0.62,4.56,0.93c0.03,0.05,0.07,0.11,0.1,0.16c0.06,1.34-0.73,2.41-1.15,3.6
		c-0.93,2.59-2.1,5.1-2.65,7.83c-0.12,0.58-0.26,1.19-0.95,1.42c-0.71,0.14-1.34-0.16-1.97-0.39c-5.9-2.13-11.95-3.39-18.26-3.58
		c-3.5-0.1-7.03-0.36-10.39-1.53c-0.6-0.21-1.16-0.51-1.74-0.78c-2.46-0.87-4.76-2.03-6.61-3.9
		C177.19,363.01,175.99,359.89,175.94,356.32z"/>
	<path class="st4" d="M195.94,392.77c-0.16,0-0.32,0-0.49,0c-2.5-0.52-5.01-1.16-7.45,0.24c-0.24,0-0.48,0-0.73,0
		c-0.52-0.38-1.11-0.36-1.71-0.35c-1.19,0.01-2.38,0.01-3.57,0c-0.44,0-0.88,0-1.21,0.35c-0.08,0-0.16,0-0.24,0
		c-0.68-0.44-1.38-0.76-2.23-0.76c-3.24-0.01-6.42-0.56-9.55-1.35c-1.2-0.3-2.35-0.77-3.58-0.93c-0.3-0.04-0.78-0.02-0.75-0.56
		c2.02-1.79,4.43-2.82,6.96-3.59c4.07-1.24,8.26-1.57,12.5-1.75c2.39-0.1,4.79-0.27,7.18-0.14c2.19,0.12,4.38,0.24,6.58,0.18
		c4.34-0.1,8.71-0.04,12.86-1.62c2.62-0.99,5.06-2.37,7.6-3.54c0.08-0.04,0.11-0.2,0.16-0.31c0.41-0.34,0.85-0.14,1.25-0.01
		c2.27,0.76,4.59,1.39,6.84,2.19c0.49,0.17,1,0.31,1.26,0.84c0.25,0.82-0.19,1.32-0.87,1.61c-2.86,1.21-5.59,2.66-8.79,3.04
		c-4.2,0.5-8.33,1.51-12.44,2.56c-0.5,0.13-1.36,0.13-1.26,0.82c0.1,0.74,0.95,0.45,1.5,0.55c0.56,0.09,0.87-0.31,1.25-0.58
		c0.48-0.2,0.96-0.19,1.44,0.02c0.7,0.75,1.58,0.96,2.59,0.98c2.24,0.03,4.47-0.29,6.71-0.19c0.52,0.02,1.05,0.01,1.52,0.26
		c0.2,0.11,0.46,0.21,0.43,0.51c-0.03,0.27-0.26,0.39-0.47,0.5c-0.11,0.06-0.23,0.12-0.34,0.1c-1.64-0.32-3.23,0.46-4.87,0.22
		c-1.21-0.17-2.4-0.08-3.43,0.7c-0.08,0-0.16,0-0.25,0c-0.45-0.31-0.95-0.38-1.48-0.35c-1.54,0.09-3.1-0.21-4.63,0.2
		c-0.12,0.03-0.25,0.03-0.35-0.03c-1.67-0.97-3.5-0.47-5.26-0.59C197.65,391.94,196.75,392.2,195.94,392.77z"/>
	<path class="st5" d="M295.76,319.24c-0.01,0.7,0.23,1.31,0.55,1.94c1.53,3.01,2.14,6.35,3.29,9.5c0.99,2.7,1.9,5.42,2.4,8.27
		c0.16,0.89,0.13,1.65-0.29,2.42c-1.9,3.46-3.01,7.32-5.36,10.57c-0.32,0.45-0.26,0.98,0.06,1.46c0.26,1.09,0.09,2.04-0.85,2.75
		c-0.04,0.01-0.08,0.02-0.12,0.01c-1.12-0.38-3.37-3.39-3.47-4.61c0.76-1.54,1.49-3.08,1.41-4.87c-0.02-0.41-0.01-0.91,0.58-1.04
		c0.43,0.41,0.28,0.83,0.17,1.06c0.33-2.22,1.24-4.53,1.59-6.97c0.06-0.45-0.16-0.85-0.26-1.27c-0.09-0.21-0.18-0.43-0.28-0.63
		c-0.41-1.08-1.22-1.92-1.73-2.95c-0.56-0.97-1.08-1.96-1.64-2.93c-0.3-0.53-0.69-0.77-1.37-0.69c-3.34,0.39-5.07-1.24-4.95-4.59
		c0.15-0.92,0.48-1.79,0.71-2.69c0.98-3.17,4.09-5.63,7.02-5.6C294.19,318.37,295.03,318.63,295.76,319.24z"/>
	<path class="st4" d="M345.45,385.8c-1.53,2.17-3.87,2.86-6.28,3.36c-4.6,0.95-9.25,1.6-13.92,2.13c-1.37,0.16-2.76,0.47-4.17,0.27
		c-0.04-0.1-0.04-0.21-0.01-0.32c0.17-0.41,0.43-0.75,0.7-1.09c1.05-1.3,2.14-2.57,3.25-3.81c0.56-0.62,0.66-1.15,0.03-1.86
		c-1.08-1.21-2.05-2.54-3.09-3.79c-0.38-0.46-0.97-0.87-0.8-1.62c1.41-0.73,2.98-0.5,4.45-0.62c4.77-0.41,9.57-0.67,14.26,0.65
		c2.02,0.57,3.84,1.48,4.96,3.47C345.44,383.63,345.44,384.69,345.45,385.8z"/>
	<path class="st5" d="M231.27,343.35c-2.8-1.46-5.6-2.92-8.4-4.39c-0.46-1.21-0.91-2.42-1.39-3.62c-0.12-0.3-0.37-0.58-0.27-0.9
		c0.78-2.36,0.14-4.86,0.69-7.24c0.2-0.86,0.37-1.73,0.84-2.48c0.62-0.99,0.82-2.1,0.77-3.21c-0.09-2.14,0.31-4.12,1.57-5.88
		c1.09-1.23,2-1.24,2.99,0.1c1.91,2.57,2.25,5.3,0.68,8.17c-0.26,0.63-0.43,1.29-0.48,1.97c0.08,1.24-0.09,2.45-0.42,3.64
		c-0.74,0.99-1.16,2.16-1.77,3.22c-0.26,0.45-0.25,0.91,0.03,1.35c0.44,0.7,0.76,1.48,1.33,2.1c1.21,2,2.01,4.25,3.66,5.98
		C231.39,342.47,231.64,342.9,231.27,343.35z"/>
	<path class="st6" d="M227.45,381.66c-3.05-1-6.11-2-9.16-3c-5.93-2.02-12.04-3.27-18.23-4.18c-4.75-0.69-9.38-1.84-13.37-4.73
		c-0.13-0.09-0.24-0.2-0.36-0.3c5.55,1.71,11.32,1.72,17.03,2.22c4.82,0.42,9.45,1.79,13.99,3.43c0.45,0.16,0.91,0.29,1.36,0.43
		c0.62-0.05,1.19,0.11,1.75,0.35c4.73,1.82,9.3,4.05,14.04,5.85c1.23,0.47,2.52,0.8,3.71,1.37c0.33,0.16,1.07,0.21,0.63,0.94
		c-1.99,0.24-3.95-0.1-5.9-0.41c-1.37-0.49-2.81-0.77-4.19-1.23C228.25,382.25,227.74,382.15,227.45,381.66z"/>
	<path class="st5" d="M291.09,312.73c-0.36,0.77-0.49,1.47,0.49,1.89c-0.06,0.19-0.18,0.33-0.33,0.44c-0.6,1.2-1.38,2.15-2.77,2.56
		c-1.9,0.56-2.68,0.38-3.93-1.16c-2.31-1.18-2.94-2.86-1.85-4.91c0.05-0.63-0.05-1.22-0.58-1.62c-0.53-0.4-0.57-0.98-0.28-1.39
		c1-1.42,0.94-3.11,1.38-4.67c-0.03-1.07,0.3-2.01,1.26-2.53c0.97-0.53,1.96-0.23,2.82,0.37c1.71,1.18,2.76,2.85,3.37,4.81
		c0.15,0.48,0.21,0.91,0.79,1.21c0.76,0.4,0.73,1.98-0.01,3.05c-0.38,0.55-0.57,1.03-0.21,1.63
		C291.24,312.54,291.19,312.64,291.09,312.73z"/>
	<path class="st2" d="M230.04,303.19c-0.61-0.05-0.86-0.37-0.93-1c-0.14-1.22,0.14-2.3,0.89-3.25c1.77-2.25,5.49-3.29,8.13-2.28
		c3.34,1.27,5.19,3.94,4.94,7.23c-0.11,1.44-0.67,2.62-2.14,3.16c-0.59,0.69-1.35,0.57-2.11,0.45L230.04,303.19z"/>
	<path class="st5" d="M258.74,316.77c-2.08-0.86-2.07-0.86-2-3.26c0.03-1.06,0.24-2.16-0.8-2.96c-0.3-0.23-0.3-0.72-0.09-1.01
		c0.99-1.35,0.97-3,1.41-4.52c0.19-2.56,2-3.45,4.15-2.03c1.61,1.06,2.42,2.71,3.12,4.42c0.14,0.33,0.17,0.69,0.41,0.98
		c1.04,1.23,1.11,1.98,0.29,3.4c-0.26,0.44-0.43,0.85-0.25,1.35c0.03,0.12,0.04,0.24,0.05,0.37c0.02,0.76,0.28,1.52-0.05,2.27
		c-0.84,1.95-2.56,2.91-4.66,2.61C259.37,318.26,258.8,317.76,258.74,316.77z"/>
	<path class="st7" d="M321.16,379.07c1.52,1.88,3.01,3.79,4.56,5.64c0.4,0.48,0.49,0.77,0.03,1.29c-1.31,1.45-2.55,2.96-3.82,4.45
		c-1.19-1.02-2.03-2.33-3.01-3.53c-3.35-4.11-6.72-8.2-10.06-12.32c-0.25-0.31-0.52-0.61-0.68-0.98c-0.26-0.63-0.19-1.11,0.63-1.17
		c0.61,0.19,0.94,0.71,1.28,1.18c0.64,0.89,1.48,1.24,2.54,1.21c0.7-0.02,1.43-0.08,2.05,0.39c1.02,0,2.02,0.24,3.05,0.29
		c1,0.05,1.28,1.16,1.91,1.77c0.36,0.35,0.6,0.82,1.06,1.08C320.74,378.68,320.94,378.88,321.16,379.07z"/>
	<path class="st2" d="M295.44,356.1c0.74-0.76,0.56-1.85,0.98-2.73c4.94-1.26,9.75-2.92,14.59-4.47c0.41-0.13,0.84-0.22,1.26-0.33
		c-0.59,2.34-1.85,4.33-3.4,6.1c-2.15,2.46-4.52,4.71-7.18,6.64c-0.62,0.16-0.93-0.35-1.32-0.63c-1.19-0.85-2.21-1.93-3.6-2.49
		C296.16,357.61,295.28,357.19,295.44,356.1z"/>
	<path class="st2" d="M291.09,312.73c0.02-0.07,0.04-0.15,0.05-0.22c0.1-0.07,0.21-0.11,0.33-0.12c1.91-0.01,2.56-0.74,2.32-2.64
		c-0.52-4.11-2.7-7.03-6.46-8.71c-1.46-0.65-3.01-0.83-4.49,0.1c-0.19,0.12-0.43,0.24-0.65,0.01c1.14-3.84,4.06-5.99,7.78-5.73
		c3.51,0.24,6.23,3.02,6.91,7.02c0.59,3.46-0.4,6.55-2.21,9.44c-0.34,0.54-0.8,1-1.37,1.32
		C292.44,313.7,291.64,313.78,291.09,312.73z"/>
	<path class="st2" d="M264.75,313.43c-0.02-0.05-0.02-0.1,0-0.15c0.24-0.36,0.57-0.17,0.87-0.13c1.23,0.15,1.79-0.25,1.98-1.47
		c0.17-1.09-0.02-2.18-0.41-3.18c-1.11-2.89-3.03-5.05-5.95-6.22c-1.43-0.57-2.87-0.71-4.28,0.09c-0.21,0.12-0.44,0.19-0.69,0.1
		c1.11-4.69,6.22-7,10.49-4.73c0.35,0.19,0.69,0.38,1.04,0.57c1.23,0.38,1.79,1.45,2.32,2.44c0.71,1.34,1.15,2.8,1.07,4.36
		c-0.16,0.82-0.02,1.66-0.12,2.48c-0.45,2.03-1.18,3.94-2.47,5.6c-0.42,0.54-0.89,1.01-1.55,1.24
		C266.05,314.63,265.11,314.68,264.75,313.43z"/>
	<path class="st8" d="M270.93,305.01c-0.24-2.61-1.23-4.86-3.12-6.7c4.37-3.29,10.64-1.27,11.89,3.84c0.58,2.38-0.13,4.25-2.04,5.33
		c-0.38,0.4-0.87,0.62-1.39,0.52C274.18,307.57,272.43,306.51,270.93,305.01z"/>
	<path class="st5" d="M241.35,309.86c1.63,0.48,3.17,1.22,4.89,1.45c1.13,0.15,1.74,1.13,1.92,2.09c0.57,3.02,2.35,5.52,3.38,8.34
		c0.31,0.86,0.38,1.8,0.87,2.59c-0.24,1.65-1.15,2.79-2.64,3.49c-0.54-0.03-0.88-0.39-1.16-0.77c-1.19-1.6-2.24-3.3-3.09-5.07
		c0.08-0.2-0.02-0.06-0.02-0.04c0.04,0.4-0.03,0.67-0.48,0.3c-0.34-0.77-0.01-1.63-0.34-2.39c-0.12-0.67-0.33-1.31-0.53-1.95
		c-0.53-1.25-0.93-2.53-1.21-3.87c-0.24-1.17-0.62-2.31-1.36-3.28C241.41,310.48,241.21,310.21,241.35,309.86z"/>
	<path class="st9" d="M228.45,323.69c1.25-2.34,1.17-4.66-0.12-6.95c-0.97-1.72-1.54-1.91-3.25-1.11c0.06-0.74,0.48-1.29,1.09-1.6
		c1.14-0.57,2.13-1.37,3.2-2.06c0.98,0.24,1.23,0.99,1.35,1.87c0.31,2.24,0.51,2.35,2.75,1.8c0.46-0.11,0.91-0.31,1.39-0.07
		c0.66,0.58,0.73,1.39,0.86,2.17c0.3,1.85,0.49,3.71,0.69,5.57c0.14,1.31-0.18,1.76-1.44,2.04c-1.57,0.35-3.15,0.55-4.71-0.06
		C229.49,324.96,228.71,324.61,228.45,323.69z"/>
	<path class="st9" d="M276.99,310.1c0.24,0.01,0.48-0.2,0.71,0.03c1.05,0.36,1.74,1.05,2.13,2.11c0.61,1.62,0.84,3.33,1.32,4.99
		c0.24,0.83-0.21,1.59-0.59,2.27c-1.11,1.95-2.72,3.44-4.62,4.59c-0.87,0.53-1.42,0.38-1.58-0.47c-0.55-2.86-1.48-5.65-1.55-8.6
		c0.52-1.17,1.13-2.26,2.39-2.82c0.58-0.26,0.83-0.83,1.04-1.39C276.39,310.48,276.56,310.15,276.99,310.1z"/>
	<path class="st9" d="M241.35,309.86c1.04,0.96,1.58,2.22,1.87,3.55c0.33,1.47,0.72,2.92,1.2,4.35c-0.57,1.24-0.98,2.59-2.34,3.26
		c-0.6-0.03-0.81-0.57-1.18-0.91c-0.28-0.24-0.41-0.93-0.99-0.44c-0.48,0.41-0.24,0.84,0.04,1.26c0.35,0.51,0.87,0.97,0.56,1.7
		c-0.08,0.14-0.17,0.27-0.3,0.38c-0.58,0.49-1.19,1.12-1.99,0.9c-0.83-0.23-0.78-1.14-0.9-1.82c-0.43-2.48-1.22-4.89-1.28-7.43
		c0.62-1.14,1.16-2.34,2.45-2.94c0.57-0.26,0.83-0.83,0.98-1.43c0.14-0.33,0.3-0.62,0.73-0.58
		C240.59,309.77,240.97,309.81,241.35,309.86z"/>
	<path class="st5" d="M239.86,310.17c-0.17,1.05-0.61,1.83-1.74,2.18c-1,0.31-0.93,1.65-1.83,2.12c-0.45,0.55-0.98,0.96-1.68,1.14
		c-0.37,0.14-0.73,0.3-1.11,0.41c-2.28,0.66-2.97,0.31-3.08-1.95c-0.05-0.97-0.69-1.41-1.05-2.11c0.92-0.99,1.27-2.01,0.48-3.3
		c-0.49-0.8-0.26-1.77-0.22-2.67c0.1-0.42,0.38-0.55,0.79-0.57c1.96-0.08,4.33,1.55,4.94,3.41c0.55,1.69,0.89,1.88,2.49,1.14
		C238.63,309.62,239.24,309.7,239.86,310.17z"/>
	<path class="st10" d="M273.08,314.89c0.18,2.43,0.89,4.77,1.3,7.16c0.12,0.7,0.28,1.4,0.46,2.27c2.52-1.55,4.75-3.21,5.84-6.01
		c0.1-0.25,0.22-0.57,0.15-0.8c-0.65-1.96-0.76-4.08-1.75-5.95c-0.33-0.62-0.81-1.08-1.39-1.44c0.61-0.12,1.09,0.22,1.58,0.46
		c1.09,0.56,2.24,0.82,3.43,0.94c-0.02,0.71-0.04,1.42-0.05,2.13c-0.02,1.5,0.36,1.95,1.87,2.2c0.2,0.03,0.5-0.12,0.55,0.25
		c-0.19,0.21-0.39,0.41-0.66,0.51c-2.24,0.92-3.42,2.79-4.35,4.88c-0.68,1.16-1.14,2.44-1.93,3.55c-0.3,0.42-0.6,0.84-1.06,1.11
		c-0.86,0.29-1.47,0.84-1.75,1.73c-0.16,0.09-0.33,0.08-0.44-0.04c-0.6-0.65-1.23-0.97-2.08-0.37c-0.27,0.19-0.62,0.14-0.87-0.15
		c-0.37-0.68-0.75-1.37-0.35-2.18c0.64-0.41,0.79-0.95,0.7-1.72c-0.3-2.52-0.62-5.04-1.06-7.54
		C271.61,315.13,272.04,314.45,273.08,314.89z"/>
	<path class="st11" d="M282.19,301.16c2.31-1.79,4.61-1.09,6.74,0.25c3.06,1.93,4.88,4.74,5.27,8.39c0.03,0.24,0.03,0.48,0.02,0.72
		c-0.11,2.03-1.23,2.75-3.08,1.99c-0.31-0.23-0.61-0.46-1.01-0.76c1.1-0.81,1.66-1.87,1.44-3.21c-0.05-0.32,0.11-1.13-0.75-0.62
		c-0.15,0.09-0.21,0.01-0.37-0.65c-0.44-1.83-1.28-3.42-2.65-4.73c-0.38-0.36-0.79-0.67-1.27-0.87c-1.5-0.63-2.38-0.25-2.85,1.27
		c-0.11,0.34-0.15,0.7-0.47,0.93C282.14,303.24,282.01,302.26,282.19,301.16z"/>
	<path class="st11" d="M256.28,302.47c1.15-1.13,2.54-1.23,4.01-0.88c3.96,0.94,7.33,4.79,7.74,8.8c0.28,2.75-0.69,3.61-3.27,2.89
		c-0.49-0.49-0.64-0.88,0.04-1.43c0.83-0.68,0.71-1.71,0.62-2.67c-0.02-0.21-0.18-0.51-0.29-0.45c-0.99,0.52-0.68-0.42-0.78-0.73
		c-0.57-1.73-1.37-3.32-2.81-4.48c-1.83-1.48-3.11-1.12-3.96,1.02c-0.07,0.18-0.21,0.33-0.32,0.49
		C256.26,304.43,256.05,303.53,256.28,302.47z"/>
	<path class="st7" d="M291.16,314.68c0.14-0.02,0.28-0.04,0.42-0.07c1.96,1.03,3.38,2.54,4.18,4.62c-0.78,0.15-1.35-0.48-2.11-0.53
		c-2.77-0.18-4.58,1.33-6.09,3.36c-0.42,0.57-0.7,1.25-1.05,1.88c-0.71,0.51-2,0.5-2.74-0.02c-0.76-0.53-0.42-1.21-0.22-1.83
		c0.42-1.28,0.76-2.61,1.69-3.65c0.36-0.24,0.76-0.18,1.15-0.16c2.53,0.12,3.92-0.89,4.58-3.31
		C290.99,314.85,291.07,314.76,291.16,314.68z"/>
	<path class="st12" d="M239.86,310.17c-0.03,0.02-0.07,0.07-0.1,0.07c-1.24-0.25-2.34,0.07-3.35,0.82c-0.23,0.18-0.41-0.11-0.55-0.3
		c-0.5-0.69-0.86-1.45-0.95-2.28c-0.07-0.66-0.36-1-0.98-1.15c-0.31-0.07-0.68-0.2-0.78-0.5c-0.34-1.07-1.36-0.94-2.02-0.88
		c-0.5,0.04-1.06-0.76-1.5,0.04c-0.48-1.02,0.08-1.9,0.39-2.81c2.43,0.75,4.84,1.55,6.95,3.04c1.19,0.84,2.47,1.32,3.94,0.82
		c-0.01,0.96-0.32,1.83-0.72,2.68C240.09,309.87,239.98,310.02,239.86,310.17z"/>
	<path class="st13" d="M276.99,310.1c-0.14,0.25-0.29,0.49-0.43,0.74c-1.13,0.16-2.22,0.41-3.31,0.79
		c-0.64,0.23-0.97-0.37-1.28-0.85c-0.62-0.95-0.68-2.12-1.27-3.08c0.2-0.89-0.26-1.83,0.23-2.69c0.87,0.49,1.78,0.91,2.59,1.47
		c1.27,0.89,2.59,1.37,4.14,0.99C277.69,308.42,277.25,309.24,276.99,310.1z"/>
	<path class="st4" d="M164.45,389.41c3.57,0.63,6.99,1.95,10.65,2.22c1.28,0.1,2.56,0.21,3.84,0.19c0.82-0.01,1.33,0.44,1.61,1.19
		c-5.04-0.02-9.96-0.73-14.72-2.4c-0.62-0.22-1.54-0.17-1.64-1.18C164.28,389.42,164.36,389.42,164.45,389.41z"/>
	<path class="st14" d="M258.74,316.77c0.73,1.37,1.89,1.5,3.25,1.19c1.33-0.31,2.31-1,2.75-2.33c0.19-0.14,0.37-0.12,0.54,0.05
		c0.52,1.26-0.21,2.09-1.06,2.76c-1.35,1.07-2.93,1.38-4.63,1.1c-0.36-0.09-0.68-0.28-1-0.45c-0.42-0.28-0.74-0.01-1.07,0.2
		c-0.88,0.57-1.53,1.35-2.14,2.18c-0.3,0.41-0.55,0.88-1.09,1.05c-0.19,0.02-0.35-0.01-0.49-0.15c0.04-0.36,0.14-0.7,0.33-1.01
		C255.11,319.26,256.55,317.63,258.74,316.77z"/>
	<path class="st15" d="M254.14,321.35c-0.09,0.34-0.17,0.68-0.26,1.01c0.31,0.89-0.36,1.63-0.38,2.48
		c-0.07,1.02-0.37,1.97-1.03,2.75c-0.83,0.99-0.86,2.29-1.39,3.4c-0.25,0.16-0.55,0.06-0.6-0.13c-0.26-0.95-1.18-1.55-1.32-2.55
		c0.03-0.36,0.28-0.53,0.59-0.64c1.27-0.81,1.92-2.11,2.68-3.33C252.99,323.34,253.57,322.34,254.14,321.35z"/>
	<path class="st16" d="M250.97,393.75c0.34,1.19,0.79,2.35,0.76,3.72c1.06-0.6,2.1-0.97,3.24-0.85c0.66,0.07,1.46-0.17,1.72,0.83
		c0.08,0.31,0.5,0.14,0.76,0.13c1.84-0.1,3.67-0.24,5.51-0.34c3.01-0.17,5.98-0.1,8.93,1.3c-1.02,0.93-2.15,1.1-3.27,1.21
		c-1.8,0.17-3.61-0.03-5.38-0.33c-2.97-0.51-5.8-0.39-8.47,1.16c-0.87,0.5-1.84,0.78-2.82,0.99c-1.26,0.27-2.39,0.11-3.2-1.05
		c-0.51-0.72-1.02-0.91-1.91-0.4c-1.73,0.99-4.88,0.37-6.19-1.07c-0.96-1.05-2.24-1.02-3.45-0.88c-0.89,0.1-1.47,0.09-1.98-0.8
		c-0.71-1.25-2.04-1.42-3.36-1.47c-3.65-0.15-7.28,0.2-10.92,0.25c-1.16,0.01-2.27-0.19-3.34-0.67c1.46-0.11,2.93-0.18,4.39-0.36
		c2.15-0.26,4.23-0.76,6.12-1.94c1.02-0.63,1.96-0.76,3.19,0.05c0.97,0.64,2.45,0.49,3.69,0.72c1.25,0.23,2.33,0.34,3.29-0.93
		c0.67-0.89,1.84-1.39,3.06-1.47c0.85-0.48,1.51,0.02,1.97,0.58c0.6,0.71,1.08,0.63,1.69,0.11c0.86-0.73,1.77-1.35,2.88-1.62
		c0.24-0.05,0.48-0.04,0.72,0.01C250.07,391.15,250.94,392.13,250.97,393.75z"/>
	<path class="st4" d="M313.32,392.03c-7.47,0.41-14.94,0.82-22.42,1.23c-0.22-0.48,0.17-0.73,0.4-1.03c0.93-1.2,2-2.28,2.96-3.44
		c0.42-0.37,0.77-0.8,1.09-1.27c0.32-0.39,0.69-0.71,1.2-0.83c3.53-0.81,7.06-1.6,10.53-2.62c1.42-0.42,1.65-0.27,2.08,1.07
		c0.06,0.94,0.46,1.71,1.08,2.43c0.9,1.05,1.78,2.11,2.63,3.21C313.14,391.14,313.55,391.48,313.32,392.03z"/>
	<path class="st7" d="M313.32,392.03c-1.26-1.59-2.5-3.19-3.8-4.75c-0.5-0.59-0.77-1.19-0.62-1.95c-0.03-1.18-0.92-2.2-0.64-3.44
		c0.1-1.03,0.04-2.07-0.05-3.1c-0.08-0.93-0.36-1.79-1.04-2.49c-0.36-0.37-0.68-0.79-0.76-1.33c0.53-0.99,0.92-1.03,1.71-0.1
		c1.66,1.94,3.22,3.96,4.85,5.93c2.52,3.04,5,6.12,7.49,9.18c0.32,0.4,0.72,0.77,0.7,1.34c-0.02,0.08-0.04,0.15-0.06,0.23
		c-1.23,1.41-2.48,2.8-3.67,4.24c-0.4,0.49-0.6,0.45-0.96-0.01C315.43,394.52,314.37,393.28,313.32,392.03z"/>
	<path class="st4" d="M247.87,390.9c-1.34,0.38-2.25,1.42-3.36,2.15c-0.44,0.29-0.76,0.51-1.06-0.18c-0.39-0.89-1.21-1.19-2.11-1.32
		c-0.38-0.33-0.84-0.19-1.27-0.2c-3.87-0.15-7.75,0.04-11.61,0.27c-4.64,0.29-9.28,0.73-13.93,0.98c-1.31,0.07-2.62,0.16-3.93,0.18
		c0.64-1.67,2.1-1.21,3.3-1.14c0.84,0.05,1.61,0.17,2.43-0.2c0.57-0.25,1.27-0.18,1.89,0.01c0.45,0.14,0.85,0.17,1.35-0.22
		c-1.66-0.6-3.29-0.48-4.85-0.28c-1.6,0.21-3.19,0.09-4.78,0.13c-0.77,0.02-1.23-0.48-1.5-1.17c0.42-0.5,1.01-0.42,1.56-0.44
		c1.72-0.09,3.44,0.15,5.15,0.21c3.94,0.14,7.82-0.43,11.7-1.09c2.76-0.48,5.5-1.05,8.3-1.35c2.21-0.24,4.31,0.11,6.37,0.8
		c1.78,0.6,3.53,1.32,5.31,1.92C247.28,390.11,247.88,390.19,247.87,390.9z"/>
	<path class="st7" d="M294.5,388.95c-1.2,1.44-2.4,2.88-3.6,4.32c-0.24,0.14-0.44,0.41-0.77,0.24c-1.56-0.94-2.37-2.58-3.58-3.86
		c-0.16-0.17-0.29-0.37-0.44-0.55c-0.18-0.23-0.41-0.42-0.62-0.62c-0.93-0.99-1.75-2.07-2.63-3.1c-1.12-1.31-0.81-2.95-1-4.46
		c-0.15-1.14-0.08-2.31-0.02-3.47c0.06-1.15-0.25-2.11-1.05-2.94c-0.33-0.34-0.66-0.7-0.66-1.23c0.22-0.7,0.68-0.7,1.22-0.39
		c0.35,0.2,0.62,0.51,0.87,0.82c3.89,4.73,7.88,9.38,11.77,14.11C294.27,388.13,294.66,388.42,294.5,388.95z"/>
	<path class="st4" d="M286.35,388.91c1.26,1.53,2.52,3.07,3.79,4.6c-3.01,0.3-6.02,0.59-9.03,0.89c-1.7,0.17-3.4,0.41-5.11,0.52
		c-4.06,0.28-8.11,0.58-12.17,0.72c-3.99,0.14-7.84-0.71-11.64-1.85c-0.38-0.11-0.79-0.51-1.21-0.04c-0.57-1.16-1.03-2.41-2.45-2.84
		c0.26-0.4,0.68-0.41,1.07-0.36c2.14,0.26,4.31,0.02,6.46,0.33c1.28,0.19,2.54,0.4,3.7,0.94c4.13,1.92,8.45,2.21,12.89,1.65
		c1.7-0.21,3.39-0.57,5.12-0.57c0.41,0,0.79-0.12,1.08-0.43c0.44-0.35,0.98-0.25,1.49-0.33c1.83-0.28,3.71-0.46,5.22-1.72
		C285.86,389.93,285.82,389.27,286.35,388.91z"/>
	<path class="st4" d="M195.94,392.77c0.34-0.93,1.04-1.22,1.98-1.2c1.4,0.03,2.8,0.02,4.2,0c0.62-0.01,1.2,0.06,1.64,0.56
		c0.16,0.18,0.29,0.36,0.59,0.24c1.58-0.66,3.23-0.17,4.85-0.31c0.55-0.05,0.9,0.25,1.15,0.71
		C205.55,392.77,200.75,392.77,195.94,392.77z"/>
	<path class="st4" d="M188.01,393.01c0.31-0.85,0.93-1.21,1.83-1.2c1.54,0.02,3.07-0.02,4.6,0.24c0.48,0.08,0.79,0.32,1.01,0.72
		C192.97,392.75,190.5,393.2,188.01,393.01z"/>
	<path class="st4" d="M180.8,393.01c0.07-0.64,0.52-0.72,1.04-0.71c1.39,0.01,2.79,0.02,4.18,0c0.58-0.01,1,0.21,1.26,0.72
		C185.12,393.01,182.96,393.01,180.8,393.01z"/>
	<path class="st3" d="M239.05,383.84c-6.41-2.23-12.59-5.04-18.83-7.69c-0.62-0.79-0.25-1.63-0.06-2.42
		c0.79-3.27,1.82-6.46,3.01-9.6c0.17-0.45,0.39-0.88,0.19-1.37c0,0-0.02-0.03-0.02-0.03c1.16-2.9,2.58-5.66,4.47-8.15
		c2.49-3.3,5.34-6.23,9.04-8.2c0.33-0.15,0.5-0.01,0.58,0.31c-0.06,0.69-0.57,1.03-1.08,1.35c-5.13,3.16-8.4,7.9-11.11,13.11
		c-0.67,1.29-0.55,1.43,0.85,1.72c8.99,1.84,18.05,3.13,27.18,3.97c2.94,0.27,5.89,0.54,8.86,0.57c0.89,0.01,1.15-0.3,1.21-1.16
		c0.16-2.04,0.14-4.07,0-6.1c-0.05-0.62-0.13-1.3,0.4-1.81c0.21-0.08,0.41-0.06,0.6,0.06c0.45,0.41,0.49,0.98,0.57,1.53
		c0.26,1.95,0.32,3.88,0.06,5.84c-0.22,1.63-0.02,1.81,1.62,1.8c2.67-0.01,5.33,0.25,8,0.37c0.13,0.02,0.26,0.07,0.38,0.13
		c0.69,0.74,0.52,1.72,0.67,2.61c0.12,0.72,0.17,1.46,0.62,2.04c1.9,2.42,2.68,5.33,3.7,8.15c1,2.75,2.29,5.37,4.75,7.2
		c0.28,0.21,0.59,0.44,0.45,0.89c-0.3,0.43-0.77,0.56-1.24,0.65c-2.16,0.37-4.33,0.69-6.52,0.32c-1.06-0.78-1.81-1.69-1.87-3.14
		c-0.06-1.32-0.51-1.41-1.8-1.28c-1.07,0.11-2.23,0.25-3.24-0.3c-0.97-0.53-1.83-0.4-2.71,0.13c-0.69,0.41-1.3,0.93-1.96,1.37
		c-0.81,0.54-1.59,0.68-2.58,0.3c-1.24-0.48-2.57,0.08-3.86,0.14c-0.43,0.02-0.85,0.23-1.3,0.15c-3.2-0.75-6.38-1.53-9.7-0.73
		c-0.8,0.19-1.6-0.05-2.33-0.41c-1.64-0.8-3.36-1.26-5.15-1.55C240.21,384.51,239.48,384.51,239.05,383.84z"/>
	<path class="st17" d="M264.21,358.45c-0.16,0-0.33,0-0.49,0c-0.69,0.53-1.45,0.33-2.2,0.22c-4.92-0.69-9.35-2.7-13.66-5.04
		c-3.45-1.88-6.51-4.37-9.91-6.33c-0.28-0.16-0.5-0.4-0.66-0.68c-0.09-0.2-0.27-0.23-0.46-0.24c-1.43-0.79-2.87-1.59-4.3-2.38
		c0.43-0.47,0.96-0.28,1.46-0.23c3.34,0.38,6.41-0.35,9.23-2.17c1.29-0.83,2.35-1.9,3.17-3.21c0.29-0.46,0.5-1.02,1.1-1.2
		c1.06,0.72,1.43,1.91,2.02,2.96c0.09,1.29-0.51,2.4-0.99,3.53c-0.31,0.74-0.7,1.43-0.96,2.19c-0.12,0.34-0.24,0.68-0.11,1.05
		c0.11,0.3,0.22,0.67,0.57,0.7c0.37,0.03,0.34-0.39,0.44-0.62c1.19-2.79,2.23-5.64,3.1-8.55c0.11-0.38,0.22-0.77,0.52-1.07
		c1.01-0.2,1.45,0.18,1.88,1.66c-0.05,1.82-0.63,3.53-1.01,5.29c-0.33,1.52-0.77,3.02-0.99,4.57c-0.12,0.86,0.18,1.35,1.02,1.61
		c2.35,0.73,4.77,0.96,7.19,1.24c1.31,0.15,2.62,0.23,3.94,0.12c0.55,0.11,0.89,0.51,1.23,0.91c1.09,1.33,2.07,2.75,3.22,4.03
		c0.32,0.35,0.69,0.78,0.48,1.28c-0.22,0.55-0.81,0.42-1.27,0.43c-0.6,0-1.2,0.04-1.78,0.23
		C265.36,358.83,264.74,358.89,264.21,358.45z"/>
	<path class="st9" d="M247.51,337.25c-2.39,5.28-9.1,7.89-14.26,6.76c-0.23-0.05-0.47-0.01-0.71-0.02
		c-0.47-0.11-0.88-0.35-1.26-0.64c0.06-0.36-0.14-0.64-0.36-0.86c-1.77-1.77-2.63-4.08-3.76-6.23c-1.16-2.3-0.51-4.51,0.32-6.71
		c0.37-1.22,0.28-2.51,0.46-3.76c0.55-0.3,1.01,0.02,1.47,0.21c1.84,0.77,3.72,1.16,5.73,0.86c1.31-0.19,1.64,0.09,1.86,1.4
		c0.23,1.38,0.42,2.77,0.6,4.15c0.21,1.65-0.22,2.16-1.92,2.32c-2.41,0.22-4.68-0.39-6.9-1.25c-0.22-0.09-0.42-0.23-0.67-0.26
		c-0.04,0-0.07,0.02-0.15,0.04c-0.29,0.8,0.26,1.14,0.83,1.44c2.37,1.24,4.8,2.16,7.56,1.89c1.57-0.15,1.62-0.02,1.9,1.58
		c0.2,1.15,0.13,2.31,0.17,3.47c0.02,0.76,0.28,1.23,1.15,1.14c0.93-0.09,1.37-0.51,1.28-1.36c-0.13-1.28-0.54-2.5-0.82-3.75
		c-0.33-1.47-0.2-1.82,1.14-2.48c1.62-0.8,2.98-1.99,4.55-2.86c1.22,0.62,1.82,1.82,2.62,2.83
		C248.35,335.98,248.32,336.77,247.51,337.25z"/>
	<path class="st18" d="M296.88,357.94c1.68,0.53,2.79,1.89,4.16,2.86c0.22,0.16,0.43,0.34,0.65,0.51c2.66,2.38,5.35,4.73,7.98,7.13
		c2.11,1.93,3.5,4.4,5,6.78c-0.28,0-0.56-0.03-0.83,0.01c-2.15,0.31-3.8-0.36-4.83-2.35c-0.07-0.13-0.24-0.2-0.36-0.3
		c-0.3-0.14-0.65-0.1-0.94-0.29c-1.58-1.43-2.7-3.24-4.01-4.88c-2.13-2.68-4.23-5.4-6.32-8.12
		C297.09,358.91,296.65,358.55,296.88,357.94z"/>
	<path class="st19" d="M223.35,362.75c0.57,0.08,0.43,0.43,0.32,0.8c-0.83,2.61-1.7,5.21-2.48,7.84c-0.46,1.55-1,3.1-0.98,4.76
		c-0.5-0.2-1.01-0.41-1.51-0.61c0.71-0.89,0.63-2.02,0.94-3.03c0.89-2.88,2.12-5.62,3.2-8.43
		C223.02,363.64,223.18,363.2,223.35,362.75z"/>
	<path class="st1" d="M239.05,383.84c2.55,0.46,5.12,0.78,7.46,2.05c0.63,0.35,1.39,0.41,2.1,0.2c2.44-0.7,4.83-0.3,7.21,0.3
		c0.81,0.2,1.61,0.42,2.42,0.63c-0.2,0.76-0.85,0.63-1.37,0.63c-1.07-0.01-2.15-0.01-2.76-0.19c2.61,0.08,5.62,0.84,8.7,0.88
		c1.48,0.02,2.93,0.39,4.17,1.31c0.68,0.5,1.47,0.56,2.28,0.56c1.16,0,2.32-0.04,3.47,0.03c0.4,0.02,0.89,0.03,1.04,0.45
		c0.16,0.47-0.34,0.65-0.78,1c1.55,0.22,2.99,0.33,4.42,0.45c0.51,0.04,1.06-0.04,1.42,0.45c0.16,0.11,0.31,0.21,0.6,0.41
		c-2.95,0.34-5.75,0.76-8.58,1.05c-4.04,0.4-7.83-0.23-11.49-1.93c-1.51-0.7-3.17-0.8-4.78-0.95c-2.02-0.19-4.06,0.05-6.08-0.24
		c-0.22,0-0.43,0-0.65-0.01c-3.59-1.38-7.09-3.19-11-3.34c-2.53-0.1-5.04,0.56-7.54,1.02c-4.73,0.88-9.48,1.77-14.32,1.52
		c-2.19-0.11-4.38-0.22-6.57-0.2c-0.48,0-0.96,0-1.44,0c-0.09,0.07-0.18,0.17-0.29,0.2c-0.58,0.19-1.36,0.37-1.55-0.3
		c-0.2-0.69,0.65-0.77,1.16-0.9c3.76-0.95,7.54-1.76,11.38-2.32c2.39-0.35,4.69-0.93,6.83-2.07c2.46-1.31,5.04-1.98,7.84-1.26
		c0.19,0.05,0.4,0.03,0.59-0.02C234.96,383.64,237.02,383.64,239.05,383.84z"/>
	<path class="st4" d="M232.95,383.25c-0.65,0.32-1.35,0.2-2,0.14c-1.98-0.17-3.87,0.22-5.53,1.19c-3.31,1.92-6.99,2.29-10.63,2.93
		c-3.19,0.56-6.35,1.27-9.48,2.08c0,0.1,0.01,0.21,0.01,0.31c0.56,0,1.13,0,1.69,0c-0.42,0.7-2.59,1.04-3.14,0.49
		c-0.53-0.53-0.15-1.48,0.74-1.7c2.43-0.59,4.88-1.14,7.32-1.69c2.79-0.63,5.63-0.98,8.43-1.52c2.35-0.45,4.39-1.85,6.62-2.71
		c0.53-0.2,0.45-0.69,0.48-1.12C229.28,382.19,231.12,382.72,232.95,383.25z"/>
	<path class="st20" d="M296.88,357.94c2.43,3.17,4.85,6.36,7.29,9.52c1.22,1.58,2.48,3.13,3.73,4.69c0.04,0.99-0.46,1.55-1.4,1.76
		c-0.63-0.19-0.91-0.75-1.28-1.22c-2.36-3.03-4.67-6.1-7.09-9.09c-1.38-1.95-2.95-3.76-4.36-5.69c-0.62-0.69-1.08-1.5-1.69-2.2
		c-0.71-0.91-1.38-1.86-2.15-2.72c-3.47-4.57-7.1-9.02-10.53-13.62c-0.45-0.67-0.96-1.29-1.48-1.91c-0.41-0.5-0.79-1.03-1.2-1.53
		c-0.28-0.54-0.84-0.93-0.91-1.6c0.15-0.79,0.43-1.47,1.3-1.72c0.9,0.26,1.22,1.17,1.87,1.71c1.03,1.67,2.35,3.13,3.53,4.69
		c2.89,3.73,5.79,7.45,8.68,11.18c0.36,0.46,0.84,0.88,0.83,1.55c1.05,1.53,2.17,3,3.4,4.38
		C295.81,356.8,296.34,357.38,296.88,357.94z"/>
	<path class="st21" d="M282.27,339.23c-1-1.29-1.99-2.58-3.01-3.85c-0.23-0.29-0.43-0.57-0.4-0.96c-0.3-0.35-0.21-0.75-0.12-1.14
		c0.41-1.88,0.77-3.76,1.29-5.62c0.58-2.08,0.58-2.08-1.02-3.32c-0.3-0.98,0.29-1.71,0.72-2.48c0.14-0.14,0.31-0.18,0.5-0.17
		c0.24,0.03,0.45,0.14,0.65,0.27c0.67,0.44,1.08,0.18,1.4-0.47c0.43-0.89,0.85-1.79,1.44-2.59c0.26-0.35,0.48-0.74,0.96-0.84
		c0.34-0.02,0.59,0.1,0.71,0.44c-0.56,1.45-1.11,2.9-1.69,4.34c-0.22,0.54-0.09,0.85,0.47,0.9c0.79,0.08,1.55,0.46,2.37,0.18
		c-0.14,0.91-0.29,1.83-0.71,2.67c-0.5,0.79-1.26,0.59-1.94,0.43c-0.72-0.17-1.13-0.03-1.31,0.75c-0.46,1.99-1.02,3.95-1.44,5.95
		c-0.16,0.77,0.04,1.23,0.84,1.41c1.64,0.37,3.26,0.82,4.94,0.96c1.97,0.16,3.92,0.09,5.7-0.97c0.38-0.23,0.8-0.36,1.26-0.25
		c0.53,0.98,1.36,1.78,1.63,2.91c0.44,1.03-0.09,1.58-0.98,1.92c-1.47,0.56-3,0.82-4.57,0.86c-1.96,0.05-3.9-0.23-5.83-0.51
		C283.41,339.96,282.84,339.59,282.27,339.23z"/>
	<path class="st7" d="M293.85,334.88c-2.88,1.96-6,2.07-9.26,1.28c-1.12-0.27-2.24-0.54-3.37-0.75c-0.61-0.11-0.82-0.39-0.68-0.97
		c0.57-2.56,1.13-5.12,1.87-7.64c0.14-0.47,0.28-0.56,0.73-0.36c0.86,0.38,1.75,0.52,2.66,0.18c0.02,1.9,0.38,3.59,2.5,4.25
		c0.78,0.24,1.57,0.4,2.31-0.05c0.63-0.38,0.97-0.08,1.24,0.42C292.53,332.44,293.19,333.66,293.85,334.88z"/>
	<path class="st7" d="M282.27,339.23c3.28,0.68,6.57,1.22,9.93,0.66c0.74-0.12,1.46-0.37,2.18-0.57c0.78-0.21,1.24-0.66,1.11-1.54
		c0.08,0.16,0.16,0.31,0.25,0.47c0.14,0.64,0.08,1.26-0.07,1.89c-0.38,1.55-0.89,3.06-1.22,4.62c-0.07,0.34-0.1,0.73-0.49,0.91
		c-0.3,1.46-0.1,2.99-0.81,4.42c-0.31,0.62-0.55,1.21-1.11,1.63c-2.94-3.75-5.88-7.51-8.83-11.26
		C282.89,340.05,282.58,339.64,282.27,339.23z"/>
	<path class="st22" d="M293.96,345.67c0.19-1.79,0.7-3.51,1.25-5.22c0.23-0.72,0.35-1.47,0.53-2.2c0.63,0.98,0.3,2.01,0.1,3
		c-0.4,1.98-0.96,3.92-1.74,6.17C294.03,346.61,293.99,346.14,293.96,345.67z"/>
	<path class="st23" d="M306.54,373.79c0.57-0.45,1.07-0.97,1.37-1.64c0.37-0.05,0.61,0.11,0.75,0.45c-0.81,0.45-0.2,0.91,0.06,1.25
		c1.18,1.5,2.4,2.97,3.61,4.45c3,3.67,6.01,7.33,8.99,11c0.27,0.33,0.58,0.68,0.61,1.15c-0.23,0.32-0.41,0.68-0.79,0.88
		c-2.23-2.71-4.46-5.4-6.68-8.12c-2.27-2.78-4.53-5.56-6.78-8.36c-0.4-0.5-0.76-0.47-1.18-0.07
		C305.86,374.43,305.97,374.1,306.54,373.79z"/>
	<path class="st12" d="M245.89,332.48c-1.47,1.39-3.16,2.44-4.99,3.27c-0.65,0.29-0.8,0.6-0.61,1.28c0.39,1.38,0.7,2.78,1,4.19
		c0.12,0.58,0.26,1.22-0.4,1.62c-0.75,0.45-1.6,0.63-2.41,0.33c-0.5-0.18-0.49-0.79-0.47-1.27c0.06-1.48-0.08-2.95-0.24-4.42
		c-0.05-0.44-0.11-0.61-0.64-0.52c-3.35,0.57-6.27-0.67-9.14-2.17c-1.12-0.59-0.32-1.57-0.71-2.62c1.91,1.36,3.86,1.8,5.84,2.11
		c1.11,0.17,2.22,0.15,3.34-0.04c0.65-0.11,0.9-0.33,0.81-0.99c-0.26-1.86-0.5-3.72-0.73-5.57c-0.06-0.49-0.37-0.59-0.77-0.49
		c-2.83,0.72-5.36-0.2-7.85-1.37c-0.09-0.77,0.21-1.43,0.51-2.1c2.14,1.92,4.59,1.7,7.12,1.1c0.4-0.1,0.56-0.27,0.51-0.64
		c-0.4-2.72-0.4-5.49-1.21-8.15c-0.04-0.14-0.17-0.26-0.25-0.39c0.48-0.5,0.94-1.03,1.68-1.14c0.56,2.92,1.14,5.84,1.66,8.77
		c0.11,0.63,0.36,0.61,0.77,0.34c0.59-0.4,1.18-0.81,1.76-1.22c1.06,0.15,1.66,0.9,1.75,2.17c-0.53,0.84-1.47,1.06-2.27,1.46
		c-0.85,0.42-1.15,0.96-0.95,1.9c0.28,1.32,0.47,2.67,0.68,4.01c0.12,0.77,0.46,0.93,1.14,0.53c1.28-0.76,2.45-1.63,3.37-2.82
		c0.27-0.35,0.47-0.88,1.09-0.76c0.09,0.09,0.16,0.19,0.21,0.31C245.5,330.27,246.14,331.32,245.89,332.48z"/>
	<path class="st24" d="M227.48,329.55c-0.3,2.23-0.59,4.46-0.32,6.71c-0.74-0.68-1.08-1.64-1.63-2.45
		c-0.18-0.27-0.15-0.55-0.01-0.78C226.22,331.9,226.64,330.61,227.48,329.55z"/>
	<path class="st25" d="M280.25,321.91c-0.14,0.01-0.28,0.01-0.42,0.02c-0.16-0.22-0.12-0.45-0.01-0.68
		c0.96-2.51,2.49-4.45,5.24-5.14c0.18,1.23,1.01,1.56,2.08,1.4c1.58-0.24,3.07-0.67,3.61-2.47c0.05-0.17,0.14-0.38,0.4-0.37
		c-0.08,3.05-2.27,4.5-5.79,3.83c-0.25-0.09-0.5-0.17-0.74-0.26c-0.69-0.14-1.07,0.39-1.51,0.74c-0.75,0.6-1.31,1.37-1.88,2.13
		C280.98,321.47,280.74,321.86,280.25,321.91z"/>
	<path class="st9" d="M265.12,315.64c-0.13,0-0.25-0.01-0.38-0.01c0-0.73,0.01-1.47,0.01-2.2c0.61,0.78,1.41,0.93,2.32,0.71
		c0.35,0.2,0.47,0.56,0.46,0.91c0,1.09,0.69,1.14,1.52,1.15c0.79,0.02,1.49-0.6,2.3-0.28c0.84,1.52,0.76,3.23,1.01,4.86
		c0.16,1.02,0.18,2.07,0.39,3.07c0.21,0.99-0.04,1.46-1.09,1.39c-0.26-0.04-0.45-0.21-0.53-0.44c-0.59-1.62-1.4-3.13-2.07-4.71
		c-0.19-1.93-1.74-2.85-3.01-3.98C265.81,315.9,265.48,315.71,265.12,315.64z"/>
	<path class="st26" d="M271.36,315.92c-0.93,0.49-1.9,0.74-2.96,0.67c-0.82-0.05-1.39-0.27-1.19-1.3c0.07-0.36-0.08-0.77-0.13-1.16
		c2.17-1.61,2.89-4.03,3.62-6.44c0.6,0.18,0.91,0.58,0.96,1.21c0.06,0.73,0.4,1.37,0.76,1.99c0.28,0.47,0.4,0.6,1.11,0.26
		c0.83-0.39,1.93-1.23,3.02-0.32c-0.22,0.95-0.72,1.59-1.71,1.93c-0.97,0.33-1.01,1.55-1.77,2.13
		C272.28,314.86,271.9,315.52,271.36,315.92z"/>
	<path class="st27" d="M242.08,320.87c0.75-0.82,1.46-1.66,1.82-2.74c0.07-0.2,0.08-0.63,0.52-0.38c0.37,0.6,0.59,1.25,0.59,1.96
		c0.06,1.3,0.41,2.69-1.11,3.5C242.75,322.84,242.09,322,242.08,320.87z"/>
	<path class="st28" d="M249.74,327.66c-0.07,0.22-0.21,0.37-0.43,0.45c-0.7-0.47-1.31-1.12-2.25-1.08
		c-0.47-0.31-0.75-0.78-1.02-1.25c-0.41-0.59-0.8-1.2-1.01-1.87c-0.18-0.55-0.38-1.16,0.28-1.59c0.09-0.25,0.18-0.5,0.27-0.74
		C246.99,323.6,247.83,325.99,249.74,327.66z"/>
	<path class="st29" d="M245.3,322.31c-0.38,1.41,0.48,2.4,1.13,3.47c-0.25,0.21-0.56,0.23-0.77,0.04c-0.84-0.76-1.79-1.46-1.88-2.74
		c1.06-0.89,1.24-2.09,1.23-3.37C245.49,320.54,245.2,321.45,245.3,322.31z"/>
	<path class="st30" d="M243.78,323.09c0.55,0.72,1.14,1.43,1.65,2.18c0.26,0.38,0.6,0.48,1,0.52c0.26,0.35,0.51,0.71,0.77,1.06
		c-0.05,1.28-1.1,1.69-1.96,2.27c-0.03-0.08-0.04-0.15-0.03-0.23c-0.85-1.25-1.78-2.44-2.75-3.6c-0.21-0.25-0.39-0.5-0.37-0.85
		c-0.26-0.91-0.91-1.51-1.61-2.08c-0.23-0.61-0.67-1.08-1.09-1.55c-0.38-0.42-0.43-0.69-0.03-1.19c0.63-0.78,1.04-0.92,1.62,0.03
		c0.28,0.45,0.56,0.97,1.08,1.23C242.43,321.78,243.17,322.38,243.78,323.09z"/>
	<path class="st5" d="M269.16,319.96c1.2,1.6,1.76,3.49,2.51,5.3c0.17,0.69,0.34,1.39,0.52,2.08c0.44,0.36,0.75,0.81,0.91,1.36
		c0.66,2.29,1.7,4.46,2.2,6.8c0.18,0.59,0.27,1.2,0.48,1.78c0.59,1.89,0.32,3.65-0.71,5.35c-0.78,1.29-1.34,2.7-2.05,4.03
		c-0.23,0.4-0.46,0.81-0.59,1.26c-0.16,0.49-0.51,0.89-0.67,1.37c-0.39,2.04-1.79,3.39-3.23,4.71c-1.22-0.27-2.74-2.16-2.73-3.39
		c1-1.44,1.62-3.01,1.61-4.79c0-0.64,0-1.29,0.46-1.82c0.14-0.15,0.44-0.17,0.49-0.31c0.66-1.79,1.54-3.55,0.93-5.56
		c-0.1-0.26-0.18-0.53-0.34-0.76c-0.38-0.91-1.18-1.55-1.54-2.46c-0.58-0.91-1.06-1.87-1.54-2.83c-0.33-0.64-0.79-0.88-1.55-0.8
		c-3.43,0.35-5.03-1.22-4.76-4.62c0.24-0.84,0.4-1.69,0.67-2.52c1.06-2.97,3.79-5.2,6.51-5.27
		C267.69,318.85,268.7,318.84,269.16,319.96z"/>
	<path class="st31" d="M274.97,335.58c-0.93-2.75-1.85-5.5-2.78-8.25c0.12-0.02,0.27-0.01,0.34-0.08c1.19-1.17,1.97-0.36,2.74,0.55
		c0.38-0.81,1.07-1.34,1.69-1.93c1.4-1.26,1.92-3.08,2.86-4.63c0,0.23,0,0.45,0.01,0.68c-0.39,0.74-0.66,1.52-0.7,2.37
		c0.44,1.06-0.03,1.96-0.59,2.76c-0.94,1.33-1.39,2.73-1.1,4.36c0.08,0.42,0.14,0.88-0.32,1.18c-0.53,0.5-0.81,1.16-1.12,1.8
		C276.01,335.1,275.56,335.4,274.97,335.58z"/>
	<path class="st32" d="M276.97,325.89c-0.33,0.85-1.01,1.39-1.69,1.93C274.94,326.38,276.07,326.24,276.97,325.89z"/>
	<path class="st33" d="M267.77,334.86c0.46,0.85,1.19,1.54,1.49,2.48c0.28,1.43,0.1,1.75-1.21,2.23c-0.19,0.07-0.38,0.14-0.57,0.17
		c-3.62,0.55-7.22,0.7-10.77-0.41c-0.48-0.12-0.86-0.41-1.17-0.79c-0.89-1.08-1.77-2.16-2.62-3.27c-0.22-0.29-0.43-0.58-0.39-0.97
		c0.7-2.57,1.17-5.19,1.93-7.74c0.17-0.57,0.04-1.01-0.53-1.28c-0.29-0.13-0.58-0.28-0.74-0.57c0.02-0.84,0.36-1.59,0.68-2.35
		c0.15,0,0.3,0,0.46,0c0.24-0.02,0.48-0.02,0.7,0.09c0.61,0.32,0.93,0.06,1.19-0.5c0.41-0.86,0.92-1.66,1.45-2.45
		c0.24-0.35,0.43-0.78,0.96-0.8c0.28,0.13,0.59,0.22,0.76,0.52c0.28,0.55-0.11,0.98-0.29,1.44c-0.19,0.47-0.4,0.94-0.58,1.42
		c-0.61,1.55-0.58,1.61,1.05,1.83c0.35,0.05,0.71,0.06,0.95,0.38c-0.2,0.83-0.28,1.7-0.69,2.48c-0.52,0.72-1.28,0.59-1.97,0.47
		c-0.75-0.13-1.09,0.1-1.29,0.83c-0.51,1.85-0.92,3.72-1.39,5.59c-0.2,0.79,0.07,1.21,0.85,1.39c2.07,0.46,4.14,0.91,6.26,1.05
		c1.34,0.09,2.6-0.35,3.81-0.93C266.62,334.91,267.13,334.45,267.77,334.86z"/>
	<path class="st7" d="M260.52,324.29c-3.22,0.04-3.24,0.01-2.13-2.92c0.28-0.75,0.58-1.48,1.01-2.15c1.4,0.06,2.8,0.08,4.06-0.69
		c1.08-0.66,1.87-1.5,1.67-2.9c0.26-0.31,0.53-0.26,0.83-0.05c1.35,0.93,2.5,2.05,3.32,3.48c0.18,0.31,0.38,0.65-0.11,0.89
		c-1.45-1.09-2.99-0.91-4.49-0.2C262.69,320.69,261.35,322.27,260.52,324.29z"/>
	<path class="st34" d="M258.63,318.7c-0.81,1.2-1.7,2.37-2.2,3.74c-0.35,0.96-0.78,0.86-1.42,0.39c-0.22-0.16-0.45-0.31-0.68-0.47
		c0.87-1.33,1.79-2.62,3.14-3.52C257.85,318.59,258.19,318.29,258.63,318.7z"/>
	<path class="st5" d="M245.25,329.11c0.4-0.72,0.85-1.39,1.67-1.7c0.28-0.11,0.29-0.33,0.29-0.57c1.16-0.33,1.71,0.33,2.11,1.27
		c0.5,0.99,1.34,1.79,1.63,2.9c0.76,0.31,0.64,0.93,0.55,1.54c-0.31,0.7-0.71,1.36-1.1,2.03c-0.65,0.66-1.31,1.22-2.27,0.52
		c-0.97-0.68-1.6-1.66-2.23-2.62C245.37,331.42,245.01,330.32,245.25,329.11z"/>
	<path class="st7" d="M251.21,332.62c0.13-0.57,0.15-1.12-0.26-1.6c0.04-1.48,0.43-2.82,1.44-3.96c0.58-0.66,0.6-1.54,0.82-2.35
		c1.86,0.16,2.06,0.48,1.61,2.21c-0.58,2.19-1.1,4.39-1.64,6.59c-0.08,0.34-0.01,0.75-0.49,0.85
		C251.8,334.11,251.43,333.42,251.21,332.62z"/>
	<path class="st3" d="M308.66,381.71c-0.16,1.22,0.33,2.4,0.23,3.62c0.01-1.22-0.53-1.31-1.59-0.97c-3.57,1.12-7.19,2.05-10.89,2.67
		c-0.26-0.72,0.28-1.11,0.66-1.54c2.03-2.26,2.02-2.24,0.09-4.55c-1.56-1.87-3.2-3.68-4.69-5.61c-0.78-1.01-1.74-1.42-2.99-1.43
		c-1.18-0.01-2.41,0.3-3.52-0.37c-1.51-1.39-3.06-2.75-4.58-4.13c-0.42-0.39-1.28-0.72-0.67-1.6c0.47-0.26,0.98-0.35,1.49-0.38
		c4.28-0.3,8.44-1.14,12.46-2.64c0.26-0.1,0.53-0.16,0.82-0.16c0.13,0,0.25,0.03,0.36,0.08c1.14,1.04,1.72,2.49,2.63,3.69
		c2.89,3.82,5.87,7.58,8.84,11.34C307.8,380.37,308.32,380.98,308.66,381.71z"/>
	<path class="st7" d="M286.13,373.32c1.08,0.47,2.21,0.25,3.31,0.21c1.5-0.05,2.54,0.55,3.46,1.68c2,2.47,4.06,4.9,6.14,7.31
		c0.43,0.49,0.44,0.76,0.02,1.29c-0.87,1.09-2.01,1.94-2.65,3.22c-0.3,0.25-0.59,0.5-0.89,0.75c-0.67,0.19-0.91-0.37-1.22-0.74
		c-3.6-4.27-7.16-8.57-10.73-12.87c-0.53-0.64-1.16-1.21-1.6-1.93c-0.37-0.6-0.48-1.12,0.35-1.42c0.3,0.01,0.54,0.17,0.7,0.39
		C283.76,372.34,284.84,372.98,286.13,373.32z"/>
	<path class="st23" d="M282.24,370.91c-0.29,0.36-0.43,0.64-0.03,1.11c1.91,2.24,3.76,4.53,5.64,6.79c2.34,2.81,4.68,5.62,7.03,8.43
		c0.17,0.21,0.42,0.36,0.63,0.53c-0.21,0.5-0.57,0.88-1.02,1.17c-3.58-4.26-7.16-8.52-10.73-12.78c-0.79-0.94-1.58-1.89-2.36-2.84
		c-0.32-0.38-0.66-0.58-1.12-0.23c-0.77-0.11-0.57-0.58-0.4-1.05c0.51-0.63,1-1.29,1.69-1.75
		C282,370.28,282.31,370.39,282.24,370.91z"/>
	<path class="st35" d="M308.66,381.71c-1.86-1.71-3.25-3.81-4.8-5.78c-1.41-1.78-2.88-3.52-4.24-5.33c-1.36-1.81-2.72-3.63-3.7-5.69
		c0.5-1.08,1.42-1.43,2.52-1.49c2.7,3.46,5.4,6.91,8.1,10.37c-0.16,0.33-0.44,0.65-0.03,0.99
		C308.56,376.68,308.92,379.1,308.66,381.71z"/>
	<path class="st35" d="M280.1,372.09c-0.04,0.35-0.36,0.76,0.18,1c0.06,0.15,0.07,0.35,0.18,0.43c1.77,1.36,1.95,3.25,1.77,5.26
		c-0.15,1.68,0.13,3.35,0.27,5.01c0.12,1.35,1.42,2.06,2.15,3.08c0.39,0.55,0.86,1.04,1.21,1.62c-0.12,0.44-0.38,0.41-0.7,0.23
		c-2.99-1.44-4.07-4.36-5.35-7.07c-0.73-1.53-1.11-3.23-1.67-4.84c-0.25-0.72-0.54-1.44-1.04-2.01c-1.64-1.89-2.08-4.14-2.13-6.53
		c0.51-0.53,1.16-0.47,1.8-0.46C278.29,368.92,279.58,370.21,280.1,372.09z"/>
	<path class="st36" d="M285.16,388.73c0.25-0.01,0.51-0.02,0.7-0.23c0.31-0.05,0.57-0.02,0.48,0.41c0.03,0.63-0.21,1.18-0.51,1.71
		c-2.63,1.23-5.28,0.52-7.92,0.04c-0.42-0.08-0.96-0.29-0.74-0.97C279.87,389.62,282.58,389.69,285.16,388.73z"/>
	<path class="st16" d="M277.17,389.69c0.64,0.91,1.67,0.8,2.57,0.91c2.02,0.24,4.06,0.32,6.09,0.02c0.18,0.45-0.22,0.39-0.44,0.5
		c-2.06,1.02-4.25,1.49-6.54,1.46c-2.29-0.15-4.6-0.14-6.92-0.7c0.46-0.66,1.27-0.52,1.72-1.15c-1.38-0.24-2.68-0.17-3.97-0.06
		c-1.16,0.1-2.22-0.09-3.16-0.83c-1.17-0.92-2.58-1.1-3.98-1.1c-3.29,0.01-6.48-0.93-9.75-1.05c-0.29-0.01-0.73-0.04-0.68-0.48
		c0.05-0.37,0.45-0.26,0.7-0.24c1.19,0.09,2.38,0.24,3.58,0.3c0.62,0.03,1.29,0.15,1.86-0.27c0.95-0.14,1.85-0.84,2.88-0.25
		c0.23,0.13,0.41-0.16,0.6-0.29c0.57-0.37,1.2-0.4,1.64,0.09c0.59,0.66,1.14,0.43,1.69,0.1c0.98-0.61,1.91-1.3,2.88-1.93
		c0.94-0.61,1.86-0.64,2.74,0.14c0.36,0.33,0.94,0.1,1.16,0.18c1.12,0.38,2.14-0.41,3.17-0.1c0.76,0.23,0.86,0.98,0.94,1.66
		c0.1,0.82-0.26,1.82,0.96,2.18C277.06,388.86,277.08,389.38,277.17,389.69z"/>
	<path class="st2" d="M237.29,346.62c1.54,0.68,2.95,1.56,4.32,2.53c5.63,4,11.56,7.41,18.42,8.87c1.21,0.26,2.44,0.39,3.68,0.44
		c0,2.71,0.3,5.41,0.04,8.12c-0.09,0.92-0.07,1.34-1.32,1.29c-2.99-0.12-5.97-0.33-8.95-0.58c-3.65-0.31-7.28-0.75-10.91-1.23
		c-3.51-0.47-7-1.05-10.49-1.63c-2.35-0.39-4.69-0.88-7.04-1.3c-0.74-0.13-1-0.31-0.63-1.15c1.41-3.21,3.32-6.08,5.5-8.81
		c1.85-2.3,4.03-4.2,6.57-5.68C236.8,347.28,237.02,346.91,237.29,346.62z"/>
	<path class="st2" d="M264.21,358.45c0.65-0.03,1.29-0.07,1.94-0.1c0.98-0.15,1.96,0.01,2.94-0.1c0.65-0.07,0.94,0.49,1.3,0.89
		c0.32,0.35,0.58,0.75,0.78,1.18c0.59,1.9,1.93,3.38,2.85,5.09c0.47,0.88,1.21,1.71,0.72,2.84c-3.14-0.07-6.28-0.16-9.42-0.21
		c-0.69-0.01-0.88-0.29-0.89-0.94c-0.02-1.59,0.42-3.16,0.25-4.76C264.54,361.04,264.36,359.75,264.21,358.45z"/>
	<path class="st37" d="M274.75,368.25c-0.3-1.93-1.53-3.4-2.48-5c-0.51-0.86-1.07-1.68-1.34-2.66c0.45-0.19,0.66,0.17,0.88,0.42
		c1.69,2.01,3.26,4.11,4.9,6.17c0.19,0.24,0.43,0.5,0.2,0.85c-0.62,0.21-1.27,0.26-1.92,0.24
		C274.9,368.27,274.82,368.26,274.75,368.25z"/>
	<path class="st20" d="M276.9,368.03c-1.95-2.52-3.86-5.06-5.98-7.44c-0.88-2.26-2.74-2.45-4.78-2.24c0.68-0.34,1.4-0.12,2.11-0.17
		c0.42-0.03,0.84-0.14,0.44-0.58c-1.6-1.74-2.8-3.81-4.51-5.45c-0.44-0.22-0.76-0.57-1.06-0.94c-2.92-3.63-5.79-7.3-8.7-10.93
		c-0.33-0.41-0.52-0.89-0.78-1.34c-0.35-0.6-0.42-1.45-1.39-1.46c-0.73-0.69-1.35-1.53-2.33-1.91c-0.23-0.48,0.22-0.81,0.28-1.22
		c0.23-0.64,0.56-1.21,1.01-1.72c0.49,0.58,0.98,1.16,1.47,1.73c1.26,1.53,2.34,3.22,3.81,4.58c2.32,2.14,4.03,4.8,6.04,7.21
		c0.97,1.16,1.89,2.36,2.81,3.56c0.26,0.34,0.62,0.64,0.54,1.14c0.83,1.04,1.37,2.33,2.63,2.99c1.27,1.34,2.29,2.89,3.55,4.24
		c2.06,2.73,4.18,5.41,6.36,8.05c0.7,1.06,1.57,2,2.35,3c0.31,0.4,0.72,0.76,0.71,1.34c-0.23,0.74-0.75,1.24-1.38,1.63
		C279.14,370.65,278.01,369.35,276.9,368.03z"/>
	<path class="st7" d="M253.64,338.94c1.57,1.42,2.72,3.2,4.02,4.84c2.2,2.77,4.53,5.43,6.53,8.37c-4.11,0.39-8.07-0.33-12-1.47
		c-1.18-0.34-0.78-1.26-0.64-1.95c0.43-2.18,0.98-4.34,1.46-6.52C253.24,341.13,253.43,340.03,253.64,338.94z"/>
	<path class="st7" d="M250.06,335.54c1.29,0.06,1.89,0.58,2.19,1.94c-1.01,3.75-2.49,7.33-3.85,10.95c-1.6-0.79-1.81-1.35-1.06-3.04
		c0.75-1.7,1.69-3.33,1.92-5.22c-0.3-1.2-0.12-2.38,0.12-3.56C249.48,336.17,249.6,335.74,250.06,335.54z"/>
	<path class="st38" d="M250.06,335.54c-0.55,1.49-0.36,3.11-0.8,4.62c-0.59-0.97-1.17-1.94-1.76-2.91c0.2-0.71,0.41-1.43,0.61-2.14
		c0.81,0.08,1.56-0.04,2.07-0.76C250.42,334.77,250.09,335.14,250.06,335.54z"/>
	<path class="st21" d="M271.92,358.21c-1.4-1.26-2.71-2.58-3.42-4.37c0.47-0.94,1.2-1.96,1.85-2.46c0.94-0.73,0.48-1.71,1.1-2.32
		c0.29-0.37,0.64,0.12,0.97-0.06c0-0.42-0.21-0.8-0.23-1.21c0.02-0.52,0.42-0.86,0.6-1.3c0.49,0.4,0.23,1.08,0.58,1.53
		c0.14,0.19,0.27,0.43,0.55,0.4c0.23-0.03,0.23-0.29,0.3-0.46c1.25-3.1,2.37-6.25,3.31-9.46c0.13-0.45,0.16-0.96,0.67-1.2
		c0.51,0.61,1.17,1.12,1.41,1.93c0.35,0.57,0.19,1.16,0.09,1.75c-0.43,2.57-1.23,5.06-1.71,7.61c-0.44,2.34-0.4,2.44,1.94,2.99
		c3,0.71,6.03,1.24,9.14,1.13c0.4-0.01,0.8-0.05,1.15,0.22c0.91,0.68,1.43,1.67,2.07,2.57c-0.26,0.52-0.76,0.59-1.25,0.66
		c-3.84,0.98-7.75,1.54-11.68,1.98c-1.9,0.21-3.81,0.45-5.73,0.49C273.03,358.62,272.42,358.65,271.92,358.21z"/>
	<path class="st7" d="M290.22,352.9c-1.7,0.49-3.4,0.2-5.1-0.01c-2.33-0.29-4.65-0.59-6.89-1.39c-0.75-0.27-1.04-0.56-0.91-1.44
		c0.51-3.68,1.71-7.2,2.28-10.86c2.25,2.54,4.21,5.31,6.29,7.97C287.37,349.06,288.95,350.86,290.22,352.9z"/>
	<path class="st7" d="M278.19,337.28c-0.91,4.08-2.59,7.91-3.95,11.83c-1.34-0.55-1.57-0.93-1.46-2.63
		c0.66-1.35,1.22-2.77,2.01-4.04c1.02-1.64,1.13-3.33,0.7-5.12c-0.13-0.38-0.06-0.8,0.07-1.13c0.25-0.64,0.67-1.11,1.38-0.42
		C277.36,336.27,277.78,336.77,278.19,337.28z"/>
	<path class="st7" d="M277.13,332.6c0.04-0.4,0.06-0.78-0.05-1.18c-0.38-1.3-0.2-2.59,0.58-3.65c0.77-1.06,1.27-2.19,1.49-3.46
		c0.49,0.02,0.9,0.26,1.34,0.46c0.53,0.24,0.67,0.59,0.49,1.14c-0.9,2.79-1.41,5.68-2.1,8.52
		C277.96,334.13,277.73,333.19,277.13,332.6z"/>
	<path class="st39" d="M298.43,363.42c-0.84,0.5-1.68,0.99-2.52,1.49c-0.08-0.01-0.15-0.01-0.23-0.02c-0.79-0.53-1.2-1.37-1.7-2.13
		c-1.08-1.62-2.13-3.27-2.83-5.11c-0.17-0.44-0.41-0.88-0.11-1.37c0.31-0.22,0.55,0,0.69,0.21c0.55,0.83,1.38,1.1,2.29,1.21
		C295.49,359.61,296.96,361.51,298.43,363.42z"/>
	<path class="st40" d="M294.02,357.7c-1.61,0.79-2.13-0.54-2.86-1.46c-0.15-0.12-0.18-0.27-0.08-0.44c0.41-0.11,0.81-0.22,1.22-0.33
		C293.01,356.11,293.43,356.96,294.02,357.7z"/>
	<path class="st41" d="M276.94,335.76c-0.68-0.31-1.05-0.07-1.19,0.63c-0.06,0.31-0.17,0.61-0.26,0.91
		c-0.36-0.52-0.3-1.17-0.52-1.73c0.09-0.62,0.83-0.67,1.04-1.19C276.33,334.85,276.83,335.17,276.94,335.76z"/>
	<path class="st34" d="M280.25,321.91c0.98-1.37,1.9-2.8,3.35-3.75c0.4-0.26,0.74-0.52,1.03,0.09c-0.89,1.09-1.67,2.27-2.14,3.58
		c-0.43,1.2-0.98,1.12-1.78,0.46C280.55,322.17,280.4,322.04,280.25,321.91z"/>
	<path class="st9" d="M242.1,324.43c1.21,1,1.98,2.38,3,3.53c0.24,0.27,0.13,0.61,0.12,0.92c-1.24,1.69-2.68,3.14-4.6,4.07
		c-0.72,0.35-1.1,0.46-1.22-0.59c-0.19-1.7-0.55-3.38-0.87-5.06c-0.12-0.67-0.03-1.1,0.7-1.4
		C240.22,325.49,241.15,324.93,242.1,324.43z"/>
	<path class="st7" d="M267.77,334.86c-0.3,0.11-0.62,0.18-0.88,0.34c-2.36,1.44-4.89,1.5-7.5,0.92c-1.36-0.3-2.73-0.55-4.09-0.83
		c-0.52-0.11-0.87-0.35-0.71-0.98c0.62-2.38,1.24-4.76,1.82-7.15c0.13-0.55,0.3-0.72,0.87-0.47c0.82,0.36,1.69,0.45,2.55,0.07
		c-0.06,1.83,0.3,3.43,2.31,4.1c0.74,0.25,1.53,0.43,2.21,0.06c0.85-0.45,1.29-0.05,1.64,0.57
		C266.62,332.61,267.18,333.74,267.77,334.86z"/>
	<path class="st7" d="M265.87,350.84c-3.12-3.89-6.23-7.78-9.35-11.68c-0.04-0.05-0.03-0.15-0.04-0.23
		c3.79,0.86,7.6,1.25,11.43,0.22c0.94-0.25,1.57-0.71,1.35-1.82c0.25,0.14,0.23,0.39,0.24,0.62c0.12,0.21,0.21,0.47,0.16,0.68
		c-0.38,1.85-0.68,3.73-1.63,5.42c-0.2,1.85-0.2,3.73-1.08,5.46C266.68,350.07,266.49,350.6,265.87,350.84z"/>
	<path class="st42" d="M268.04,344.06c0.11-1.52,0.62-2.94,1.09-4.37c0.18-0.57,0.41-1.12,0.38-1.73c0.43,0.49,0.45,1.06,0.37,1.67
		c-0.17,1.38-0.62,2.7-0.9,4.06C268.84,344.37,268.48,344.25,268.04,344.06z"/>
	<path class="st43" d="M272.18,347.78c0.06,0.05,0.15,0.1,0.16,0.17c0.13,0.56,1.14,0.95,0.54,1.61c-0.65,0.71-0.85-0.6-1.43-0.5
		C271.7,348.63,271.94,348.2,272.18,347.78z"/>
	<path class="st2" d="M291.07,355.8c0.03,0.15,0.06,0.3,0.08,0.44c0.28,1.99,1.48,3.55,2.43,5.22c0.66,1.16,1.6,2.16,2.1,3.42
		c-3.7,1.43-7.54,2.3-11.46,2.82c-1.22,0.16-2.46,0.23-3.69,0.34c-0.63,0.23-0.95-0.24-1.27-0.61c-0.34-0.38-0.65-0.78-1.06-1.09
		c-2.02-2.5-4.03-5-6.05-7.5c-0.15-0.19-0.3-0.37-0.23-0.64C278.39,358.09,284.74,357,291.07,355.8z"/>
	<path class="st44" d="M278.2,366.35c0.94,0.34,1.36,1.4,2.33,1.7c1.35,1.45,2.88,2.69,4.36,3.99c0.44,0.39,0.82,0.85,1.23,1.28
		c-1.54,0.39-2.39-0.57-3.21-1.61c-0.22-0.27-0.32-0.65-0.68-0.8c-0.16-0.31-0.38-0.5-0.76-0.45
		C280.29,369.17,279.2,367.79,278.2,366.35z"/>
</g>
</svg>
