<?xml version="1.0" encoding="utf-8"?>
<svg viewBox="0 0 500 500" style="shape-rendering: geometricprecision;" xmlns="http://www.w3.org/2000/svg">
  <g transform="matrix(0.21919, 0, 0, 0.224353, 23.868563, 33.064911)" style="">
    <path style="opacity:0.995" fill="#fa6035" d="M 966.5,-0.5 C 988.5,-0.5 1010.5,-0.5 1032.5,-0.5C 1034.61,0.468218 1036.94,0.801552 1039.5,0.5C 1040.21,1.40397 1041.21,1.73731 1042.5,1.5C 1042.5,9.5 1042.5,17.5 1042.5,25.5C 1013.83,25.5 985.167,25.5 956.5,25.5C 956.5,17.5 956.5,9.5 956.5,1.5C 957.791,1.73731 958.791,1.40397 959.5,0.5C 962.059,0.801552 964.393,0.468218 966.5,-0.5 Z"/>
  </g>
  <g transform="matrix(0.21919, 0, 0, 0.224353, 23.868563, 33.064911)" style="">
    <path style="opacity:0.994" fill="#fb6634" d="M 959.5,0.5 C 958.791,1.40397 957.791,1.73731 956.5,1.5C 956.5,9.5 956.5,17.5 956.5,25.5C 923.178,27.4989 889.844,30.8322 856.5,35.5C 856.5,26.8333 856.5,18.1667 856.5,9.5C 890.665,4.63654 924.998,1.63654 959.5,0.5 Z"/>
  </g>
  <g transform="matrix(0.21919, 0, 0, 0.224353, 23.868563, 33.064911)" style="">
    <path style="opacity:0.998" fill="#fa5a35" d="M 1039.5,0.5 C 1069.61,1.5096 1099.61,3.84294 1129.5,7.5C 1128.83,16.1667 1128.17,24.8333 1127.5,33.5C 1099.12,29.8861 1070.78,27.2194 1042.5,25.5C 1042.5,17.5 1042.5,9.5 1042.5,1.5C 1041.21,1.73731 1040.21,1.40397 1039.5,0.5 Z"/>
  </g>
  <g transform="matrix(0.21919, 0, 0, 0.224353, 23.868563, 33.064911)" style="">
    <path style="opacity:0.997" fill="#fa5436" d="M 1129.5,7.5 C 1157.71,11.4244 1185.71,16.4244 1213.5,22.5C 1213.2,31.2511 1213.53,39.9177 1214.5,48.5C 1185.7,42.3407 1156.7,37.3407 1127.5,33.5C 1128.17,24.8333 1128.83,16.1667 1129.5,7.5 Z"/>
  </g>
  <g transform="matrix(0.21919, 0, 0, 0.224353, 23.868563, 33.064911)" style="">
    <path style="opacity:0.998" fill="#fc6d33" d="M 856.5,9.5 C 856.5,18.1667 856.5,26.8333 856.5,35.5C 827.217,39.7566 798.217,45.4233 769.5,52.5C 770.471,43.5839 770.804,34.5839 770.5,25.5C 798.964,19.0893 827.631,13.756 856.5,9.5 Z"/>
  </g>
  <g transform="matrix(0.21919, 0, 0, 0.224353, 23.868563, 33.064911)" style="">
    <path style="opacity:0.999" fill="#fa4e37" d="M 1213.5,22.5 C 1247.35,29.6283 1280.68,38.6283 1313.5,49.5C 1313.5,58.5 1313.5,67.5 1313.5,76.5C 1280.75,65.9119 1247.75,56.5786 1214.5,48.5C 1213.53,39.9177 1213.2,31.2511 1213.5,22.5 Z"/>
  </g>
  <g transform="matrix(0.21919, 0, 0, 0.224353, 23.868563, 33.064911)" style="">
    <path style="opacity:0.998" fill="#fc7333" d="M 770.5,25.5 C 770.804,34.5839 770.471,43.5839 769.5,52.5C 741.481,59.2843 713.814,67.2843 686.5,76.5C 684.853,67.3154 685.186,58.3154 687.5,49.5C 714.688,40.1169 742.354,32.1169 770.5,25.5 Z"/>
  </g>
  <g transform="matrix(0.21919, 0, 0, 0.224353, 23.868563, 33.064911)" style="">
    <path style="opacity:1" fill="#fa6035" d="M 1039.5,40.5 C 1041.5,258.958 1042.16,477.625 1041.5,696.5C 1032.06,693.593 1022.4,691.76 1012.5,691C 994.224,688.946 975.891,688.113 957.5,688.5C 956.836,472.291 957.503,256.291 959.5,40.5C 986.167,39.1667 1012.83,39.1667 1039.5,40.5 Z"/>
  </g>
  <g transform="matrix(0.21919, 0, 0, 0.224353, 23.868563, 33.064911)" style="">
    <path style="opacity:1" fill="#fb6734" d="M 959.5,40.5 C 957.503,256.291 956.836,472.291 957.5,688.5C 925.107,688.466 892.773,689.8 860.5,692.5C 860.168,478.097 860.501,263.764 861.5,49.5C 893.96,44.4582 926.626,41.4582 959.5,40.5 Z"/>
  </g>
  <g transform="matrix(0.21919, 0, 0, 0.224353, 23.868563, 33.064911)" style="">
    <path style="opacity:1" fill="#fa5a35" d="M 1039.5,40.5 C 1067.35,41.2572 1095.02,43.5905 1122.5,47.5C 1124.5,274.292 1125.16,501.292 1124.5,728.5C 1097.07,717.027 1069.41,706.361 1041.5,696.5C 1042.16,477.625 1041.5,258.958 1039.5,40.5 Z"/>
  </g>
  <g transform="matrix(0.21919, 0, 0, 0.224353, 23.868563, 33.064911)" style="">
    <path style="opacity:1" fill="#f95436" d="M 1122.5,47.5 C 1151.79,50.8814 1180.79,55.8814 1209.5,62.5C 1207.5,296.625 1206.84,530.958 1207.5,765.5C 1179.84,752.956 1152.18,740.623 1124.5,728.5C 1125.16,501.292 1124.5,274.292 1122.5,47.5 Z"/>
  </g>
  <g transform="matrix(0.21919, 0, 0, 0.224353, 23.868563, 33.064911)" style="">
    <path style="opacity:0.996" fill="#fc7932" d="M 687.5,49.5 C 685.186,58.3154 684.853,67.3154 686.5,76.5C 657.778,86.518 629.445,97.518 601.5,109.5C 599.845,101.048 598.845,92.3813 598.5,83.5C 627.322,70.2218 656.988,58.8884 687.5,49.5 Z"/>
  </g>
  <g transform="matrix(0.21919, 0, 0, 0.224353, 23.868563, 33.064911)" style="">
    <path style="opacity:1" fill="#fb6d33" d="M 861.5,49.5 C 860.501,263.764 860.168,478.097 860.5,692.5C 843.35,694.03 826.35,696.53 809.5,700C 799.386,705.392 789.052,710.225 778.5,714.5C 777.5,498.334 777.167,282.001 777.5,65.5C 805.181,58.6635 833.181,53.3302 861.5,49.5 Z"/>
  </g>
  <g transform="matrix(0.21919, 0, 0, 0.224353, 23.868563, 33.064911)" style="">
    <path style="opacity:1" fill="#f94737" d="M 1313.5,49.5 C 1342.64,59.3225 1371.3,70.3225 1399.5,82.5C 1399.5,91.8333 1399.5,101.167 1399.5,110.5C 1371.15,98.1665 1342.49,86.8331 1313.5,76.5C 1313.5,67.5 1313.5,58.5 1313.5,49.5 Z"/>
  </g>
  <g transform="matrix(0.21919, 0, 0, 0.224353, 23.868563, 33.064911)" style="">
    <path style="opacity:1" fill="#f94e37" d="M 1209.5,62.5 C 1242.17,69.5063 1274.17,78.5063 1305.5,89.5C 1304.5,323.666 1304.17,557.999 1304.5,792.5C 1275.5,783.751 1246.17,776.251 1216.5,770C 1213.47,768.487 1210.47,766.987 1207.5,765.5C 1206.84,530.958 1207.5,296.625 1209.5,62.5 Z"/>
  </g>
  <g transform="matrix(0.21919, 0, 0, 0.224353, 23.868563, 33.064911)" style="">
    <path style="opacity:1" fill="#fb7333" d="M 777.5,65.5 C 777.167,282.001 777.5,498.334 778.5,714.5C 750.804,728.681 722.804,742.348 694.5,755.5C 694.832,533.43 694.499,311.43 693.5,89.5C 720.886,79.7093 748.886,71.7093 777.5,65.5 Z"/>
  </g>
  <g transform="matrix(0.21919, 0, 0, 0.224353, 23.868563, 33.064911)" style="">
    <path style="opacity:1" fill="#fd7f31" d="M 598.5,83.5 C 598.845,92.3813 599.845,101.048 601.5,109.5C 566.627,125.602 532.627,143.269 499.5,162.5C 499.827,152.985 499.494,143.652 498.5,134.5C 530.358,114.903 563.691,97.9031 598.5,83.5 Z"/>
  </g>
  <g transform="matrix(0.21919, 0, 0, 0.224353, 23.868563, 33.064911)" style="">
    <path style="opacity:1" fill="#f94138" d="M 1399.5,82.5 C 1429.04,95.2687 1457.7,109.602 1485.5,125.5C 1485.5,135.167 1485.5,144.833 1485.5,154.5C 1457.39,138.777 1428.72,124.111 1399.5,110.5C 1399.5,101.167 1399.5,91.8333 1399.5,82.5 Z"/>
  </g>
  <g transform="matrix(0.21919, 0, 0, 0.224353, 23.868563, 33.064911)" style="">
    <path style="opacity:1" fill="#fc7932" d="M 693.5,89.5 C 694.499,311.43 694.832,533.43 694.5,755.5C 673.506,766.664 652.173,777.33 630.5,787.5C 624.937,814.315 620.104,841.315 616,868.5C 615.292,888.542 615.958,908.542 618,928.5C 632.256,930.473 646.756,931.14 661.5,930.5C 657.742,900.593 667.075,875.76 689.5,856C 691.078,854.906 692.745,854.072 694.5,853.5C 694.5,858.5 694.5,863.5 694.5,868.5C 671.801,891.268 668.301,916.934 684,945.5C 687.336,949.668 690.836,953.668 694.5,957.5C 694.5,1026.83 694.5,1096.17 694.5,1165.5C 681.989,1165.17 669.655,1165.5 657.5,1166.5C 657.5,1182.83 657.5,1199.17 657.5,1215.5C 695.167,1215.5 732.833,1215.5 770.5,1215.5C 745.339,1216.5 720.005,1216.83 694.5,1216.5C 694.832,1447.24 694.499,1677.9 693.5,1908.5C 665.393,1899.58 638.06,1888.91 611.5,1876.5C 611.833,1668.67 611.5,1461 610.5,1253.5C 613.28,1245.05 615.113,1236.38 616,1227.5C 616.5,1184.83 616.667,1142.17 616.5,1099.5C 625.167,1099.5 633.833,1099.5 642.5,1099.5C 642.5,1080.17 642.5,1060.83 642.5,1041.5C 632.347,1040.51 622.014,1040.17 611.5,1040.5C 611.5,734.167 611.5,427.833 611.5,121.5C 638.06,109.087 665.393,98.4199 693.5,89.5 Z"/>
  </g>
  <g transform="matrix(0.21919, 0, 0, 0.224353, 23.868563, 33.064911)" style="">
    <path style="opacity:1" fill="#f94837" d="M 1305.5,89.5 C 1323.95,95.2022 1341.95,101.869 1359.5,109.5C 1360.5,346.764 1360.83,584.097 1360.5,821.5C 1343.52,808.677 1324.86,799.01 1304.5,792.5C 1304.17,557.999 1304.5,323.666 1305.5,89.5 Z"/>
  </g>
  <g transform="matrix(0.21919, 0, 0, 0.224353, 23.868563, 33.064911)" style="">
    <path style="opacity:1" fill="#f84537" d="M 1359.5,109.5 C 1369.33,113.111 1379,117.111 1388.5,121.5C 1387.5,427.764 1387.17,734.097 1387.5,1040.5C 1378.5,1040.5 1369.5,1040.5 1360.5,1040.5C 1360.5,1003.5 1360.5,966.5 1360.5,929.5C 1349.32,929.828 1338.32,929.495 1327.5,928.5C 1342.84,928.667 1358.17,928.5 1373.5,928C 1376.69,927.803 1379.69,926.97 1382.5,925.5C 1383.68,905.758 1382.85,886.092 1380,866.5C 1377.26,849.769 1370.76,834.769 1360.5,821.5C 1360.83,584.097 1360.5,346.764 1359.5,109.5 Z"/>
  </g>
  <g transform="matrix(0.21919, 0, 0, 0.224353, 23.868563, 33.064911)" style="">
    <path style="opacity:1" fill="#fc8031" d="M 611.5,121.5 C 611.5,427.833 611.5,734.167 611.5,1040.5C 622.014,1040.17 632.347,1040.51 642.5,1041.5C 606.5,1041.5 570.5,1041.5 534.5,1041.5C 534.5,1060.83 534.5,1080.17 534.5,1099.5C 543.5,1099.5 552.5,1099.5 561.5,1099.5C 561.967,1141.87 561.467,1184.2 560,1226.5C 555.303,1240.84 545.303,1247.84 530,1247.5C 524.254,1247.94 519.087,1246.61 514.5,1243.5C 514.5,1195.83 514.5,1148.17 514.5,1100.5C 517.167,1100.5 519.833,1100.5 522.5,1100.5C 522.5,1080.83 522.5,1061.17 522.5,1041.5C 520.052,1040.53 517.385,1040.19 514.5,1040.5C 514.832,750.764 514.499,461.097 513.5,171.5C 545.007,152.746 577.673,136.079 611.5,121.5 Z"/>
  </g>
  <g transform="matrix(0.21919, 0, 0, 0.224353, 23.868563, 33.064911)" style="">
    <path style="opacity:1" fill="#f84138" d="M 1388.5,121.5 C 1416.92,134.208 1444.58,148.208 1471.5,163.5C 1470.5,455.764 1470.17,748.097 1470.5,1040.5C 1486.01,1040.17 1501.34,1040.5 1516.5,1041.5C 1459.5,1041.5 1402.5,1041.5 1345.5,1041.5C 1350.31,1040.51 1355.31,1040.18 1360.5,1040.5C 1369.5,1040.5 1378.5,1040.5 1387.5,1040.5C 1387.17,734.097 1387.5,427.764 1388.5,121.5 Z"/>
  </g>
  <g transform="matrix(0.21919, 0, 0, 0.224353, 23.868563, 33.064911)" style="">
    <path style="opacity:0.997" fill="#f93b39" d="M 1485.5,125.5 C 1515.52,141.557 1544.19,159.557 1571.5,179.5C 1570.81,189.401 1570.14,199.401 1569.5,209.5C 1542.15,190.158 1514.15,171.825 1485.5,154.5C 1485.5,144.833 1485.5,135.167 1485.5,125.5 Z"/>
  </g>
  <g transform="matrix(0.21919, 0, 0, 0.224353, 23.868563, 33.064911)" style="">
    <path style="opacity:0.996" fill="#fd8631" d="M 498.5,134.5 C 499.494,143.652 499.827,152.985 499.5,162.5C 470.151,180.84 441.484,200.173 413.5,220.5C 413.5,210.167 413.5,199.833 413.5,189.5C 440.482,169.205 468.816,150.871 498.5,134.5 Z"/>
  </g>
  <g transform="matrix(0.21919, 0, 0, 0.224353, 23.868563, 33.064911)" style="">
    <path style="opacity:1" fill="#f83b39" d="M 1471.5,163.5 C 1501.05,179.765 1529.39,197.765 1556.5,217.5C 1554.5,493.498 1553.83,769.831 1554.5,1046.5C 1542.03,1043.52 1529.36,1041.86 1516.5,1041.5C 1501.34,1040.5 1486.01,1040.17 1470.5,1040.5C 1470.17,748.097 1470.5,455.764 1471.5,163.5 Z"/>
  </g>
  <g transform="matrix(0.21919, 0, 0, 0.224353, 23.868563, 33.064911)" style="">
    <path style="opacity:1" fill="#fc8431" d="M 513.5,171.5 C 514.499,461.097 514.832,750.764 514.5,1040.5C 517.385,1040.19 520.052,1040.53 522.5,1041.5C 522.167,1041.5 521.833,1041.5 521.5,1041.5C 473.833,1041.5 426.167,1041.5 378.5,1041.5C 395.659,1040.5 412.992,1040.17 430.5,1040.5C 448.833,1040.5 467.167,1040.5 485.5,1040.5C 485.5,756.5 485.5,472.5 485.5,188.5C 494.833,182.833 504.167,177.167 513.5,171.5 Z"/>
  </g>
  <g transform="matrix(0.21919, 0, 0, 0.224353, 23.868563, 33.064911)" style="">
    <path style="opacity:0.998" fill="#f83539" d="M 1571.5,179.5 C 1606.21,202.868 1638.87,228.868 1669.5,257.5C 1670.8,268.961 1670.8,280.295 1669.5,291.5C 1637.64,262.3 1604.31,234.967 1569.5,209.5C 1570.14,199.401 1570.81,189.401 1571.5,179.5 Z"/>
  </g>
  <g transform="matrix(0.21919, 0, 0, 0.224353, 23.868563, 33.064911)" style="">
    <path style="opacity:1" fill="#fd8731" d="M 485.5,188.5 C 485.5,472.5 485.5,756.5 485.5,1040.5C 467.167,1040.5 448.833,1040.5 430.5,1040.5C 430.5,769.167 430.5,497.833 430.5,226.5C 448.26,213.086 466.593,200.419 485.5,188.5 Z"/>
  </g>
  <g transform="matrix(0.21919, 0, 0, 0.224353, 23.868563, 33.064911)" style="">
    <path style="opacity:0.998" fill="#fd8c30" d="M 413.5,189.5 C 413.5,199.833 413.5,210.167 413.5,220.5C 384.605,243.72 356.271,267.72 328.5,292.5C 327.505,281.679 327.172,270.679 327.5,259.5C 354.692,234.304 383.358,210.97 413.5,189.5 Z"/>
  </g>
  <g transform="matrix(0.21919, 0, 0, 0.224353, 23.868563, 33.064911)" style="">
    <path style="opacity:1" fill="#f8343a" d="M 1556.5,217.5 C 1589.94,241.263 1621.6,267.263 1651.5,295.5C 1651.5,764.5 1651.5,1233.5 1651.5,1702.5C 1621.2,1731.48 1588.87,1757.81 1554.5,1781.5C 1554.5,1622.5 1554.5,1463.5 1554.5,1304.5C 1576.5,1304.5 1598.5,1304.5 1620.5,1304.5C 1620.5,1284.83 1620.5,1265.17 1620.5,1245.5C 1608.17,1245.5 1595.83,1245.5 1583.5,1245.5C 1583.67,1234.49 1583.5,1223.49 1583,1212.5C 1578.3,1188.47 1563.8,1174.63 1539.5,1171C 1582.39,1162.77 1600.22,1136.94 1593,1093.5C 1589.37,1070.06 1576.54,1054.39 1554.5,1046.5C 1553.83,769.831 1554.5,493.498 1556.5,217.5 Z"/>
  </g>
  <g transform="matrix(0.21919, 0, 0, 0.224353, 23.868563, 33.064911)" style="">
    <path style="opacity:1" fill="#fd8c30" d="M 430.5,226.5 C 430.5,497.833 430.5,769.167 430.5,1040.5C 412.992,1040.17 395.659,1040.5 378.5,1041.5C 378.5,1060.83 378.5,1080.17 378.5,1099.5C 386.984,1100.49 395.651,1100.83 404.5,1100.5C 404.168,1132 404.502,1163.34 405.5,1194.5C 404.586,1225.41 412.919,1253.41 430.5,1278.5C 430.5,1442.83 430.5,1607.17 430.5,1771.5C 401.349,1750.35 373.682,1727.35 347.5,1702.5C 347.5,1233.5 347.5,764.5 347.5,295.5C 373.682,270.645 401.349,247.645 430.5,226.5 Z"/>
  </g>
  <g transform="matrix(0.21919, 0, 0, 0.224353, 23.868563, 33.064911)" style="">
    <path style="opacity:0.993" fill="#f82f3a" d="M 1669.5,257.5 C 1701.23,285.233 1730.57,315.233 1757.5,347.5C 1756.83,359.833 1756.17,372.167 1755.5,384.5C 1728.33,352.324 1699.67,321.324 1669.5,291.5C 1670.8,280.295 1670.8,268.961 1669.5,257.5 Z"/>
  </g>
  <g transform="matrix(0.21919, 0, 0, 0.224353, 23.868563, 33.064911)" style="">
    <path style="opacity:0.994" fill="#fe9230" d="M 327.5,259.5 C 327.172,270.679 327.505,281.679 328.5,292.5C 298.667,321.991 270.334,352.658 243.5,384.5C 242.833,372.167 242.167,359.833 241.5,347.5C 267.765,315.9 296.432,286.567 327.5,259.5 Z"/>
  </g>
  <g transform="matrix(0.21919, 0, 0, 0.224353, 23.868563, 33.064911)" style="">
    <path style="opacity:1" fill="#fe9230" d="M 347.5,295.5 C 347.5,764.5 347.5,1233.5 347.5,1702.5C 317.362,1675.7 289.696,1646.7 264.5,1615.5C 264.667,1205.17 264.5,794.833 264,384.5C 263.329,385.252 262.496,385.586 261.5,385.5C 287.697,353.3 316.363,323.3 347.5,295.5 Z"/>
  </g>
  <g transform="matrix(0.21919, 0, 0, 0.224353, 23.868563, 33.064911)" style="">
    <path style="opacity:1" fill="#f82e3a" d="M 1651.5,295.5 C 1681.97,322.634 1709.97,351.967 1735.5,383.5C 1734.83,588.333 1734.5,793.333 1734.5,998.5C 1734.5,1203.83 1735.17,1408.83 1736.5,1613.5C 1710.64,1645.37 1682.3,1675.03 1651.5,1702.5C 1651.5,1233.5 1651.5,764.5 1651.5,295.5 Z"/>
  </g>
  <g transform="matrix(0.21919, 0, 0, 0.224353, 23.868563, 33.064911)" style="">
    <path style="opacity:0.995" fill="#f8293b" d="M 1757.5,347.5 C 1789.17,384.499 1818.17,423.499 1844.5,464.5C 1842.84,478.972 1841.84,493.638 1841.5,508.5C 1815.6,465.26 1786.93,423.927 1755.5,384.5C 1756.17,372.167 1756.83,359.833 1757.5,347.5 Z"/>
  </g>
  <g transform="matrix(0.21919, 0, 0, 0.224353, 23.868563, 33.064911)" style="">
    <path style="opacity:0.991" fill="#fe982f" d="M 241.5,347.5 C 242.167,359.833 242.833,372.167 243.5,384.5C 198.158,440.892 159.158,501.559 126.5,566.5C 127.092,563.309 128.259,560.309 130,557.5C 130.828,540.328 130.662,523.328 129.5,506.5C 161.421,449.597 198.754,396.597 241.5,347.5 Z"/>
  </g>
  <g transform="matrix(0.21919, 0, 0, 0.224353, 23.868563, 33.064911)" style="">
    <path style="opacity:1" fill="#f8283b" d="M 1735.5,383.5 C 1765.85,419.852 1793.52,458.185 1818.5,498.5C 1817.17,832.167 1817.17,1165.83 1818.5,1499.5C 1793.85,1539.48 1766.51,1577.48 1736.5,1613.5C 1735.17,1408.83 1734.5,1203.83 1734.5,998.5C 1734.5,793.333 1734.83,588.333 1735.5,383.5 Z"/>
  </g>
  <g transform="matrix(0.21919, 0, 0, 0.224353, 23.868563, 33.064911)" style="">
    <path style="opacity:1" fill="#fe992f" d="M 264.5,1615.5 C 222.395,1565.7 185.728,1512.03 154.5,1454.5C 155.833,1303 156.5,1151.17 156.5,999C 156.5,846.832 155.833,694.999 154.5,543.5C 184.722,487.028 220.388,434.362 261.5,385.5C 262.496,385.586 263.329,385.252 264,384.5C 264.5,794.833 264.667,1205.17 264.5,1615.5 Z"/>
  </g>
  <g transform="matrix(0.21919, 0, 0, 0.224353, 23.868563, 33.064911)" style="">
    <path style="opacity:0.994" fill="#f7233b" d="M 1844.5,464.5 C 1877.14,516.114 1904.81,570.447 1927.5,627.5C 1926.83,650.167 1926.17,672.833 1925.5,695.5C 1903.69,630.427 1875.69,568.094 1841.5,508.5C 1841.84,493.638 1842.84,478.972 1844.5,464.5 Z"/>
  </g>
  <g transform="matrix(0.21919, 0, 0, 0.224353, 23.868563, 33.064911)" style="">
    <path style="opacity:1" fill="#f7223b" d="M 1818.5,498.5 C 1851.7,552.23 1879.03,608.897 1900.5,668.5C 1899.17,888.833 1899.17,1109.17 1900.5,1329.5C 1879.03,1389.1 1851.7,1445.77 1818.5,1499.5C 1817.17,1165.83 1817.17,832.167 1818.5,498.5 Z"/>
  </g>
  <g transform="matrix(0.21919, 0, 0, 0.224353, 23.868563, 33.064911)" style="">
    <path style="opacity:0.994" fill="#ff9f2e" d="M 129.5,506.5 C 130.662,523.328 130.828,540.328 130,557.5C 128.259,560.309 127.092,563.309 126.5,566.5C 97.4273,626.39 74.094,688.39 56.5,752.5C 56.6666,725.498 56.5,698.498 56,671.5C 55.6174,672.056 55.1174,672.389 54.5,672.5C 74.0956,614.708 99.0956,559.375 129.5,506.5 Z"/>
  </g>
  <g transform="matrix(0.21919, 0, 0, 0.224353, 23.868563, 33.064911)" style="">
    <path style="opacity:0.999" fill="#ff9f2e" d="M 154.5,543.5 C 155.833,694.999 156.5,846.832 156.5,999C 156.5,1151.17 155.833,1303 154.5,1454.5C 123.812,1398.12 99.479,1339.12 81.5,1277.5C 82.6005,1279.28 83.4338,1281.28 84,1283.5C 84.6667,1093.83 84.6667,904.167 84,714.5C 83.6174,715.056 83.1174,715.389 82.5,715.5C 100.849,655.783 124.849,598.449 154.5,543.5 Z"/>
  </g>
  <g transform="matrix(0.21919, 0, 0, 0.224353, 23.868563, 33.064911)" style="">
    <path style="opacity:0.999" fill="#f71e3c" d="M 1927.5,627.5 C 1973.94,743.693 1997.94,864.359 1999.5,989.5C 1999.5,995.833 1999.5,1002.17 1999.5,1008.5C 1997.94,1133.64 1973.94,1254.31 1927.5,1370.5C 1926.83,1347.83 1926.17,1325.17 1925.5,1302.5C 1989.5,1100.17 1989.5,897.833 1925.5,695.5C 1926.17,672.833 1926.83,650.167 1927.5,627.5 Z"/>
  </g>
  <g transform="matrix(0.21919, 0, 0, 0.224353, 23.868563, 33.064911)" style="">
    <path style="opacity:1" fill="#f71e3c" d="M 1900.5,668.5 C 1962.98,842.231 1975.48,1019.56 1938,1200.5C 1928.62,1244.46 1916.12,1287.46 1900.5,1329.5C 1899.17,1109.17 1899.17,888.833 1900.5,668.5 Z"/>
  </g>
  <g transform="matrix(0.21919, 0, 0, 0.224353, 23.868563, 33.064911)" style="">
    <path style="opacity:1" fill="#ffa32e" d="M 56.5,752.5 C 15.1667,916.833 15.1667,1081.17 56.5,1245.5C 56.8312,1273.01 56.4979,1300.34 55.5,1327.5C 19.6704,1224.86 1.00374,1119.19 -0.5,1010.5C -0.5,1002.83 -0.5,995.167 -0.5,987.5C 1.08276,879.675 19.4161,774.675 54.5,672.5C 55.1174,672.389 55.6174,672.056 56,671.5C 56.5,698.498 56.6666,725.498 56.5,752.5 Z"/>
  </g>
  <g transform="matrix(0.21919, 0, 0, 0.224353, 23.868563, 33.064911)" style="">
    <path style="opacity:1" fill="#010000" d="M 957.5,688.5 C 975.891,688.113 994.224,688.946 1012.5,691C 1022.4,691.76 1032.06,693.593 1041.5,696.5C 1069.41,706.361 1097.07,717.027 1124.5,728.5C 1152.18,740.623 1179.84,752.956 1207.5,765.5C 1210.47,766.987 1213.47,768.487 1216.5,770C 1246.17,776.251 1275.5,783.751 1304.5,792.5C 1324.86,799.01 1343.52,808.677 1360.5,821.5C 1370.76,834.769 1377.26,849.769 1380,866.5C 1382.85,886.092 1383.68,905.758 1382.5,925.5C 1379.69,926.97 1376.69,927.803 1373.5,928C 1358.17,928.5 1342.84,928.667 1327.5,928.5C 1326.17,928.5 1324.83,928.5 1323.5,928.5C 1325.03,909.456 1321.53,891.456 1313,874.5C 1310.86,870.538 1308.03,867.204 1304.5,864.5C 1291.27,849.717 1274.6,841.551 1254.5,840C 1237.2,838.408 1221.53,842.574 1207.5,852.5C 1192.53,863.427 1183.36,878.093 1180,896.5C 1179.5,907.495 1179.33,918.495 1179.5,929.5C 1055.17,929.5 930.833,929.5 806.5,929.5C 806.737,928.209 806.404,927.209 805.5,926.5C 806.871,904.284 801.038,884.284 788,866.5C 784.902,862.893 781.402,859.893 777.5,857.5C 764.329,846.441 748.996,841.108 731.5,841.5C 717.766,841.523 705.433,845.523 694.5,853.5C 692.745,854.072 691.078,854.906 689.5,856C 667.075,875.76 657.742,900.593 661.5,930.5C 646.756,931.14 632.256,930.473 618,928.5C 615.958,908.542 615.292,888.542 616,868.5C 620.104,841.315 624.937,814.315 630.5,787.5C 652.173,777.33 673.506,766.664 694.5,755.5C 722.804,742.348 750.804,728.681 778.5,714.5C 789.052,710.225 799.386,705.392 809.5,700C 826.35,696.53 843.35,694.03 860.5,692.5C 892.773,689.8 925.107,688.466 957.5,688.5 Z"/>
  </g>
  <g transform="matrix(0.21919, 0, 0, 0.224353, 23.868563, 33.064911)" style="">
    <path style="opacity:1" fill="#ffa32e" d="M 81.5,1277.5 C 25.2861,1090.18 25.6194,902.843 82.5,715.5C 83.1174,715.389 83.6174,715.056 84,714.5C 84.6667,904.167 84.6667,1093.83 84,1283.5C 83.4338,1281.28 82.6005,1279.28 81.5,1277.5 Z"/>
  </g>
  <g transform="matrix(0.21919, 0, 0, 0.224353, 23.868563, 33.064911)" style="">
    <path style="opacity:1" fill="#f96634" d="M 950.5,779.5 C 950.5,782.833 950.5,786.167 950.5,789.5C 948.167,789.5 945.833,789.5 943.5,789.5C 917.485,788.037 891.485,786.371 865.5,784.5C 864.081,783.549 862.415,783.216 860.5,783.5C 860.5,763.5 860.5,743.5 860.5,723.5C 871.752,719.844 883.419,717.678 895.5,717C 913.152,715.938 930.818,715.438 948.5,715.5C 949.46,736.823 950.126,758.157 950.5,779.5 Z"/>
  </g>
  <g transform="matrix(0.21919, 0, 0, 0.224353, 23.868563, 33.064911)" style="">
    <path style="opacity:1" fill="#f95f35" d="M 1041.5,723.5 C 1041.5,746.833 1041.5,770.167 1041.5,793.5C 1019.5,792.716 997.504,792.049 975.5,791.5C 974.558,765.812 973.224,740.145 971.5,714.5C 981.537,714.287 991.537,714.787 1001.5,716C 1015.09,717.32 1028.43,719.82 1041.5,723.5 Z"/>
  </g>
  <g transform="matrix(0.21919, 0, 0, 0.224353, 23.868563, 33.064911)" style="">
    <path style="opacity:1" fill="#f86a33" d="M 860.5,723.5 C 860.5,743.5 860.5,763.5 860.5,783.5C 862.415,783.216 864.081,783.549 865.5,784.5C 848.525,783.115 831.525,782.115 814.5,781.5C 822.347,761.48 834.014,743.98 849.5,729C 852.642,726.096 856.309,724.262 860.5,723.5 Z"/>
  </g>
  <g transform="matrix(0.21919, 0, 0, 0.224353, 23.868563, 33.064911)" style="">
    <path style="opacity:1" fill="#fa5a35" d="M 1041.5,723.5 C 1070.36,730.894 1098.02,741.227 1124.5,754.5C 1124.5,768.5 1124.5,782.5 1124.5,796.5C 1122.83,796.5 1121.17,796.5 1119.5,796.5C 1093.49,795.611 1067.49,794.611 1041.5,793.5C 1041.5,770.167 1041.5,746.833 1041.5,723.5 Z"/>
  </g>
  <g transform="matrix(0.21919, 0, 0, 0.224353, 23.868563, 33.064911)" style="">
    <path style="opacity:1" fill="#f65436" d="M 1124.5,754.5 C 1145.28,763.471 1164.94,774.304 1183.5,787C 1186.18,788.845 1187.85,791.345 1188.5,794.5C 1188.41,796.425 1187.41,797.592 1185.5,798C 1182.09,799.028 1178.59,799.528 1175,799.5C 1156.35,798.255 1137.85,797.255 1119.5,796.5C 1121.17,796.5 1122.83,796.5 1124.5,796.5C 1124.5,782.5 1124.5,768.5 1124.5,754.5 Z"/>
  </g>
  <g transform="matrix(0.21919, 0, 0, 0.224353, 23.868563, 33.064911)" style="">
    <path style="opacity:1" fill="#662a15" d="M 950.5,779.5 C 951.482,782.962 951.815,786.629 951.5,790.5C 948.615,790.806 945.948,790.473 943.5,789.5C 945.833,789.5 948.167,789.5 950.5,789.5C 950.5,786.167 950.5,782.833 950.5,779.5 Z"/>
  </g>
  <g transform="matrix(0.21919, 0, 0, 0.224353, 23.868563, 33.064911)" style="">
    <path style="opacity:1" fill="#f34b35" d="M 1304.5,864.5 C 1304.5,872.167 1304.5,879.833 1304.5,887.5C 1288.86,860.522 1265.53,850.022 1234.5,856C 1224.2,859.477 1215.2,864.977 1207.5,872.5C 1207.5,865.833 1207.5,859.167 1207.5,852.5C 1221.53,842.574 1237.2,838.408 1254.5,840C 1274.6,841.551 1291.27,849.717 1304.5,864.5 Z"/>
  </g>
  <g transform="matrix(0.21919, 0, 0, 0.224353, 23.868563, 33.064911)" style="">
    <path style="opacity:1" fill="#f57032" d="M 777.5,857.5 C 777.5,862.833 777.5,868.167 777.5,873.5C 755.608,852.602 730.942,848.769 703.5,862C 700.471,864.176 697.471,866.343 694.5,868.5C 694.5,863.5 694.5,858.5 694.5,853.5C 705.433,845.523 717.766,841.523 731.5,841.5C 748.996,841.108 764.329,846.441 777.5,857.5 Z"/>
  </g>
  <g transform="matrix(0.21919, 0, 0, 0.224353, 23.868563, 33.064911)" style="">
    <path style="opacity:1" fill="#f95436" d="M 1207.5,852.5 C 1207.5,859.167 1207.5,865.833 1207.5,872.5C 1185.97,900.007 1186.31,927.34 1208.5,954.5C 1207.5,982.995 1207.17,1011.66 1207.5,1040.5C 1218.35,1040.17 1229.01,1040.51 1239.5,1041.5C 1184.83,1041.5 1130.17,1041.5 1075.5,1041.5C 1091.66,1040.5 1107.99,1040.17 1124.5,1040.5C 1124.5,1003.83 1124.5,967.167 1124.5,930.5C 1143.01,930.83 1161.34,930.497 1179.5,929.5C 1179.33,918.495 1179.5,907.495 1180,896.5C 1183.36,878.093 1192.53,863.427 1207.5,852.5 Z"/>
  </g>
  <g transform="matrix(0.21919, 0, 0, 0.224353, 23.868563, 33.064911)" style="">
    <path style="opacity:1" fill="#020000" d="M 777.5,873.5 C 797.709,900.364 797.376,927.031 776.5,953.5C 758.032,970.615 736.699,975.449 712.5,968C 706.012,965.259 700.012,961.759 694.5,957.5C 690.836,953.668 687.336,949.668 684,945.5C 668.301,916.934 671.801,891.268 694.5,868.5C 697.471,866.343 700.471,864.176 703.5,862C 730.942,848.769 755.608,852.602 777.5,873.5 Z"/>
  </g>
  <g transform="matrix(0.21919, 0, 0, 0.224353, 23.868563, 33.064911)" style="">
    <path style="opacity:1" fill="#020000" d="M 1304.5,887.5 C 1311.17,904.155 1311.17,920.821 1304.5,937.5C 1288.43,965.697 1264.43,976.197 1232.5,969C 1223.67,965.425 1215.67,960.592 1208.5,954.5C 1186.31,927.34 1185.97,900.007 1207.5,872.5C 1215.2,864.977 1224.2,859.477 1234.5,856C 1265.53,850.022 1288.86,860.522 1304.5,887.5 Z"/>
  </g>
  <g transform="matrix(0.21919, 0, 0, 0.224353, 23.868563, 33.064911)" style="">
    <path style="opacity:1" fill="#fb6d33" d="M 777.5,857.5 C 781.402,859.893 784.902,862.893 788,866.5C 801.038,884.284 806.871,904.284 805.5,926.5C 805.5,927.833 805.5,929.167 805.5,930.5C 823.833,930.5 842.167,930.5 860.5,930.5C 860.5,968.167 860.5,1005.83 860.5,1043.5C 822.181,1062.02 799.014,1092.35 791,1134.5C 784.523,1167.49 786.856,1199.83 798,1231.5C 810.487,1261.48 831.32,1283.48 860.5,1297.5C 860.168,1514.57 860.501,1731.57 861.5,1948.5C 833.181,1944.67 805.181,1939.34 777.5,1932.5C 777.833,1606 777.5,1279.67 776.5,953.5C 797.376,927.031 797.709,900.364 777.5,873.5C 777.5,868.167 777.5,862.833 777.5,857.5 Z"/>
  </g>
  <g transform="matrix(0.21919, 0, 0, 0.224353, 23.868563, 33.064911)" style="">
    <path style="opacity:1" fill="#f94837" d="M 1304.5,864.5 C 1308.03,867.204 1310.86,870.538 1313,874.5C 1321.53,891.456 1325.03,909.456 1323.5,928.5C 1324.83,928.5 1326.17,928.5 1327.5,928.5C 1338.32,929.495 1349.32,929.828 1360.5,929.5C 1360.5,966.5 1360.5,1003.5 1360.5,1040.5C 1355.31,1040.18 1350.31,1040.51 1345.5,1041.5C 1345.5,1060.83 1345.5,1080.17 1345.5,1099.5C 1354.17,1099.5 1362.83,1099.5 1371.5,1099.5C 1371.5,1148.5 1371.5,1197.5 1371.5,1246.5C 1362.83,1246.5 1354.17,1246.5 1345.5,1246.5C 1345.5,1265.83 1345.5,1285.17 1345.5,1304.5C 1350.31,1305.49 1355.31,1305.82 1360.5,1305.5C 1360.5,1499.83 1360.5,1694.17 1360.5,1888.5C 1343.39,1895.39 1326.05,1901.72 1308.5,1907.5C 1307.17,1907.5 1305.83,1907.5 1304.5,1907.5C 1304.5,1706.83 1304.5,1506.17 1304.5,1305.5C 1311.17,1305.5 1317.83,1305.5 1324.5,1305.5C 1324.83,1285.66 1324.5,1265.99 1323.5,1246.5C 1314.65,1246.83 1305.98,1246.49 1297.5,1245.5C 1299.83,1245.5 1302.17,1245.5 1304.5,1245.5C 1304.5,1142.83 1304.5,1040.17 1304.5,937.5C 1311.17,920.821 1311.17,904.155 1304.5,887.5C 1304.5,879.833 1304.5,872.167 1304.5,864.5 Z"/>
  </g>
  <g transform="matrix(0.21919, 0, 0, 0.224353, 23.868563, 33.064911)" style="">
    <path style="opacity:1" fill="#f87132" d="M 728.5,887.5 C 744.056,886.567 753.89,893.567 758,908.5C 758.097,929.029 747.93,938.529 727.5,937C 713.042,931.924 706.875,921.757 709,906.5C 712.112,896.553 718.612,890.219 728.5,887.5 Z"/>
  </g>
  <g transform="matrix(0.21919, 0, 0, 0.224353, 23.868563, 33.064911)" style="">
    <path style="opacity:1" fill="#f64d36" d="M 1245.5,887.5 C 1266.51,887.346 1276.35,897.679 1275,918.5C 1269.92,932.958 1259.76,939.125 1244.5,937C 1230.87,931.925 1224.71,922.091 1226,907.5C 1229.35,897.65 1235.85,890.983 1245.5,887.5 Z"/>
  </g>
  <g transform="matrix(0.21919, 0, 0, 0.224353, 23.868563, 33.064911)" style="">
    <path style="opacity:1" fill="#552211" d="M 805.5,926.5 C 806.404,927.209 806.737,928.209 806.5,929.5C 930.833,929.5 1055.17,929.5 1179.5,929.5C 1161.34,930.497 1143.01,930.83 1124.5,930.5C 1096.83,930.5 1069.17,930.5 1041.5,930.5C 1013.5,930.5 985.5,930.5 957.5,930.5C 925.167,930.5 892.833,930.5 860.5,930.5C 842.167,930.5 823.833,930.5 805.5,930.5C 805.5,929.167 805.5,927.833 805.5,926.5 Z"/>
  </g>
  <g transform="matrix(0.21919, 0, 0, 0.224353, 23.868563, 33.064911)" style="">
    <path style="opacity:1" fill="#fa6634" d="M 860.5,930.5 C 892.833,930.5 925.167,930.5 957.5,930.5C 957.5,973.5 957.5,1016.5 957.5,1059.5C 939.028,1040.18 916.361,1032.68 889.5,1037C 879.704,1038.66 870.037,1040.82 860.5,1043.5C 860.5,1005.83 860.5,968.167 860.5,930.5 Z"/>
  </g>
  <g transform="matrix(0.21919, 0, 0, 0.224353, 23.868563, 33.064911)" style="">
    <path style="opacity:1" fill="#fa6035" d="M 957.5,930.5 C 985.5,930.5 1013.5,930.5 1041.5,930.5C 1041.5,1035.5 1041.5,1140.5 1041.5,1245.5C 1040.21,1245.26 1039.21,1245.6 1038.5,1246.5C 1038.5,1265.83 1038.5,1285.17 1038.5,1304.5C 1077.17,1304.5 1115.83,1304.5 1154.5,1304.5C 1144.68,1305.49 1134.68,1305.83 1124.5,1305.5C 1096.83,1305.5 1069.17,1305.5 1041.5,1305.5C 1041.5,1522.5 1041.5,1739.5 1041.5,1956.5C 1039.26,1956.21 1037.26,1956.54 1035.5,1957.5C 1010.18,1958.79 984.849,1958.79 959.5,1957.5C 958.169,1849.21 957.502,1740.71 957.5,1632C 957.501,1523.43 957.834,1414.93 958.5,1306.5C 978.381,1304.04 997.047,1297.87 1014.5,1288C 1015.83,1264.23 1015.83,1240.4 1014.5,1216.5C 1013.5,1215.83 1012.5,1215.17 1011.5,1214.5C 994.939,1225.12 976.939,1231.78 957.5,1234.5C 957.168,1193 957.501,1151.66 958.5,1110.5C 966.658,1122.14 969.658,1135.14 967.5,1149.5C 985.167,1149.5 1002.83,1149.5 1020.5,1149.5C 1020.5,1113.5 1020.5,1077.5 1020.5,1041.5C 1003.17,1041.5 985.833,1041.5 968.5,1041.5C 966.986,1049.56 965.153,1057.56 963,1065.5C 962.333,1066.83 961.667,1066.83 961,1065.5C 959.606,1063.61 958.44,1061.61 957.5,1059.5C 957.5,1016.5 957.5,973.5 957.5,930.5 Z"/>
  </g>
  <g transform="matrix(0.21919, 0, 0, 0.224353, 23.868563, 33.064911)" style="">
    <path style="opacity:1" fill="#fa5a35" d="M 1041.5,930.5 C 1069.17,930.5 1096.83,930.5 1124.5,930.5C 1124.5,967.167 1124.5,1003.83 1124.5,1040.5C 1107.99,1040.17 1091.66,1040.5 1075.5,1041.5C 1075.5,1060.83 1075.5,1080.17 1075.5,1099.5C 1086.83,1099.5 1098.17,1099.5 1109.5,1099.5C 1094.58,1147.77 1079.74,1196.11 1065,1244.5C 1056.43,1246.45 1047.6,1247.12 1038.5,1246.5C 1039.21,1245.6 1040.21,1245.26 1041.5,1245.5C 1041.5,1140.5 1041.5,1035.5 1041.5,930.5 Z"/>
  </g>
  <g transform="matrix(0.21919, 0, 0, 0.224353, 23.868563, 33.064911)" style="">
    <path style="opacity:1" fill="#f94c37" d="M 1304.5,937.5 C 1304.5,1040.17 1304.5,1142.83 1304.5,1245.5C 1302.17,1245.5 1299.83,1245.5 1297.5,1245.5C 1278.15,1177.44 1258.82,1109.44 1239.5,1041.5C 1229.01,1040.51 1218.35,1040.17 1207.5,1040.5C 1207.17,1011.66 1207.5,982.995 1208.5,954.5C 1215.67,960.592 1223.67,965.425 1232.5,969C 1264.43,976.197 1288.43,965.697 1304.5,937.5 Z"/>
  </g>
  <g transform="matrix(0.21919, 0, 0, 0.224353, 23.868563, 33.064911)" style="">
    <path style="opacity:1" fill="#fb7333" d="M 776.5,953.5 C 777.5,1279.67 777.833,1606 777.5,1932.5C 748.964,1926.32 720.964,1918.32 693.5,1908.5C 694.499,1677.9 694.832,1447.24 694.5,1216.5C 720.005,1216.83 745.339,1216.5 770.5,1215.5C 771.496,1199.34 771.83,1183.01 771.5,1166.5C 733.5,1166.5 695.5,1166.5 657.5,1166.5C 669.655,1165.5 681.989,1165.17 694.5,1165.5C 694.5,1096.17 694.5,1026.83 694.5,957.5C 700.012,961.759 706.012,965.259 712.5,968C 736.699,975.449 758.032,970.615 776.5,953.5 Z"/>
  </g>
  <g transform="matrix(0.21919, 0, 0, 0.224353, 23.868563, 33.064911)" style="">
    <path style="opacity:1" fill="#010000" d="M 957.5,1059.5 C 958.44,1061.61 959.606,1063.61 961,1065.5C 961.667,1066.83 962.333,1066.83 963,1065.5C 965.153,1057.56 966.986,1049.56 968.5,1041.5C 985.833,1041.5 1003.17,1041.5 1020.5,1041.5C 1020.5,1077.5 1020.5,1113.5 1020.5,1149.5C 1002.83,1149.5 985.167,1149.5 967.5,1149.5C 969.658,1135.14 966.658,1122.14 958.5,1110.5C 954.001,1103.57 947.667,1099.07 939.5,1097C 922.51,1094.08 909.01,1099.58 899,1113.5C 881.683,1141.24 878.683,1170.57 890,1201.5C 904.37,1228.6 926.87,1239.6 957.5,1234.5C 976.939,1231.78 994.939,1225.12 1011.5,1214.5C 1012.5,1215.17 1013.5,1215.83 1014.5,1216.5C 1015.83,1240.4 1015.83,1264.23 1014.5,1288C 997.047,1297.87 978.381,1304.04 958.5,1306.5C 924.922,1312.75 892.255,1309.75 860.5,1297.5C 831.32,1283.48 810.487,1261.48 798,1231.5C 786.856,1199.83 784.523,1167.49 791,1134.5C 799.014,1092.35 822.181,1062.02 860.5,1043.5C 870.037,1040.82 879.704,1038.66 889.5,1037C 916.361,1032.68 939.028,1040.18 957.5,1059.5 Z"/>
  </g>
  <g transform="matrix(0.21919, 0, 0, 0.224353, 23.868563, 33.064911)" style="">
    <path style="opacity:1" fill="#000000" d="M 378.5,1041.5 C 426.167,1041.5 473.833,1041.5 521.5,1041.5C 521.5,1060.83 521.5,1080.17 521.5,1099.5C 513.5,1099.5 505.5,1099.5 497.5,1099.5C 497.168,1138.67 497.501,1177.67 498.5,1216.5C 498.761,1226.79 502.761,1235.29 510.5,1242C 511.745,1242.79 513.078,1243.29 514.5,1243.5C 519.087,1246.61 524.254,1247.94 530,1247.5C 545.303,1247.84 555.303,1240.84 560,1226.5C 561.467,1184.2 561.967,1141.87 561.5,1099.5C 552.5,1099.5 543.5,1099.5 534.5,1099.5C 534.5,1080.17 534.5,1060.83 534.5,1041.5C 570.5,1041.5 606.5,1041.5 642.5,1041.5C 642.5,1060.83 642.5,1080.17 642.5,1099.5C 633.833,1099.5 625.167,1099.5 616.5,1099.5C 616.667,1142.17 616.5,1184.83 616,1227.5C 615.113,1236.38 613.28,1245.05 610.5,1253.5C 599.833,1280.33 580.5,1297.5 552.5,1305C 539.964,1307.74 527.298,1309.24 514.5,1309.5C 504.79,1309.41 495.123,1308.74 485.5,1307.5C 463.973,1303.9 445.64,1294.24 430.5,1278.5C 412.919,1253.41 404.586,1225.41 405.5,1194.5C 405.5,1162.83 405.5,1131.17 405.5,1099.5C 396.5,1099.5 387.5,1099.5 378.5,1099.5C 378.5,1080.17 378.5,1060.83 378.5,1041.5 Z"/>
  </g>
  <g transform="matrix(0.21919, 0, 0, 0.224353, 23.868563, 33.064911)" style="">
    <path style="opacity:1" fill="#000000" d="M 1075.5,1041.5 C 1130.17,1041.5 1184.83,1041.5 1239.5,1041.5C 1258.82,1109.44 1278.15,1177.44 1297.5,1245.5C 1305.98,1246.49 1314.65,1246.83 1323.5,1246.5C 1323.5,1265.83 1323.5,1285.17 1323.5,1304.5C 1274.17,1304.5 1224.83,1304.5 1175.5,1304.5C 1175.5,1285.17 1175.5,1265.83 1175.5,1246.5C 1182.86,1246.83 1190.2,1246.5 1197.5,1245.5C 1195.17,1236.83 1192.83,1228.17 1190.5,1219.5C 1170.51,1218.33 1150.51,1218.17 1130.5,1219C 1127.46,1227.98 1125.13,1237.15 1123.5,1246.5C 1133.83,1246.5 1144.17,1246.5 1154.5,1246.5C 1154.5,1265.83 1154.5,1285.17 1154.5,1304.5C 1115.83,1304.5 1077.17,1304.5 1038.5,1304.5C 1038.5,1285.17 1038.5,1265.83 1038.5,1246.5C 1047.6,1247.12 1056.43,1246.45 1065,1244.5C 1079.74,1196.11 1094.58,1147.77 1109.5,1099.5C 1098.17,1099.5 1086.83,1099.5 1075.5,1099.5C 1075.5,1080.17 1075.5,1060.83 1075.5,1041.5 Z"/>
  </g>
  <g transform="matrix(0.21919, 0, 0, 0.224353, 23.868563, 33.064911)" style="">
    <path style="opacity:1" fill="#000000" d="M 1345.5,1041.5 C 1402.5,1041.5 1459.5,1041.5 1516.5,1041.5C 1529.36,1041.86 1542.03,1043.52 1554.5,1046.5C 1576.54,1054.39 1589.37,1070.06 1593,1093.5C 1600.22,1136.94 1582.39,1162.77 1539.5,1171C 1563.8,1174.63 1578.3,1188.47 1583,1212.5C 1583.5,1223.49 1583.67,1234.49 1583.5,1245.5C 1595.83,1245.5 1608.17,1245.5 1620.5,1245.5C 1620.5,1265.17 1620.5,1284.83 1620.5,1304.5C 1598.5,1304.5 1576.5,1304.5 1554.5,1304.5C 1546.04,1304.16 1537.71,1302.99 1529.5,1301C 1520.36,1296.18 1514.53,1288.68 1512,1278.5C 1508.59,1259.34 1506.93,1240 1507,1220.5C 1506.56,1203.57 1498.06,1194.24 1481.5,1192.5C 1473.35,1191.51 1465.02,1191.17 1456.5,1191.5C 1456.5,1209.83 1456.5,1228.17 1456.5,1246.5C 1465.17,1246.5 1473.83,1246.5 1482.5,1246.5C 1482.5,1265.83 1482.5,1285.17 1482.5,1304.5C 1436.83,1304.5 1391.17,1304.5 1345.5,1304.5C 1345.5,1285.17 1345.5,1265.83 1345.5,1246.5C 1354.17,1246.5 1362.83,1246.5 1371.5,1246.5C 1371.5,1197.5 1371.5,1148.5 1371.5,1099.5C 1362.83,1099.5 1354.17,1099.5 1345.5,1099.5C 1345.5,1080.17 1345.5,1060.83 1345.5,1041.5 Z"/>
  </g>
  <g transform="matrix(0.21919, 0, 0, 0.224353, 23.868563, 33.064911)" style="">
    <path style="opacity:1" fill="#f96534" d="M 958.5,1110.5 C 957.501,1151.66 957.168,1193 957.5,1234.5C 926.87,1239.6 904.37,1228.6 890,1201.5C 878.683,1170.57 881.683,1141.24 899,1113.5C 909.01,1099.58 922.51,1094.08 939.5,1097C 947.667,1099.07 954.001,1103.57 958.5,1110.5 Z"/>
  </g>
  <g transform="matrix(0.21919, 0, 0, 0.224353, 23.868563, 33.064911)" style="">
    <path style="opacity:1" fill="#f45335" d="M 1181.5,1176.5 C 1167.68,1177.5 1153.68,1177.83 1139.5,1177.5C 1146.82,1151.03 1154.66,1124.7 1163,1098.5C 1169.79,1124.34 1175.96,1150.34 1181.5,1176.5 Z"/>
  </g>
  <g transform="matrix(0.21919, 0, 0, 0.224353, 23.868563, 33.064911)" style="">
    <path style="opacity:1" fill="#bd5e25" d="M 378.5,1099.5 C 387.5,1099.5 396.5,1099.5 405.5,1099.5C 405.5,1131.17 405.5,1162.83 405.5,1194.5C 404.502,1163.34 404.168,1132 404.5,1100.5C 395.651,1100.83 386.984,1100.49 378.5,1099.5 Z"/>
  </g>
  <g transform="matrix(0.21919, 0, 0, 0.224353, 23.868563, 33.064911)" style="">
    <path style="opacity:1" fill="#b15a23" d="M 521.5,1041.5 C 521.833,1041.5 522.167,1041.5 522.5,1041.5C 522.5,1061.17 522.5,1080.83 522.5,1100.5C 519.833,1100.5 517.167,1100.5 514.5,1100.5C 509.167,1100.5 503.833,1100.5 498.5,1100.5C 498.5,1139.17 498.5,1177.83 498.5,1216.5C 497.501,1177.67 497.168,1138.67 497.5,1099.5C 505.5,1099.5 513.5,1099.5 521.5,1099.5C 521.5,1080.17 521.5,1060.83 521.5,1041.5 Z"/>
  </g>
  <g transform="matrix(0.21919, 0, 0, 0.224353, 23.868563, 33.064911)" style="">
    <path style="opacity:1" fill="#fc8331" d="M 514.5,1100.5 C 514.5,1148.17 514.5,1195.83 514.5,1243.5C 513.078,1243.29 511.745,1242.79 510.5,1242C 502.761,1235.29 498.761,1226.79 498.5,1216.5C 498.5,1177.83 498.5,1139.17 498.5,1100.5C 503.833,1100.5 509.167,1100.5 514.5,1100.5 Z"/>
  </g>
  <g transform="matrix(0.21919, 0, 0, 0.224353, 23.868563, 33.064911)" style="">
    <path style="opacity:1" fill="#f63d38" d="M 1456.5,1099.5 C 1467.17,1099.33 1477.84,1099.5 1488.5,1100C 1512.94,1105.03 1520.44,1119.2 1511,1142.5C 1505.31,1149.6 1497.81,1153.43 1488.5,1154C 1477.84,1154.5 1467.17,1154.67 1456.5,1154.5C 1456.5,1136.17 1456.5,1117.83 1456.5,1099.5 Z"/>
  </g>
  <g transform="matrix(0.21919, 0, 0, 0.224353, 23.868563, 33.064911)" style="">
    <path style="opacity:1" fill="#010000" d="M 657.5,1166.5 C 695.5,1166.5 733.5,1166.5 771.5,1166.5C 771.83,1183.01 771.496,1199.34 770.5,1215.5C 732.833,1215.5 695.167,1215.5 657.5,1215.5C 657.5,1199.17 657.5,1182.83 657.5,1166.5 Z"/>
  </g>
  <g transform="matrix(0.21919, 0, 0, 0.224353, 23.868563, 33.064911)" style="">
    <path style="opacity:1" fill="#b94028" d="M 1181.5,1176.5 C 1182.04,1176.56 1182.38,1176.89 1182.5,1177.5C 1168.01,1178.83 1153.67,1178.83 1139.5,1177.5C 1153.68,1177.83 1167.68,1177.5 1181.5,1176.5 Z"/>
  </g>
  <g transform="matrix(0.21919, 0, 0, 0.224353, 23.868563, 33.064911)" style="">
    <path style="opacity:1" fill="#d93a30" d="M 1481.5,1192.5 C 1473.5,1192.5 1465.5,1192.5 1457.5,1192.5C 1457.5,1210.17 1457.5,1227.83 1457.5,1245.5C 1466.02,1245.17 1474.35,1245.51 1482.5,1246.5C 1473.83,1246.5 1465.17,1246.5 1456.5,1246.5C 1456.5,1228.17 1456.5,1209.83 1456.5,1191.5C 1465.02,1191.17 1473.35,1191.51 1481.5,1192.5 Z"/>
  </g>
  <g transform="matrix(0.21919, 0, 0, 0.224353, 23.868563, 33.064911)" style="">
    <path style="opacity:1" fill="#f83b39" d="M 1481.5,1192.5 C 1498.06,1194.24 1506.56,1203.57 1507,1220.5C 1506.93,1240 1508.59,1259.34 1512,1278.5C 1514.53,1288.68 1520.36,1296.18 1529.5,1301C 1537.71,1302.99 1546.04,1304.16 1554.5,1304.5C 1554.5,1463.5 1554.5,1622.5 1554.5,1781.5C 1528.06,1800.9 1500.39,1818.57 1471.5,1834.5C 1470.5,1658.24 1470.17,1481.9 1470.5,1305.5C 1474.83,1305.5 1479.17,1305.5 1483.5,1305.5C 1483.83,1285.66 1483.5,1265.99 1482.5,1246.5C 1474.35,1245.51 1466.02,1245.17 1457.5,1245.5C 1457.5,1227.83 1457.5,1210.17 1457.5,1192.5C 1465.5,1192.5 1473.5,1192.5 1481.5,1192.5 Z"/>
  </g>
  <g transform="matrix(0.21919, 0, 0, 0.224353, 23.868563, 33.064911)" style="">
    <path style="opacity:1" fill="#f95436" d="M 1175.5,1304.5 C 1185.99,1305.49 1196.65,1305.83 1207.5,1305.5C 1206.84,1515.71 1207.5,1725.71 1209.5,1935.5C 1181.42,1941.9 1153.09,1946.9 1124.5,1950.5C 1124.5,1735.5 1124.5,1520.5 1124.5,1305.5C 1134.68,1305.83 1144.68,1305.49 1154.5,1304.5C 1154.5,1285.17 1154.5,1265.83 1154.5,1246.5C 1144.17,1246.5 1133.83,1246.5 1123.5,1246.5C 1125.13,1237.15 1127.46,1227.98 1130.5,1219C 1150.51,1218.17 1170.51,1218.33 1190.5,1219.5C 1192.83,1228.17 1195.17,1236.83 1197.5,1245.5C 1190.2,1246.5 1182.86,1246.83 1175.5,1246.5C 1175.5,1265.83 1175.5,1285.17 1175.5,1304.5 Z"/>
  </g>
  <g transform="matrix(0.21919, 0, 0, 0.224353, 23.868563, 33.064911)" style="">
    <path style="opacity:0.994" fill="#ff9f2e" d="M 56.5,1245.5 C 74.2322,1310.36 97.8989,1373.02 127.5,1433.5C 127.755,1436.02 128.589,1438.35 130,1440.5C 130.828,1457.67 130.662,1474.67 129.5,1491.5C 99.4017,1439.3 74.7351,1384.64 55.5,1327.5C 56.4979,1300.34 56.8312,1273.01 56.5,1245.5 Z"/>
  </g>
  <g transform="matrix(0.21919, 0, 0, 0.224353, 23.868563, 33.064911)" style="">
    <path style="opacity:1" fill="#fc7f31" d="M 610.5,1253.5 C 611.5,1461 611.833,1668.67 611.5,1876.5C 577.673,1861.92 545.007,1845.25 513.5,1826.5C 514.499,1654.24 514.832,1481.9 514.5,1309.5C 527.298,1309.24 539.964,1307.74 552.5,1305C 580.5,1297.5 599.833,1280.33 610.5,1253.5 Z"/>
  </g>
  <g transform="matrix(0.21919, 0, 0, 0.224353, 23.868563, 33.064911)" style="">
    <path style="opacity:1" fill="#fc8730" d="M 430.5,1278.5 C 445.64,1294.24 463.973,1303.9 485.5,1307.5C 485.5,1474.83 485.5,1642.17 485.5,1809.5C 466.593,1797.58 448.26,1784.91 430.5,1771.5C 430.5,1607.17 430.5,1442.83 430.5,1278.5 Z"/>
  </g>
  <g transform="matrix(0.21919, 0, 0, 0.224353, 23.868563, 33.064911)" style="">
    <path style="opacity:1" fill="#fb6734" d="M 860.5,1297.5 C 892.255,1309.75 924.922,1312.75 958.5,1306.5C 957.834,1414.93 957.501,1523.43 957.5,1632C 957.502,1740.71 958.169,1849.21 959.5,1957.5C 926.632,1956.48 893.965,1953.48 861.5,1948.5C 860.501,1731.57 860.168,1514.57 860.5,1297.5 Z"/>
  </g>
  <g transform="matrix(0.21919, 0, 0, 0.224353, 23.868563, 33.064911)" style="">
    <path style="opacity:0.994" fill="#f7233b" d="M 1925.5,1302.5 C 1926.17,1325.17 1926.83,1347.83 1927.5,1370.5C 1904.81,1427.55 1877.14,1481.89 1844.5,1533.5C 1842.84,1519.03 1841.84,1504.36 1841.5,1489.5C 1875.69,1429.91 1903.69,1367.57 1925.5,1302.5 Z"/>
  </g>
  <g transform="matrix(0.21919, 0, 0, 0.224353, 23.868563, 33.064911)" style="">
    <path style="opacity:1" fill="#ca3c2c" d="M 1323.5,1246.5 C 1324.5,1265.99 1324.83,1285.66 1324.5,1305.5C 1317.83,1305.5 1311.17,1305.5 1304.5,1305.5C 1272.17,1305.5 1239.83,1305.5 1207.5,1305.5C 1196.65,1305.83 1185.99,1305.49 1175.5,1304.5C 1224.83,1304.5 1274.17,1304.5 1323.5,1304.5C 1323.5,1285.17 1323.5,1265.83 1323.5,1246.5 Z"/>
  </g>
  <g transform="matrix(0.21919, 0, 0, 0.224353, 23.868563, 33.064911)" style="">
    <path style="opacity:1" fill="#c8342d" d="M 1482.5,1246.5 C 1483.5,1265.99 1483.83,1285.66 1483.5,1305.5C 1479.17,1305.5 1474.83,1305.5 1470.5,1305.5C 1442.83,1305.5 1415.17,1305.5 1387.5,1305.5C 1378.5,1305.5 1369.5,1305.5 1360.5,1305.5C 1355.31,1305.82 1350.31,1305.49 1345.5,1304.5C 1391.17,1304.5 1436.83,1304.5 1482.5,1304.5C 1482.5,1285.17 1482.5,1265.83 1482.5,1246.5 Z"/>
  </g>
  <g transform="matrix(0.21919, 0, 0, 0.224353, 23.868563, 33.064911)" style="">
    <path style="opacity:1" fill="#fa5a35" d="M 1124.5,1305.5 C 1124.5,1520.5 1124.5,1735.5 1124.5,1950.5C 1094.98,1954.51 1065.31,1956.85 1035.5,1957.5C 1037.26,1956.54 1039.26,1956.21 1041.5,1956.5C 1041.5,1739.5 1041.5,1522.5 1041.5,1305.5C 1069.17,1305.5 1096.83,1305.5 1124.5,1305.5 Z"/>
  </g>
  <g transform="matrix(0.21919, 0, 0, 0.224353, 23.868563, 33.064911)" style="">
    <path style="opacity:1" fill="#fa4e37" d="M 1207.5,1305.5 C 1239.83,1305.5 1272.17,1305.5 1304.5,1305.5C 1304.5,1506.17 1304.5,1706.83 1304.5,1907.5C 1305.83,1907.5 1307.17,1907.5 1308.5,1907.5C 1276.17,1918.83 1243.17,1928.17 1209.5,1935.5C 1207.5,1725.71 1206.84,1515.71 1207.5,1305.5 Z"/>
  </g>
  <g transform="matrix(0.21919, 0, 0, 0.224353, 23.868563, 33.064911)" style="">
    <path style="opacity:1" fill="#f94537" d="M 1360.5,1305.5 C 1369.5,1305.5 1378.5,1305.5 1387.5,1305.5C 1387.17,1495.9 1387.5,1686.24 1388.5,1876.5C 1379.25,1880.69 1369.92,1884.69 1360.5,1888.5C 1360.5,1694.17 1360.5,1499.83 1360.5,1305.5 Z"/>
  </g>
  <g transform="matrix(0.21919, 0, 0, 0.224353, 23.868563, 33.064911)" style="">
    <path style="opacity:1" fill="#f94138" d="M 1387.5,1305.5 C 1415.17,1305.5 1442.83,1305.5 1470.5,1305.5C 1470.17,1481.9 1470.5,1658.24 1471.5,1834.5C 1444.58,1849.79 1416.92,1863.79 1388.5,1876.5C 1387.5,1686.24 1387.17,1495.9 1387.5,1305.5 Z"/>
  </g>
  <g transform="matrix(0.21919, 0, 0, 0.224353, 23.868563, 33.064911)" style="">
    <path style="opacity:1" fill="#fc8431" d="M 485.5,1307.5 C 495.123,1308.74 504.79,1309.41 514.5,1309.5C 514.832,1481.9 514.499,1654.24 513.5,1826.5C 504.167,1820.83 494.833,1815.17 485.5,1809.5C 485.5,1642.17 485.5,1474.83 485.5,1307.5 Z"/>
  </g>
  <g transform="matrix(0.21919, 0, 0, 0.224353, 23.868563, 33.064911)" style="">
    <path style="opacity:0.991" fill="#fe982f" d="M 127.5,1433.5 C 160.17,1497.54 198.837,1557.54 243.5,1613.5C 242.833,1625.83 242.167,1638.17 241.5,1650.5C 198.754,1601.4 161.421,1548.4 129.5,1491.5C 130.662,1474.67 130.828,1457.67 130,1440.5C 128.589,1438.35 127.755,1436.02 127.5,1433.5 Z"/>
  </g>
  <g transform="matrix(0.21919, 0, 0, 0.224353, 23.868563, 33.064911)" style="">
    <path style="opacity:0.995" fill="#f8293b" d="M 1841.5,1489.5 C 1841.84,1504.36 1842.84,1519.03 1844.5,1533.5C 1818.17,1574.5 1789.17,1613.5 1757.5,1650.5C 1756.83,1638.17 1756.17,1625.83 1755.5,1613.5C 1786.93,1574.07 1815.6,1532.74 1841.5,1489.5 Z"/>
  </g>
  <g transform="matrix(0.21919, 0, 0, 0.224353, 23.868563, 33.064911)" style="">
    <path style="opacity:0.995" fill="#fe9230" d="M 243.5,1613.5 C 270,1645.01 298,1675.34 327.5,1704.5C 327.5,1715.83 327.5,1727.17 327.5,1738.5C 296.432,1711.43 267.765,1682.1 241.5,1650.5C 242.167,1638.17 242.833,1625.83 243.5,1613.5 Z"/>
  </g>
  <g transform="matrix(0.21919, 0, 0, 0.224353, 23.868563, 33.064911)" style="">
    <path style="opacity:0.993" fill="#f82f3a" d="M 1755.5,1613.5 C 1756.17,1625.83 1756.83,1638.17 1757.5,1650.5C 1730.9,1682.43 1701.9,1712.1 1670.5,1739.5C 1670.83,1728.32 1670.49,1717.32 1669.5,1706.5C 1699.67,1676.68 1728.33,1645.68 1755.5,1613.5 Z"/>
  </g>
  <g transform="matrix(0.21919, 0, 0, 0.224353, 23.868563, 33.064911)" style="">
    <path style="opacity:0.998" fill="#fd8c30" d="M 327.5,1704.5 C 355.464,1729.79 384.131,1754.13 413.5,1777.5C 413.827,1787.68 413.494,1797.68 412.5,1807.5C 382.712,1786.39 354.379,1763.39 327.5,1738.5C 327.5,1727.17 327.5,1715.83 327.5,1704.5 Z"/>
  </g>
  <g transform="matrix(0.21919, 0, 0, 0.224353, 23.868563, 33.064911)" style="">
    <path style="opacity:0.999" fill="#f83539" d="M 1669.5,1706.5 C 1670.49,1717.32 1670.83,1728.32 1670.5,1739.5C 1639.54,1768.46 1606.54,1794.8 1571.5,1818.5C 1570.83,1808.5 1570.17,1798.5 1569.5,1788.5C 1604.31,1763.03 1637.64,1735.7 1669.5,1706.5 Z"/>
  </g>
  <g transform="matrix(0.21919, 0, 0, 0.224353, 23.868563, 33.064911)" style="">
    <path style="opacity:0.996" fill="#fd8631" d="M 413.5,1777.5 C 441.484,1797.83 470.151,1817.16 499.5,1835.5C 499.827,1845.01 499.494,1854.35 498.5,1863.5C 468.46,1846.82 439.793,1828.16 412.5,1807.5C 413.494,1797.68 413.827,1787.68 413.5,1777.5 Z"/>
  </g>
  <g transform="matrix(0.21919, 0, 0, 0.224353, 23.868563, 33.064911)" style="">
    <path style="opacity:0.997" fill="#f93b39" d="M 1569.5,1788.5 C 1570.17,1798.5 1570.83,1808.5 1571.5,1818.5C 1544.19,1838.44 1515.52,1856.44 1485.5,1872.5C 1485.5,1862.83 1485.5,1853.17 1485.5,1843.5C 1514.15,1826.18 1542.15,1807.84 1569.5,1788.5 Z"/>
  </g>
  <g transform="matrix(0.21919, 0, 0, 0.224353, 23.868563, 33.064911)" style="">
    <path style="opacity:1" fill="#fd7f31" d="M 499.5,1835.5 C 516.26,1844.41 532.926,1853.58 549.5,1863C 566.802,1871.82 584.135,1880.32 601.5,1888.5C 599.845,1896.95 598.845,1905.62 598.5,1914.5C 563.691,1900.1 530.358,1883.1 498.5,1863.5C 499.494,1854.35 499.827,1845.01 499.5,1835.5 Z"/>
  </g>
  <g transform="matrix(0.21919, 0, 0, 0.224353, 23.868563, 33.064911)" style="">
    <path style="opacity:1" fill="#f94138" d="M 1485.5,1843.5 C 1485.5,1853.17 1485.5,1862.83 1485.5,1872.5C 1458.16,1888.34 1429.83,1902.34 1400.5,1914.5C 1399.51,1905.68 1399.17,1896.68 1399.5,1887.5C 1428.72,1873.89 1457.39,1859.22 1485.5,1843.5 Z"/>
  </g>
  <g transform="matrix(0.21919, 0, 0, 0.224353, 23.868563, 33.064911)" style="">
    <path style="opacity:0.996" fill="#fc7932" d="M 601.5,1888.5 C 628.696,1900.34 656.363,1911.01 684.5,1920.5C 684.806,1930.05 685.806,1939.38 687.5,1948.5C 656.988,1939.11 627.322,1927.78 598.5,1914.5C 598.845,1905.62 599.845,1896.95 601.5,1888.5 Z"/>
  </g>
  <g transform="matrix(0.21919, 0, 0, 0.224353, 23.868563, 33.064911)" style="">
    <path style="opacity:1" fill="#f94737" d="M 1399.5,1887.5 C 1399.17,1896.68 1399.51,1905.68 1400.5,1914.5C 1372.2,1927.38 1343.2,1938.72 1313.5,1948.5C 1313.5,1939.5 1313.5,1930.5 1313.5,1921.5C 1342.49,1911.17 1371.15,1899.83 1399.5,1887.5 Z"/>
  </g>
  <g transform="matrix(0.21919, 0, 0, 0.224353, 23.868563, 33.064911)" style="">
    <path style="opacity:0.998" fill="#fa4e37" d="M 1313.5,1921.5 C 1313.5,1930.5 1313.5,1939.5 1313.5,1948.5C 1280.61,1959.13 1247.28,1968.13 1213.5,1975.5C 1213.5,1966.83 1213.5,1958.17 1213.5,1949.5C 1247.22,1941.59 1280.55,1932.26 1313.5,1921.5 Z"/>
  </g>
  <g transform="matrix(0.21919, 0, 0, 0.224353, 23.868563, 33.064911)" style="">
    <path style="opacity:0.998" fill="#fc7333" d="M 684.5,1920.5 C 712.68,1930.45 741.347,1938.78 770.5,1945.5C 770.5,1954.5 770.5,1963.5 770.5,1972.5C 742.345,1965.88 714.678,1957.88 687.5,1948.5C 685.806,1939.38 684.806,1930.05 684.5,1920.5 Z"/>
  </g>
  <g transform="matrix(0.21919, 0, 0, 0.224353, 23.868563, 33.064911)" style="">
    <path style="opacity:0.996" fill="#fc6d33" d="M 770.5,1945.5 C 798.062,1952.15 825.728,1957.81 853.5,1962.5C 854.209,1963.4 855.209,1963.74 856.5,1963.5C 856.802,1971.92 856.469,1980.25 855.5,1988.5C 826.99,1984.14 798.656,1978.8 770.5,1972.5C 770.5,1963.5 770.5,1954.5 770.5,1945.5 Z"/>
  </g>
  <g transform="matrix(0.21919, 0, 0, 0.224353, 23.868563, 33.064911)" style="">
    <path style="opacity:0.997" fill="#fa5436" d="M 1213.5,1949.5 C 1213.5,1958.17 1213.5,1966.83 1213.5,1975.5C 1185.67,1981.58 1157.67,1986.58 1129.5,1990.5C 1128.83,1981.83 1128.17,1973.17 1127.5,1964.5C 1156.36,1960.58 1185.03,1955.58 1213.5,1949.5 Z"/>
  </g>
  <g transform="matrix(0.21919, 0, 0, 0.224353, 23.868563, 33.064911)" style="">
    <path style="opacity:0.993" fill="#fb6734" d="M 853.5,1962.5 C 887.87,1966.97 922.203,1970.3 956.5,1972.5C 956.5,1980.5 956.5,1988.5 956.5,1996.5C 957.791,1996.26 958.791,1996.6 959.5,1997.5C 924.674,1996.3 890.008,1993.3 855.5,1988.5C 856.469,1980.25 856.802,1971.92 856.5,1963.5C 855.209,1963.74 854.209,1963.4 853.5,1962.5 Z"/>
  </g>
  <g transform="matrix(0.21919, 0, 0, 0.224353, 23.868563, 33.064911)" style="">
    <path style="opacity:0.997" fill="#fa5a35" d="M 1127.5,1964.5 C 1128.17,1973.17 1128.83,1981.83 1129.5,1990.5C 1099.61,1994.16 1069.61,1996.49 1039.5,1997.5C 1040.21,1996.6 1041.21,1996.26 1042.5,1996.5C 1042.5,1988.5 1042.5,1980.5 1042.5,1972.5C 1070.78,1970.78 1099.12,1968.11 1127.5,1964.5 Z"/>
  </g>
  <g transform="matrix(0.21919, 0, 0, 0.224353, 23.868563, 33.064911)" style="">
    <path style="opacity:0.994" fill="#fa5f35" d="M 956.5,1972.5 C 985.167,1972.5 1013.83,1972.5 1042.5,1972.5C 1042.5,1980.5 1042.5,1988.5 1042.5,1996.5C 1041.21,1996.26 1040.21,1996.6 1039.5,1997.5C 1036.94,1997.2 1034.61,1997.53 1032.5,1998.5C 1010.5,1998.5 988.5,1998.5 966.5,1998.5C 964.393,1997.53 962.059,1997.2 959.5,1997.5C 958.791,1996.6 957.791,1996.26 956.5,1996.5C 956.5,1988.5 956.5,1980.5 956.5,1972.5 Z"/>
  </g>
</svg>