<?xml version="1.0" encoding="UTF-8"?>
<svg id="Layer_2" data-name="Layer 2" xmlns="http://www.w3.org/2000/svg" viewBox="0 0 369.72 369.72">
  <g id="Layer_1-2" data-name="Layer 1">
    <rect class="cls-2" width="369.72" height="369.72" rx="29.3" ry="29.3" style="stroke-width: 0px;fill: #6b66ae;"></rect>
  </g>
  <g>
    <path class="cls-1" d="m60.92,141.53c0-26.8-.02-53.61.01-80.41.02-12.34,3.89-16.28,16.04-16.33,10.55-.05,21.09-.11,31.64.02,10.05.12,14.74,4.54,14.77,14.42.13,33.39.11,66.79-.09,100.18-.01,2.04-1.72,4.68-3.43,5.98-3.76,2.85-3.35,5.03-.98,8.77,2.31,3.65,4.04,8.18,4.4,12.45,1,12.23.27,24.65,1.87,36.78,3,22.8,22.7,39.55,45.61,39.54,12.73,0,25.5-.36,38.18-1.36,19.43-1.53,36.44-22.07,36.99-44.12.25-10.1-.39-20.24.27-30.3.28-4.2,2.34-8.58,4.58-12.28,2.41-3.99,3.86-6.78-1.35-9.58-1.47-.79-2.84-3.3-2.85-5.03-.16-34.27-.2-68.55-.05-102.82.03-7.74,4.56-12.31,12.39-12.5,12.51-.31,25.05-.33,37.56,0,7.65.2,12.05,4.99,12.06,12.81.04,54.05,1,108.12-.46,162.13-1.12,41.45-22.02,72.44-59.44,90.29-41.08,19.59-83.66,19.7-124.91.91-41.74-19.02-62.46-52.99-62.75-99.02-.15-23.51-.03-47.02-.03-70.52Z" style="fill: #fff;stroke-width: 0px;"></path>
    <path class="cls-1" d="m131.77,103.09c2.68-.15,4.83-.37,6.98-.37,30.73-.02,61.45.09,92.18-.12,5.22-.03,7.28,1.35,7.62,6.87.97,15.75,2.7,31.46,3.9,47.2.64,8.36-.87,10.76-9.16,11-26.95.78-53.92,1.05-80.88,1.24-6.33.04-12.68-.92-19-1.6-4.41-.47-6.9-3.32-6.56-7.59,1.48-18.75,3.24-37.48,4.93-56.63Z" style="fill: #fff;stroke-width: 0px;"></path>
    <path class="cls-1" d="m143.42,245.54c-10.36-4.69-14.52-13.14-12.18-24.04,11.11.94,16.87,11.97,12.18,24.04Z" style="fill: #fff;stroke-width: 0px;"></path>
    <path class="cls-1" d="m238.88,220.89c2.42,11.93-1.97,20.64-12.03,24.46-4.91-10.83-.3-20.58,12.03-24.46Z" style="fill: #fff;stroke-width: 0px;"></path>
  </g>
</svg>